<svg version="1.1" baseProfile="full" width="4400" height="4400" xmlns="http://www.w3.org/2000/svg">
  <g stroke-linejoin="round" stroke-linecap="round">
    <polyline points="2163.922139 2259.108380, 2235.867454 2259.108417, 2163.922159 2224.210638, 2163.922139 2259.108380" stroke="rgb(231,231,231)" fill="transparent" stroke-width="1.000000"/>
    <polygon points="2163.922139 2259.108380, 2235.867454 2259.108417, 2163.922159 2224.210638," fill="rgb(231,231,231)"/>
    <polyline points="2235.867454 2259.108417, 2235.867422 2224.210642, 2163.922159 2224.210638, 2235.867454 2259.108417" stroke="rgb(231,231,231)" fill="transparent" stroke-width="1.000000"/>
    <polygon points="2235.867454 2259.108417, 2235.867422 2224.210642, 2163.922159 2224.210638," fill="rgb(231,231,231)"/>
    <polyline points="2235.599457 2259.106659, 2251.940073 2259.106700, 2235.599441 2220.186882, 2235.599457 2259.106659" stroke="rgb(231,231,231)" fill="transparent" stroke-width="1.000000"/>
    <polygon points="2235.599457 2259.106659, 2251.940073 2259.106700, 2235.599441 2220.186882," fill="rgb(231,231,231)"/>
    <polyline points="2251.940073 2259.106700, 2251.940077 2220.186882, 2235.599441 2220.186882, 2251.940073 2259.106700" stroke="rgb(231,231,231)" fill="transparent" stroke-width="1.000000"/>
    <polygon points="2251.940073 2259.106700, 2251.940077 2220.186882, 2235.599441 2220.186882," fill="rgb(231,231,231)"/>
    <polyline points="2235.586676 2213.991702, 2235.586676 2220.412482, 2237.604659 2213.991702, 2235.586676 2213.991702" stroke="rgb(231,231,231)" fill="transparent" stroke-width="1.000000"/>
    <polygon points="2235.586676 2213.991702, 2235.586676 2220.412482, 2237.604659 2213.991702," fill="rgb(231,231,231)"/>
    <polyline points="2235.586676 2220.412482, 2237.604659 2220.412482, 2237.604659 2213.991702, 2235.586676 2220.412482" stroke="rgb(231,231,231)" fill="transparent" stroke-width="1.000000"/>
    <polygon points="2235.586676 2220.412482, 2237.604659 2220.412482, 2237.604659 2213.991702," fill="rgb(231,231,231)"/>
    <polyline points="2237.604659 2213.991702, 2237.604659 2220.412482, 2241.365859 2213.991702, 2237.604659 2213.991702" stroke="rgb(231,231,231)" fill="transparent" stroke-width="1.000000"/>
    <polygon points="2237.604659 2213.991702, 2237.604659 2220.412482, 2241.365859 2213.991702," fill="rgb(231,231,231)"/>
    <polyline points="2237.604659 2220.412482, 2241.365859 2220.412482, 2241.365859 2213.991702, 2237.604659 2220.412482" stroke="rgb(231,231,231)" fill="transparent" stroke-width="1.000000"/>
    <polygon points="2237.604659 2220.412482, 2241.365859 2220.412482, 2241.365859 2213.991702," fill="rgb(231,231,231)"/>
    <polyline points="2241.365859 2220.412482, 2243.001979 2220.412482, 2241.365859 2213.991702, 2241.365859 2220.412482" stroke="rgb(231,231,231)" fill="transparent" stroke-width="1.000000"/>
    <polygon points="2241.365859 2220.412482, 2243.001979 2220.412482, 2241.365859 2213.991702," fill="rgb(231,231,231)"/>
    <polyline points="2243.001979 2220.412482, 2243.001979 2213.991702, 2241.365859 2213.991702, 2243.001979 2220.412482" stroke="rgb(231,231,231)" fill="transparent" stroke-width="1.000000"/>
    <polygon points="2243.001979 2220.412482, 2243.001979 2213.991702, 2241.365859 2213.991702," fill="rgb(231,231,231)"/>
    <polyline points="2264.442458 2238.036381, 2252.938740 2238.036406, 2252.938740 2239.978202, 2264.442458 2238.036381" stroke="rgb(231,231,231)" fill="transparent" stroke-width="1.000000"/>
    <polygon points="2264.442458 2238.036381, 2252.938740 2238.036406, 2252.938740 2239.978202," fill="rgb(231,231,231)"/>
    <polyline points="2264.444319 2239.968405, 2264.442458 2238.036381, 2252.938740 2239.978202, 2264.444319 2239.968405" stroke="rgb(231,231,231)" fill="transparent" stroke-width="1.000000"/>
    <polygon points="2264.444319 2239.968405, 2264.442458 2238.036381, 2252.938740 2239.978202," fill="rgb(231,231,231)"/>
    <polyline points="2264.448134 2243.976080, 2264.444319 2239.968405, 2252.938740 2239.978202, 2264.448134 2243.976080" stroke="rgb(231,231,231)" fill="transparent" stroke-width="1.000000"/>
    <polygon points="2264.448134 2243.976080, 2264.444319 2239.968405, 2252.938740 2239.978202," fill="rgb(231,231,231)"/>
    <polyline points="2252.938736 2244.000565, 2264.448134 2243.976080, 2252.938740 2239.978202, 2252.938736 2244.000565" stroke="rgb(231,231,231)" fill="transparent" stroke-width="1.000000"/>
    <polygon points="2252.938736 2244.000565, 2264.448134 2243.976080, 2252.938740 2239.978202," fill="rgb(231,231,231)"/>
    <polyline points="2252.938736 2244.000565, 2252.938740 2239.978202, 2251.467881 2239.978506, 2252.938736 2244.000565" stroke="rgb(231,231,231)" fill="transparent" stroke-width="1.000000"/>
    <polygon points="2252.938736 2244.000565, 2252.938740 2239.978202, 2251.467881 2239.978506," fill="rgb(231,231,231)"/>
    <polyline points="2251.461177 2244.000241, 2252.938736 2244.000565, 2251.467881 2239.978506, 2251.461177 2244.000241" stroke="rgb(231,231,231)" fill="transparent" stroke-width="1.000000"/>
    <polygon points="2251.461177 2244.000241, 2252.938736 2244.000565, 2251.467881 2239.978506," fill="rgb(231,231,231)"/>
    <polyline points="2264.450035 2245.969182, 2264.448134 2243.976080, 2252.938736 2244.000565, 2264.450035 2245.969182" stroke="rgb(231,231,231)" fill="transparent" stroke-width="1.000000"/>
    <polygon points="2264.450035 2245.969182, 2264.448134 2243.976080, 2252.938736 2244.000565," fill="rgb(231,231,231)"/>
    <polyline points="2252.938736 2245.969182, 2264.450035 2245.969182, 2252.938736 2244.000565, 2252.938736 2245.969182" stroke="rgb(231,231,231)" fill="transparent" stroke-width="1.000000"/>
    <polygon points="2252.938736 2245.969182, 2264.450035 2245.969182, 2252.938736 2244.000565," fill="rgb(231,231,231)"/>
    <polyline points="2264.442458 2246.268580, 2252.938736 2246.268601, 2252.938736 2248.210402, 2264.442458 2246.268580" stroke="rgb(231,231,231)" fill="transparent" stroke-width="1.000000"/>
    <polygon points="2264.442458 2246.268580, 2252.938736 2246.268601, 2252.938736 2248.210402," fill="rgb(231,231,231)"/>
    <polyline points="2264.442483 2248.200604, 2264.442458 2246.268580, 2252.938736 2248.210402, 2264.442483 2248.200604" stroke="rgb(231,231,231)" fill="transparent" stroke-width="1.000000"/>
    <polygon points="2264.442483 2248.200604, 2264.442458 2246.268580, 2252.938736 2248.210402," fill="rgb(231,231,231)"/>
    <polyline points="2264.442483 2252.208284, 2264.442483 2248.200604, 2252.938736 2248.210402, 2264.442483 2252.208284" stroke="rgb(231,231,231)" fill="transparent" stroke-width="1.000000"/>
    <polygon points="2264.442483 2252.208284, 2264.442483 2248.200604, 2252.938736 2248.210402," fill="rgb(231,231,231)"/>
    <polyline points="2252.938736 2252.197801, 2264.442483 2252.208284, 2252.938736 2248.210402, 2252.938736 2252.197801" stroke="rgb(231,231,231)" fill="transparent" stroke-width="1.000000"/>
    <polygon points="2252.938736 2252.197801, 2264.442483 2252.208284, 2252.938736 2248.210402," fill="rgb(231,231,231)"/>
    <polyline points="2252.938736 2252.197801, 2252.938736 2248.210402, 2251.467877 2248.210701, 2252.938736 2252.197801" stroke="rgb(231,231,231)" fill="transparent" stroke-width="1.000000"/>
    <polygon points="2252.938736 2252.197801, 2252.938736 2248.210402, 2251.467877 2248.210701," fill="rgb(231,231,231)"/>
    <polyline points="2251.461214 2252.197465, 2252.938736 2252.197801, 2251.467877 2248.210701, 2251.461214 2252.197465" stroke="rgb(231,231,231)" fill="transparent" stroke-width="1.000000"/>
    <polygon points="2251.461214 2252.197465, 2252.938736 2252.197801, 2251.467877 2248.210701," fill="rgb(231,231,231)"/>
    <polyline points="2264.442483 2254.201385, 2264.442483 2252.208284, 2252.938736 2252.197801, 2264.442483 2254.201385" stroke="rgb(231,231,231)" fill="transparent" stroke-width="1.000000"/>
    <polygon points="2264.442483 2254.201385, 2264.442483 2252.208284, 2252.938736 2252.197801," fill="rgb(231,231,231)"/>
    <polyline points="2252.938736 2254.201385, 2264.442483 2254.201385, 2252.938736 2252.197801, 2252.938736 2254.201385" stroke="rgb(231,231,231)" fill="transparent" stroke-width="1.000000"/>
    <polygon points="2252.938736 2254.201385, 2264.442483 2254.201385, 2252.938736 2252.197801," fill="rgb(231,231,231)"/>
    <polyline points="2236.205393 2259.107282, 2240.322874 2259.107282, 2236.205393 2257.587598, 2236.205393 2259.107282" stroke="rgb(128,127,128)" fill="transparent" stroke-width="1.000000"/>
    <polygon points="2236.205393 2259.107282, 2240.322874 2259.107282, 2236.205393 2257.587598," fill="rgb(128,127,128)"/>
    <polyline points="2240.322874 2259.107282, 2240.322874 2257.587598, 2236.205393 2257.587598, 2240.322874 2259.107282" stroke="rgb(128,127,128)" fill="transparent" stroke-width="1.000000"/>
    <polygon points="2240.322874 2259.107282, 2240.322874 2257.587598, 2236.205393 2257.587598," fill="rgb(128,127,128)"/>
    <polyline points="2173.205163 2237.344899, 2173.205163 2238.077019, 2187.380920 2237.344899, 2173.205163 2237.344899" stroke="rgb(128,127,128)" fill="transparent" stroke-width="1.000000"/>
    <polygon points="2173.205163 2237.344899, 2173.205163 2238.077019, 2187.380920 2237.344899," fill="rgb(128,127,128)"/>
    <polyline points="2173.205163 2238.077019, 2187.380901 2238.077019, 2187.380920 2237.344899, 2173.205163 2238.077019" stroke="rgb(128,127,128)" fill="transparent" stroke-width="1.000000"/>
    <polygon points="2173.205163 2238.077019, 2187.380901 2238.077019, 2187.380920 2237.344899," fill="rgb(128,127,128)"/>
    <polyline points="2185.883640 2237.344899, 2185.883600 2238.077019, 2200.404420 2237.344899, 2185.883640 2237.344899" stroke="rgb(128,127,128)" fill="transparent" stroke-width="1.000000"/>
    <polygon points="2185.883640 2237.344899, 2185.883600 2238.077019, 2200.404420 2237.344899," fill="rgb(128,127,128)"/>
    <polyline points="2185.883600 2238.077019, 2200.404380 2238.077019, 2200.404420 2237.344899, 2185.883600 2238.077019" stroke="rgb(128,127,128)" fill="transparent" stroke-width="1.000000"/>
    <polygon points="2185.883600 2238.077019, 2200.404380 2238.077019, 2200.404420 2237.344899," fill="rgb(128,127,128)"/>
    <polyline points="2198.585640 2237.344899, 2198.585600 2238.077019, 2213.438680 2237.344899, 2198.585640 2237.344899" stroke="rgb(128,127,128)" fill="transparent" stroke-width="1.000000"/>
    <polygon points="2198.585640 2237.344899, 2198.585600 2238.077019, 2213.438680 2237.344899," fill="rgb(128,127,128)"/>
    <polyline points="2198.585600 2238.077019, 2213.438640 2238.077019, 2213.438680 2237.344899, 2198.585600 2238.077019" stroke="rgb(128,127,128)" fill="transparent" stroke-width="1.000000"/>
    <polygon points="2198.585600 2238.077019, 2213.438640 2238.077019, 2213.438680 2237.344899," fill="rgb(128,127,128)"/>
    <polyline points="2211.285880 2237.344899, 2211.285880 2238.077019, 2225.856720 2237.344899, 2211.285880 2237.344899" stroke="rgb(128,127,128)" fill="transparent" stroke-width="1.000000"/>
    <polygon points="2211.285880 2237.344899, 2211.285880 2238.077019, 2225.856720 2237.344899," fill="rgb(128,127,128)"/>
    <polyline points="2211.285880 2238.077019, 2225.856699 2238.077019, 2225.856720 2237.344899, 2211.285880 2238.077019" stroke="rgb(128,127,128)" fill="transparent" stroke-width="1.000000"/>
    <polygon points="2211.285880 2238.077019, 2225.856699 2238.077019, 2225.856720 2237.344899," fill="rgb(128,127,128)"/>
    <polyline points="2163.922159 2237.344899, 2163.922159 2238.077019, 2174.324341 2237.344899, 2163.922159 2237.344899" stroke="rgb(128,127,128)" fill="transparent" stroke-width="1.000000"/>
    <polygon points="2163.922159 2237.344899, 2163.922159 2238.077019, 2174.324341 2237.344899," fill="rgb(128,127,128)"/>
    <polyline points="2163.922159 2238.077019, 2174.324341 2238.077019, 2174.324341 2237.344899, 2163.922159 2238.077019" stroke="rgb(128,127,128)" fill="transparent" stroke-width="1.000000"/>
    <polygon points="2163.922159 2238.077019, 2174.324341 2238.077019, 2174.324341 2237.344899," fill="rgb(128,127,128)"/>
    <polyline points="2223.941440 2238.077019, 2230.711140 2238.077019, 2223.941440 2237.344899, 2223.941440 2238.077019" stroke="rgb(128,127,128)" fill="transparent" stroke-width="1.000000"/>
    <polygon points="2223.941440 2238.077019, 2230.711140 2238.077019, 2223.941440 2237.344899," fill="rgb(128,127,128)"/>
    <polyline points="2230.711140 2238.077019, 2230.711158 2237.344899, 2223.941440 2237.344899, 2230.711140 2238.077019" stroke="rgb(128,127,128)" fill="transparent" stroke-width="1.000000"/>
    <polygon points="2230.711140 2238.077019, 2230.711158 2237.344899, 2223.941440 2237.344899," fill="rgb(128,127,128)"/>
    <polyline points="2211.358360 2245.295016, 2211.358360 2246.027157, 2225.808457 2245.295016, 2211.358360 2245.295016" stroke="rgb(128,127,128)" fill="transparent" stroke-width="1.000000"/>
    <polygon points="2211.358360 2245.295016, 2211.358360 2246.027157, 2225.808457 2245.295016," fill="rgb(128,127,128)"/>
    <polyline points="2211.358360 2246.027157, 2225.808457 2246.027157, 2225.808457 2245.295016, 2211.358360 2246.027157" stroke="rgb(128,127,128)" fill="transparent" stroke-width="1.000000"/>
    <polygon points="2211.358360 2246.027157, 2225.808457 2246.027157, 2225.808457 2245.295016," fill="rgb(128,127,128)"/>
    <polyline points="2198.617420 2245.295016, 2198.617420 2246.027157, 2213.394860 2245.295016, 2198.617420 2245.295016" stroke="rgb(128,127,128)" fill="transparent" stroke-width="1.000000"/>
    <polygon points="2198.617420 2245.295016, 2198.617420 2246.027157, 2213.394860 2245.295016," fill="rgb(128,127,128)"/>
    <polyline points="2198.617420 2246.027157, 2213.394860 2246.027157, 2213.394860 2245.295016, 2198.617420 2246.027157" stroke="rgb(128,127,128)" fill="transparent" stroke-width="1.000000"/>
    <polygon points="2198.617420 2246.027157, 2213.394860 2246.027157, 2213.394860 2245.295016," fill="rgb(128,127,128)"/>
    <polyline points="2173.275860 2245.295016, 2173.275860 2246.027157, 2187.404480 2245.295016, 2173.275860 2245.295016" stroke="rgb(128,127,128)" fill="transparent" stroke-width="1.000000"/>
    <polygon points="2173.275860 2245.295016, 2173.275860 2246.027157, 2187.404480 2245.295016," fill="rgb(128,127,128)"/>
    <polyline points="2173.275860 2246.027157, 2187.404480 2246.027157, 2187.404480 2245.295016, 2173.275860 2246.027157" stroke="rgb(128,127,128)" fill="transparent" stroke-width="1.000000"/>
    <polygon points="2173.275860 2246.027157, 2187.404480 2246.027157, 2187.404480 2245.295016," fill="rgb(128,127,128)"/>
    <polyline points="2185.954320 2245.295016, 2185.954320 2246.027157, 2195.418540 2245.295016, 2185.954320 2245.295016" stroke="rgb(128,127,128)" fill="transparent" stroke-width="1.000000"/>
    <polygon points="2185.954320 2245.295016, 2185.954320 2246.027157, 2195.418540 2245.295016," fill="rgb(128,127,128)"/>
    <polyline points="2185.954320 2246.027157, 2195.418540 2246.027157, 2195.418540 2245.295016, 2185.954320 2246.027157" stroke="rgb(128,127,128)" fill="transparent" stroke-width="1.000000"/>
    <polygon points="2185.954320 2246.027157, 2195.418540 2246.027157, 2195.418540 2245.295016," fill="rgb(128,127,128)"/>
    <polyline points="2163.922155 2245.295016, 2163.922155 2246.027157, 2174.395040 2245.295016, 2163.922155 2245.295016" stroke="rgb(128,127,128)" fill="transparent" stroke-width="1.000000"/>
    <polygon points="2163.922155 2245.295016, 2163.922155 2246.027157, 2174.395040 2245.295016," fill="rgb(128,127,128)"/>
    <polyline points="2163.922155 2246.027157, 2174.395040 2246.027157, 2174.395040 2245.295016, 2163.922155 2246.027157" stroke="rgb(128,127,128)" fill="transparent" stroke-width="1.000000"/>
    <polygon points="2163.922155 2246.027157, 2174.395040 2246.027157, 2174.395040 2245.295016," fill="rgb(128,127,128)"/>
    <polyline points="2224.013240 2246.027157, 2230.711140 2246.027157, 2224.013240 2245.295016, 2224.013240 2246.027157" stroke="rgb(128,127,128)" fill="transparent" stroke-width="1.000000"/>
    <polygon points="2224.013240 2246.027157, 2230.711140 2246.027157, 2224.013240 2245.295016," fill="rgb(128,127,128)"/>
    <polyline points="2230.711140 2246.027157, 2230.711158 2245.295016, 2224.013240 2245.295016, 2230.711140 2246.027157" stroke="rgb(128,127,128)" fill="transparent" stroke-width="1.000000"/>
    <polygon points="2230.711140 2246.027157, 2230.711158 2245.295016, 2224.013240 2245.295016," fill="rgb(128,127,128)"/>
    <polyline points="2227.523399 2237.622719, 2227.523399 2224.210341, 2226.791260 2237.622719, 2227.523399 2237.622719" stroke="rgb(128,127,128)" fill="transparent" stroke-width="1.000000"/>
    <polygon points="2227.523399 2237.622719, 2227.523399 2224.210341, 2226.791260 2237.622719," fill="rgb(128,127,128)"/>
    <polyline points="2227.523399 2224.210341, 2226.791260 2224.210341, 2226.791260 2237.622719, 2227.523399 2224.210341" stroke="rgb(128,127,128)" fill="transparent" stroke-width="1.000000"/>
    <polygon points="2227.523399 2224.210341, 2226.791260 2224.210341, 2226.791260 2237.622719," fill="rgb(128,127,128)"/>
    <polyline points="2217.921801 2237.622719, 2217.921801 2224.210339, 2217.189680 2237.622719, 2217.921801 2237.622719" stroke="rgb(128,127,128)" fill="transparent" stroke-width="1.000000"/>
    <polygon points="2217.921801 2237.622719, 2217.921801 2224.210339, 2217.189680 2237.622719," fill="rgb(128,127,128)"/>
    <polyline points="2217.921801 2224.210339, 2217.189680 2224.210339, 2217.189680 2237.622719, 2217.921801 2224.210339" stroke="rgb(128,127,128)" fill="transparent" stroke-width="1.000000"/>
    <polygon points="2217.921801 2224.210339, 2217.189680 2224.210339, 2217.189680 2237.622719," fill="rgb(128,127,128)"/>
    <polyline points="2214.731140 2237.622719, 2214.731141 2224.210339, 2213.999000 2237.622719, 2214.731140 2237.622719" stroke="rgb(128,127,128)" fill="transparent" stroke-width="1.000000"/>
    <polygon points="2214.731140 2237.622719, 2214.731141 2224.210339, 2213.999000 2237.622719," fill="rgb(128,127,128)"/>
    <polyline points="2214.731141 2224.210339, 2213.999000 2224.210339, 2213.999000 2237.622719, 2214.731141 2224.210339" stroke="rgb(128,127,128)" fill="transparent" stroke-width="1.000000"/>
    <polygon points="2214.731141 2224.210339, 2213.999000 2224.210339, 2213.999000 2237.622719," fill="rgb(128,127,128)"/>
    <polyline points="2205.296640 2237.622719, 2205.296641 2224.210339, 2204.564501 2237.622719, 2205.296640 2237.622719" stroke="rgb(128,127,128)" fill="transparent" stroke-width="1.000000"/>
    <polygon points="2205.296640 2237.622719, 2205.296641 2224.210339, 2204.564501 2237.622719," fill="rgb(128,127,128)"/>
    <polyline points="2205.296641 2224.210339, 2204.564501 2224.210339, 2204.564501 2237.622719, 2205.296641 2224.210339" stroke="rgb(128,127,128)" fill="transparent" stroke-width="1.000000"/>
    <polygon points="2205.296641 2224.210339, 2204.564501 2224.210339, 2204.564501 2237.622719," fill="rgb(128,127,128)"/>
    <polyline points="2202.067460 2237.622719, 2202.067461 2224.210339, 2201.335340 2237.622719, 2202.067460 2237.622719" stroke="rgb(128,127,128)" fill="transparent" stroke-width="1.000000"/>
    <polygon points="2202.067460 2237.622719, 2202.067461 2224.210339, 2201.335340 2237.622719," fill="rgb(128,127,128)"/>
    <polyline points="2202.067461 2224.210339, 2201.335341 2224.210339, 2201.335340 2237.622719, 2202.067461 2224.210339" stroke="rgb(128,127,128)" fill="transparent" stroke-width="1.000000"/>
    <polygon points="2202.067461 2224.210339, 2201.335341 2224.210339, 2201.335340 2237.622719," fill="rgb(128,127,128)"/>
    <polyline points="2192.528661 2237.622719, 2192.528661 2224.210339, 2191.796520 2237.622719, 2192.528661 2237.622719" stroke="rgb(128,127,128)" fill="transparent" stroke-width="1.000000"/>
    <polygon points="2192.528661 2237.622719, 2192.528661 2224.210339, 2191.796520 2237.622719," fill="rgb(128,127,128)"/>
    <polyline points="2192.528661 2224.210339, 2191.796521 2224.210339, 2191.796520 2237.622719, 2192.528661 2224.210339" stroke="rgb(128,127,128)" fill="transparent" stroke-width="1.000000"/>
    <polygon points="2192.528661 2224.210339, 2191.796521 2224.210339, 2191.796520 2237.622719," fill="rgb(128,127,128)"/>
    <polyline points="2189.299480 2237.622719, 2189.299481 2224.210339, 2188.567360 2237.622719, 2189.299480 2237.622719" stroke="rgb(128,127,128)" fill="transparent" stroke-width="1.000000"/>
    <polygon points="2189.299480 2237.622719, 2189.299481 2224.210339, 2188.567360 2237.622719," fill="rgb(128,127,128)"/>
    <polyline points="2189.299481 2224.210339, 2188.567361 2224.210339, 2188.567360 2237.622719, 2189.299481 2224.210339" stroke="rgb(128,127,128)" fill="transparent" stroke-width="1.000000"/>
    <polygon points="2189.299481 2224.210339, 2188.567361 2224.210339, 2188.567360 2237.622719," fill="rgb(128,127,128)"/>
    <polyline points="2179.752201 2237.622719, 2179.752201 2224.210339, 2179.020062 2237.622719, 2179.752201 2237.622719" stroke="rgb(128,127,128)" fill="transparent" stroke-width="1.000000"/>
    <polygon points="2179.752201 2237.622719, 2179.752201 2224.210339, 2179.020062 2237.622719," fill="rgb(128,127,128)"/>
    <polyline points="2179.752201 2224.210339, 2179.020062 2224.210339, 2179.020062 2237.622719, 2179.752201 2224.210339" stroke="rgb(128,127,128)" fill="transparent" stroke-width="1.000000"/>
    <polygon points="2179.752201 2224.210339, 2179.020062 2224.210339, 2179.020062 2237.622719," fill="rgb(128,127,128)"/>
    <polyline points="2176.523019 2237.622719, 2176.523019 2224.210337, 2175.790901 2237.622719, 2176.523019 2237.622719" stroke="rgb(128,127,128)" fill="transparent" stroke-width="1.000000"/>
    <polygon points="2176.523019 2237.622719, 2176.523019 2224.210337, 2175.790901 2237.622719," fill="rgb(128,127,128)"/>
    <polyline points="2176.523019 2224.210337, 2175.790901 2224.210337, 2175.790901 2237.622719, 2176.523019 2224.210337" stroke="rgb(128,127,128)" fill="transparent" stroke-width="1.000000"/>
    <polygon points="2176.523019 2224.210337, 2175.790901 2224.210337, 2175.790901 2237.622719," fill="rgb(128,127,128)"/>
    <polyline points="2167.032384 2237.622719, 2167.032384 2224.210337, 2166.300259 2237.622719, 2167.032384 2237.622719" stroke="rgb(128,127,128)" fill="transparent" stroke-width="1.000000"/>
    <polygon points="2167.032384 2237.622719, 2167.032384 2224.210337, 2166.300259 2237.622719," fill="rgb(128,127,128)"/>
    <polyline points="2167.032384 2224.210337, 2166.300259 2224.210337, 2166.300259 2237.622719, 2167.032384 2224.210337" stroke="rgb(128,127,128)" fill="transparent" stroke-width="1.000000"/>
    <polygon points="2167.032384 2224.210337, 2166.300259 2224.210337, 2166.300259 2237.622719," fill="rgb(128,127,128)"/>
    <polyline points="2227.523399 2259.108298, 2227.523399 2245.695914, 2226.791260 2259.108298, 2227.523399 2259.108298" stroke="rgb(128,127,128)" fill="transparent" stroke-width="1.000000"/>
    <polygon points="2227.523399 2259.108298, 2227.523399 2245.695914, 2226.791260 2259.108298," fill="rgb(128,127,128)"/>
    <polyline points="2227.523399 2245.695914, 2226.791260 2245.695914, 2226.791260 2259.108298, 2227.523399 2245.695914" stroke="rgb(128,127,128)" fill="transparent" stroke-width="1.000000"/>
    <polygon points="2227.523399 2245.695914, 2226.791260 2245.695914, 2226.791260 2259.108298," fill="rgb(128,127,128)"/>
    <polyline points="2217.921801 2259.108298, 2217.921801 2245.695914, 2217.189680 2259.108298, 2217.921801 2259.108298" stroke="rgb(128,127,128)" fill="transparent" stroke-width="1.000000"/>
    <polygon points="2217.921801 2259.108298, 2217.921801 2245.695914, 2217.189680 2259.108298," fill="rgb(128,127,128)"/>
    <polyline points="2217.921801 2245.695914, 2217.189680 2245.695914, 2217.189680 2259.108298, 2217.921801 2245.695914" stroke="rgb(128,127,128)" fill="transparent" stroke-width="1.000000"/>
    <polygon points="2217.921801 2245.695914, 2217.189680 2245.695914, 2217.189680 2259.108298," fill="rgb(128,127,128)"/>
    <polyline points="2205.296639 2259.108298, 2205.296640 2245.695914, 2204.564499 2259.108298, 2205.296639 2259.108298" stroke="rgb(128,127,128)" fill="transparent" stroke-width="1.000000"/>
    <polygon points="2205.296639 2259.108298, 2205.296640 2245.695914, 2204.564499 2259.108298," fill="rgb(128,127,128)"/>
    <polyline points="2205.296640 2245.695914, 2204.564500 2245.695914, 2204.564499 2259.108298, 2205.296640 2245.695914" stroke="rgb(128,127,128)" fill="transparent" stroke-width="1.000000"/>
    <polygon points="2205.296640 2245.695914, 2204.564500 2245.695914, 2204.564499 2259.108298," fill="rgb(128,127,128)"/>
    <polyline points="2202.067459 2259.108298, 2202.067460 2245.695914, 2201.335339 2259.108298, 2202.067459 2259.108298" stroke="rgb(128,127,128)" fill="transparent" stroke-width="1.000000"/>
    <polygon points="2202.067459 2259.108298, 2202.067460 2245.695914, 2201.335339 2259.108298," fill="rgb(128,127,128)"/>
    <polyline points="2202.067460 2245.695914, 2201.335340 2245.695914, 2201.335339 2259.108298, 2202.067460 2245.695914" stroke="rgb(128,127,128)" fill="transparent" stroke-width="1.000000"/>
    <polygon points="2202.067460 2245.695914, 2201.335340 2245.695914, 2201.335339 2259.108298," fill="rgb(128,127,128)"/>
    <polyline points="2189.299479 2259.108298, 2189.299480 2245.695914, 2188.567359 2259.108298, 2189.299479 2259.108298" stroke="rgb(128,127,128)" fill="transparent" stroke-width="1.000000"/>
    <polygon points="2189.299479 2259.108298, 2189.299480 2245.695914, 2188.567359 2259.108298," fill="rgb(128,127,128)"/>
    <polyline points="2189.299480 2245.695914, 2188.567360 2245.695914, 2188.567359 2259.108298, 2189.299480 2245.695914" stroke="rgb(128,127,128)" fill="transparent" stroke-width="1.000000"/>
    <polygon points="2189.299480 2245.695914, 2188.567360 2245.695914, 2188.567359 2259.108298," fill="rgb(128,127,128)"/>
    <polyline points="2192.528660 2259.108298, 2192.528660 2245.695914, 2191.796519 2259.108298, 2192.528660 2259.108298" stroke="rgb(128,127,128)" fill="transparent" stroke-width="1.000000"/>
    <polygon points="2192.528660 2259.108298, 2192.528660 2245.695914, 2191.796519 2259.108298," fill="rgb(128,127,128)"/>
    <polyline points="2192.528660 2245.695914, 2191.796520 2245.695914, 2191.796519 2259.108298, 2192.528660 2245.695914" stroke="rgb(128,127,128)" fill="transparent" stroke-width="1.000000"/>
    <polygon points="2192.528660 2245.695914, 2191.796520 2245.695914, 2191.796519 2259.108298," fill="rgb(128,127,128)"/>
    <polyline points="2179.752201 2259.108298, 2179.752201 2245.695914, 2179.020062 2259.108298, 2179.752201 2259.108298" stroke="rgb(128,127,128)" fill="transparent" stroke-width="1.000000"/>
    <polygon points="2179.752201 2259.108298, 2179.752201 2245.695914, 2179.020062 2259.108298," fill="rgb(128,127,128)"/>
    <polyline points="2179.752201 2245.695914, 2179.020062 2245.695914, 2179.020062 2259.108298, 2179.752201 2245.695914" stroke="rgb(128,127,128)" fill="transparent" stroke-width="1.000000"/>
    <polygon points="2179.752201 2245.695914, 2179.020062 2245.695914, 2179.020062 2259.108298," fill="rgb(128,127,128)"/>
    <polyline points="2176.523019 2259.108298, 2176.523019 2245.695914, 2175.790901 2259.108298, 2176.523019 2259.108298" stroke="rgb(128,127,128)" fill="transparent" stroke-width="1.000000"/>
    <polygon points="2176.523019 2259.108298, 2176.523019 2245.695914, 2175.790901 2259.108298," fill="rgb(128,127,128)"/>
    <polyline points="2176.523019 2245.695914, 2175.790901 2245.695914, 2175.790901 2259.108298, 2176.523019 2245.695914" stroke="rgb(128,127,128)" fill="transparent" stroke-width="1.000000"/>
    <polygon points="2176.523019 2245.695914, 2175.790901 2245.695914, 2175.790901 2259.108298," fill="rgb(128,127,128)"/>
    <polyline points="2167.032380 2259.108298, 2167.032380 2245.695914, 2166.300255 2259.108298, 2167.032380 2259.108298" stroke="rgb(128,127,128)" fill="transparent" stroke-width="1.000000"/>
    <polygon points="2167.032380 2259.108298, 2167.032380 2245.695914, 2166.300255 2259.108298," fill="rgb(128,127,128)"/>
    <polyline points="2167.032380 2245.695914, 2166.300255 2245.695914, 2166.300255 2259.108298, 2167.032380 2245.695914" stroke="rgb(128,127,128)" fill="transparent" stroke-width="1.000000"/>
    <polygon points="2167.032380 2245.695914, 2166.300255 2245.695914, 2166.300255 2259.108298," fill="rgb(128,127,128)"/>
    <polyline points="2230.715621 2237.622719, 2230.715621 2224.210341, 2229.983478 2237.622719, 2230.715621 2237.622719" stroke="rgb(128,127,128)" fill="transparent" stroke-width="1.000000"/>
    <polygon points="2230.715621 2237.622719, 2230.715621 2224.210341, 2229.983478 2237.622719," fill="rgb(128,127,128)"/>
    <polyline points="2230.715621 2224.210341, 2229.983478 2224.210341, 2229.983478 2237.622719, 2230.715621 2224.210341" stroke="rgb(128,127,128)" fill="transparent" stroke-width="1.000000"/>
    <polygon points="2230.715621 2224.210341, 2229.983478 2224.210341, 2229.983478 2237.622719," fill="rgb(128,127,128)"/>
    <polyline points="2230.715621 2259.108298, 2230.715621 2245.695914, 2229.983478 2259.108298, 2230.715621 2259.108298" stroke="rgb(128,127,128)" fill="transparent" stroke-width="1.000000"/>
    <polygon points="2230.715621 2259.108298, 2230.715621 2245.695914, 2229.983478 2259.108298," fill="rgb(128,127,128)"/>
    <polyline points="2230.715621 2245.695914, 2229.983478 2245.695914, 2229.983478 2259.108298, 2230.715621 2245.695914" stroke="rgb(128,127,128)" fill="transparent" stroke-width="1.000000"/>
    <polygon points="2230.715621 2245.695914, 2229.983478 2245.695914, 2229.983478 2259.108298," fill="rgb(128,127,128)"/>
    <polyline points="2220.069318 2236.889901, 2224.682819 2236.889901, 2220.069318 2225.907539, 2220.069318 2236.889901" stroke="rgb(128,127,128)" fill="transparent" stroke-width="1.000000"/>
    <polygon points="2220.069318 2236.889901, 2224.682819 2236.889901, 2220.069318 2225.907539," fill="rgb(128,127,128)"/>
    <polyline points="2224.682819 2236.889901, 2224.682819 2225.907541, 2220.069318 2225.907539, 2224.682819 2236.889901" stroke="rgb(128,127,128)" fill="transparent" stroke-width="1.000000"/>
    <polygon points="2224.682819 2236.889901, 2224.682819 2225.907541, 2220.069318 2225.907539," fill="rgb(128,127,128)"/>
    <polyline points="2168.560063 2257.846662, 2173.173560 2257.846662, 2168.560063 2246.864301, 2168.560063 2257.846662" stroke="rgb(128,127,128)" fill="transparent" stroke-width="1.000000"/>
    <polygon points="2168.560063 2257.846662, 2173.173560 2257.846662, 2168.560063 2246.864301," fill="rgb(128,127,128)"/>
    <polyline points="2173.173560 2257.846662, 2173.173560 2246.864301, 2168.560063 2246.864301, 2173.173560 2257.846662" stroke="rgb(128,127,128)" fill="transparent" stroke-width="1.000000"/>
    <polygon points="2173.173560 2257.846662, 2173.173560 2246.864301, 2168.560063 2246.864301," fill="rgb(128,127,128)"/>
    <polyline points="2206.991840 2236.889901, 2211.605340 2236.889901, 2206.991841 2225.907539, 2206.991840 2236.889901" stroke="rgb(128,127,128)" fill="transparent" stroke-width="1.000000"/>
    <polygon points="2206.991840 2236.889901, 2211.605340 2236.889901, 2206.991841 2225.907539," fill="rgb(128,127,128)"/>
    <polyline points="2211.605340 2236.889901, 2211.605341 2225.907539, 2206.991841 2225.907539, 2211.605340 2236.889901" stroke="rgb(128,127,128)" fill="transparent" stroke-width="1.000000"/>
    <polygon points="2211.605340 2236.889901, 2211.605341 2225.907539, 2206.991841 2225.907539," fill="rgb(128,127,128)"/>
    <polyline points="2194.887081 2236.889901, 2199.500580 2236.889901, 2194.887081 2225.907539, 2194.887081 2236.889901" stroke="rgb(128,127,128)" fill="transparent" stroke-width="1.000000"/>
    <polygon points="2194.887081 2236.889901, 2199.500580 2236.889901, 2194.887081 2225.907539," fill="rgb(128,127,128)"/>
    <polyline points="2199.500580 2236.889901, 2199.500581 2225.907539, 2194.887081 2225.907539, 2199.500580 2236.889901" stroke="rgb(128,127,128)" fill="transparent" stroke-width="1.000000"/>
    <polygon points="2199.500580 2236.889901, 2199.500581 2225.907539, 2194.887081 2225.907539," fill="rgb(128,127,128)"/>
    <polyline points="2170.137142 2236.889901, 2174.750641 2236.889901, 2170.137142 2225.907537, 2170.137142 2236.889901" stroke="rgb(128,127,128)" fill="transparent" stroke-width="1.000000"/>
    <polygon points="2170.137142 2236.889901, 2174.750641 2236.889901, 2170.137142 2225.907537," fill="rgb(128,127,128)"/>
    <polyline points="2174.750641 2236.889901, 2174.750641 2225.907537, 2170.137142 2225.907537, 2174.750641 2236.889901" stroke="rgb(128,127,128)" fill="transparent" stroke-width="1.000000"/>
    <polygon points="2174.750641 2236.889901, 2174.750641 2225.907537, 2170.137142 2225.907537," fill="rgb(128,127,128)"/>
    <polyline points="2182.177940 2257.846662, 2186.791440 2257.846662, 2182.177940 2246.864301, 2182.177940 2257.846662" stroke="rgb(128,127,128)" fill="transparent" stroke-width="1.000000"/>
    <polygon points="2182.177940 2257.846662, 2186.791440 2257.846662, 2182.177940 2246.864301," fill="rgb(128,127,128)"/>
    <polyline points="2186.791440 2257.846662, 2186.791441 2246.864301, 2182.177940 2246.864301, 2186.791440 2257.846662" stroke="rgb(128,127,128)" fill="transparent" stroke-width="1.000000"/>
    <polygon points="2186.791440 2257.846662, 2186.791441 2246.864301, 2182.177940 2246.864301," fill="rgb(128,127,128)"/>
    <polyline points="2195.909520 2253.490061, 2198.134019 2253.490061, 2195.909520 2248.194703, 2195.909520 2253.490061" stroke="rgb(128,127,128)" fill="transparent" stroke-width="1.000000"/>
    <polygon points="2195.909520 2253.490061, 2198.134019 2253.490061, 2195.909520 2248.194703," fill="rgb(128,127,128)"/>
    <polyline points="2198.134019 2253.490061, 2198.134020 2248.194703, 2195.909520 2248.194703, 2198.134019 2253.490061" stroke="rgb(128,127,128)" fill="transparent" stroke-width="1.000000"/>
    <polygon points="2198.134019 2253.490061, 2198.134020 2248.194703, 2195.909520 2248.194703," fill="rgb(128,127,128)"/>
    <polyline points="2208.662740 2253.490061, 2210.887239 2253.490061, 2208.662740 2248.194703, 2208.662740 2253.490061" stroke="rgb(128,127,128)" fill="transparent" stroke-width="1.000000"/>
    <polygon points="2208.662740 2253.490061, 2210.887239 2253.490061, 2208.662740 2248.194703," fill="rgb(128,127,128)"/>
    <polyline points="2210.887239 2253.490061, 2210.887239 2248.194703, 2208.662740 2248.194703, 2210.887239 2253.490061" stroke="rgb(128,127,128)" fill="transparent" stroke-width="1.000000"/>
    <polygon points="2210.887239 2253.490061, 2210.887239 2248.194703, 2208.662740 2248.194703," fill="rgb(128,127,128)"/>
    <polyline points="2221.307919 2253.490061, 2223.532400 2253.490061, 2221.307919 2248.194703, 2221.307919 2253.490061" stroke="rgb(128,127,128)" fill="transparent" stroke-width="1.000000"/>
    <polygon points="2221.307919 2253.490061, 2223.532400 2253.490061, 2221.307919 2248.194703," fill="rgb(128,127,128)"/>
    <polyline points="2223.532400 2253.490061, 2223.532400 2248.194703, 2221.307919 2248.194703, 2223.532400 2253.490061" stroke="rgb(128,127,128)" fill="transparent" stroke-width="1.000000"/>
    <polygon points="2223.532400 2253.490061, 2223.532400 2248.194703, 2221.307919 2248.194703," fill="rgb(128,127,128)"/>
    <polyline points="2240.284195 2259.107282, 2243.953440 2259.107303, 2240.284195 2257.947997, 2240.284195 2259.107282" stroke="rgb(128,127,128)" fill="transparent" stroke-width="1.000000"/>
    <polygon points="2240.284195 2259.107282, 2243.953440 2259.107303, 2240.284195 2257.947997," fill="rgb(128,127,128)"/>
    <polyline points="2243.953440 2259.107303, 2243.953440 2257.948001, 2240.284195 2257.947997, 2243.953440 2259.107303" stroke="rgb(128,127,128)" fill="transparent" stroke-width="1.000000"/>
    <polygon points="2243.953440 2259.107303, 2243.953440 2257.948001, 2240.284195 2257.947997," fill="rgb(128,127,128)"/>
    <polyline points="2243.892538 2259.107286, 2244.457619 2259.107303, 2243.892538 2258.356783, 2243.892538 2259.107286" stroke="rgb(128,127,128)" fill="transparent" stroke-width="1.000000"/>
    <polygon points="2243.892538 2259.107286, 2244.457619 2259.107303, 2243.892538 2258.356783," fill="rgb(128,127,128)"/>
    <polyline points="2244.457619 2259.107303, 2244.457619 2258.356783, 2243.892538 2258.356783, 2244.457619 2259.107303" stroke="rgb(128,127,128)" fill="transparent" stroke-width="1.000000"/>
    <polygon points="2244.457619 2259.107303, 2244.457619 2258.356783, 2243.892538 2258.356783," fill="rgb(128,127,128)"/>
    <polyline points="2250.921339 2221.270684, 2251.938377 2221.270684, 2250.921339 2220.184901, 2250.921339 2221.270684" stroke="rgb(128,127,128)" fill="transparent" stroke-width="1.000000"/>
    <polygon points="2250.921339 2221.270684, 2251.938377 2221.270684, 2250.921339 2220.184901," fill="rgb(128,127,128)"/>
    <polyline points="2251.938377 2221.270684, 2251.938377 2220.184901, 2250.921339 2220.184901, 2251.938377 2221.270684" stroke="rgb(128,127,128)" fill="transparent" stroke-width="1.000000"/>
    <polygon points="2251.938377 2221.270684, 2251.938377 2220.184901, 2250.921339 2220.184901," fill="rgb(128,127,128)"/>
    <polyline points="2246.661479 2221.173922, 2250.330716 2221.173922, 2246.661479 2220.184741, 2246.661479 2221.173922" stroke="rgb(128,127,128)" fill="transparent" stroke-width="1.000000"/>
    <polygon points="2246.661479 2221.173922, 2250.330716 2221.173922, 2246.661479 2220.184741," fill="rgb(128,127,128)"/>
    <polyline points="2250.330716 2221.173922, 2250.330716 2220.184741, 2246.661479 2220.184741, 2250.330716 2221.173922" stroke="rgb(128,127,128)" fill="transparent" stroke-width="1.000000"/>
    <polygon points="2250.330716 2221.173922, 2250.330716 2220.184741, 2246.661479 2220.184741," fill="rgb(128,127,128)"/>
    <polyline points="2235.587381 2217.252461, 2235.587381 2220.921701, 2236.576562 2217.252461, 2235.587381 2217.252461" stroke="rgb(128,127,128)" fill="transparent" stroke-width="1.000000"/>
    <polygon points="2235.587381 2217.252461, 2235.587381 2220.921701, 2236.576562 2217.252461," fill="rgb(128,127,128)"/>
    <polyline points="2235.587381 2220.921701, 2236.576562 2220.921701, 2236.576562 2217.252461, 2235.587381 2220.921701" stroke="rgb(128,127,128)" fill="transparent" stroke-width="1.000000"/>
    <polygon points="2235.587381 2220.921701, 2236.576562 2220.921701, 2236.576562 2217.252461," fill="rgb(128,127,128)"/>
    <polyline points="2173.205163 2237.344899, 2173.205163 2238.077019" stroke-dasharray="1.500000,2.000000" stroke-opacity="0.2" stroke="black" fill="transparent" stroke-width="0.500000"/>
    <polyline points="2179.752201 2237.344899, 2179.752201 2237.622719" stroke-dasharray="1.500000,2.000000" stroke-opacity="0.2" stroke="black" fill="transparent" stroke-width="0.500000"/>
    <polyline points="2176.523019 2237.344899, 2176.523019 2237.622719" stroke-dasharray="1.500000,2.000000" stroke-opacity="0.2" stroke="black" fill="transparent" stroke-width="0.500000"/>
    <polyline points="2167.032384 2237.344899, 2167.032384 2237.622719" stroke-dasharray="1.500000,2.000000" stroke-opacity="0.2" stroke="black" fill="transparent" stroke-width="0.500000"/>
    <polyline points="2235.599441 2220.186882, 2235.599441 2220.921701" stroke-dasharray="1.500000,2.000000" stroke-opacity="0.2" stroke="black" fill="transparent" stroke-width="0.500000"/>
    <polyline points="2251.940075 2239.978408, 2251.940075 2244.000346" stroke-dasharray="1.500000,2.000000" stroke-opacity="0.2" stroke="black" fill="transparent" stroke-width="0.500000"/>
    <polyline points="2251.940074 2248.210605, 2251.940074 2252.197574" stroke-dasharray="1.500000,2.000000" stroke-opacity="0.2" stroke="black" fill="transparent" stroke-width="0.500000"/>
    <polyline points="2235.586676 2220.412482, 2237.604659 2220.412482" stroke-dasharray="1.500000,2.000000" stroke-opacity="0.2" stroke="black" fill="transparent" stroke-width="0.500000"/>
    <polyline points="2237.604659 2220.412482, 2241.365859 2220.412482" stroke-dasharray="1.500000,2.000000" stroke-opacity="0.2" stroke="black" fill="transparent" stroke-width="0.500000"/>
    <polyline points="2241.365859 2220.412482, 2243.001979 2220.412482" stroke-dasharray="1.500000,2.000000" stroke-opacity="0.2" stroke="black" fill="transparent" stroke-width="0.500000"/>
    <polyline points="2166.300259 2237.344899, 2166.300259 2237.622719" stroke-dasharray="1.500000,2.000000" stroke-opacity="0.2" stroke="black" fill="transparent" stroke-width="0.500000"/>
    <polyline points="2175.790901 2237.344899, 2175.790901 2237.622719" stroke-dasharray="1.500000,2.000000" stroke-opacity="0.2" stroke="black" fill="transparent" stroke-width="0.500000"/>
    <polyline points="2179.020062 2237.344899, 2179.020062 2237.622719" stroke-dasharray="1.500000,2.000000" stroke-opacity="0.2" stroke="black" fill="transparent" stroke-width="0.500000"/>
    <polyline points="2166.300259 2224.210638, 2167.032384 2224.210638" stroke-dasharray="1.500000,2.000000" stroke-opacity="0.2" stroke="black" fill="transparent" stroke-width="0.500000"/>
    <polyline points="2175.790901 2224.210638, 2176.523019 2224.210639" stroke-dasharray="1.500000,2.000000" stroke-opacity="0.2" stroke="black" fill="transparent" stroke-width="0.500000"/>
    <polyline points="2179.020062 2224.210639, 2179.752201 2224.210639" stroke-dasharray="1.500000,2.000000" stroke-opacity="0.2" stroke="black" fill="transparent" stroke-width="0.500000"/>
    <polyline points="2188.567361 2224.210639, 2189.299481 2224.210639" stroke-dasharray="1.500000,2.000000" stroke-opacity="0.2" stroke="black" fill="transparent" stroke-width="0.500000"/>
    <polyline points="2191.796521 2224.210639, 2192.528661 2224.210639" stroke-dasharray="1.500000,2.000000" stroke-opacity="0.2" stroke="black" fill="transparent" stroke-width="0.500000"/>
    <polyline points="2201.335341 2224.210640, 2202.067461 2224.210640" stroke-dasharray="1.500000,2.000000" stroke-opacity="0.2" stroke="black" fill="transparent" stroke-width="0.500000"/>
    <polyline points="2204.564501 2224.210640, 2205.296641 2224.210640" stroke-dasharray="1.500000,2.000000" stroke-opacity="0.2" stroke="black" fill="transparent" stroke-width="0.500000"/>
    <polyline points="2213.999000 2224.210641, 2214.731141 2224.210641" stroke-dasharray="1.500000,2.000000" stroke-opacity="0.2" stroke="black" fill="transparent" stroke-width="0.500000"/>
    <polyline points="2217.189680 2224.210641, 2217.921801 2224.210641" stroke-dasharray="1.500000,2.000000" stroke-opacity="0.2" stroke="black" fill="transparent" stroke-width="0.500000"/>
    <polyline points="2226.791260 2224.210641, 2227.523399 2224.210641" stroke-dasharray="1.500000,2.000000" stroke-opacity="0.2" stroke="black" fill="transparent" stroke-width="0.500000"/>
    <polyline points="2229.983478 2224.210642, 2230.715621 2224.210642" stroke-dasharray="1.500000,2.000000" stroke-opacity="0.2" stroke="black" fill="transparent" stroke-width="0.500000"/>
    <polyline points="2235.599442 2224.210642, 2235.867426 2224.210642" stroke-dasharray="1.500000,2.000000" stroke-opacity="0.2" stroke="black" fill="transparent" stroke-width="0.500000"/>
    <polyline points="2235.867422 2224.210642, 2235.867454 2259.106660" stroke-dasharray="1.500000,2.000000" stroke-opacity="0.2" stroke="black" fill="transparent" stroke-width="0.500000"/>
    <polyline points="2185.883640 2237.344899, 2185.883600 2238.077019" stroke-dasharray="1.500000,2.000000" stroke-opacity="0.2" stroke="black" fill="transparent" stroke-width="0.500000"/>
    <polyline points="2174.324341 2237.344899, 2174.324341 2238.077019" stroke-dasharray="1.500000,2.000000" stroke-opacity="0.2" stroke="black" fill="transparent" stroke-width="0.500000"/>
    <polyline points="2187.380920 2237.344899, 2187.380901 2238.077019" stroke-dasharray="1.500000,2.000000" stroke-opacity="0.2" stroke="black" fill="transparent" stroke-width="0.500000"/>
    <polyline points="2198.585640 2237.344899, 2198.585600 2238.077019" stroke-dasharray="1.500000,2.000000" stroke-opacity="0.2" stroke="black" fill="transparent" stroke-width="0.500000"/>
    <polyline points="2200.404420 2237.344899, 2200.404380 2238.077019" stroke-dasharray="1.500000,2.000000" stroke-opacity="0.2" stroke="black" fill="transparent" stroke-width="0.500000"/>
    <polyline points="2211.285880 2237.344899, 2211.285880 2238.077019" stroke-dasharray="1.500000,2.000000" stroke-opacity="0.2" stroke="black" fill="transparent" stroke-width="0.500000"/>
    <polyline points="2213.438680 2237.344899, 2213.438640 2238.077019" stroke-dasharray="1.500000,2.000000" stroke-opacity="0.2" stroke="black" fill="transparent" stroke-width="0.500000"/>
    <polyline points="2223.941440 2237.344899, 2223.941440 2238.077019" stroke-dasharray="1.500000,2.000000" stroke-opacity="0.2" stroke="black" fill="transparent" stroke-width="0.500000"/>
    <polyline points="2225.856720 2237.344899, 2225.856699 2238.077019" stroke-dasharray="1.500000,2.000000" stroke-opacity="0.2" stroke="black" fill="transparent" stroke-width="0.500000"/>
    <polyline points="2217.189680 2237.622719, 2217.921801 2237.622719" stroke-dasharray="1.500000,2.000000" stroke-opacity="0.2" stroke="black" fill="transparent" stroke-width="0.500000"/>
    <polyline points="2213.999000 2237.622719, 2214.731140 2237.622719" stroke-dasharray="1.500000,2.000000" stroke-opacity="0.2" stroke="black" fill="transparent" stroke-width="0.500000"/>
    <polyline points="2204.564501 2237.622719, 2205.296640 2237.622719" stroke-dasharray="1.500000,2.000000" stroke-opacity="0.2" stroke="black" fill="transparent" stroke-width="0.500000"/>
    <polyline points="2201.335340 2237.622719, 2202.067460 2237.622719" stroke-dasharray="1.500000,2.000000" stroke-opacity="0.2" stroke="black" fill="transparent" stroke-width="0.500000"/>
    <polyline points="2191.796520 2237.622719, 2192.528661 2237.622719" stroke-dasharray="1.500000,2.000000" stroke-opacity="0.2" stroke="black" fill="transparent" stroke-width="0.500000"/>
    <polyline points="2188.567360 2237.622719, 2189.299480 2237.622719" stroke-dasharray="1.500000,2.000000" stroke-opacity="0.2" stroke="black" fill="transparent" stroke-width="0.500000"/>
    <polyline points="2179.020062 2237.622719, 2179.752201 2237.622719" stroke-dasharray="1.500000,2.000000" stroke-opacity="0.2" stroke="black" fill="transparent" stroke-width="0.500000"/>
    <polyline points="2175.790901 2237.622719, 2176.523019 2237.622719" stroke-dasharray="1.500000,2.000000" stroke-opacity="0.2" stroke="black" fill="transparent" stroke-width="0.500000"/>
    <polyline points="2166.300259 2237.622719, 2167.032384 2237.622719" stroke-dasharray="1.500000,2.000000" stroke-opacity="0.2" stroke="black" fill="transparent" stroke-width="0.500000"/>
    <polyline points="2211.358360 2245.295016, 2211.358360 2246.027157" stroke-dasharray="1.500000,2.000000" stroke-opacity="0.2" stroke="black" fill="transparent" stroke-width="0.500000"/>
    <polyline points="2173.275860 2245.295016, 2173.275860 2246.027157" stroke-dasharray="1.500000,2.000000" stroke-opacity="0.2" stroke="black" fill="transparent" stroke-width="0.500000"/>
    <polyline points="2185.954320 2245.295016, 2185.954320 2246.027157" stroke-dasharray="1.500000,2.000000" stroke-opacity="0.2" stroke="black" fill="transparent" stroke-width="0.500000"/>
    <polyline points="2174.395040 2245.295016, 2174.395040 2246.027157" stroke-dasharray="1.500000,2.000000" stroke-opacity="0.2" stroke="black" fill="transparent" stroke-width="0.500000"/>
    <polyline points="2187.404480 2245.295016, 2187.404480 2246.027157" stroke-dasharray="1.500000,2.000000" stroke-opacity="0.2" stroke="black" fill="transparent" stroke-width="0.500000"/>
    <polyline points="2213.394860 2245.295016, 2213.394860 2246.027157" stroke-dasharray="1.500000,2.000000" stroke-opacity="0.2" stroke="black" fill="transparent" stroke-width="0.500000"/>
    <polyline points="2224.013240 2245.295016, 2224.013240 2246.027157" stroke-dasharray="1.500000,2.000000" stroke-opacity="0.2" stroke="black" fill="transparent" stroke-width="0.500000"/>
    <polyline points="2225.808457 2245.295016, 2225.808457 2246.027157" stroke-dasharray="1.500000,2.000000" stroke-opacity="0.2" stroke="black" fill="transparent" stroke-width="0.500000"/>
    <polyline points="2226.791260 2245.695914, 2227.523399 2245.695914" stroke-dasharray="1.500000,2.000000" stroke-opacity="0.2" stroke="black" fill="transparent" stroke-width="0.500000"/>
    <polyline points="2217.921801 2245.695914, 2217.921801 2246.027157" stroke-dasharray="1.500000,2.000000" stroke-opacity="0.2" stroke="black" fill="transparent" stroke-width="0.500000"/>
    <polyline points="2217.189680 2245.695914, 2217.921801 2245.695914" stroke-dasharray="1.500000,2.000000" stroke-opacity="0.2" stroke="black" fill="transparent" stroke-width="0.500000"/>
    <polyline points="2205.296640 2245.695914, 2205.296640 2246.027157" stroke-dasharray="1.500000,2.000000" stroke-opacity="0.2" stroke="black" fill="transparent" stroke-width="0.500000"/>
    <polyline points="2204.564500 2245.695914, 2205.296640 2245.695914" stroke-dasharray="1.500000,2.000000" stroke-opacity="0.2" stroke="black" fill="transparent" stroke-width="0.500000"/>
    <polyline points="2202.067460 2245.695914, 2202.067460 2246.027157" stroke-dasharray="1.500000,2.000000" stroke-opacity="0.2" stroke="black" fill="transparent" stroke-width="0.500000"/>
    <polyline points="2201.335340 2245.695914, 2202.067460 2245.695914" stroke-dasharray="1.500000,2.000000" stroke-opacity="0.2" stroke="black" fill="transparent" stroke-width="0.500000"/>
    <polyline points="2188.567360 2245.695914, 2189.299480 2245.695914" stroke-dasharray="1.500000,2.000000" stroke-opacity="0.2" stroke="black" fill="transparent" stroke-width="0.500000"/>
    <polyline points="2179.752201 2245.695914, 2179.752201 2246.027157" stroke-dasharray="1.500000,2.000000" stroke-opacity="0.2" stroke="black" fill="transparent" stroke-width="0.500000"/>
    <polyline points="2179.020062 2245.695914, 2179.752201 2245.695914" stroke-dasharray="1.500000,2.000000" stroke-opacity="0.2" stroke="black" fill="transparent" stroke-width="0.500000"/>
    <polyline points="2176.523019 2245.695914, 2176.523019 2246.027157" stroke-dasharray="1.500000,2.000000" stroke-opacity="0.2" stroke="black" fill="transparent" stroke-width="0.500000"/>
    <polyline points="2175.790901 2245.695914, 2176.523019 2245.695914" stroke-dasharray="1.500000,2.000000" stroke-opacity="0.2" stroke="black" fill="transparent" stroke-width="0.500000"/>
    <polyline points="2167.032380 2245.695914, 2167.032380 2246.027157" stroke-dasharray="1.500000,2.000000" stroke-opacity="0.2" stroke="black" fill="transparent" stroke-width="0.500000"/>
    <polyline points="2166.300255 2245.695914, 2167.032380 2245.695914" stroke-dasharray="1.500000,2.000000" stroke-opacity="0.2" stroke="black" fill="transparent" stroke-width="0.500000"/>
    <polyline points="2166.300255 2245.695914, 2166.300255 2246.027157" stroke-dasharray="1.500000,2.000000" stroke-opacity="0.2" stroke="black" fill="transparent" stroke-width="0.500000"/>
    <polyline points="2175.790901 2245.695914, 2175.790901 2246.027157" stroke-dasharray="1.500000,2.000000" stroke-opacity="0.2" stroke="black" fill="transparent" stroke-width="0.500000"/>
    <polyline points="2179.020062 2245.695914, 2179.020062 2246.027157" stroke-dasharray="1.500000,2.000000" stroke-opacity="0.2" stroke="black" fill="transparent" stroke-width="0.500000"/>
    <polyline points="2191.796520 2245.695914, 2192.528660 2245.695914" stroke-dasharray="1.500000,2.000000" stroke-opacity="0.2" stroke="black" fill="transparent" stroke-width="0.500000"/>
    <polyline points="2201.335340 2245.695914, 2201.335340 2246.027157" stroke-dasharray="1.500000,2.000000" stroke-opacity="0.2" stroke="black" fill="transparent" stroke-width="0.500000"/>
    <polyline points="2204.564500 2245.695914, 2204.564500 2246.027157" stroke-dasharray="1.500000,2.000000" stroke-opacity="0.2" stroke="black" fill="transparent" stroke-width="0.500000"/>
    <polyline points="2217.189680 2245.695914, 2217.189680 2246.027157" stroke-dasharray="1.500000,2.000000" stroke-opacity="0.2" stroke="black" fill="transparent" stroke-width="0.500000"/>
    <polyline points="2240.322874 2257.947997, 2240.322874 2259.107282" stroke-dasharray="1.500000,2.000000" stroke-opacity="0.2" stroke="black" fill="transparent" stroke-width="0.500000"/>
    <polyline points="2240.284195 2259.106671, 2240.284195 2259.107282" stroke-dasharray="1.500000,2.000000" stroke-opacity="0.2" stroke="black" fill="transparent" stroke-width="0.500000"/>
    <polyline points="2243.953440 2257.948001, 2243.953440 2259.107288" stroke-dasharray="1.500000,2.000000" stroke-opacity="0.2" stroke="black" fill="transparent" stroke-width="0.500000"/>
    <polyline points="2235.599457 2259.106659, 2235.867454 2259.106660" stroke-dasharray="1.500000,2.000000" stroke-opacity="0.2" stroke="black" fill="transparent" stroke-width="0.500000"/>
    <polyline points="2236.205393 2259.106661, 2244.457619 2259.106681" stroke-dasharray="1.500000,2.000000" stroke-opacity="0.2" stroke="black" fill="transparent" stroke-width="0.500000"/>
    <polyline points="2236.205393 2257.587598, 2236.205393 2259.107282" stroke="black" fill="transparent" stroke-width="0.500000"/>
    <polyline points="2236.205393 2257.587598, 2240.322874 2257.587598" stroke="black" fill="transparent" stroke-width="0.500000"/>
    <polyline points="2173.205163 2237.344899, 2187.380920 2237.344899" stroke="black" fill="transparent" stroke-width="0.500000"/>
    <polyline points="2163.922159 2237.344899, 2163.922159 2238.077019" stroke="black" fill="transparent" stroke-width="0.500000"/>
    <polyline points="2163.922159 2237.344899, 2174.324341 2237.344899" stroke="black" fill="transparent" stroke-width="0.500000"/>
    <polyline points="2227.523399 2224.210341, 2227.523399 2237.622719" stroke="black" fill="transparent" stroke-width="0.500000"/>
    <polyline points="2226.791260 2224.210341, 2227.523399 2224.210341" stroke="black" fill="transparent" stroke-width="0.500000"/>
    <polyline points="2217.921801 2224.210339, 2217.921801 2237.622719" stroke="black" fill="transparent" stroke-width="0.500000"/>
    <polyline points="2217.189680 2224.210339, 2217.921801 2224.210339" stroke="black" fill="transparent" stroke-width="0.500000"/>
    <polyline points="2214.731141 2224.210339, 2214.731140 2237.622719" stroke="black" fill="transparent" stroke-width="0.500000"/>
    <polyline points="2213.999000 2224.210339, 2214.731141 2224.210339" stroke="black" fill="transparent" stroke-width="0.500000"/>
    <polyline points="2205.296641 2224.210339, 2205.296640 2237.622719" stroke="black" fill="transparent" stroke-width="0.500000"/>
    <polyline points="2204.564501 2224.210339, 2205.296641 2224.210339" stroke="black" fill="transparent" stroke-width="0.500000"/>
    <polyline points="2202.067461 2224.210339, 2202.067460 2237.622719" stroke="black" fill="transparent" stroke-width="0.500000"/>
    <polyline points="2201.335341 2224.210339, 2202.067461 2224.210339" stroke="black" fill="transparent" stroke-width="0.500000"/>
    <polyline points="2192.528661 2224.210339, 2192.528661 2237.622719" stroke="black" fill="transparent" stroke-width="0.500000"/>
    <polyline points="2191.796521 2224.210339, 2192.528661 2224.210339" stroke="black" fill="transparent" stroke-width="0.500000"/>
    <polyline points="2189.299481 2224.210339, 2189.299480 2237.622719" stroke="black" fill="transparent" stroke-width="0.500000"/>
    <polyline points="2188.567361 2224.210339, 2189.299481 2224.210339" stroke="black" fill="transparent" stroke-width="0.500000"/>
    <polyline points="2179.752201 2224.210339, 2179.752201 2237.344899" stroke="black" fill="transparent" stroke-width="0.500000"/>
    <polyline points="2179.020062 2224.210339, 2179.752201 2224.210339" stroke="black" fill="transparent" stroke-width="0.500000"/>
    <polyline points="2176.523019 2224.210337, 2176.523019 2237.344899" stroke="black" fill="transparent" stroke-width="0.500000"/>
    <polyline points="2175.790901 2224.210337, 2176.523019 2224.210337" stroke="black" fill="transparent" stroke-width="0.500000"/>
    <polyline points="2167.032384 2224.210337, 2167.032384 2237.344899" stroke="black" fill="transparent" stroke-width="0.500000"/>
    <polyline points="2166.300259 2224.210337, 2167.032384 2224.210337" stroke="black" fill="transparent" stroke-width="0.500000"/>
    <polyline points="2250.921339 2221.270684, 2251.938377 2221.270684" stroke="black" fill="transparent" stroke-width="0.500000"/>
    <polyline points="2250.921339 2220.184901, 2250.921339 2221.270684" stroke="black" fill="transparent" stroke-width="0.500000"/>
    <polyline points="2250.921339 2220.184901, 2251.938377 2220.184901" stroke="black" fill="transparent" stroke-width="0.500000"/>
    <polyline points="2246.661479 2220.184741, 2246.661479 2221.173922" stroke="black" fill="transparent" stroke-width="0.500000"/>
    <polyline points="2246.661479 2220.184741, 2250.330716 2220.184741" stroke="black" fill="transparent" stroke-width="0.500000"/>
    <polyline points="2235.587381 2217.252461, 2235.587381 2220.921701" stroke="black" fill="transparent" stroke-width="0.500000"/>
    <polyline points="2235.587381 2217.252461, 2236.576562 2217.252461" stroke="black" fill="transparent" stroke-width="0.500000"/>
    <polyline points="2235.586676 2213.991702, 2235.586676 2220.412482" stroke="black" fill="transparent" stroke-width="0.500000"/>
    <polyline points="2235.586676 2213.991702, 2237.604659 2213.991702" stroke="black" fill="transparent" stroke-width="0.500000"/>
    <polyline points="2237.604659 2213.991702, 2241.365859 2213.991702" stroke="black" fill="transparent" stroke-width="0.500000"/>
    <polyline points="2241.365859 2213.991702, 2243.001979 2213.991702" stroke="black" fill="transparent" stroke-width="0.500000"/>
    <polyline points="2243.001979 2213.991702, 2243.001979 2220.412482" stroke="black" fill="transparent" stroke-width="0.500000"/>
    <polyline points="2236.576562 2217.252461, 2236.576562 2220.921701" stroke="black" fill="transparent" stroke-width="0.500000"/>
    <polyline points="2250.330716 2220.184741, 2250.330716 2221.173922" stroke="black" fill="transparent" stroke-width="0.500000"/>
    <polyline points="2251.938377 2220.184901, 2251.938377 2221.270684" stroke="black" fill="transparent" stroke-width="0.500000"/>
    <polyline points="2246.661479 2221.173922, 2250.330716 2221.173922" stroke="black" fill="transparent" stroke-width="0.500000"/>
    <polyline points="2235.587381 2220.921701, 2236.576562 2220.921701" stroke="black" fill="transparent" stroke-width="0.500000"/>
    <polyline points="2235.599441 2220.921701, 2235.599457 2259.106659" stroke="black" fill="transparent" stroke-width="0.500000"/>
    <polyline points="2235.599441 2220.186882, 2251.940077 2220.186882" stroke="black" fill="transparent" stroke-width="0.500000"/>
    <polyline points="2251.940077 2220.186882, 2251.940075 2239.978408" stroke="black" fill="transparent" stroke-width="0.500000"/>
    <polyline points="2251.940075 2244.000346, 2251.940074 2248.210605" stroke="black" fill="transparent" stroke-width="0.500000"/>
    <polyline points="2251.940074 2252.197574, 2251.940073 2259.106700" stroke="black" fill="transparent" stroke-width="0.500000"/>
    <polyline points="2166.300259 2224.210337, 2166.300259 2237.344899" stroke="black" fill="transparent" stroke-width="0.500000"/>
    <polyline points="2175.790901 2224.210337, 2175.790901 2237.344899" stroke="black" fill="transparent" stroke-width="0.500000"/>
    <polyline points="2179.020062 2224.210339, 2179.020062 2237.344899" stroke="black" fill="transparent" stroke-width="0.500000"/>
    <polyline points="2188.567361 2224.210339, 2188.567360 2237.622719" stroke="black" fill="transparent" stroke-width="0.500000"/>
    <polyline points="2191.796521 2224.210339, 2191.796520 2237.622719" stroke="black" fill="transparent" stroke-width="0.500000"/>
    <polyline points="2201.335341 2224.210339, 2201.335340 2237.622719" stroke="black" fill="transparent" stroke-width="0.500000"/>
    <polyline points="2204.564501 2224.210339, 2204.564501 2237.622719" stroke="black" fill="transparent" stroke-width="0.500000"/>
    <polyline points="2213.999000 2224.210339, 2213.999000 2237.622719" stroke="black" fill="transparent" stroke-width="0.500000"/>
    <polyline points="2217.189680 2224.210339, 2217.189680 2237.622719" stroke="black" fill="transparent" stroke-width="0.500000"/>
    <polyline points="2226.791260 2224.210341, 2226.791260 2237.622719" stroke="black" fill="transparent" stroke-width="0.500000"/>
    <polyline points="2230.715621 2224.210341, 2230.715621 2237.622719" stroke="black" fill="transparent" stroke-width="0.500000"/>
    <polyline points="2229.983478 2224.210341, 2230.715621 2224.210341" stroke="black" fill="transparent" stroke-width="0.500000"/>
    <polyline points="2229.983478 2224.210341, 2229.983478 2237.622719" stroke="black" fill="transparent" stroke-width="0.500000"/>
    <polyline points="2220.069318 2236.889901, 2224.682819 2236.889901" stroke="black" fill="transparent" stroke-width="0.500000"/>
    <polyline points="2220.069318 2225.907539, 2220.069318 2236.889901" stroke="black" fill="transparent" stroke-width="0.500000"/>
    <polyline points="2220.069318 2225.907539, 2224.682819 2225.907541" stroke="black" fill="transparent" stroke-width="0.500000"/>
    <polyline points="2206.991841 2225.907539, 2206.991840 2236.889901" stroke="black" fill="transparent" stroke-width="0.500000"/>
    <polyline points="2206.991841 2225.907539, 2211.605341 2225.907539" stroke="black" fill="transparent" stroke-width="0.500000"/>
    <polyline points="2194.887081 2225.907539, 2194.887081 2236.889901" stroke="black" fill="transparent" stroke-width="0.500000"/>
    <polyline points="2194.887081 2225.907539, 2199.500580 2225.907539" stroke="black" fill="transparent" stroke-width="0.500000"/>
    <polyline points="2170.137142 2225.907537, 2170.137142 2236.889901" stroke="black" fill="transparent" stroke-width="0.500000"/>
    <polyline points="2170.137142 2225.907537, 2174.750641 2225.907537" stroke="black" fill="transparent" stroke-width="0.500000"/>
    <polyline points="2163.922159 2224.210638, 2163.922139 2259.108380" stroke="black" fill="transparent" stroke-width="0.500000"/>
    <polyline points="2163.922159 2224.210638, 2166.300259 2224.210638" stroke="black" fill="transparent" stroke-width="0.500000"/>
    <polyline points="2167.032384 2224.210638, 2175.790901 2224.210638" stroke="black" fill="transparent" stroke-width="0.500000"/>
    <polyline points="2176.523019 2224.210639, 2179.020062 2224.210639" stroke="black" fill="transparent" stroke-width="0.500000"/>
    <polyline points="2179.752201 2224.210639, 2188.567361 2224.210639" stroke="black" fill="transparent" stroke-width="0.500000"/>
    <polyline points="2189.299481 2224.210639, 2191.796521 2224.210639" stroke="black" fill="transparent" stroke-width="0.500000"/>
    <polyline points="2192.528661 2224.210639, 2201.335341 2224.210640" stroke="black" fill="transparent" stroke-width="0.500000"/>
    <polyline points="2202.067461 2224.210640, 2204.564501 2224.210640" stroke="black" fill="transparent" stroke-width="0.500000"/>
    <polyline points="2205.296641 2224.210640, 2213.999000 2224.210641" stroke="black" fill="transparent" stroke-width="0.500000"/>
    <polyline points="2214.731141 2224.210641, 2217.189680 2224.210641" stroke="black" fill="transparent" stroke-width="0.500000"/>
    <polyline points="2217.921801 2224.210641, 2226.791260 2224.210641" stroke="black" fill="transparent" stroke-width="0.500000"/>
    <polyline points="2227.523399 2224.210641, 2229.983478 2224.210642" stroke="black" fill="transparent" stroke-width="0.500000"/>
    <polyline points="2230.715621 2224.210642, 2235.599442 2224.210642" stroke="black" fill="transparent" stroke-width="0.500000"/>
    <polyline points="2235.867454 2259.106660, 2235.867454 2259.108417" stroke="black" fill="transparent" stroke-width="0.500000"/>
    <polyline points="2174.750641 2225.907537, 2174.750641 2236.889901" stroke="black" fill="transparent" stroke-width="0.500000"/>
    <polyline points="2199.500581 2225.907539, 2199.500580 2236.889901" stroke="black" fill="transparent" stroke-width="0.500000"/>
    <polyline points="2211.605341 2225.907539, 2211.605340 2236.889901" stroke="black" fill="transparent" stroke-width="0.500000"/>
    <polyline points="2224.682819 2225.907541, 2224.682819 2236.889901" stroke="black" fill="transparent" stroke-width="0.500000"/>
    <polyline points="2206.991840 2236.889901, 2211.605340 2236.889901" stroke="black" fill="transparent" stroke-width="0.500000"/>
    <polyline points="2194.887081 2236.889901, 2199.500580 2236.889901" stroke="black" fill="transparent" stroke-width="0.500000"/>
    <polyline points="2170.137142 2236.889901, 2174.750641 2236.889901" stroke="black" fill="transparent" stroke-width="0.500000"/>
    <polyline points="2185.883640 2237.344899, 2200.404420 2237.344899" stroke="black" fill="transparent" stroke-width="0.500000"/>
    <polyline points="2173.205163 2238.077019, 2187.380901 2238.077019" stroke="black" fill="transparent" stroke-width="0.500000"/>
    <polyline points="2198.585640 2237.344899, 2213.438680 2237.344899" stroke="black" fill="transparent" stroke-width="0.500000"/>
    <polyline points="2211.285880 2237.344899, 2225.856720 2237.344899" stroke="black" fill="transparent" stroke-width="0.500000"/>
    <polyline points="2223.941440 2237.344899, 2230.711158 2237.344899" stroke="black" fill="transparent" stroke-width="0.500000"/>
    <polyline points="2163.922159 2238.077019, 2174.324341 2238.077019" stroke="black" fill="transparent" stroke-width="0.500000"/>
    <polyline points="2230.711158 2237.344899, 2230.711140 2238.077019" stroke="black" fill="transparent" stroke-width="0.500000"/>
    <polyline points="2226.791260 2237.622719, 2227.523399 2237.622719" stroke="black" fill="transparent" stroke-width="0.500000"/>
    <polyline points="2229.983478 2237.622719, 2230.715621 2237.622719" stroke="black" fill="transparent" stroke-width="0.500000"/>
    <polyline points="2264.442458 2238.036381, 2252.938740 2238.036406" stroke="black" fill="transparent" stroke-width="0.500000"/>
    <polyline points="2252.938740 2238.036406, 2252.938740 2239.978202" stroke="black" fill="transparent" stroke-width="0.500000"/>
    <polyline points="2264.442458 2238.036381, 2264.444319 2239.968405" stroke="black" fill="transparent" stroke-width="0.500000"/>
    <polyline points="2185.883600 2238.077019, 2200.404380 2238.077019" stroke="black" fill="transparent" stroke-width="0.500000"/>
    <polyline points="2198.585600 2238.077019, 2213.438640 2238.077019" stroke="black" fill="transparent" stroke-width="0.500000"/>
    <polyline points="2211.285880 2238.077019, 2225.856699 2238.077019" stroke="black" fill="transparent" stroke-width="0.500000"/>
    <polyline points="2223.941440 2238.077019, 2230.711140 2238.077019" stroke="black" fill="transparent" stroke-width="0.500000"/>
    <polyline points="2211.358360 2245.295016, 2225.808457 2245.295016" stroke="black" fill="transparent" stroke-width="0.500000"/>
    <polyline points="2198.617420 2245.295016, 2198.617420 2246.027157" stroke="black" fill="transparent" stroke-width="0.500000"/>
    <polyline points="2198.617420 2245.295016, 2213.394860 2245.295016" stroke="black" fill="transparent" stroke-width="0.500000"/>
    <polyline points="2173.275860 2245.295016, 2187.404480 2245.295016" stroke="black" fill="transparent" stroke-width="0.500000"/>
    <polyline points="2163.922155 2245.295016, 2163.922155 2246.027157" stroke="black" fill="transparent" stroke-width="0.500000"/>
    <polyline points="2163.922155 2245.295016, 2174.395040 2245.295016" stroke="black" fill="transparent" stroke-width="0.500000"/>
    <polyline points="2264.444319 2239.968405, 2264.448134 2243.976080" stroke="black" fill="transparent" stroke-width="0.500000"/>
    <polyline points="2252.938740 2239.978202, 2251.467881 2239.978506" stroke="black" fill="transparent" stroke-width="0.500000"/>
    <polyline points="2251.467881 2239.978506, 2251.461177 2244.000241" stroke="black" fill="transparent" stroke-width="0.500000"/>
    <polyline points="2251.461177 2244.000241, 2252.938736 2244.000565" stroke="black" fill="transparent" stroke-width="0.500000"/>
    <polyline points="2264.448134 2243.976080, 2264.450035 2245.969182" stroke="black" fill="transparent" stroke-width="0.500000"/>
    <polyline points="2252.938736 2244.000565, 2252.938736 2245.969182" stroke="black" fill="transparent" stroke-width="0.500000"/>
    <polyline points="2185.954320 2245.295016, 2195.418541 2245.295016" stroke="black" fill="transparent" stroke-width="0.500000"/>
    <polyline points="2195.418540 2245.295016, 2195.418540 2246.027157" stroke="black" fill="transparent" stroke-width="0.500000"/>
    <polyline points="2224.013240 2245.295016, 2230.711158 2245.295016" stroke="black" fill="transparent" stroke-width="0.500000"/>
    <polyline points="2211.358360 2246.027157, 2225.808457 2246.027157" stroke="black" fill="transparent" stroke-width="0.500000"/>
    <polyline points="2198.617420 2246.027157, 2213.394860 2246.027157" stroke="black" fill="transparent" stroke-width="0.500000"/>
    <polyline points="2173.275860 2246.027157, 2187.404480 2246.027157" stroke="black" fill="transparent" stroke-width="0.500000"/>
    <polyline points="2163.922155 2246.027157, 2174.395040 2246.027157" stroke="black" fill="transparent" stroke-width="0.500000"/>
    <polyline points="2230.711158 2245.295016, 2230.711140 2246.027157" stroke="black" fill="transparent" stroke-width="0.500000"/>
    <polyline points="2227.523399 2245.695914, 2227.523399 2259.108298" stroke="black" fill="transparent" stroke-width="0.500000"/>
    <polyline points="2217.921801 2246.027157, 2217.921801 2259.108298" stroke="black" fill="transparent" stroke-width="0.500000"/>
    <polyline points="2205.296640 2246.027157, 2205.296639 2259.108298" stroke="black" fill="transparent" stroke-width="0.500000"/>
    <polyline points="2202.067460 2246.027157, 2202.067459 2259.108298" stroke="black" fill="transparent" stroke-width="0.500000"/>
    <polyline points="2189.299480 2245.695914, 2189.299479 2259.108298" stroke="black" fill="transparent" stroke-width="0.500000"/>
    <polyline points="2179.752201 2246.027157, 2179.752201 2259.108298" stroke="black" fill="transparent" stroke-width="0.500000"/>
    <polyline points="2176.523019 2246.027157, 2176.523019 2259.108298" stroke="black" fill="transparent" stroke-width="0.500000"/>
    <polyline points="2167.032380 2246.027157, 2167.032380 2259.108298" stroke="black" fill="transparent" stroke-width="0.500000"/>
    <polyline points="2166.300255 2246.027157, 2166.300255 2259.108298" stroke="black" fill="transparent" stroke-width="0.500000"/>
    <polyline points="2175.790901 2246.027157, 2175.790901 2259.108298" stroke="black" fill="transparent" stroke-width="0.500000"/>
    <polyline points="2179.020062 2246.027157, 2179.020062 2259.108298" stroke="black" fill="transparent" stroke-width="0.500000"/>
    <polyline points="2188.567360 2245.695914, 2188.567359 2259.108298" stroke="black" fill="transparent" stroke-width="0.500000"/>
    <polyline points="2192.528660 2245.695914, 2192.528660 2259.108298" stroke="black" fill="transparent" stroke-width="0.500000"/>
    <polyline points="2191.796520 2245.695914, 2191.796519 2259.108298" stroke="black" fill="transparent" stroke-width="0.500000"/>
    <polyline points="2201.335340 2246.027157, 2201.335339 2259.108298" stroke="black" fill="transparent" stroke-width="0.500000"/>
    <polyline points="2204.564500 2246.027157, 2204.564499 2259.108298" stroke="black" fill="transparent" stroke-width="0.500000"/>
    <polyline points="2217.189680 2246.027157, 2217.189680 2259.108298" stroke="black" fill="transparent" stroke-width="0.500000"/>
    <polyline points="2226.791260 2245.695914, 2226.791260 2259.108298" stroke="black" fill="transparent" stroke-width="0.500000"/>
    <polyline points="2230.715621 2245.695914, 2230.715621 2259.108298" stroke="black" fill="transparent" stroke-width="0.500000"/>
    <polyline points="2229.983478 2245.695914, 2230.715621 2245.695914" stroke="black" fill="transparent" stroke-width="0.500000"/>
    <polyline points="2229.983478 2245.695914, 2229.983478 2259.108298" stroke="black" fill="transparent" stroke-width="0.500000"/>
    <polyline points="2252.938736 2245.969182, 2264.450035 2245.969182" stroke="black" fill="transparent" stroke-width="0.500000"/>
    <polyline points="2185.954320 2246.027157, 2195.418541 2246.027157" stroke="black" fill="transparent" stroke-width="0.500000"/>
    <polyline points="2224.013240 2246.027157, 2230.711140 2246.027157" stroke="black" fill="transparent" stroke-width="0.500000"/>
    <polyline points="2168.560063 2246.864301, 2168.560063 2257.846662" stroke="black" fill="transparent" stroke-width="0.500000"/>
    <polyline points="2168.560063 2246.864301, 2173.173560 2246.864301" stroke="black" fill="transparent" stroke-width="0.500000"/>
    <polyline points="2264.442458 2246.268580, 2252.938736 2246.268601" stroke="black" fill="transparent" stroke-width="0.500000"/>
    <polyline points="2252.938736 2246.268601, 2252.938736 2248.210402" stroke="black" fill="transparent" stroke-width="0.500000"/>
    <polyline points="2264.442458 2246.268580, 2264.442483 2248.200604" stroke="black" fill="transparent" stroke-width="0.500000"/>
    <polyline points="2173.173560 2246.864301, 2173.173560 2257.846662" stroke="black" fill="transparent" stroke-width="0.500000"/>
    <polyline points="2182.177940 2246.864301, 2182.177940 2257.846662" stroke="black" fill="transparent" stroke-width="0.500000"/>
    <polyline points="2182.177940 2246.864301, 2186.791441 2246.864301" stroke="black" fill="transparent" stroke-width="0.500000"/>
    <polyline points="2186.791441 2246.864301, 2186.791440 2257.846662" stroke="black" fill="transparent" stroke-width="0.500000"/>
    <polyline points="2195.909520 2253.490061, 2198.134019 2253.490061" stroke="black" fill="transparent" stroke-width="0.500000"/>
    <polyline points="2195.909520 2248.194703, 2195.909520 2253.490061" stroke="black" fill="transparent" stroke-width="0.500000"/>
    <polyline points="2195.909520 2248.194703, 2198.134020 2248.194703" stroke="black" fill="transparent" stroke-width="0.500000"/>
    <polyline points="2198.134020 2248.194703, 2198.134019 2253.490061" stroke="black" fill="transparent" stroke-width="0.500000"/>
    <polyline points="2208.662740 2248.194703, 2208.662740 2253.490061" stroke="black" fill="transparent" stroke-width="0.500000"/>
    <polyline points="2208.662740 2248.194703, 2210.887239 2248.194703" stroke="black" fill="transparent" stroke-width="0.500000"/>
    <polyline points="2210.887239 2248.194703, 2210.887239 2253.490061" stroke="black" fill="transparent" stroke-width="0.500000"/>
    <polyline points="2221.307919 2248.194703, 2221.307919 2253.490061" stroke="black" fill="transparent" stroke-width="0.500000"/>
    <polyline points="2221.307919 2248.194703, 2223.532400 2248.194703" stroke="black" fill="transparent" stroke-width="0.500000"/>
    <polyline points="2223.532400 2248.194703, 2223.532400 2253.490061" stroke="black" fill="transparent" stroke-width="0.500000"/>
    <polyline points="2264.442483 2248.200604, 2264.442483 2252.208284" stroke="black" fill="transparent" stroke-width="0.500000"/>
    <polyline points="2252.938736 2248.210402, 2251.467877 2248.210701" stroke="black" fill="transparent" stroke-width="0.500000"/>
    <polyline points="2251.467877 2248.210701, 2251.461214 2252.197465" stroke="black" fill="transparent" stroke-width="0.500000"/>
    <polyline points="2251.461214 2252.197465, 2252.938736 2252.197801" stroke="black" fill="transparent" stroke-width="0.500000"/>
    <polyline points="2264.442483 2252.208284, 2264.442483 2254.201385" stroke="black" fill="transparent" stroke-width="0.500000"/>
    <polyline points="2252.938736 2252.197801, 2252.938736 2254.201385" stroke="black" fill="transparent" stroke-width="0.500000"/>
    <polyline points="2208.662740 2253.490061, 2210.887239 2253.490061" stroke="black" fill="transparent" stroke-width="0.500000"/>
    <polyline points="2221.307919 2253.490061, 2223.532400 2253.490061" stroke="black" fill="transparent" stroke-width="0.500000"/>
    <polyline points="2252.938736 2254.201385, 2264.442483 2254.201385" stroke="black" fill="transparent" stroke-width="0.500000"/>
    <polyline points="2240.322874 2257.587598, 2240.322874 2257.947997" stroke="black" fill="transparent" stroke-width="0.500000"/>
    <polyline points="2168.560063 2257.846662, 2173.173560 2257.846662" stroke="black" fill="transparent" stroke-width="0.500000"/>
    <polyline points="2182.177940 2257.846662, 2186.791440 2257.846662" stroke="black" fill="transparent" stroke-width="0.500000"/>
    <polyline points="2240.284195 2257.947997, 2240.284195 2259.106671" stroke="black" fill="transparent" stroke-width="0.500000"/>
    <polyline points="2240.284195 2257.947997, 2243.953440 2257.948001" stroke="black" fill="transparent" stroke-width="0.500000"/>
    <polyline points="2243.953440 2259.107288, 2243.953440 2259.107303" stroke="black" fill="transparent" stroke-width="0.500000"/>
    <polyline points="2243.892538 2258.356783, 2243.892538 2259.107286" stroke="black" fill="transparent" stroke-width="0.500000"/>
    <polyline points="2243.892538 2258.356783, 2244.457619 2258.356783" stroke="black" fill="transparent" stroke-width="0.500000"/>
    <polyline points="2244.457619 2258.356783, 2244.457619 2259.107303" stroke="black" fill="transparent" stroke-width="0.500000"/>
    <polyline points="2235.867454 2259.106660, 2236.205393 2259.106661" stroke="black" fill="transparent" stroke-width="0.500000"/>
    <polyline points="2244.457619 2259.106681, 2251.940073 2259.106700" stroke="black" fill="transparent" stroke-width="0.500000"/>
    <polyline points="2226.791260 2259.108298, 2227.523399 2259.108298" stroke="black" fill="transparent" stroke-width="0.500000"/>
    <polyline points="2217.189680 2259.108298, 2217.921801 2259.108298" stroke="black" fill="transparent" stroke-width="0.500000"/>
    <polyline points="2204.564499 2259.108298, 2205.296639 2259.108298" stroke="black" fill="transparent" stroke-width="0.500000"/>
    <polyline points="2201.335339 2259.108298, 2202.067459 2259.108298" stroke="black" fill="transparent" stroke-width="0.500000"/>
    <polyline points="2188.567359 2259.108298, 2189.299479 2259.108298" stroke="black" fill="transparent" stroke-width="0.500000"/>
    <polyline points="2179.020062 2259.108298, 2179.752201 2259.108298" stroke="black" fill="transparent" stroke-width="0.500000"/>
    <polyline points="2175.790901 2259.108298, 2176.523019 2259.108298" stroke="black" fill="transparent" stroke-width="0.500000"/>
    <polyline points="2166.300255 2259.108298, 2167.032380 2259.108298" stroke="black" fill="transparent" stroke-width="0.500000"/>
    <polyline points="2240.284195 2259.107282, 2243.953440 2259.107303" stroke="black" fill="transparent" stroke-width="0.500000"/>
    <polyline points="2243.892538 2259.107286, 2244.457619 2259.107303" stroke="black" fill="transparent" stroke-width="0.500000"/>
    <polyline points="2191.796519 2259.108298, 2192.528660 2259.108298" stroke="black" fill="transparent" stroke-width="0.500000"/>
    <polyline points="2229.983478 2259.108298, 2230.715621 2259.108298" stroke="black" fill="transparent" stroke-width="0.500000"/>
    <polyline points="2163.922139 2259.108380, 2235.867454 2259.108417" stroke="black" fill="transparent" stroke-width="0.500000"/>
    <polyline points="2236.205393 2259.107282, 2240.322874 2259.107282" stroke="black" fill="transparent" stroke-width="0.500000"/>
  </g>
</svg>
