<svg version="1.1" baseProfile="full" width="4400" height="4400" xmlns="http://www.w3.org/2000/svg">
  <g stroke-linejoin="round" stroke-linecap="round">
    <polyline points="2457.388523 2152.471131, 2452.964403 2152.471131, 2457.388523 2153.236550, 2457.388523 2152.471131" stroke="rgb(231,231,231)" fill="transparent" stroke-width="1.000000"/>
    <polygon points="2457.388523 2152.471131, 2452.964403 2152.471131, 2457.388523 2153.236550," fill="rgb(231,231,231)"/>
    <polyline points="2466.302575 2103.838416, 2466.302575 2104.871075, 2476.146308 2103.838416, 2466.302575 2103.838416" stroke="rgb(231,231,231)" fill="transparent" stroke-width="1.000000"/>
    <polygon points="2466.302575 2103.838416, 2466.302575 2104.871075, 2476.146308 2103.838416," fill="rgb(231,231,231)"/>
    <polyline points="2473.800880 2170.538033, 2491.926321 2170.538035, 2481.624174 2162.617352, 2473.800880 2170.538033" stroke="rgb(231,231,231)" fill="transparent" stroke-width="1.000000"/>
    <polygon points="2473.800880 2170.538033, 2491.926321 2170.538035, 2481.624174 2162.617352," fill="rgb(231,231,231)"/>
    <polyline points="2491.926321 2170.538035, 2491.926321 2162.617352, 2481.624174 2162.617352, 2491.926321 2170.538035" stroke="rgb(231,231,231)" fill="transparent" stroke-width="1.000000"/>
    <polygon points="2491.926321 2170.538035, 2491.926321 2162.617352, 2481.624174 2162.617352," fill="rgb(231,231,231)"/>
    <polyline points="2491.926321 2170.538035, 2501.701096 2170.538035, 2491.926321 2162.617352, 2491.926321 2170.538035" stroke="rgb(231,231,231)" fill="transparent" stroke-width="1.000000"/>
    <polygon points="2491.926321 2170.538035, 2501.701096 2170.538035, 2491.926321 2162.617352," fill="rgb(231,231,231)"/>
    <polyline points="2501.701096 2170.538035, 2505.512691 2162.617356, 2491.926321 2162.617352, 2501.701096 2170.538035" stroke="rgb(231,231,231)" fill="transparent" stroke-width="1.000000"/>
    <polygon points="2501.701096 2170.538035, 2505.512691 2162.617356, 2491.926321 2162.617352," fill="rgb(231,231,231)"/>
    <polyline points="2505.512691 2170.538035, 2505.512691 2162.617356, 2501.701096 2170.538035, 2505.512691 2170.538035" stroke="rgb(231,231,231)" fill="transparent" stroke-width="1.000000"/>
    <polygon points="2505.512691 2170.538035, 2505.512691 2162.617356, 2501.701096 2170.538035," fill="rgb(231,231,231)"/>
    <polyline points="2455.075222 2113.294454, 2457.422978 2112.215867, 2455.075222 2108.554170, 2455.075222 2113.294454" stroke="rgb(231,231,231)" fill="transparent" stroke-width="1.000000"/>
    <polygon points="2455.075222 2113.294454, 2457.422978 2112.215867, 2455.075222 2108.554170," fill="rgb(231,231,231)"/>
    <polyline points="2457.422978 2112.215867, 2457.422978 2108.916532, 2455.075222 2108.554170, 2457.422978 2112.215867" stroke="rgb(231,231,231)" fill="transparent" stroke-width="1.000000"/>
    <polygon points="2457.422978 2112.215867, 2457.422978 2108.916532, 2455.075222 2108.554170," fill="rgb(231,231,231)"/>
    <polyline points="2457.422978 2108.916532, 2457.422978 2112.215867, 2457.795191 2108.916532, 2457.422978 2108.916532" stroke="rgb(231,231,231)" fill="transparent" stroke-width="1.000000"/>
    <polygon points="2457.422978 2108.916532, 2457.422978 2112.215867, 2457.795191 2108.916532," fill="rgb(231,231,231)"/>
    <polyline points="2457.422978 2112.215867, 2457.795191 2112.215867, 2457.795191 2108.916532, 2457.422978 2112.215867" stroke="rgb(231,231,231)" fill="transparent" stroke-width="1.000000"/>
    <polygon points="2457.422978 2112.215867, 2457.795191 2112.215867, 2457.795191 2108.916532," fill="rgb(231,231,231)"/>
    <polyline points="2457.795191 2108.916532, 2457.795191 2112.215867, 2465.521301 2108.395617, 2457.795191 2108.916532" stroke="rgb(231,231,231)" fill="transparent" stroke-width="1.000000"/>
    <polygon points="2457.795191 2108.916532, 2457.795191 2112.215867, 2465.521301 2108.395617," fill="rgb(231,231,231)"/>
    <polyline points="2457.795191 2112.215867, 2465.521301 2121.451835, 2465.521301 2108.395617, 2457.795191 2112.215867" stroke="rgb(231,231,231)" fill="transparent" stroke-width="1.000000"/>
    <polygon points="2457.795191 2112.215867, 2465.521301 2121.451835, 2465.521301 2108.395617," fill="rgb(231,231,231)"/>
    <polyline points="2465.521301 2131.340234, 2465.521301 2121.451835, 2457.795191 2112.215867, 2465.521301 2131.340234" stroke="rgb(231,231,231)" fill="transparent" stroke-width="1.000000"/>
    <polygon points="2465.521301 2131.340234, 2465.521301 2121.451835, 2457.795191 2112.215867," fill="rgb(231,231,231)"/>
    <polyline points="2457.795191 2153.236550, 2465.521301 2131.340234, 2457.795191 2112.215867, 2457.795191 2153.236550" stroke="rgb(231,231,231)" fill="transparent" stroke-width="1.000000"/>
    <polygon points="2457.795191 2153.236550, 2465.521301 2131.340234, 2457.795191 2112.215867," fill="rgb(231,231,231)"/>
    <polyline points="2457.795191 2108.916532, 2465.521301 2108.395617, 2465.521301 2104.871075, 2457.795191 2108.916532" stroke="rgb(231,231,231)" fill="transparent" stroke-width="1.000000"/>
    <polygon points="2457.795191 2108.916532, 2465.521301 2108.395617, 2465.521301 2104.871075," fill="rgb(231,231,231)"/>
    <polyline points="2466.302575 2104.871075, 2465.521301 2104.871075, 2465.521301 2108.395617, 2466.302575 2104.871075" stroke="rgb(231,231,231)" fill="transparent" stroke-width="1.000000"/>
    <polygon points="2466.302575 2104.871075, 2465.521301 2104.871075, 2465.521301 2108.395617," fill="rgb(231,231,231)"/>
    <polyline points="2466.302575 2108.395617, 2466.302575 2104.871075, 2465.521301 2108.395617, 2466.302575 2108.395617" stroke="rgb(231,231,231)" fill="transparent" stroke-width="1.000000"/>
    <polygon points="2466.302575 2108.395617, 2466.302575 2104.871075, 2465.521301 2108.395617," fill="rgb(231,231,231)"/>
    <polyline points="2466.302575 2104.871075, 2466.302575 2108.395617, 2468.266234 2108.395617, 2466.302575 2104.871075" stroke="rgb(231,231,231)" fill="transparent" stroke-width="1.000000"/>
    <polygon points="2466.302575 2104.871075, 2466.302575 2108.395617, 2468.266234 2108.395617," fill="rgb(231,231,231)"/>
    <polyline points="2476.146308 2103.838416, 2466.302575 2104.871075, 2468.266234 2108.395617, 2476.146308 2103.838416" stroke="rgb(231,231,231)" fill="transparent" stroke-width="1.000000"/>
    <polygon points="2476.146308 2103.838416, 2466.302575 2104.871075, 2468.266234 2108.395617," fill="rgb(231,231,231)"/>
    <polyline points="2476.146308 2113.212801, 2476.146308 2103.838416, 2468.266234 2108.395617, 2476.146308 2113.212801" stroke="rgb(231,231,231)" fill="transparent" stroke-width="1.000000"/>
    <polygon points="2476.146308 2113.212801, 2476.146308 2103.838416, 2468.266234 2108.395617," fill="rgb(231,231,231)"/>
    <polyline points="2468.266234 2113.212801, 2476.146308 2113.212801, 2468.266234 2108.395617, 2468.266234 2113.212801" stroke="rgb(231,231,231)" fill="transparent" stroke-width="1.000000"/>
    <polygon points="2468.266234 2113.212801, 2476.146308 2113.212801, 2468.266234 2108.395617," fill="rgb(231,231,231)"/>
    <polyline points="2457.795191 2094.716154, 2457.795191 2108.916532, 2465.521301 2104.871075, 2457.795191 2094.716154" stroke="rgb(231,231,231)" fill="transparent" stroke-width="1.000000"/>
    <polygon points="2457.795191 2094.716154, 2457.795191 2108.916532, 2465.521301 2104.871075," fill="rgb(231,231,231)"/>
    <polyline points="2465.521301 2102.431356, 2457.795191 2094.716154, 2465.521301 2104.871075, 2465.521301 2102.431356" stroke="rgb(231,231,231)" fill="transparent" stroke-width="1.000000"/>
    <polygon points="2465.521301 2102.431356, 2457.795191 2094.716154, 2465.521301 2104.871075," fill="rgb(231,231,231)"/>
    <polyline points="2481.470424 2094.716162, 2457.795191 2094.716154, 2465.521301 2102.431356, 2481.470424 2094.716162" stroke="rgb(231,231,231)" fill="transparent" stroke-width="1.000000"/>
    <polygon points="2481.470424 2094.716162, 2457.795191 2094.716154, 2465.521301 2102.431356," fill="rgb(231,231,231)"/>
    <polyline points="2481.470424 2102.431356, 2481.470424 2094.716162, 2465.521301 2102.431356, 2481.470424 2102.431356" stroke="rgb(231,231,231)" fill="transparent" stroke-width="1.000000"/>
    <polygon points="2481.470424 2102.431356, 2481.470424 2094.716162, 2465.521301 2102.431356," fill="rgb(231,231,231)"/>
    <polyline points="2465.521301 2131.340234, 2457.795191 2153.236550, 2465.521301 2150.682052, 2465.521301 2131.340234" stroke="rgb(231,231,231)" fill="transparent" stroke-width="1.000000"/>
    <polygon points="2465.521301 2131.340234, 2457.795191 2153.236550, 2465.521301 2150.682052," fill="rgb(231,231,231)"/>
    <polyline points="2457.795191 2153.236550, 2457.795191 2156.538790, 2465.521301 2150.682052, 2457.795191 2153.236550" stroke="rgb(231,231,231)" fill="transparent" stroke-width="1.000000"/>
    <polygon points="2457.795191 2153.236550, 2457.795191 2156.538790, 2465.521301 2150.682052," fill="rgb(231,231,231)"/>
    <polyline points="2457.553501 2156.538790, 2457.795191 2156.538790, 2457.795191 2153.236550, 2457.553501 2156.538790" stroke="rgb(231,231,231)" fill="transparent" stroke-width="1.000000"/>
    <polygon points="2457.553501 2156.538790, 2457.795191 2156.538790, 2457.795191 2153.236550," fill="rgb(231,231,231)"/>
    <polyline points="2457.388523 2153.236550, 2457.553501 2156.538790, 2457.795191 2153.236550, 2457.388523 2153.236550" stroke="rgb(231,231,231)" fill="transparent" stroke-width="1.000000"/>
    <polygon points="2457.388523 2153.236550, 2457.553501 2156.538790, 2457.795191 2153.236550," fill="rgb(231,231,231)"/>
    <polyline points="2457.388523 2153.236550, 2452.964403 2152.471131, 2457.553501 2156.538790, 2457.388523 2153.236550" stroke="rgb(231,231,231)" fill="transparent" stroke-width="1.000000"/>
    <polygon points="2457.388523 2153.236550, 2452.964403 2152.471131, 2457.553501 2156.538790," fill="rgb(231,231,231)"/>
    <polyline points="2457.795191 2156.538790, 2457.795191 2158.471273, 2465.521301 2150.682052, 2457.795191 2156.538790" stroke="rgb(231,231,231)" fill="transparent" stroke-width="1.000000"/>
    <polygon points="2457.795191 2156.538790, 2457.795191 2158.471273, 2465.521301 2150.682052," fill="rgb(231,231,231)"/>
    <polyline points="2457.795191 2158.471273, 2473.800880 2158.471273, 2465.521301 2150.682052, 2457.795191 2158.471273" stroke="rgb(231,231,231)" fill="transparent" stroke-width="1.000000"/>
    <polygon points="2457.795191 2158.471273, 2473.800880 2158.471273, 2465.521301 2150.682052," fill="rgb(231,231,231)"/>
    <polyline points="2473.800880 2158.471273, 2481.624174 2150.682052, 2465.521301 2150.682052, 2473.800880 2158.471273" stroke="rgb(231,231,231)" fill="transparent" stroke-width="1.000000"/>
    <polygon points="2473.800880 2158.471273, 2481.624174 2150.682052, 2465.521301 2150.682052," fill="rgb(231,231,231)"/>
    <polyline points="2452.964403 2152.471131, 2457.553501 2158.682073, 2457.553501 2156.538790, 2452.964403 2152.471131" stroke="rgb(231,231,231)" fill="transparent" stroke-width="1.000000"/>
    <polygon points="2452.964403 2152.471131, 2457.553501 2158.682073, 2457.553501 2156.538790," fill="rgb(231,231,231)"/>
    <polyline points="2457.553501 2158.682073, 2452.964403 2152.471131, 2429.339147 2158.682073, 2457.553501 2158.682073" stroke="rgb(231,231,231)" fill="transparent" stroke-width="1.000000"/>
    <polygon points="2457.553501 2158.682073, 2452.964403 2152.471131, 2429.339147 2158.682073," fill="rgb(231,231,231)"/>
    <polyline points="2429.339147 2158.682073, 2452.964403 2152.471131, 2429.339147 2134.956527, 2429.339147 2158.682073" stroke="rgb(231,231,231)" fill="transparent" stroke-width="1.000000"/>
    <polygon points="2429.339147 2158.682073, 2452.964403 2152.471131, 2429.339147 2134.956527," fill="rgb(231,231,231)"/>
    <polyline points="2452.964403 2152.471131, 2452.964403 2134.956527, 2429.339147 2134.956527, 2452.964403 2152.471131" stroke="rgb(231,231,231)" fill="transparent" stroke-width="1.000000"/>
    <polygon points="2452.964403 2152.471131, 2452.964403 2134.956527, 2429.339147 2134.956527," fill="rgb(231,231,231)"/>
    <polyline points="2473.800880 2170.538033, 2481.624174 2162.617352, 2473.800880 2158.471273, 2473.800880 2170.538033" stroke="rgb(231,231,231)" fill="transparent" stroke-width="1.000000"/>
    <polygon points="2473.800880 2170.538033, 2481.624174 2162.617352, 2473.800880 2158.471273," fill="rgb(231,231,231)"/>
    <polyline points="2481.624174 2162.617352, 2481.624174 2150.682052, 2473.800880 2158.471273, 2481.624174 2162.617352" stroke="rgb(231,231,231)" fill="transparent" stroke-width="1.000000"/>
    <polygon points="2481.624174 2162.617352, 2481.624174 2150.682052, 2473.800880 2158.471273," fill="rgb(231,231,231)"/>
    <polyline points="2491.797879 2170.220653, 2491.797879 2190.563913, 2501.791477 2170.220635, 2491.797879 2170.220653" stroke="rgb(231,231,231)" fill="transparent" stroke-width="1.000000"/>
    <polygon points="2491.797879 2170.220653, 2491.797879 2190.563913, 2501.791477 2170.220635," fill="rgb(231,231,231)"/>
    <polyline points="2491.797879 2190.563913, 2501.791477 2190.563914, 2501.791477 2170.220635, 2491.797879 2190.563913" stroke="rgb(231,231,231)" fill="transparent" stroke-width="1.000000"/>
    <polygon points="2491.797879 2190.563913, 2501.791477 2190.563914, 2501.791477 2170.220635," fill="rgb(231,231,231)"/>
    <polyline points="2464.900842 2131.340476, 2485.606435 2131.340492, 2464.900842 2121.354233, 2464.900842 2131.340476" stroke="rgb(231,231,231)" fill="transparent" stroke-width="1.000000"/>
    <polygon points="2464.900842 2131.340476, 2485.606435 2131.340492, 2464.900842 2121.354233," fill="rgb(231,231,231)"/>
    <polyline points="2485.606435 2131.340492, 2485.606435 2121.354258, 2464.900842 2121.354233, 2485.606435 2131.340492" stroke="rgb(231,231,231)" fill="transparent" stroke-width="1.000000"/>
    <polygon points="2485.606435 2131.340492, 2485.606435 2121.354258, 2464.900842 2121.354233," fill="rgb(231,231,231)"/>
    <polyline points="2497.189823 2172.566235, 2496.465361 2172.566235, 2497.189823 2185.634234, 2497.189823 2172.566235" stroke="rgb(103,103,103)" fill="transparent" stroke-width="1.000000"/>
    <polygon points="2497.189823 2172.566235, 2496.465361 2172.566235, 2497.189823 2185.634234," fill="rgb(103,103,103)"/>
    <polyline points="2496.465361 2172.566235, 2496.465361 2185.634234, 2497.189823 2185.634234, 2496.465361 2172.566235" stroke="rgb(103,103,103)" fill="transparent" stroke-width="1.000000"/>
    <polygon points="2496.465361 2172.566235, 2496.465361 2185.634234, 2497.189823 2185.634234," fill="rgb(103,103,103)"/>
    <polyline points="2480.707279 2126.714894, 2480.707279 2125.990457, 2467.650856 2126.714894, 2480.707279 2126.714894" stroke="rgb(103,103,103)" fill="transparent" stroke-width="1.000000"/>
    <polygon points="2480.707279 2126.714894, 2480.707279 2125.990457, 2467.650856 2126.714894," fill="rgb(103,103,103)"/>
    <polyline points="2480.707279 2125.990457, 2467.650856 2125.990457, 2467.650856 2126.714894, 2480.707279 2125.990457" stroke="rgb(103,103,103)" fill="transparent" stroke-width="1.000000"/>
    <polygon points="2480.707279 2125.990457, 2467.650856 2125.990457, 2467.650856 2126.714894," fill="rgb(103,103,103)"/>
    <polyline points="2496.402025 2171.531714, 2497.798824 2173.635093, 2497.888780 2169.827094, 2496.402025 2171.531714" stroke="rgb(103,103,103)" fill="transparent" stroke-width="1.000000"/>
    <polygon points="2496.402025 2171.531714, 2497.798824 2173.635093, 2497.888780 2169.827094," fill="rgb(103,103,103)"/>
    <polyline points="2505.512002 2162.617836, 2503.659755 2162.635391, 2502.746171 2164.340030, 2505.512002 2162.617836" stroke="rgb(103,103,103)" fill="transparent" stroke-width="1.000000"/>
    <polygon points="2505.512002 2162.617836, 2503.659755 2162.635391, 2502.746171 2164.340030," fill="rgb(103,103,103)"/>
    <polyline points="2497.798824 2173.635093, 2501.797116 2170.556215, 2497.888780 2169.827094, 2497.798824 2173.635093" stroke="rgb(103,103,103)" fill="transparent" stroke-width="1.000000"/>
    <polygon points="2497.798824 2173.635093, 2501.797116 2170.556215, 2497.888780 2169.827094," fill="rgb(103,103,103)"/>
    <polyline points="2501.797116 2170.556215, 2500.982699 2168.275353, 2497.888780 2169.827094, 2501.797116 2170.556215" stroke="rgb(103,103,103)" fill="transparent" stroke-width="1.000000"/>
    <polygon points="2501.797116 2170.556215, 2500.982699 2168.275353, 2497.888780 2169.827094," fill="rgb(103,103,103)"/>
    <polyline points="2500.982699 2168.275353, 2501.797116 2170.556215, 2503.019184 2166.704331, 2500.982699 2168.275353" stroke="rgb(103,103,103)" fill="transparent" stroke-width="1.000000"/>
    <polygon points="2500.982699 2168.275353, 2501.797116 2170.556215, 2503.019184 2166.704331," fill="rgb(103,103,103)"/>
    <polyline points="2501.797116 2170.556215, 2505.511969 2170.556215, 2503.019184 2166.704331, 2501.797116 2170.556215" stroke="rgb(103,103,103)" fill="transparent" stroke-width="1.000000"/>
    <polygon points="2501.797116 2170.556215, 2505.511969 2170.556215, 2503.019184 2166.704331," fill="rgb(103,103,103)"/>
    <polyline points="2505.511969 2170.556215, 2505.512002 2162.617836, 2503.019184 2166.704331, 2505.511969 2170.556215" stroke="rgb(103,103,103)" fill="transparent" stroke-width="1.000000"/>
    <polygon points="2505.511969 2170.556215, 2505.512002 2162.617836, 2503.019184 2166.704331," fill="rgb(103,103,103)"/>
    <polyline points="2505.512002 2162.617836, 2502.746171 2164.340030, 2503.019184 2166.704331, 2505.512002 2162.617836" stroke="rgb(103,103,103)" fill="transparent" stroke-width="1.000000"/>
    <polygon points="2505.512002 2162.617836, 2502.746171 2164.340030, 2503.019184 2166.704331," fill="rgb(103,103,103)"/>
    <polyline points="2456.135246 2108.717837, 2455.048521 2108.554195, 2456.131935 2112.808977, 2456.135246 2108.717837" stroke="rgb(103,103,103)" fill="transparent" stroke-width="1.000000"/>
    <polygon points="2456.135246 2108.717837, 2455.048521 2108.554195, 2456.131935 2112.808977," fill="rgb(103,103,103)"/>
    <polyline points="2455.048521 2108.554195, 2455.048521 2113.294438, 2456.131935 2112.808977, 2455.048521 2108.554195" stroke="rgb(103,103,103)" fill="transparent" stroke-width="1.000000"/>
    <polygon points="2455.048521 2108.554195, 2455.048521 2113.294438, 2456.131935 2112.808977," fill="rgb(103,103,103)"/>
    <polyline points="2481.469309 2100.148109, 2481.469309 2096.239354, 2480.227736 2100.148109, 2481.469309 2100.148109" stroke="rgb(103,103,103)" fill="transparent" stroke-width="1.000000"/>
    <polygon points="2481.469309 2100.148109, 2481.469309 2096.239354, 2480.227736 2100.148109," fill="rgb(103,103,103)"/>
    <polyline points="2481.469309 2096.239354, 2480.227736 2096.239354, 2480.227736 2100.148109, 2481.469309 2096.239354" stroke="rgb(103,103,103)" fill="transparent" stroke-width="1.000000"/>
    <polygon points="2481.469309 2096.239354, 2480.227736 2096.239354, 2480.227736 2100.148109," fill="rgb(103,103,103)"/>
    <polyline points="2439.973283 2148.319815, 2438.153999 2148.319815, 2439.973283 2150.466793, 2439.973283 2148.319815" stroke="rgb(103,103,103)" fill="transparent" stroke-width="1.000000"/>
    <polygon points="2439.973283 2148.319815, 2438.153999 2148.319815, 2439.973283 2150.466793," fill="rgb(103,103,103)"/>
    <polyline points="2438.153999 2148.319815, 2438.153999 2150.466793, 2439.973283 2150.466793, 2438.153999 2148.319815" stroke="rgb(103,103,103)" fill="transparent" stroke-width="1.000000"/>
    <polygon points="2438.153999 2148.319815, 2438.153999 2150.466793, 2439.973283 2150.466793," fill="rgb(103,103,103)"/>
    <polyline points="2440.613854 2147.430494, 2440.062287 2147.430494, 2440.613854 2148.461636, 2440.613854 2147.430494" stroke="rgb(103,103,103)" fill="transparent" stroke-width="1.000000"/>
    <polygon points="2440.613854 2147.430494, 2440.062287 2147.430494, 2440.613854 2148.461636," fill="rgb(103,103,103)"/>
    <polyline points="2440.062287 2147.430494, 2440.062287 2148.461636, 2440.613854 2148.461636, 2440.062287 2147.430494" stroke="rgb(103,103,103)" fill="transparent" stroke-width="1.000000"/>
    <polygon points="2440.062287 2147.430494, 2440.062287 2148.461636, 2440.613854 2148.461636," fill="rgb(103,103,103)"/>
    <polyline points="2476.147783 2110.153893, 2476.147783 2103.839482, 2474.572974 2110.089115, 2476.147783 2110.153893" stroke="rgb(103,103,103)" fill="transparent" stroke-width="1.000000"/>
    <polygon points="2476.147783 2110.153893, 2476.147783 2103.839482, 2474.572974 2110.089115," fill="rgb(103,103,103)"/>
    <polyline points="2474.572974 2110.089115, 2476.147783 2103.839482, 2474.033013 2107.334061, 2474.572974 2110.089115" stroke="rgb(103,103,103)" fill="transparent" stroke-width="1.000000"/>
    <polygon points="2474.572974 2110.089115, 2476.147783 2103.839482, 2474.033013 2107.334061," fill="rgb(103,103,103)"/>
    <polyline points="2474.033013 2107.334061, 2476.147783 2103.839482, 2471.099663 2105.577326, 2474.033013 2107.334061" stroke="rgb(103,103,103)" fill="transparent" stroke-width="1.000000"/>
    <polygon points="2474.033013 2107.334061, 2476.147783 2103.839482, 2471.099663 2105.577326," fill="rgb(103,103,103)"/>
    <polyline points="2476.147783 2103.839482, 2470.700257 2103.839482, 2471.099663 2105.577326, 2476.147783 2103.839482" stroke="rgb(103,103,103)" fill="transparent" stroke-width="1.000000"/>
    <polygon points="2476.147783 2103.839482, 2470.700257 2103.839482, 2471.099663 2105.577326," fill="rgb(103,103,103)"/>
    <polyline points="2468.267611 2110.704845, 2468.267643 2113.212317, 2469.842501 2110.742275, 2468.267611 2110.704845" stroke="rgb(103,103,103)" fill="transparent" stroke-width="1.000000"/>
    <polygon points="2468.267611 2110.704845, 2468.267643 2113.212317, 2469.842501 2110.742275," fill="rgb(103,103,103)"/>
    <polyline points="2469.842501 2110.742275, 2468.267643 2113.212317, 2470.977023 2111.085803, 2469.842501 2110.742275" stroke="rgb(103,103,103)" fill="transparent" stroke-width="1.000000"/>
    <polygon points="2469.842501 2110.742275, 2468.267643 2113.212317, 2470.977023 2111.085803," fill="rgb(103,103,103)"/>
    <polyline points="2470.977023 2111.085803, 2468.267643 2113.212317, 2472.111480 2112.211122, 2470.977023 2111.085803" stroke="rgb(103,103,103)" fill="transparent" stroke-width="1.000000"/>
    <polygon points="2470.977023 2111.085803, 2468.267643 2113.212317, 2472.111480 2112.211122," fill="rgb(103,103,103)"/>
    <polyline points="2468.267643 2113.212317, 2472.323518 2113.212317, 2472.111480 2112.211122, 2468.267643 2113.212317" stroke="rgb(103,103,103)" fill="transparent" stroke-width="1.000000"/>
    <polygon points="2468.267643 2113.212317, 2472.323518 2113.212317, 2472.111480 2112.211122," fill="rgb(103,103,103)"/>
    <polyline points="2471.806553 2112.266795, 2472.412293 2113.096718, 2472.856726 2111.500257, 2471.806553 2112.266795" stroke="rgb(103,103,103)" fill="transparent" stroke-width="1.000000"/>
    <polygon points="2471.806553 2112.266795, 2472.412293 2113.096718, 2472.856726 2111.500257," fill="rgb(103,103,103)"/>
    <polyline points="2472.412293 2113.096718, 2473.462498 2112.330171, 2472.856726 2111.500257, 2472.412293 2113.096718" stroke="rgb(103,103,103)" fill="transparent" stroke-width="1.000000"/>
    <polygon points="2472.412293 2113.096718, 2473.462498 2112.330171, 2472.856726 2111.500257," fill="rgb(103,103,103)"/>
    <polyline points="2468.265627 2110.164458, 2468.265627 2111.614864, 2469.207306 2110.164458, 2468.265627 2110.164458" stroke="rgb(103,103,103)" fill="transparent" stroke-width="1.000000"/>
    <polygon points="2468.265627 2110.164458, 2468.265627 2111.614864, 2469.207306 2110.164458," fill="rgb(103,103,103)"/>
    <polyline points="2468.265627 2111.614864, 2469.207306 2111.614864, 2469.207306 2110.164458, 2468.265627 2111.614864" stroke="rgb(103,103,103)" fill="transparent" stroke-width="1.000000"/>
    <polygon points="2468.265627 2111.614864, 2469.207306 2111.614864, 2469.207306 2110.164458," fill="rgb(103,103,103)"/>
    <polyline points="2458.736542 2147.089412, 2458.736542 2139.573831, 2457.792208 2147.089412, 2458.736542 2147.089412" stroke="rgb(103,103,103)" fill="transparent" stroke-width="1.000000"/>
    <polygon points="2458.736542 2147.089412, 2458.736542 2139.573831, 2457.792208 2147.089412," fill="rgb(103,103,103)"/>
    <polyline points="2458.736542 2139.573831, 2457.792208 2139.573831, 2457.792208 2147.089412, 2458.736542 2139.573831" stroke="rgb(103,103,103)" fill="transparent" stroke-width="1.000000"/>
    <polygon points="2458.736542 2139.573831, 2457.792208 2139.573831, 2457.792208 2147.089412," fill="rgb(103,103,103)"/>
    <polyline points="2501.390120 2162.614234, 2492.743066 2162.614234, 2501.390120 2163.663931, 2501.390120 2162.614234" stroke="rgb(103,103,103)" fill="transparent" stroke-width="1.000000"/>
    <polygon points="2501.390120 2162.614234, 2492.743066 2162.614234, 2501.390120 2163.663931," fill="rgb(103,103,103)"/>
    <polyline points="2492.743066 2162.614234, 2492.743066 2163.663931, 2501.390120 2163.663931, 2492.743066 2162.614234" stroke="rgb(103,103,103)" fill="transparent" stroke-width="1.000000"/>
    <polygon points="2492.743066 2162.614234, 2492.743066 2163.663931, 2501.390120 2163.663931," fill="rgb(103,103,103)"/>
    <polyline points="2497.568887 2170.493394, 2497.097245 2172.546813, 2501.790264 2170.493394, 2497.568887 2170.493394" stroke="rgb(103,103,103)" fill="transparent" stroke-width="1.000000"/>
    <polygon points="2497.568887 2170.493394, 2497.097245 2172.546813, 2501.790264 2170.493394," fill="rgb(103,103,103)"/>
    <polyline points="2501.790264 2170.493394, 2497.097245 2172.546813, 2501.790264 2190.562154, 2501.790264 2170.493394" stroke="rgb(103,103,103)" fill="transparent" stroke-width="1.000000"/>
    <polygon points="2501.790264 2170.493394, 2497.097245 2172.546813, 2501.790264 2190.562154," fill="rgb(103,103,103)"/>
    <polyline points="2497.097245 2172.546813, 2497.097245 2190.562193, 2501.790264 2190.562154, 2497.097245 2172.546813" stroke="rgb(103,103,103)" fill="transparent" stroke-width="1.000000"/>
    <polygon points="2497.097245 2172.546813, 2497.097245 2190.562193, 2501.790264 2190.562154," fill="rgb(103,103,103)"/>
    <polyline points="2467.945243 2103.979938, 2467.821194 2103.765041, 2465.960112 2105.126033, 2467.945243 2103.979938" stroke="rgb(103,103,103)" fill="transparent" stroke-width="1.000000"/>
    <polygon points="2467.945243 2103.979938, 2467.821194 2103.765041, 2465.960112 2105.126033," fill="rgb(103,103,103)"/>
    <polyline points="2467.821194 2103.765041, 2465.836063 2104.911160, 2465.960112 2105.126033, 2467.821194 2103.765041" stroke="rgb(103,103,103)" fill="transparent" stroke-width="1.000000"/>
    <polygon points="2467.821194 2103.765041, 2465.836063 2104.911160, 2465.960112 2105.126033," fill="rgb(103,103,103)"/>
    <polyline points="2466.757663 2108.513233, 2466.859715 2108.222001, 2465.822327 2108.185457, 2466.757663 2108.513233" stroke="rgb(103,103,103)" fill="transparent" stroke-width="1.000000"/>
    <polygon points="2466.757663 2108.513233, 2466.859715 2108.222001, 2465.822327 2108.185457," fill="rgb(103,103,103)"/>
    <polyline points="2466.859715 2108.222001, 2465.924379 2107.894216, 2465.822327 2108.185457, 2466.859715 2108.222001" stroke="rgb(103,103,103)" fill="transparent" stroke-width="1.000000"/>
    <polygon points="2466.859715 2108.222001, 2465.924379 2107.894216, 2465.822327 2108.185457," fill="rgb(103,103,103)"/>
    <polyline points="2435.211518 2134.931649, 2430.482946 2139.318414, 2437.657802 2137.569555, 2435.211518 2134.931649" stroke="rgb(103,103,103)" fill="transparent" stroke-width="1.000000"/>
    <polygon points="2435.211518 2134.931649, 2430.482946 2139.318414, 2437.657802 2137.569555," fill="rgb(103,103,103)"/>
    <polyline points="2430.482946 2139.318414, 2432.929246 2141.956327, 2437.657802 2137.569555, 2430.482946 2139.318414" stroke="rgb(103,103,103)" fill="transparent" stroke-width="1.000000"/>
    <polygon points="2430.482946 2139.318414, 2432.929246 2141.956327, 2437.657802 2137.569555," fill="rgb(103,103,103)"/>
    <polyline points="2458.736542 2117.612793, 2458.736542 2113.908373, 2457.792208 2117.612793, 2458.736542 2117.612793" stroke="rgb(103,103,103)" fill="transparent" stroke-width="1.000000"/>
    <polygon points="2458.736542 2117.612793, 2458.736542 2113.908373, 2457.792208 2117.612793," fill="rgb(103,103,103)"/>
    <polyline points="2458.736542 2113.908373, 2457.792208 2113.908373, 2457.792208 2117.612793, 2458.736542 2113.908373" stroke="rgb(103,103,103)" fill="transparent" stroke-width="1.000000"/>
    <polygon points="2458.736542 2113.908373, 2457.792208 2113.908373, 2457.792208 2117.612793," fill="rgb(103,103,103)"/>
    <polyline points="2485.605451 2131.346758, 2485.605451 2126.575355, 2467.650151 2131.346758, 2485.605451 2131.346758" stroke="rgb(103,103,103)" fill="transparent" stroke-width="1.000000"/>
    <polygon points="2485.605451 2131.346758, 2485.605451 2126.575355, 2467.650151 2131.346758," fill="rgb(103,103,103)"/>
    <polyline points="2485.605451 2126.575355, 2467.650151 2126.575355, 2467.650151 2131.346758, 2485.605451 2126.575355" stroke="rgb(103,103,103)" fill="transparent" stroke-width="1.000000"/>
    <polygon points="2485.605451 2126.575355, 2467.650151 2126.575355, 2467.650151 2131.346758," fill="rgb(103,103,103)"/>
    <polyline points="2441.257703 2146.340884, 2441.354002 2145.801791, 2441.070171 2146.023864, 2441.257703 2146.340884" stroke="rgb(103,103,103)" fill="transparent" stroke-width="1.000000"/>
    <polygon points="2441.257703 2146.340884, 2441.354002 2145.801791, 2441.070171 2146.023864," fill="rgb(103,103,103)"/>
    <polyline points="2445.742783 2143.814861, 2445.482326 2143.938000, 2445.265190 2149.202215, 2447.247158 2144.441032, 2445.742783 2143.814861" stroke="rgb(103,103,103)" fill="transparent" stroke-width="1.000000"/>
    <polygon points="2445.742783 2143.814861, 2445.482326 2143.938000, 2445.265190 2149.202215, 2447.247158 2144.441032," fill="rgb(103,103,103)"/>
    <polyline points="2445.376045 2143.988252, 2443.509783 2148.471532, 2445.265190 2149.202215, 2445.482326 2143.938000, 2445.376045 2143.988252" stroke="rgb(103,103,103)" fill="transparent" stroke-width="1.000000"/>
    <polygon points="2445.376045 2143.988252, 2443.509783 2148.471532, 2445.265190 2149.202215, 2445.482326 2143.938000," fill="rgb(103,103,103)"/>
    <polyline points="2441.257703 2146.340884, 2441.070171 2146.023864, 2440.698466 2146.314678, 2441.061270 2147.440574, 2441.257703 2146.340884" stroke="rgb(103,103,103)" fill="transparent" stroke-width="1.000000"/>
    <polygon points="2441.257703 2146.340884, 2441.070171 2146.023864, 2440.698466 2146.314678, 2441.061270 2147.440574," fill="rgb(103,103,103)"/>
    <polyline points="2439.593464 2147.178523, 2441.061270 2147.440574, 2440.698466 2146.314678, 2439.593464 2147.178523" stroke="rgb(103,103,103)" fill="transparent" stroke-width="1.000000"/>
    <polygon points="2439.593464 2147.178523, 2441.061270 2147.440574, 2440.698466 2146.314678," fill="rgb(103,103,103)"/>
    <polyline points="2436.034016 2155.027593, 2429.338196 2155.027593, 2436.034016 2158.679692, 2436.034016 2155.027593" stroke="rgb(103,103,103)" fill="transparent" stroke-width="1.000000"/>
    <polygon points="2436.034016 2155.027593, 2429.338196 2155.027593, 2436.034016 2158.679692," fill="rgb(103,103,103)"/>
    <polyline points="2429.338196 2155.027593, 2429.338196 2158.679692, 2436.034016 2158.679692, 2429.338196 2155.027593" stroke="rgb(103,103,103)" fill="transparent" stroke-width="1.000000"/>
    <polygon points="2429.338196 2155.027593, 2429.338196 2158.679692, 2436.034016 2158.679692," fill="rgb(103,103,103)"/>
    <polyline points="2437.259723 2157.592434, 2435.844058 2157.592434, 2437.259723 2158.680729, 2437.259723 2157.592434" stroke="rgb(103,103,103)" fill="transparent" stroke-width="1.000000"/>
    <polygon points="2437.259723 2157.592434, 2435.844058 2157.592434, 2437.259723 2158.680729," fill="rgb(103,103,103)"/>
    <polyline points="2435.844058 2157.592434, 2435.844058 2158.680729, 2437.259723 2158.680729, 2435.844058 2157.592434" stroke="rgb(103,103,103)" fill="transparent" stroke-width="1.000000"/>
    <polygon points="2435.844058 2157.592434, 2435.844058 2158.680729, 2437.259723 2158.680729," fill="rgb(103,103,103)"/>
    <polyline points="2449.576883 2157.566413, 2445.805611 2157.566413, 2449.576883 2158.678893, 2449.576883 2157.566413" stroke="rgb(103,103,103)" fill="transparent" stroke-width="1.000000"/>
    <polygon points="2449.576883 2157.566413, 2445.805611 2157.566413, 2449.576883 2158.678893," fill="rgb(103,103,103)"/>
    <polyline points="2445.805611 2157.566413, 2445.805611 2158.678893, 2449.576883 2158.678893, 2445.805611 2157.566413" stroke="rgb(103,103,103)" fill="transparent" stroke-width="1.000000"/>
    <polygon points="2445.805611 2157.566413, 2445.805611 2158.678893, 2449.576883 2158.678893," fill="rgb(103,103,103)"/>
    <polyline points="2440.378590 2144.855445, 2441.070187 2146.023848, 2441.354002 2145.801791, 2441.708988 2143.814553, 2440.378590 2144.855445" stroke="rgb(103,103,103)" fill="transparent" stroke-width="1.000000"/>
    <polygon points="2440.378590 2144.855445, 2441.070187 2146.023848, 2441.354002 2145.801791, 2441.708988 2143.814553," fill="rgb(103,103,103)"/>
    <polyline points="2445.742783 2143.814861, 2445.491718 2143.710354, 2445.482326 2143.938000, 2445.742783 2143.814861" stroke="rgb(103,103,103)" fill="transparent" stroke-width="1.000000"/>
    <polygon points="2445.742783 2143.814861, 2445.491718 2143.710354, 2445.482326 2143.938000," fill="rgb(103,103,103)"/>
    <polyline points="2445.376045 2143.988252, 2445.482326 2143.938000, 2445.491718 2143.710354, 2445.376045 2143.988252" stroke="rgb(103,103,103)" fill="transparent" stroke-width="1.000000"/>
    <polygon points="2445.376045 2143.988252, 2445.482326 2143.938000, 2445.491718 2143.710354," fill="rgb(103,103,103)"/>
    <polyline points="2440.378590 2144.855445, 2440.258524 2144.949379, 2440.698466 2146.314678, 2441.070187 2146.023848, 2440.378590 2144.855445" stroke="rgb(103,103,103)" fill="transparent" stroke-width="1.000000"/>
    <polygon points="2440.378590 2144.855445, 2440.258524 2144.949379, 2440.698466 2146.314678, 2441.070187 2146.023848," fill="rgb(103,103,103)"/>
    <polyline points="2440.258524 2144.949379, 2437.968925 2146.739327, 2437.943092 2146.883877, 2439.593464 2147.178523, 2440.698466 2146.314678, 2440.258524 2144.949379" stroke="rgb(103,103,103)" fill="transparent" stroke-width="1.000000"/>
    <polygon points="2440.258524 2144.949379, 2437.968925 2146.739327, 2437.943092 2146.883877, 2439.593464 2147.178523, 2440.698466 2146.314678," fill="rgb(103,103,103)"/>
    <polyline points="2431.194115 2135.989829, 2429.337688 2135.989829, 2431.194115 2145.392570, 2431.194115 2135.989829" stroke="rgb(103,103,103)" fill="transparent" stroke-width="1.000000"/>
    <polygon points="2431.194115 2135.989829, 2429.337688 2135.989829, 2431.194115 2145.392570," fill="rgb(103,103,103)"/>
    <polyline points="2429.337688 2135.989829, 2429.337688 2145.392570, 2431.194115 2145.392570, 2429.337688 2135.989829" stroke="rgb(103,103,103)" fill="transparent" stroke-width="1.000000"/>
    <polygon points="2429.337688 2135.989829, 2429.337688 2145.392570, 2431.194115 2145.392570," fill="rgb(103,103,103)"/>
    <polyline points="2441.708988 2143.814553, 2441.944350 2142.496977, 2439.966841 2144.044146, 2440.258524 2144.949379, 2441.708988 2143.814553" stroke="rgb(103,103,103)" fill="transparent" stroke-width="1.000000"/>
    <polygon points="2441.708988 2143.814553, 2441.944350 2142.496977, 2439.966841 2144.044146, 2440.258524 2144.949379," fill="rgb(103,103,103)"/>
    <polyline points="2440.258524 2144.949379, 2439.966841 2144.044146, 2438.204189 2145.422243, 2437.968925 2146.739327, 2440.258524 2144.949379" stroke="rgb(103,103,103)" fill="transparent" stroke-width="1.000000"/>
    <polygon points="2440.258524 2144.949379, 2439.966841 2144.044146, 2438.204189 2145.422243, 2437.968925 2146.739327," fill="rgb(103,103,103)"/>
    <polyline points="2471.927406 2113.212317, 2474.884458 2113.212293, 2473.673946 2111.029352, 2471.927406 2113.212317" stroke="rgb(103,103,103)" fill="transparent" stroke-width="1.000000"/>
    <polygon points="2471.927406 2113.212317, 2474.884458 2113.212293, 2473.673946 2111.029352," fill="rgb(103,103,103)"/>
    <polyline points="2474.884458 2113.212293, 2475.370738 2111.517238, 2473.673946 2111.029352, 2474.884458 2113.212293" stroke="rgb(103,103,103)" fill="transparent" stroke-width="1.000000"/>
    <polygon points="2474.884458 2113.212293, 2475.370738 2111.517238, 2473.673946 2111.029352," fill="rgb(103,103,103)"/>
    <polyline points="2439.966841 2144.044146, 2441.944350 2142.496977, 2442.109394 2141.573075, 2438.991216 2141.016378, 2439.966841 2144.044146" stroke="rgb(103,103,103)" fill="transparent" stroke-width="1.000000"/>
    <polygon points="2439.966841 2144.044146, 2441.944350 2142.496977, 2442.109394 2141.573075, 2438.991216 2141.016378," fill="rgb(103,103,103)"/>
    <polyline points="2438.204189 2145.422243, 2439.966841 2144.044146, 2438.991216 2141.016378, 2438.204189 2145.422243" stroke="rgb(103,103,103)" fill="transparent" stroke-width="1.000000"/>
    <polygon points="2438.204189 2145.422243, 2439.966841 2144.044146, 2438.991216 2141.016378," fill="rgb(103,103,103)"/>
    <polyline points="2455.086516 2113.290749, 2455.086516 2103.870027, 2446.881846 2113.290749, 2455.086516 2113.290749" stroke="rgb(103,103,103)" fill="transparent" stroke-width="1.000000"/>
    <polygon points="2455.086516 2113.290749, 2455.086516 2103.870027, 2446.881846 2113.290749," fill="rgb(103,103,103)"/>
    <polyline points="2455.086516 2103.870027, 2446.881846 2103.870027, 2446.881846 2113.290749, 2455.086516 2103.870027" stroke="rgb(103,103,103)" fill="transparent" stroke-width="1.000000"/>
    <polygon points="2455.086516 2103.870027, 2446.881846 2103.870027, 2446.881846 2113.290749," fill="rgb(103,103,103)"/>
    <polyline points="2455.048521 2108.554195, 2455.086516 2108.559916" stroke-dasharray="1.500000,2.000000" stroke-opacity="0.2" stroke="black" fill="transparent" stroke-width="0.500000"/>
    <polyline points="2466.302575 2104.641818, 2466.302575 2104.871075" stroke-dasharray="1.500000,2.000000" stroke-opacity="0.2" stroke="black" fill="transparent" stroke-width="0.500000"/>
    <polyline points="2476.146308 2103.839482, 2476.146308 2110.153833" stroke-dasharray="1.500000,2.000000" stroke-opacity="0.2" stroke="black" fill="transparent" stroke-width="0.500000"/>
    <polyline points="2465.521301 2104.871075, 2466.302575 2104.871075" stroke-dasharray="1.500000,2.000000" stroke-opacity="0.2" stroke="black" fill="transparent" stroke-width="0.500000"/>
    <polyline points="2455.075222 2108.554170, 2455.086516 2108.555913" stroke-dasharray="1.500000,2.000000" stroke-opacity="0.2" stroke="black" fill="transparent" stroke-width="0.500000"/>
    <polyline points="2468.266234 2108.395617, 2468.266234 2113.212801" stroke-dasharray="1.500000,2.000000" stroke-opacity="0.2" stroke="black" fill="transparent" stroke-width="0.500000"/>
    <polyline points="2455.075222 2108.554170, 2455.075222 2113.294454" stroke-dasharray="1.500000,2.000000" stroke-opacity="0.2" stroke="black" fill="transparent" stroke-width="0.500000"/>
    <polyline points="2455.048521 2108.554195, 2455.048521 2113.294438" stroke-dasharray="1.500000,2.000000" stroke-opacity="0.2" stroke="black" fill="transparent" stroke-width="0.500000"/>
    <polyline points="2455.086516 2113.277413, 2455.048521 2113.294438" stroke-dasharray="1.500000,2.000000" stroke-opacity="0.2" stroke="black" fill="transparent" stroke-width="0.500000"/>
    <polyline points="2468.267611 2110.704845, 2469.207306 2110.727178" stroke-dasharray="1.500000,2.000000" stroke-opacity="0.2" stroke="black" fill="transparent" stroke-width="0.500000"/>
    <polyline points="2472.014551 2112.114973, 2472.111480 2112.211122" stroke-dasharray="1.500000,2.000000" stroke-opacity="0.2" stroke="black" fill="transparent" stroke-width="0.500000"/>
    <polyline points="2473.066857 2111.788139, 2473.462498 2112.330171" stroke-dasharray="1.500000,2.000000" stroke-opacity="0.2" stroke="black" fill="transparent" stroke-width="0.500000"/>
    <polyline points="2472.225096 2112.840240, 2472.412293 2113.096718" stroke-dasharray="1.500000,2.000000" stroke-opacity="0.2" stroke="black" fill="transparent" stroke-width="0.500000"/>
    <polyline points="2472.111480 2112.211122, 2472.323517 2113.212314" stroke-dasharray="1.500000,2.000000" stroke-opacity="0.2" stroke="black" fill="transparent" stroke-width="0.500000"/>
    <polyline points="2473.462498 2112.330171, 2472.412293 2113.096718" stroke-dasharray="1.500000,2.000000" stroke-opacity="0.2" stroke="black" fill="transparent" stroke-width="0.500000"/>
    <polyline points="2465.521301 2121.451835, 2465.521301 2131.340234" stroke-dasharray="1.500000,2.000000" stroke-opacity="0.2" stroke="black" fill="transparent" stroke-width="0.500000"/>
    <polyline points="2467.650856 2126.714894, 2480.707279 2126.714894" stroke-dasharray="1.500000,2.000000" stroke-opacity="0.2" stroke="black" fill="transparent" stroke-width="0.500000"/>
    <polyline points="2497.097245 2172.578615, 2497.798824 2173.635093" stroke-dasharray="1.500000,2.000000" stroke-opacity="0.2" stroke="black" fill="transparent" stroke-width="0.500000"/>
    <polyline points="2465.521301 2131.340234, 2465.521301 2131.340476" stroke-dasharray="1.500000,2.000000" stroke-opacity="0.2" stroke="black" fill="transparent" stroke-width="0.500000"/>
    <polyline points="2467.650151 2131.340478, 2485.605451 2131.340492" stroke-dasharray="1.500000,2.000000" stroke-opacity="0.2" stroke="black" fill="transparent" stroke-width="0.500000"/>
    <polyline points="2431.194115 2138.658652, 2430.482946 2139.318414" stroke-dasharray="1.500000,2.000000" stroke-opacity="0.2" stroke="black" fill="transparent" stroke-width="0.500000"/>
    <polyline points="2430.482946 2139.318414, 2431.194115 2140.085286" stroke-dasharray="1.500000,2.000000" stroke-opacity="0.2" stroke="black" fill="transparent" stroke-width="0.500000"/>
    <polyline points="2435.844058 2158.679692, 2436.034016 2158.679692" stroke-dasharray="1.500000,2.000000" stroke-opacity="0.2" stroke="black" fill="transparent" stroke-width="0.500000"/>
    <polyline points="2492.743066 2162.617352, 2501.390120 2162.617355" stroke-dasharray="1.500000,2.000000" stroke-opacity="0.2" stroke="black" fill="transparent" stroke-width="0.500000"/>
    <polyline points="2501.790264 2170.561491, 2497.798824 2173.635093" stroke-dasharray="1.500000,2.000000" stroke-opacity="0.2" stroke="black" fill="transparent" stroke-width="0.500000"/>
    <polyline points="2501.791477 2170.220635, 2491.797879 2170.220653" stroke-dasharray="1.500000,2.000000" stroke-opacity="0.2" stroke="black" fill="transparent" stroke-width="0.500000"/>
    <polyline points="2501.791477 2170.220635, 2501.791477 2170.560557" stroke-dasharray="1.500000,2.000000" stroke-opacity="0.2" stroke="black" fill="transparent" stroke-width="0.500000"/>
    <polyline points="2491.797879 2170.538035, 2491.926321 2170.538035" stroke-dasharray="1.500000,2.000000" stroke-opacity="0.2" stroke="black" fill="transparent" stroke-width="0.500000"/>
    <polyline points="2491.926321 2170.538035, 2501.701096 2170.538035" stroke-dasharray="1.500000,2.000000" stroke-opacity="0.2" stroke="black" fill="transparent" stroke-width="0.500000"/>
    <polyline points="2501.701096 2170.538035, 2505.512691 2170.538035" stroke-dasharray="1.500000,2.000000" stroke-opacity="0.2" stroke="black" fill="transparent" stroke-width="0.500000"/>
    <polyline points="2497.189823 2172.566235, 2497.189823 2185.634234" stroke-dasharray="1.500000,2.000000" stroke-opacity="0.2" stroke="black" fill="transparent" stroke-width="0.500000"/>
    <polyline points="2480.707279 2125.990457, 2480.707279 2126.714894" stroke="black" fill="transparent" stroke-width="0.500000"/>
    <polyline points="2467.650856 2125.990457, 2480.707279 2125.990457" stroke="black" fill="transparent" stroke-width="0.500000"/>
    <polyline points="2455.086516 2108.559916, 2456.135246 2108.717837" stroke="black" fill="transparent" stroke-width="0.500000"/>
    <polyline points="2481.469309 2096.239354, 2481.469309 2100.148109" stroke="black" fill="transparent" stroke-width="0.500000"/>
    <polyline points="2480.227736 2096.239354, 2481.469309 2096.239354" stroke="black" fill="transparent" stroke-width="0.500000"/>
    <polyline points="2457.795191 2094.716154, 2457.795191 2108.916532" stroke="black" fill="transparent" stroke-width="0.500000"/>
    <polyline points="2457.795191 2094.716154, 2481.470424 2094.716162" stroke="black" fill="transparent" stroke-width="0.500000"/>
    <polyline points="2481.470424 2094.716162, 2481.470424 2102.431356" stroke="black" fill="transparent" stroke-width="0.500000"/>
    <polyline points="2480.227736 2096.239354, 2480.227736 2100.148109" stroke="black" fill="transparent" stroke-width="0.500000"/>
    <polyline points="2480.227736 2100.148109, 2481.469309 2100.148109" stroke="black" fill="transparent" stroke-width="0.500000"/>
    <polyline points="2455.086516 2103.870027, 2455.086516 2113.290749" stroke="black" fill="transparent" stroke-width="0.500000"/>
    <polyline points="2446.881846 2103.870027, 2455.086516 2103.870027" stroke="black" fill="transparent" stroke-width="0.500000"/>
    <polyline points="2476.147783 2103.839482, 2476.147783 2110.153893" stroke="black" fill="transparent" stroke-width="0.500000"/>
    <polyline points="2470.700257 2103.839482, 2476.147783 2103.839482" stroke="black" fill="transparent" stroke-width="0.500000"/>
    <polyline points="2467.821194 2103.765041, 2467.945243 2103.979938" stroke="black" fill="transparent" stroke-width="0.500000"/>
    <polyline points="2465.521301 2102.431356, 2465.521301 2104.871075" stroke="black" fill="transparent" stroke-width="0.500000"/>
    <polyline points="2465.521301 2102.431356, 2481.470424 2102.431356" stroke="black" fill="transparent" stroke-width="0.500000"/>
    <polyline points="2467.821194 2103.765041, 2465.836063 2104.911160" stroke="black" fill="transparent" stroke-width="0.500000"/>
    <polyline points="2466.302575 2103.838416, 2466.302575 2104.641818" stroke="black" fill="transparent" stroke-width="0.500000"/>
    <polyline points="2466.302575 2103.838416, 2476.146308 2103.838416" stroke="black" fill="transparent" stroke-width="0.500000"/>
    <polyline points="2476.146308 2103.838416, 2476.146308 2103.839482" stroke="black" fill="transparent" stroke-width="0.500000"/>
    <polyline points="2476.146308 2110.153833, 2476.146308 2113.212801" stroke="black" fill="transparent" stroke-width="0.500000"/>
    <polyline points="2470.700257 2103.839482, 2471.099663 2105.577326" stroke="black" fill="transparent" stroke-width="0.500000"/>
    <polyline points="2446.881846 2103.870027, 2446.881846 2113.290749" stroke="black" fill="transparent" stroke-width="0.500000"/>
    <polyline points="2474.033013 2107.334061, 2474.572974 2110.089115" stroke="black" fill="transparent" stroke-width="0.500000"/>
    <polyline points="2471.099663 2105.577326, 2474.033013 2107.334061" stroke="black" fill="transparent" stroke-width="0.500000"/>
    <polyline points="2467.945243 2103.979938, 2465.960112 2105.126033" stroke="black" fill="transparent" stroke-width="0.500000"/>
    <polyline points="2465.836063 2104.911160, 2465.960112 2105.126033" stroke="black" fill="transparent" stroke-width="0.500000"/>
    <polyline points="2466.859715 2108.222001, 2466.757663 2108.513233" stroke="black" fill="transparent" stroke-width="0.500000"/>
    <polyline points="2465.924379 2107.894216, 2466.859715 2108.222001" stroke="black" fill="transparent" stroke-width="0.500000"/>
    <polyline points="2465.924379 2107.894216, 2465.822327 2108.185457" stroke="black" fill="transparent" stroke-width="0.500000"/>
    <polyline points="2465.822327 2108.185457, 2466.757663 2108.513233" stroke="black" fill="transparent" stroke-width="0.500000"/>
    <polyline points="2455.086516 2108.555913, 2457.422978 2108.916532" stroke="black" fill="transparent" stroke-width="0.500000"/>
    <polyline points="2465.521301 2108.395617, 2466.302575 2108.395617" stroke="black" fill="transparent" stroke-width="0.500000"/>
    <polyline points="2465.521301 2108.395617, 2465.521301 2121.451835" stroke="black" fill="transparent" stroke-width="0.500000"/>
    <polyline points="2466.302575 2108.395617, 2468.266234 2108.395617" stroke="black" fill="transparent" stroke-width="0.500000"/>
    <polyline points="2456.135246 2108.717837, 2456.131935 2112.808977" stroke="black" fill="transparent" stroke-width="0.500000"/>
    <polyline points="2456.131935 2112.808977, 2455.086516 2113.277413" stroke="black" fill="transparent" stroke-width="0.500000"/>
    <polyline points="2474.572974 2110.089115, 2476.147783 2110.153893" stroke="black" fill="transparent" stroke-width="0.500000"/>
    <polyline points="2457.422978 2108.916532, 2457.795191 2108.916532" stroke="black" fill="transparent" stroke-width="0.500000"/>
    <polyline points="2473.673946 2111.029352, 2475.370738 2111.517238" stroke="black" fill="transparent" stroke-width="0.500000"/>
    <polyline points="2468.265627 2110.164458, 2468.265627 2111.614864" stroke="black" fill="transparent" stroke-width="0.500000"/>
    <polyline points="2468.265627 2110.164458, 2469.207306 2110.164458" stroke="black" fill="transparent" stroke-width="0.500000"/>
    <polyline points="2469.207306 2110.164458, 2469.207306 2111.614864" stroke="black" fill="transparent" stroke-width="0.500000"/>
    <polyline points="2468.267611 2110.704845, 2468.267643 2113.212317" stroke="black" fill="transparent" stroke-width="0.500000"/>
    <polyline points="2469.207306 2110.727178, 2469.842501 2110.742275" stroke="black" fill="transparent" stroke-width="0.500000"/>
    <polyline points="2469.842501 2110.742275, 2470.977023 2111.085803" stroke="black" fill="transparent" stroke-width="0.500000"/>
    <polyline points="2473.673946 2111.029352, 2471.927406 2113.212317" stroke="black" fill="transparent" stroke-width="0.500000"/>
    <polyline points="2475.370738 2111.517238, 2474.884458 2113.212293" stroke="black" fill="transparent" stroke-width="0.500000"/>
    <polyline points="2472.856726 2111.500257, 2471.806553 2112.266795" stroke="black" fill="transparent" stroke-width="0.500000"/>
    <polyline points="2470.977023 2111.085803, 2472.014551 2112.114973" stroke="black" fill="transparent" stroke-width="0.500000"/>
    <polyline points="2472.856726 2111.500257, 2473.066857 2111.788139" stroke="black" fill="transparent" stroke-width="0.500000"/>
    <polyline points="2471.806553 2112.266795, 2472.225096 2112.840240" stroke="black" fill="transparent" stroke-width="0.500000"/>
    <polyline points="2468.265627 2111.614864, 2469.207306 2111.614864" stroke="black" fill="transparent" stroke-width="0.500000"/>
    <polyline points="2472.323517 2113.212314, 2472.323518 2113.212317" stroke="black" fill="transparent" stroke-width="0.500000"/>
    <polyline points="2457.422978 2112.215867, 2455.075222 2113.294454" stroke="black" fill="transparent" stroke-width="0.500000"/>
    <polyline points="2457.422978 2112.215867, 2457.795191 2112.215867" stroke="black" fill="transparent" stroke-width="0.500000"/>
    <polyline points="2457.795191 2112.215867, 2457.795191 2153.236550" stroke="black" fill="transparent" stroke-width="0.500000"/>
    <polyline points="2458.736542 2113.908373, 2458.736542 2117.612793" stroke="black" fill="transparent" stroke-width="0.500000"/>
    <polyline points="2457.792208 2113.908373, 2458.736542 2113.908373" stroke="black" fill="transparent" stroke-width="0.500000"/>
    <polyline points="2446.881846 2113.290749, 2455.086516 2113.290749" stroke="black" fill="transparent" stroke-width="0.500000"/>
    <polyline points="2474.884458 2113.212293, 2471.927406 2113.212317" stroke="black" fill="transparent" stroke-width="0.500000"/>
    <polyline points="2468.267643 2113.212317, 2472.323518 2113.212317" stroke="black" fill="transparent" stroke-width="0.500000"/>
    <polyline points="2468.266234 2113.212801, 2476.146308 2113.212801" stroke="black" fill="transparent" stroke-width="0.500000"/>
    <polyline points="2457.792208 2113.908373, 2457.792208 2117.612793" stroke="black" fill="transparent" stroke-width="0.500000"/>
    <polyline points="2457.792208 2117.612793, 2458.736542 2117.612793" stroke="black" fill="transparent" stroke-width="0.500000"/>
    <polyline points="2464.900842 2121.354233, 2464.900842 2131.340476" stroke="black" fill="transparent" stroke-width="0.500000"/>
    <polyline points="2464.900842 2121.354233, 2485.606435 2121.354258" stroke="black" fill="transparent" stroke-width="0.500000"/>
    <polyline points="2485.606435 2121.354258, 2485.606435 2131.340492" stroke="black" fill="transparent" stroke-width="0.500000"/>
    <polyline points="2467.650856 2125.990457, 2467.650856 2126.714894" stroke="black" fill="transparent" stroke-width="0.500000"/>
    <polyline points="2485.605451 2126.575355, 2485.605451 2131.346758" stroke="black" fill="transparent" stroke-width="0.500000"/>
    <polyline points="2467.650151 2126.575355, 2485.605451 2126.575355" stroke="black" fill="transparent" stroke-width="0.500000"/>
    <polyline points="2467.650151 2126.575355, 2467.650151 2131.346758" stroke="black" fill="transparent" stroke-width="0.500000"/>
    <polyline points="2496.402025 2171.531714, 2497.097245 2172.578615" stroke="black" fill="transparent" stroke-width="0.500000"/>
    <polyline points="2497.888780 2169.827094, 2496.402025 2171.531714" stroke="black" fill="transparent" stroke-width="0.500000"/>
    <polyline points="2505.512002 2162.617836, 2503.659755 2162.635391" stroke="black" fill="transparent" stroke-width="0.500000"/>
    <polyline points="2438.153999 2148.319815, 2439.973283 2148.319815" stroke="black" fill="transparent" stroke-width="0.500000"/>
    <polyline points="2440.062287 2147.430494, 2440.613854 2147.430494" stroke="black" fill="transparent" stroke-width="0.500000"/>
    <polyline points="2429.337688 2135.989829, 2431.194115 2135.989829" stroke="black" fill="transparent" stroke-width="0.500000"/>
    <polyline points="2467.650151 2131.346758, 2485.605451 2131.346758" stroke="black" fill="transparent" stroke-width="0.500000"/>
    <polyline points="2465.521301 2131.340476, 2465.521301 2150.682052" stroke="black" fill="transparent" stroke-width="0.500000"/>
    <polyline points="2464.900842 2131.340476, 2467.650151 2131.340478" stroke="black" fill="transparent" stroke-width="0.500000"/>
    <polyline points="2485.605451 2131.340492, 2485.606435 2131.340492" stroke="black" fill="transparent" stroke-width="0.500000"/>
    <polyline points="2435.211518 2134.931649, 2431.194115 2138.658652" stroke="black" fill="transparent" stroke-width="0.500000"/>
    <polyline points="2435.211518 2134.931649, 2437.657802 2137.569555" stroke="black" fill="transparent" stroke-width="0.500000"/>
    <polyline points="2429.339147 2134.956527, 2452.964403 2134.956527" stroke="black" fill="transparent" stroke-width="0.500000"/>
    <polyline points="2429.339147 2134.956527, 2429.339147 2158.682073" stroke="black" fill="transparent" stroke-width="0.500000"/>
    <polyline points="2452.964403 2134.956527, 2452.964403 2152.471131" stroke="black" fill="transparent" stroke-width="0.500000"/>
    <polyline points="2429.337688 2135.989829, 2429.337688 2145.392570" stroke="black" fill="transparent" stroke-width="0.500000"/>
    <polyline points="2431.194115 2135.989829, 2431.194115 2145.392570" stroke="black" fill="transparent" stroke-width="0.500000"/>
    <polyline points="2429.337688 2145.392570, 2431.194115 2145.392570" stroke="black" fill="transparent" stroke-width="0.500000"/>
    <polyline points="2445.491718 2143.710354, 2447.247158 2144.441032" stroke="black" fill="transparent" stroke-width="0.500000"/>
    <polyline points="2458.736542 2139.573831, 2458.736542 2147.089412" stroke="black" fill="transparent" stroke-width="0.500000"/>
    <polyline points="2457.792208 2139.573831, 2458.736542 2139.573831" stroke="black" fill="transparent" stroke-width="0.500000"/>
    <polyline points="2431.194115 2140.085286, 2432.929246 2141.956327" stroke="black" fill="transparent" stroke-width="0.500000"/>
    <polyline points="2437.657802 2137.569555, 2432.929246 2141.956327" stroke="black" fill="transparent" stroke-width="0.500000"/>
    <polyline points="2457.792208 2139.573831, 2457.792208 2147.089412" stroke="black" fill="transparent" stroke-width="0.500000"/>
    <polyline points="2438.991216 2141.016378, 2442.109394 2141.573075" stroke="black" fill="transparent" stroke-width="0.500000"/>
    <polyline points="2438.991216 2141.016378, 2437.943092 2146.883877" stroke="black" fill="transparent" stroke-width="0.500000"/>
    <polyline points="2442.109394 2141.573075, 2441.061270 2147.440574" stroke="black" fill="transparent" stroke-width="0.500000"/>
    <polyline points="2445.491718 2143.710354, 2443.509783 2148.471532" stroke="black" fill="transparent" stroke-width="0.500000"/>
    <polyline points="2447.247158 2144.441032, 2445.265190 2149.202215" stroke="black" fill="transparent" stroke-width="0.500000"/>
    <polyline points="2457.792208 2147.089412, 2458.736542 2147.089412" stroke="black" fill="transparent" stroke-width="0.500000"/>
    <polyline points="2437.943092 2146.883877, 2441.061270 2147.440574" stroke="black" fill="transparent" stroke-width="0.500000"/>
    <polyline points="2440.062287 2147.430494, 2440.062287 2148.461636" stroke="black" fill="transparent" stroke-width="0.500000"/>
    <polyline points="2440.613854 2147.430494, 2440.613854 2148.461636" stroke="black" fill="transparent" stroke-width="0.500000"/>
    <polyline points="2438.153999 2148.319815, 2438.153999 2150.466793" stroke="black" fill="transparent" stroke-width="0.500000"/>
    <polyline points="2439.973283 2148.319815, 2439.973283 2150.466793" stroke="black" fill="transparent" stroke-width="0.500000"/>
    <polyline points="2438.153999 2150.466793, 2439.973283 2150.466793" stroke="black" fill="transparent" stroke-width="0.500000"/>
    <polyline points="2440.062287 2148.461636, 2440.613854 2148.461636" stroke="black" fill="transparent" stroke-width="0.500000"/>
    <polyline points="2443.509783 2148.471532, 2445.265190 2149.202215" stroke="black" fill="transparent" stroke-width="0.500000"/>
    <polyline points="2429.338196 2155.027593, 2436.034016 2155.027593" stroke="black" fill="transparent" stroke-width="0.500000"/>
    <polyline points="2452.964403 2152.471131, 2457.388523 2152.471131" stroke="black" fill="transparent" stroke-width="0.500000"/>
    <polyline points="2465.521301 2150.682052, 2481.624174 2150.682052" stroke="black" fill="transparent" stroke-width="0.500000"/>
    <polyline points="2481.624174 2150.682052, 2481.624174 2162.617352" stroke="black" fill="transparent" stroke-width="0.500000"/>
    <polyline points="2457.388523 2152.471131, 2457.388523 2153.236550" stroke="black" fill="transparent" stroke-width="0.500000"/>
    <polyline points="2457.388523 2153.236550, 2457.795191 2153.236550" stroke="black" fill="transparent" stroke-width="0.500000"/>
    <polyline points="2429.338196 2155.027593, 2429.338196 2158.679692" stroke="black" fill="transparent" stroke-width="0.500000"/>
    <polyline points="2436.034016 2155.027593, 2436.034016 2158.679692" stroke="black" fill="transparent" stroke-width="0.500000"/>
    <polyline points="2429.338196 2158.679692, 2435.844058 2158.679692" stroke="black" fill="transparent" stroke-width="0.500000"/>
    <polyline points="2435.844058 2157.592434, 2437.259723 2157.592434" stroke="black" fill="transparent" stroke-width="0.500000"/>
    <polyline points="2445.805611 2157.566413, 2449.576883 2157.566413" stroke="black" fill="transparent" stroke-width="0.500000"/>
    <polyline points="2457.553501 2156.538790, 2457.795191 2156.538790" stroke="black" fill="transparent" stroke-width="0.500000"/>
    <polyline points="2457.795191 2156.538790, 2457.795191 2158.471273" stroke="black" fill="transparent" stroke-width="0.500000"/>
    <polyline points="2457.553501 2156.538790, 2457.553501 2158.682073" stroke="black" fill="transparent" stroke-width="0.500000"/>
    <polyline points="2445.805611 2157.566413, 2445.805611 2158.678893" stroke="black" fill="transparent" stroke-width="0.500000"/>
    <polyline points="2449.576883 2157.566413, 2449.576883 2158.678893" stroke="black" fill="transparent" stroke-width="0.500000"/>
    <polyline points="2435.844058 2157.592434, 2435.844058 2158.680729" stroke="black" fill="transparent" stroke-width="0.500000"/>
    <polyline points="2437.259723 2157.592434, 2437.259723 2158.680729" stroke="black" fill="transparent" stroke-width="0.500000"/>
    <polyline points="2445.805611 2158.678893, 2449.576883 2158.678893" stroke="black" fill="transparent" stroke-width="0.500000"/>
    <polyline points="2457.795191 2158.471273, 2473.800880 2158.471273" stroke="black" fill="transparent" stroke-width="0.500000"/>
    <polyline points="2473.800880 2158.471273, 2473.800880 2170.538033" stroke="black" fill="transparent" stroke-width="0.500000"/>
    <polyline points="2435.844058 2158.680729, 2437.259723 2158.680729" stroke="black" fill="transparent" stroke-width="0.500000"/>
    <polyline points="2492.743066 2162.614234, 2501.390120 2162.614234" stroke="black" fill="transparent" stroke-width="0.500000"/>
    <polyline points="2429.339147 2158.682073, 2457.553501 2158.682073" stroke="black" fill="transparent" stroke-width="0.500000"/>
    <polyline points="2492.743066 2162.614234, 2492.743066 2163.663931" stroke="black" fill="transparent" stroke-width="0.500000"/>
    <polyline points="2501.390120 2162.614234, 2501.390120 2163.663931" stroke="black" fill="transparent" stroke-width="0.500000"/>
    <polyline points="2481.624174 2162.617352, 2491.926321 2162.617352" stroke="black" fill="transparent" stroke-width="0.500000"/>
    <polyline points="2491.926321 2162.617352, 2492.743066 2162.617352" stroke="black" fill="transparent" stroke-width="0.500000"/>
    <polyline points="2501.390120 2162.617355, 2505.512691 2162.617356" stroke="black" fill="transparent" stroke-width="0.500000"/>
    <polyline points="2505.512691 2162.617356, 2505.512691 2170.538035" stroke="black" fill="transparent" stroke-width="0.500000"/>
    <polyline points="2503.659755 2162.635391, 2502.746171 2164.340030" stroke="black" fill="transparent" stroke-width="0.500000"/>
    <polyline points="2505.512002 2162.617836, 2505.511969 2170.556215" stroke="black" fill="transparent" stroke-width="0.500000"/>
    <polyline points="2500.982699 2168.275353, 2497.888780 2169.827094" stroke="black" fill="transparent" stroke-width="0.500000"/>
    <polyline points="2503.019184 2166.704331, 2500.982699 2168.275353" stroke="black" fill="transparent" stroke-width="0.500000"/>
    <polyline points="2502.746171 2164.340030, 2503.019184 2166.704331" stroke="black" fill="transparent" stroke-width="0.500000"/>
    <polyline points="2492.743066 2163.663931, 2501.390120 2163.663931" stroke="black" fill="transparent" stroke-width="0.500000"/>
    <polyline points="2501.797116 2170.556215, 2501.790264 2170.561491" stroke="black" fill="transparent" stroke-width="0.500000"/>
    <polyline points="2501.797116 2170.556215, 2505.511969 2170.556215" stroke="black" fill="transparent" stroke-width="0.500000"/>
    <polyline points="2497.568887 2170.493394, 2497.097245 2172.546813" stroke="black" fill="transparent" stroke-width="0.500000"/>
    <polyline points="2497.568887 2170.493394, 2501.790264 2170.493394" stroke="black" fill="transparent" stroke-width="0.500000"/>
    <polyline points="2491.797879 2170.220653, 2491.797879 2190.563913" stroke="black" fill="transparent" stroke-width="0.500000"/>
    <polyline points="2501.791477 2170.560557, 2501.791477 2190.563915" stroke="black" fill="transparent" stroke-width="0.500000"/>
    <polyline points="2501.790264 2170.493394, 2501.790264 2190.562152" stroke="black" fill="transparent" stroke-width="0.500000"/>
    <polyline points="2473.800880 2170.538033, 2491.797879 2170.538035" stroke="black" fill="transparent" stroke-width="0.500000"/>
    <polyline points="2497.097245 2172.546813, 2497.097245 2190.562193" stroke="black" fill="transparent" stroke-width="0.500000"/>
    <polyline points="2496.465361 2172.566235, 2496.465361 2185.634234" stroke="black" fill="transparent" stroke-width="0.500000"/>
    <polyline points="2496.465361 2185.634234, 2497.189823 2185.634234" stroke="black" fill="transparent" stroke-width="0.500000"/>
    <polyline points="2501.790264 2190.562154, 2497.097245 2190.562193" stroke="black" fill="transparent" stroke-width="0.500000"/>
    <polyline points="2491.797879 2190.563913, 2501.791477 2190.563914" stroke="black" fill="transparent" stroke-width="0.500000"/>
    <polyline points="2496.465361 2172.566235, 2497.189823 2172.566235" stroke="black" fill="transparent" stroke-width="0.500000"/>
  </g>
</svg>
