<svg version="1.1" baseProfile="full" width="4400" height="4400" xmlns="http://www.w3.org/2000/svg">
  <g stroke-linejoin="round" stroke-linecap="round">
    <polyline points="2579.411748 1904.865316, 2472.508608 1904.865283, 2579.411846 1957.852791, 2579.411748 1904.865316" stroke="rgb(128,127,128)" fill="transparent" stroke-width="1.000000"/>
    <polygon points="2579.411748 1904.865316, 2472.508608 1904.865283, 2579.411846 1957.852791," fill="rgb(128,127,128)"/>
    <polyline points="2472.508608 1904.865283, 2472.508509 1957.852726, 2579.411846 1957.852791, 2472.508608 1904.865283" stroke="rgb(128,127,128)" fill="transparent" stroke-width="1.000000"/>
    <polygon points="2472.508608 1904.865283, 2472.508509 1957.852726, 2579.411846 1957.852791," fill="rgb(128,127,128)"/>
    <polyline points="2563.276142 1906.809255, 2512.943086 1906.809223, 2563.276142 1914.585343, 2563.276142 1906.809255" stroke="rgb(231,231,231)" fill="transparent" stroke-width="1.000000"/>
    <polygon points="2563.276142 1906.809255, 2512.943086 1906.809223, 2563.276142 1914.585343," fill="rgb(231,231,231)"/>
    <polyline points="2512.943086 1906.809223, 2512.943053 1914.585343, 2563.276142 1914.585343, 2512.943086 1906.809223" stroke="rgb(231,231,231)" fill="transparent" stroke-width="1.000000"/>
    <polygon points="2512.943086 1906.809223, 2512.943053 1914.585343, 2563.276142 1914.585343," fill="rgb(231,231,231)"/>
    <polyline points="2513.982621 1922.906080, 2494.292402 1922.906080, 2513.982621 1930.566560, 2513.982621 1922.906080" stroke="rgb(231,231,231)" fill="transparent" stroke-width="1.000000"/>
    <polygon points="2513.982621 1922.906080, 2494.292402 1922.906080, 2513.982621 1930.566560," fill="rgb(231,231,231)"/>
    <polyline points="2494.292402 1922.906080, 2494.292402 1930.566527, 2513.982621 1930.566560, 2494.292402 1922.906080" stroke="rgb(231,231,231)" fill="transparent" stroke-width="1.000000"/>
    <polygon points="2494.292402 1922.906080, 2494.292402 1930.566527, 2513.982621 1930.566560," fill="rgb(231,231,231)"/>
    <polyline points="2562.320924 1906.816468, 2562.320957 1930.753814, 2569.981387 1906.816500, 2562.320924 1906.816468" stroke="rgb(231,231,231)" fill="transparent" stroke-width="1.000000"/>
    <polygon points="2562.320924 1906.816468, 2562.320957 1930.753814, 2569.981387 1906.816500," fill="rgb(231,231,231)"/>
    <polyline points="2562.320957 1930.753814, 2569.981387 1930.753814, 2569.981387 1906.816500, 2562.320957 1930.753814" stroke="rgb(231,231,231)" fill="transparent" stroke-width="1.000000"/>
    <polygon points="2562.320957 1930.753814, 2569.981387 1930.753814, 2569.981387 1906.816500," fill="rgb(231,231,231)"/>
    <polyline points="2506.169292 1906.816435, 2506.169358 1923.727414, 2513.983047 1906.816468, 2506.169292 1906.816435" stroke="rgb(231,231,231)" fill="transparent" stroke-width="1.000000"/>
    <polygon points="2506.169292 1906.816435, 2506.169358 1923.727414, 2513.983047 1906.816468," fill="rgb(231,231,231)"/>
    <polyline points="2506.169358 1923.727414, 2513.983047 1923.727414, 2513.983047 1906.816468, 2506.169358 1923.727414" stroke="rgb(231,231,231)" fill="transparent" stroke-width="1.000000"/>
    <polygon points="2506.169358 1923.727414, 2513.983047 1923.727414, 2513.983047 1906.816468," fill="rgb(231,231,231)"/>
    <polyline points="2494.294107 1930.223720, 2494.294107 1954.664573, 2501.954538 1930.223785, 2494.294107 1930.223720" stroke="rgb(231,231,231)" fill="transparent" stroke-width="1.000000"/>
    <polygon points="2494.294107 1930.223720, 2494.294107 1954.664573, 2501.954538 1930.223785," fill="rgb(231,231,231)"/>
    <polyline points="2494.294107 1954.664573, 2501.954570 1954.664622, 2501.954538 1930.223785, 2494.294107 1954.664573" stroke="rgb(231,231,231)" fill="transparent" stroke-width="1.000000"/>
    <polygon points="2494.294107 1954.664573, 2501.954570 1954.664622, 2501.954538 1930.223785," fill="rgb(231,231,231)"/>
    <polyline points="2493.252540 1938.736694, 2493.252540 1932.786348, 2492.427796 1932.786348, 2493.252540 1938.736694" stroke="rgb(231,231,231)" fill="transparent" stroke-width="1.000000"/>
    <polygon points="2493.252540 1938.736694, 2493.252540 1932.786348, 2492.427796 1932.786348," fill="rgb(231,231,231)"/>
    <polyline points="2492.427796 1938.736694, 2493.252540 1938.736694, 2492.427796 1932.786348, 2492.427796 1938.736694" stroke="rgb(231,231,231)" fill="transparent" stroke-width="1.000000"/>
    <polygon points="2492.427796 1938.736694, 2493.252540 1938.736694, 2492.427796 1932.786348," fill="rgb(231,231,231)"/>
    <polyline points="2492.427796 1932.786348, 2480.655023 1932.786348, 2492.427796 1938.736694, 2492.427796 1932.786348" stroke="rgb(231,231,231)" fill="transparent" stroke-width="1.000000"/>
    <polygon points="2492.427796 1932.786348, 2480.655023 1932.786348, 2492.427796 1938.736694," fill="rgb(231,231,231)"/>
    <polyline points="2480.655023 1931.967375, 2480.655023 1932.786348, 2492.427796 1932.786348, 2480.655023 1931.967375" stroke="rgb(231,231,231)" fill="transparent" stroke-width="1.000000"/>
    <polygon points="2480.655023 1931.967375, 2480.655023 1932.786348, 2492.427796 1932.786348," fill="rgb(231,231,231)"/>
    <polyline points="2492.427796 1931.967375, 2480.655023 1931.967375, 2492.427796 1932.786348, 2492.427796 1931.967375" stroke="rgb(231,231,231)" fill="transparent" stroke-width="1.000000"/>
    <polygon points="2492.427796 1931.967375, 2480.655023 1931.967375, 2492.427796 1932.786348," fill="rgb(231,231,231)"/>
    <polyline points="2480.655023 1932.786348, 2480.654991 1938.736726, 2492.427796 1938.736694, 2480.655023 1932.786348" stroke="rgb(231,231,231)" fill="transparent" stroke-width="1.000000"/>
    <polygon points="2480.655023 1932.786348, 2480.654991 1938.736726, 2492.427796 1938.736694," fill="rgb(231,231,231)"/>
    <polyline points="2492.427796 1938.736694, 2480.654991 1938.736726, 2492.427796 1939.555700, 2492.427796 1938.736694" stroke="rgb(231,231,231)" fill="transparent" stroke-width="1.000000"/>
    <polygon points="2492.427796 1938.736694, 2480.654991 1938.736726, 2492.427796 1939.555700," fill="rgb(231,231,231)"/>
    <polyline points="2480.654991 1938.736726, 2480.654991 1939.555700, 2492.427796 1939.555700, 2480.654991 1938.736726" stroke="rgb(231,231,231)" fill="transparent" stroke-width="1.000000"/>
    <polygon points="2480.654991 1938.736726, 2480.654991 1939.555700, 2492.427796 1939.555700," fill="rgb(231,231,231)"/>
    <polyline points="2494.359902 1939.402016, 2494.359967 1932.264401, 2493.103608 1939.402016, 2494.359902 1939.402016" stroke="rgb(231,231,231)" fill="transparent" stroke-width="1.000000"/>
    <polygon points="2494.359902 1939.402016, 2494.359967 1932.264401, 2493.103608 1939.402016," fill="rgb(231,231,231)"/>
    <polyline points="2494.359967 1932.264401, 2493.103576 1932.264401, 2493.103608 1939.402016, 2494.359967 1932.264401" stroke="rgb(231,231,231)" fill="transparent" stroke-width="1.000000"/>
    <polygon points="2494.359967 1932.264401, 2493.103576 1932.264401, 2493.103608 1939.402016," fill="rgb(231,231,231)"/>
    <polyline points="2577.546552 1956.433684, 2570.479944 1949.205819, 2543.688238 1956.433241, 2577.546552 1956.433684" stroke="rgb(231,231,231)" fill="transparent" stroke-width="1.000000"/>
    <polygon points="2577.546552 1956.433684, 2570.479944 1949.205819, 2543.688238 1956.433241," fill="rgb(231,231,231)"/>
    <polyline points="2570.479944 1949.205819, 2543.688238 1949.205819, 2543.688238 1956.433241, 2570.479944 1949.205819" stroke="rgb(231,231,231)" fill="transparent" stroke-width="1.000000"/>
    <polygon points="2570.479944 1949.205819, 2543.688238 1949.205819, 2543.688238 1956.433241," fill="rgb(231,231,231)"/>
    <polyline points="2570.479912 1906.816468, 2570.479944 1949.205819, 2577.546552 1906.816500, 2570.479912 1906.816468" stroke="rgb(231,231,231)" fill="transparent" stroke-width="1.000000"/>
    <polygon points="2570.479912 1906.816468, 2570.479944 1949.205819, 2577.546552 1906.816500," fill="rgb(231,231,231)"/>
    <polyline points="2570.479944 1949.205819, 2577.546552 1956.433684, 2577.546552 1906.816500, 2570.479944 1949.205819" stroke="rgb(231,231,231)" fill="transparent" stroke-width="1.000000"/>
    <polygon points="2570.479944 1949.205819, 2577.546552 1956.433684, 2577.546552 1906.816500," fill="rgb(231,231,231)"/>
    <polyline points="2569.641203 1919.051573, 2569.641203 1922.843596, 2570.634481 1919.051573, 2569.641203 1919.051573" stroke="rgb(231,231,231)" fill="transparent" stroke-width="1.000000"/>
    <polygon points="2569.641203 1919.051573, 2569.641203 1922.843596, 2570.634481 1919.051573," fill="rgb(231,231,231)"/>
    <polyline points="2569.641203 1922.843596, 2570.634481 1922.843596, 2570.634481 1919.051573, 2569.641203 1922.843596" stroke="rgb(231,231,231)" fill="transparent" stroke-width="1.000000"/>
    <polygon points="2569.641203 1922.843596, 2570.634481 1922.843596, 2570.634481 1919.051573," fill="rgb(231,231,231)"/>
    <polyline points="2499.878648 1954.656754, 2499.878648 1952.904347, 2496.085674 1954.656754, 2499.878648 1954.656754" stroke="rgb(128,127,128)" fill="transparent" stroke-width="1.000000"/>
    <polygon points="2499.878648 1954.656754, 2499.878648 1952.904347, 2496.085674 1954.656754," fill="rgb(128,127,128)"/>
    <polyline points="2499.878648 1952.904347, 2496.085674 1952.904363, 2496.085674 1954.656754, 2499.878648 1952.904347" stroke="rgb(128,127,128)" fill="transparent" stroke-width="1.000000"/>
    <polygon points="2499.878648 1952.904347, 2496.085674 1952.904363, 2496.085674 1954.656754," fill="rgb(128,127,128)"/>
    <polyline points="2501.917198 1954.665753, 2502.406150 1954.665753, 2501.917198 1930.529597, 2501.917198 1954.665753" stroke="rgb(128,127,128)" fill="transparent" stroke-width="1.000000"/>
    <polygon points="2501.917198 1954.665753, 2502.406150 1954.665753, 2501.917198 1930.529597," fill="rgb(128,127,128)"/>
    <polyline points="2502.406150 1954.665753, 2502.406150 1930.529597, 2501.917198 1930.529597, 2502.406150 1954.665753" stroke="rgb(128,127,128)" fill="transparent" stroke-width="1.000000"/>
    <polygon points="2502.406150 1954.665753, 2502.406150 1930.529597, 2501.917198 1930.529597," fill="rgb(128,127,128)"/>
    <polyline points="2493.829972 1932.310395, 2494.318923 1932.310395, 2493.829972 1922.715089, 2493.829972 1932.310395" stroke="rgb(128,127,128)" fill="transparent" stroke-width="1.000000"/>
    <polygon points="2493.829972 1932.310395, 2494.318923 1932.310395, 2493.829972 1922.715089," fill="rgb(128,127,128)"/>
    <polyline points="2494.318923 1932.310395, 2494.318923 1922.715089, 2493.829972 1922.715089, 2494.318923 1932.310395" stroke="rgb(128,127,128)" fill="transparent" stroke-width="1.000000"/>
    <polygon points="2494.318923 1932.310395, 2494.318923 1922.715089, 2493.829972 1922.715089," fill="rgb(128,127,128)"/>
    <polyline points="2493.829972 1954.665753, 2494.318923 1954.665753, 2493.829972 1939.451173, 2493.829972 1954.665753" stroke="rgb(128,127,128)" fill="transparent" stroke-width="1.000000"/>
    <polygon points="2493.829972 1954.665753, 2494.318923 1954.665753, 2493.829972 1939.451173," fill="rgb(128,127,128)"/>
    <polyline points="2494.318923 1954.665753, 2494.318923 1939.451173, 2493.829972 1939.451173, 2494.318923 1954.665753" stroke="rgb(128,127,128)" fill="transparent" stroke-width="1.000000"/>
    <polygon points="2494.318923 1954.665753, 2494.318923 1939.451173, 2493.829972 1939.451173," fill="rgb(128,127,128)"/>
    <polyline points="2506.330255 1923.006558, 2506.330255 1922.517574, 2493.830201 1923.006558, 2506.330255 1923.006558" stroke="rgb(128,127,128)" fill="transparent" stroke-width="1.000000"/>
    <polygon points="2506.330255 1923.006558, 2506.330255 1922.517574, 2493.830201 1923.006558," fill="rgb(128,127,128)"/>
    <polyline points="2506.330255 1922.517574, 2493.830201 1922.517574, 2493.830201 1923.006558, 2506.330255 1922.517574" stroke="rgb(128,127,128)" fill="transparent" stroke-width="1.000000"/>
    <polygon points="2506.330255 1922.517574, 2493.830201 1922.517574, 2493.830201 1923.006558," fill="rgb(128,127,128)"/>
    <polyline points="2514.325559 1930.950902, 2514.325559 1930.461918, 2501.917297 1930.950902, 2514.325559 1930.950902" stroke="rgb(128,127,128)" fill="transparent" stroke-width="1.000000"/>
    <polygon points="2514.325559 1930.950902, 2514.325559 1930.461918, 2501.917297 1930.950902," fill="rgb(128,127,128)"/>
    <polyline points="2514.325559 1930.461918, 2501.917297 1930.461918, 2501.917297 1930.950902, 2514.325559 1930.461918" stroke="rgb(128,127,128)" fill="transparent" stroke-width="1.000000"/>
    <polygon points="2514.325559 1930.461918, 2501.917297 1930.461918, 2501.917297 1930.950902," fill="rgb(128,127,128)"/>
    <polyline points="2513.840640 1914.488798, 2514.329657 1914.890778, 2562.321121 1914.488831, 2513.840640 1914.488798" stroke="rgb(128,127,128)" fill="transparent" stroke-width="1.000000"/>
    <polygon points="2513.840640 1914.488798, 2514.329657 1914.890778, 2562.321121 1914.488831," fill="rgb(128,127,128)"/>
    <polyline points="2514.329657 1914.890778, 2562.321121 1914.890811, 2562.321121 1914.488831, 2514.329657 1914.890778" stroke="rgb(128,127,128)" fill="transparent" stroke-width="1.000000"/>
    <polygon points="2514.329657 1914.890778, 2562.321121 1914.890811, 2562.321121 1914.488831," fill="rgb(128,127,128)"/>
    <polyline points="2514.329657 1930.950952, 2514.329657 1914.890778, 2513.840640 1930.950952, 2514.329657 1930.950952" stroke="rgb(128,127,128)" fill="transparent" stroke-width="1.000000"/>
    <polygon points="2514.329657 1930.950952, 2514.329657 1914.890778, 2513.840640 1930.950952," fill="rgb(128,127,128)"/>
    <polyline points="2514.329657 1914.890778, 2513.840640 1914.488798, 2513.840640 1930.950952, 2514.329657 1914.890778" stroke="rgb(128,127,128)" fill="transparent" stroke-width="1.000000"/>
    <polygon points="2514.329657 1914.890778, 2513.840640 1914.488798, 2513.840640 1930.950952," fill="rgb(128,127,128)"/>
    <polyline points="2547.092935 1906.823745, 2547.092935 1906.421798, 2506.344154 1906.823745, 2547.092935 1906.823745" stroke="rgb(128,127,128)" fill="transparent" stroke-width="1.000000"/>
    <polygon points="2547.092935 1906.823745, 2547.092935 1906.421798, 2506.344154 1906.823745," fill="rgb(128,127,128)"/>
    <polyline points="2547.092935 1906.421798, 2506.344154 1906.421798, 2506.344154 1906.823745, 2547.092935 1906.421798" stroke="rgb(128,127,128)" fill="transparent" stroke-width="1.000000"/>
    <polygon points="2547.092935 1906.421798, 2506.344154 1906.421798, 2506.344154 1906.823745," fill="rgb(128,127,128)"/>
    <polyline points="2506.344154 1906.823745, 2506.344154 1906.421798, 2505.855170 1906.421798, 2506.344154 1906.823745" stroke="rgb(128,127,128)" fill="transparent" stroke-width="1.000000"/>
    <polygon points="2506.344154 1906.823745, 2506.344154 1906.421798, 2505.855170 1906.421798," fill="rgb(128,127,128)"/>
    <polyline points="2506.344154 1906.823745, 2505.855170 1906.421798, 2505.855170 1922.883952, 2506.344154 1906.823745" stroke="rgb(128,127,128)" fill="transparent" stroke-width="1.000000"/>
    <polygon points="2506.344154 1906.823745, 2505.855170 1906.421798, 2505.855170 1922.883952," fill="rgb(128,127,128)"/>
    <polyline points="2506.344154 1922.883952, 2506.344154 1906.823745, 2505.855170 1922.883952, 2506.344154 1922.883952" stroke="rgb(128,127,128)" fill="transparent" stroke-width="1.000000"/>
    <polygon points="2506.344154 1922.883952, 2506.344154 1906.823745, 2505.855170 1922.883952," fill="rgb(128,127,128)"/>
    <polyline points="2501.917297 1930.529597, 2502.406150 1930.529597" stroke-dasharray="1.500000,2.000000" stroke-opacity="0.2" stroke="black" fill="transparent" stroke-width="0.500000"/>
    <polyline points="2493.830201 1922.715089, 2494.318923 1922.715089" stroke-dasharray="1.500000,2.000000" stroke-opacity="0.2" stroke="black" fill="transparent" stroke-width="0.500000"/>
    <polyline points="2505.855170 1922.517574, 2506.330255 1922.517574" stroke-dasharray="1.500000,2.000000" stroke-opacity="0.2" stroke="black" fill="transparent" stroke-width="0.500000"/>
    <polyline points="2512.943086 1906.809223, 2547.092935 1906.809245" stroke-dasharray="1.500000,2.000000" stroke-opacity="0.2" stroke="black" fill="transparent" stroke-width="0.500000"/>
    <polyline points="2512.943086 1906.809223, 2512.943053 1914.585343" stroke-dasharray="1.500000,2.000000" stroke-opacity="0.2" stroke="black" fill="transparent" stroke-width="0.500000"/>
    <polyline points="2563.276142 1906.816472, 2563.276142 1914.585343" stroke-dasharray="1.500000,2.000000" stroke-opacity="0.2" stroke="black" fill="transparent" stroke-width="0.500000"/>
    <polyline points="2562.320934 1914.488831, 2562.320935 1914.890811" stroke-dasharray="1.500000,2.000000" stroke-opacity="0.2" stroke="black" fill="transparent" stroke-width="0.500000"/>
    <polyline points="2506.169292 1906.816435, 2506.169353 1922.517574" stroke-dasharray="1.500000,2.000000" stroke-opacity="0.2" stroke="black" fill="transparent" stroke-width="0.500000"/>
    <polyline points="2506.169292 1906.816435, 2513.983047 1906.816468" stroke-dasharray="1.500000,2.000000" stroke-opacity="0.2" stroke="black" fill="transparent" stroke-width="0.500000"/>
    <polyline points="2513.983047 1906.816468, 2513.983047 1923.727414" stroke-dasharray="1.500000,2.000000" stroke-opacity="0.2" stroke="black" fill="transparent" stroke-width="0.500000"/>
    <polyline points="2512.943053 1914.585343, 2563.276142 1914.585343" stroke-dasharray="1.500000,2.000000" stroke-opacity="0.2" stroke="black" fill="transparent" stroke-width="0.500000"/>
    <polyline points="2569.641203 1919.051573, 2569.641203 1922.843596" stroke-dasharray="1.500000,2.000000" stroke-opacity="0.2" stroke="black" fill="transparent" stroke-width="0.500000"/>
    <polyline points="2570.634481 1919.051573, 2570.634481 1922.843596" stroke-dasharray="1.500000,2.000000" stroke-opacity="0.2" stroke="black" fill="transparent" stroke-width="0.500000"/>
    <polyline points="2493.830201 1922.715089, 2493.830201 1923.006558" stroke-dasharray="1.500000,2.000000" stroke-opacity="0.2" stroke="black" fill="transparent" stroke-width="0.500000"/>
    <polyline points="2494.292402 1922.906080, 2513.982621 1922.906080" stroke-dasharray="1.500000,2.000000" stroke-opacity="0.2" stroke="black" fill="transparent" stroke-width="0.500000"/>
    <polyline points="2494.292402 1922.906080, 2494.292402 1930.566527" stroke-dasharray="1.500000,2.000000" stroke-opacity="0.2" stroke="black" fill="transparent" stroke-width="0.500000"/>
    <polyline points="2513.982621 1922.906080, 2513.982621 1930.566560" stroke-dasharray="1.500000,2.000000" stroke-opacity="0.2" stroke="black" fill="transparent" stroke-width="0.500000"/>
    <polyline points="2494.294107 1930.223720, 2494.294107 1954.664573" stroke-dasharray="1.500000,2.000000" stroke-opacity="0.2" stroke="black" fill="transparent" stroke-width="0.500000"/>
    <polyline points="2494.294107 1930.223720, 2501.954538 1930.223785" stroke-dasharray="1.500000,2.000000" stroke-opacity="0.2" stroke="black" fill="transparent" stroke-width="0.500000"/>
    <polyline points="2501.954538 1930.223785, 2501.954570 1954.664622" stroke-dasharray="1.500000,2.000000" stroke-opacity="0.2" stroke="black" fill="transparent" stroke-width="0.500000"/>
    <polyline points="2501.917297 1930.529597, 2501.917297 1930.950902" stroke-dasharray="1.500000,2.000000" stroke-opacity="0.2" stroke="black" fill="transparent" stroke-width="0.500000"/>
    <polyline points="2502.406150 1930.529597, 2502.406150 1930.566540" stroke-dasharray="1.500000,2.000000" stroke-opacity="0.2" stroke="black" fill="transparent" stroke-width="0.500000"/>
    <polyline points="2494.292402 1930.566527, 2494.318923 1930.566527" stroke-dasharray="1.500000,2.000000" stroke-opacity="0.2" stroke="black" fill="transparent" stroke-width="0.500000"/>
    <polyline points="2501.917198 1930.566540, 2513.982621 1930.566560" stroke-dasharray="1.500000,2.000000" stroke-opacity="0.2" stroke="black" fill="transparent" stroke-width="0.500000"/>
    <polyline points="2494.359967 1932.264401, 2494.359902 1939.402016" stroke-dasharray="1.500000,2.000000" stroke-opacity="0.2" stroke="black" fill="transparent" stroke-width="0.500000"/>
    <polyline points="2494.294107 1954.664573, 2494.318923 1954.664573" stroke-dasharray="1.500000,2.000000" stroke-opacity="0.2" stroke="black" fill="transparent" stroke-width="0.500000"/>
    <polyline points="2501.917198 1954.664622, 2501.954570 1954.664622" stroke-dasharray="1.500000,2.000000" stroke-opacity="0.2" stroke="black" fill="transparent" stroke-width="0.500000"/>
    <polyline points="2472.508608 1904.865283, 2472.508509 1957.852726" stroke="black" fill="transparent" stroke-width="0.500000"/>
    <polyline points="2579.411748 1904.865316, 2579.411846 1957.852791" stroke="black" fill="transparent" stroke-width="0.500000"/>
    <polyline points="2472.508509 1957.852726, 2579.411846 1957.852791" stroke="black" fill="transparent" stroke-width="0.500000"/>
    <polyline points="2499.878648 1952.904347, 2499.878648 1954.656754" stroke="black" fill="transparent" stroke-width="0.500000"/>
    <polyline points="2499.878648 1952.904347, 2496.085674 1952.904363" stroke="black" fill="transparent" stroke-width="0.500000"/>
    <polyline points="2501.917198 1930.529597, 2501.917198 1954.665753" stroke="black" fill="transparent" stroke-width="0.500000"/>
    <polyline points="2501.917198 1930.529597, 2501.917297 1930.529597" stroke="black" fill="transparent" stroke-width="0.500000"/>
    <polyline points="2493.829972 1922.715089, 2493.829972 1932.310395" stroke="black" fill="transparent" stroke-width="0.500000"/>
    <polyline points="2493.829972 1922.715089, 2493.830201 1922.715089" stroke="black" fill="transparent" stroke-width="0.500000"/>
    <polyline points="2506.330255 1922.517574, 2506.330255 1923.006558" stroke="black" fill="transparent" stroke-width="0.500000"/>
    <polyline points="2493.830201 1922.517574, 2505.855170 1922.517574" stroke="black" fill="transparent" stroke-width="0.500000"/>
    <polyline points="2513.840640 1914.488798, 2562.321121 1914.488831" stroke="black" fill="transparent" stroke-width="0.500000"/>
    <polyline points="2547.092935 1906.421798, 2547.092935 1906.823745" stroke="black" fill="transparent" stroke-width="0.500000"/>
    <polyline points="2506.344154 1906.421798, 2547.092935 1906.421798" stroke="black" fill="transparent" stroke-width="0.500000"/>
    <polyline points="2505.855170 1906.421798, 2506.344154 1906.421798" stroke="black" fill="transparent" stroke-width="0.500000"/>
    <polyline points="2505.855170 1906.421798, 2505.855170 1922.883952" stroke="black" fill="transparent" stroke-width="0.500000"/>
    <polyline points="2506.344154 1906.823745, 2547.092935 1906.823745" stroke="black" fill="transparent" stroke-width="0.500000"/>
    <polyline points="2547.092935 1906.809245, 2563.276142 1906.809255" stroke="black" fill="transparent" stroke-width="0.500000"/>
    <polyline points="2563.276142 1906.809255, 2563.276142 1906.816472" stroke="black" fill="transparent" stroke-width="0.500000"/>
    <polyline points="2562.320924 1906.816468, 2562.320934 1914.488831" stroke="black" fill="transparent" stroke-width="0.500000"/>
    <polyline points="2562.320935 1914.890811, 2562.320957 1930.753814" stroke="black" fill="transparent" stroke-width="0.500000"/>
    <polyline points="2562.320924 1906.816468, 2569.981387 1906.816500" stroke="black" fill="transparent" stroke-width="0.500000"/>
    <polyline points="2506.169353 1922.517574, 2506.169358 1923.727414" stroke="black" fill="transparent" stroke-width="0.500000"/>
    <polyline points="2570.479912 1906.816468, 2570.479944 1949.205819" stroke="black" fill="transparent" stroke-width="0.500000"/>
    <polyline points="2570.479912 1906.816468, 2577.546552 1906.816500" stroke="black" fill="transparent" stroke-width="0.500000"/>
    <polyline points="2569.981387 1906.816500, 2569.981387 1930.753814" stroke="black" fill="transparent" stroke-width="0.500000"/>
    <polyline points="2577.546552 1906.816500, 2577.546552 1956.433684" stroke="black" fill="transparent" stroke-width="0.500000"/>
    <polyline points="2506.344154 1906.823745, 2506.344154 1922.883952" stroke="black" fill="transparent" stroke-width="0.500000"/>
    <polyline points="2513.840640 1914.488798, 2513.840640 1930.950952" stroke="black" fill="transparent" stroke-width="0.500000"/>
    <polyline points="2514.329657 1914.890778, 2562.321121 1914.890811" stroke="black" fill="transparent" stroke-width="0.500000"/>
    <polyline points="2562.321121 1914.488831, 2562.321121 1914.890811" stroke="black" fill="transparent" stroke-width="0.500000"/>
    <polyline points="2514.329657 1914.890778, 2514.329657 1930.950952" stroke="black" fill="transparent" stroke-width="0.500000"/>
    <polyline points="2569.641203 1919.051573, 2570.634481 1919.051573" stroke="black" fill="transparent" stroke-width="0.500000"/>
    <polyline points="2493.830201 1922.517574, 2493.830201 1922.715089" stroke="black" fill="transparent" stroke-width="0.500000"/>
    <polyline points="2494.318923 1922.715089, 2494.318923 1932.310395" stroke="black" fill="transparent" stroke-width="0.500000"/>
    <polyline points="2493.830201 1923.006558, 2506.330255 1923.006558" stroke="black" fill="transparent" stroke-width="0.500000"/>
    <polyline points="2505.855170 1922.883952, 2506.344154 1922.883952" stroke="black" fill="transparent" stroke-width="0.500000"/>
    <polyline points="2569.641203 1922.843596, 2570.634481 1922.843596" stroke="black" fill="transparent" stroke-width="0.500000"/>
    <polyline points="2514.325559 1930.461918, 2514.325559 1930.950902" stroke="black" fill="transparent" stroke-width="0.500000"/>
    <polyline points="2501.917297 1930.461918, 2514.325559 1930.461918" stroke="black" fill="transparent" stroke-width="0.500000"/>
    <polyline points="2506.169358 1923.727414, 2513.983047 1923.727414" stroke="black" fill="transparent" stroke-width="0.500000"/>
    <polyline points="2501.917297 1930.461918, 2501.917297 1930.529597" stroke="black" fill="transparent" stroke-width="0.500000"/>
    <polyline points="2502.406150 1930.566540, 2502.406150 1954.665753" stroke="black" fill="transparent" stroke-width="0.500000"/>
    <polyline points="2493.829972 1932.310395, 2494.318923 1932.310395" stroke="black" fill="transparent" stroke-width="0.500000"/>
    <polyline points="2501.917297 1930.950902, 2514.325559 1930.950902" stroke="black" fill="transparent" stroke-width="0.500000"/>
    <polyline points="2494.318923 1930.566527, 2501.917198 1930.566540" stroke="black" fill="transparent" stroke-width="0.500000"/>
    <polyline points="2562.320957 1930.753814, 2569.981387 1930.753814" stroke="black" fill="transparent" stroke-width="0.500000"/>
    <polyline points="2513.840640 1930.950952, 2514.329657 1930.950952" stroke="black" fill="transparent" stroke-width="0.500000"/>
    <polyline points="2480.655023 1931.967375, 2480.655023 1932.786348" stroke="black" fill="transparent" stroke-width="0.500000"/>
    <polyline points="2480.655023 1931.967375, 2492.427796 1931.967375" stroke="black" fill="transparent" stroke-width="0.500000"/>
    <polyline points="2492.427796 1931.967375, 2492.427796 1932.786348" stroke="black" fill="transparent" stroke-width="0.500000"/>
    <polyline points="2493.103576 1932.264401, 2494.359967 1932.264401" stroke="black" fill="transparent" stroke-width="0.500000"/>
    <polyline points="2493.103576 1932.264401, 2493.103608 1939.402016" stroke="black" fill="transparent" stroke-width="0.500000"/>
    <polyline points="2493.829972 1939.451173, 2493.829972 1954.665753" stroke="black" fill="transparent" stroke-width="0.500000"/>
    <polyline points="2493.829972 1939.451173, 2494.318923 1939.451173" stroke="black" fill="transparent" stroke-width="0.500000"/>
    <polyline points="2493.252540 1932.786348, 2493.252540 1938.736694" stroke="black" fill="transparent" stroke-width="0.500000"/>
    <polyline points="2492.427796 1932.786348, 2493.252540 1932.786348" stroke="black" fill="transparent" stroke-width="0.500000"/>
    <polyline points="2480.655023 1932.786348, 2480.654991 1938.736726" stroke="black" fill="transparent" stroke-width="0.500000"/>
    <polyline points="2492.427796 1938.736694, 2493.252540 1938.736694" stroke="black" fill="transparent" stroke-width="0.500000"/>
    <polyline points="2492.427796 1938.736694, 2492.427796 1939.555700" stroke="black" fill="transparent" stroke-width="0.500000"/>
    <polyline points="2480.654991 1938.736726, 2480.654991 1939.555700" stroke="black" fill="transparent" stroke-width="0.500000"/>
    <polyline points="2493.103608 1939.402016, 2494.359902 1939.402016" stroke="black" fill="transparent" stroke-width="0.500000"/>
    <polyline points="2494.318923 1939.451173, 2494.318923 1954.665753" stroke="black" fill="transparent" stroke-width="0.500000"/>
    <polyline points="2480.654991 1939.555700, 2492.427796 1939.555700" stroke="black" fill="transparent" stroke-width="0.500000"/>
    <polyline points="2543.688238 1949.205819, 2570.479944 1949.205819" stroke="black" fill="transparent" stroke-width="0.500000"/>
    <polyline points="2543.688238 1949.205819, 2543.688238 1956.433241" stroke="black" fill="transparent" stroke-width="0.500000"/>
    <polyline points="2496.085674 1954.656754, 2499.878648 1954.656754" stroke="black" fill="transparent" stroke-width="0.500000"/>
    <polyline points="2496.085674 1952.904363, 2496.085674 1954.656754" stroke="black" fill="transparent" stroke-width="0.500000"/>
    <polyline points="2501.917198 1954.665753, 2502.406150 1954.665753" stroke="black" fill="transparent" stroke-width="0.500000"/>
    <polyline points="2493.829972 1954.665753, 2494.318923 1954.665753" stroke="black" fill="transparent" stroke-width="0.500000"/>
    <polyline points="2494.318923 1954.664573, 2501.917198 1954.664622" stroke="black" fill="transparent" stroke-width="0.500000"/>
    <polyline points="2543.688238 1956.433241, 2577.546552 1956.433684" stroke="black" fill="transparent" stroke-width="0.500000"/>
    <polyline points="2472.508608 1904.865283, 2579.411748 1904.865316" stroke="black" fill="transparent" stroke-width="0.500000"/>
  </g>
</svg>
