<svg version="1.1" baseProfile="full" width="4400" height="4400" xmlns="http://www.w3.org/2000/svg">
  <g stroke-linejoin="round" stroke-linecap="round">
    <polyline points="2520.294541 1734.730610, 2520.294541 1909.163272, 2589.866039 1734.730643, 2520.294541 1734.730610" stroke="rgb(128,127,128)" fill="transparent" stroke-width="1.000000"/>
    <polygon points="2520.294541 1734.730610, 2520.294541 1909.163272, 2589.866039 1734.730643," fill="rgb(128,127,128)"/>
    <polyline points="2520.294541 1909.163272, 2589.865974 1909.163404, 2589.866039 1734.730643, 2520.294541 1909.163272" stroke="rgb(128,127,128)" fill="transparent" stroke-width="1.000000"/>
    <polygon points="2520.294541 1909.163272, 2589.865974 1909.163404, 2589.866039 1734.730643," fill="rgb(128,127,128)"/>
    <polyline points="2579.411748 1904.865316, 2472.508608 1904.865283, 2579.411846 1957.852791, 2579.411748 1904.865316" stroke="rgb(128,127,128)" fill="transparent" stroke-width="1.000000"/>
    <polygon points="2579.411748 1904.865316, 2472.508608 1904.865283, 2579.411846 1957.852791," fill="rgb(128,127,128)"/>
    <polyline points="2472.508608 1904.865283, 2472.508509 1957.852726, 2579.411846 1957.852791, 2472.508608 1904.865283" stroke="rgb(128,127,128)" fill="transparent" stroke-width="1.000000"/>
    <polygon points="2472.508608 1904.865283, 2472.508509 1957.852726, 2579.411846 1957.852791," fill="rgb(128,127,128)"/>
    <polyline points="2554.534608 1732.525951, 2492.394423 1732.525918, 2554.534641 1805.750179, 2554.534608 1732.525951" stroke="rgb(128,127,128)" fill="transparent" stroke-width="1.000000"/>
    <polygon points="2554.534608 1732.525951, 2492.394423 1732.525918, 2554.534641 1805.750179," fill="rgb(128,127,128)"/>
    <polyline points="2492.394423 1732.525918, 2492.394358 1805.750081, 2554.534641 1805.750179, 2492.394423 1732.525918" stroke="rgb(128,127,128)" fill="transparent" stroke-width="1.000000"/>
    <polygon points="2492.394423 1732.525918, 2492.394358 1805.750081, 2554.534641 1805.750179," fill="rgb(128,127,128)"/>
    <polyline points="2564.706314 1850.768790, 2542.368183 1850.768757, 2564.706281 1858.429253, 2564.706314 1850.768790" stroke="rgb(231,231,231)" fill="transparent" stroke-width="1.000000"/>
    <polygon points="2564.706314 1850.768790, 2542.368183 1850.768757, 2564.706281 1858.429253," fill="rgb(231,231,231)"/>
    <polyline points="2542.368183 1850.768757, 2542.368117 1858.429220, 2564.706281 1858.429253, 2542.368183 1850.768757" stroke="rgb(231,231,231)" fill="transparent" stroke-width="1.000000"/>
    <polygon points="2542.368183 1850.768757, 2542.368117 1858.429220, 2564.706281 1858.429253," fill="rgb(231,231,231)"/>
    <polyline points="2547.092903 1856.813532, 2547.092903 1915.870124, 2554.753399 1856.813565, 2547.092903 1856.813532" stroke="rgb(231,231,231)" fill="transparent" stroke-width="1.000000"/>
    <polygon points="2547.092903 1856.813532, 2547.092903 1915.870124, 2554.753399 1856.813565," fill="rgb(231,231,231)"/>
    <polyline points="2547.092903 1915.870124, 2554.753399 1915.870190, 2554.753399 1856.813565, 2547.092903 1915.870124" stroke="rgb(231,231,231)" fill="transparent" stroke-width="1.000000"/>
    <polygon points="2547.092903 1915.870124, 2554.753399 1915.870190, 2554.753399 1856.813565," fill="rgb(231,231,231)"/>
    <polyline points="2557.082894 1794.778088, 2557.082862 1858.385751, 2564.743358 1794.778088, 2557.082894 1794.778088" stroke="rgb(231,231,231)" fill="transparent" stroke-width="1.000000"/>
    <polygon points="2557.082894 1794.778088, 2557.082862 1858.385751, 2564.743358 1794.778088," fill="rgb(231,231,231)"/>
    <polyline points="2557.082862 1858.385751, 2564.743325 1858.385783, 2564.743358 1794.778088, 2557.082862 1858.385751" stroke="rgb(231,231,231)" fill="transparent" stroke-width="1.000000"/>
    <polygon points="2557.082862 1858.385751, 2564.743325 1858.385783, 2564.743358 1794.778088," fill="rgb(231,231,231)"/>
    <polyline points="2522.996381 1734.494478, 2522.996381 1783.728072, 2530.656844 1734.494478, 2522.996381 1734.494478" stroke="rgb(231,231,231)" fill="transparent" stroke-width="1.000000"/>
    <polygon points="2522.996381 1734.494478, 2522.996381 1783.728072, 2530.656844 1734.494478," fill="rgb(231,231,231)"/>
    <polyline points="2522.996381 1783.728072, 2530.656844 1783.728072, 2530.656844 1734.494478, 2522.996381 1783.728072" stroke="rgb(231,231,231)" fill="transparent" stroke-width="1.000000"/>
    <polygon points="2522.996381 1783.728072, 2530.656844 1783.728072, 2530.656844 1734.494478," fill="rgb(231,231,231)"/>
    <polyline points="2515.092900 1923.232988, 2554.817161 1923.233053, 2515.092900 1915.572524, 2515.092900 1923.232988" stroke="rgb(231,231,231)" fill="transparent" stroke-width="1.000000"/>
    <polygon points="2515.092900 1923.232988, 2554.817161 1923.233053, 2515.092900 1915.572524," fill="rgb(231,231,231)"/>
    <polyline points="2554.817161 1923.233053, 2554.817161 1915.572557, 2515.092900 1915.572524, 2554.817161 1923.233053" stroke="rgb(231,231,231)" fill="transparent" stroke-width="1.000000"/>
    <polygon points="2554.817161 1923.233053, 2554.817161 1915.572557, 2515.092900 1915.572524," fill="rgb(231,231,231)"/>
    <polyline points="2564.706314 1794.769892, 2541.216826 1794.769859, 2564.706314 1802.430388, 2564.706314 1794.769892" stroke="rgb(231,231,231)" fill="transparent" stroke-width="1.000000"/>
    <polygon points="2564.706314 1794.769892, 2541.216826 1794.769859, 2564.706314 1802.430388," fill="rgb(231,231,231)"/>
    <polyline points="2541.216826 1794.769859, 2541.216761 1802.430356, 2564.706314 1802.430388, 2541.216826 1794.769859" stroke="rgb(231,231,231)" fill="transparent" stroke-width="1.000000"/>
    <polygon points="2541.216826 1794.769859, 2541.216761 1802.430356, 2564.706314 1802.430388," fill="rgb(231,231,231)"/>
    <polyline points="2548.785630 1782.742202, 2522.994742 1782.742202, 2548.785630 1790.402699, 2548.785630 1782.742202" stroke="rgb(231,231,231)" fill="transparent" stroke-width="1.000000"/>
    <polygon points="2548.785630 1782.742202, 2522.994742 1782.742202, 2548.785630 1790.402699," fill="rgb(231,231,231)"/>
    <polyline points="2522.994742 1782.742202, 2522.994709 1790.402666, 2548.785630 1790.402699, 2522.994742 1782.742202" stroke="rgb(231,231,231)" fill="transparent" stroke-width="1.000000"/>
    <polygon points="2522.994742 1782.742202, 2522.994709 1790.402666, 2548.785630 1790.402699," fill="rgb(231,231,231)"/>
    <polyline points="2541.222793 1782.751906, 2541.222793 1802.299684, 2548.883256 1782.751906, 2541.222793 1782.751906" stroke="rgb(231,231,231)" fill="transparent" stroke-width="1.000000"/>
    <polygon points="2541.222793 1782.751906, 2541.222793 1802.299684, 2548.883256 1782.751906," fill="rgb(231,231,231)"/>
    <polyline points="2541.222793 1802.299684, 2548.883256 1802.299684, 2548.883256 1782.751906, 2541.222793 1802.299684" stroke="rgb(231,231,231)" fill="transparent" stroke-width="1.000000"/>
    <polygon points="2541.222793 1802.299684, 2548.883256 1802.299684, 2548.883256 1782.751906," fill="rgb(231,231,231)"/>
    <polyline points="2516.482323 1915.572524, 2492.656061 1915.572524, 2516.482323 1941.054928, 2516.482323 1915.572524" stroke="rgb(231,231,231)" fill="transparent" stroke-width="1.000000"/>
    <polygon points="2516.482323 1915.572524, 2492.656061 1915.572524, 2516.482323 1941.054928," fill="rgb(231,231,231)"/>
    <polyline points="2492.656061 1915.572524, 2492.656028 1941.054896, 2516.482323 1941.054928, 2492.656061 1915.572524" stroke="rgb(231,231,231)" fill="transparent" stroke-width="1.000000"/>
    <polygon points="2492.656061 1915.572524, 2492.656028 1941.054896, 2516.482323 1941.054928," fill="rgb(231,231,231)"/>
    <polyline points="2492.961398 1938.799194, 2492.961398 1932.848848, 2492.136687 1932.848848, 2492.961398 1938.799194" stroke="rgb(231,231,231)" fill="transparent" stroke-width="1.000000"/>
    <polygon points="2492.961398 1938.799194, 2492.961398 1932.848848, 2492.136687 1932.848848," fill="rgb(231,231,231)"/>
    <polyline points="2492.136687 1938.799194, 2492.961398 1938.799194, 2492.136687 1932.848848, 2492.136687 1938.799194" stroke="rgb(231,231,231)" fill="transparent" stroke-width="1.000000"/>
    <polygon points="2492.136687 1938.799194, 2492.961398 1938.799194, 2492.136687 1932.848848," fill="rgb(231,231,231)"/>
    <polyline points="2492.136687 1932.848848, 2480.363882 1932.848848, 2492.136687 1938.799194, 2492.136687 1932.848848" stroke="rgb(231,231,231)" fill="transparent" stroke-width="1.000000"/>
    <polygon points="2492.136687 1932.848848, 2480.363882 1932.848848, 2492.136687 1938.799194," fill="rgb(231,231,231)"/>
    <polyline points="2480.363882 1932.029875, 2480.363882 1932.848848, 2492.136687 1932.848848, 2480.363882 1932.029875" stroke="rgb(231,231,231)" fill="transparent" stroke-width="1.000000"/>
    <polygon points="2480.363882 1932.029875, 2480.363882 1932.848848, 2492.136687 1932.848848," fill="rgb(231,231,231)"/>
    <polyline points="2492.136687 1932.029875, 2480.363882 1932.029875, 2492.136687 1932.848848, 2492.136687 1932.029875" stroke="rgb(231,231,231)" fill="transparent" stroke-width="1.000000"/>
    <polygon points="2492.136687 1932.029875, 2480.363882 1932.029875, 2492.136687 1932.848848," fill="rgb(231,231,231)"/>
    <polyline points="2480.363882 1932.848848, 2480.363849 1938.799226, 2492.136687 1938.799194, 2480.363882 1932.848848" stroke="rgb(231,231,231)" fill="transparent" stroke-width="1.000000"/>
    <polygon points="2480.363882 1932.848848, 2480.363849 1938.799226, 2492.136687 1938.799194," fill="rgb(231,231,231)"/>
    <polyline points="2492.136687 1938.799194, 2480.363849 1938.799226, 2492.136687 1939.618200, 2492.136687 1938.799194" stroke="rgb(231,231,231)" fill="transparent" stroke-width="1.000000"/>
    <polygon points="2492.136687 1938.799194, 2480.363849 1938.799226, 2492.136687 1939.618200," fill="rgb(231,231,231)"/>
    <polyline points="2480.363849 1938.799226, 2480.363849 1939.618200, 2492.136687 1939.618200, 2480.363849 1938.799226" stroke="rgb(231,231,231)" fill="transparent" stroke-width="1.000000"/>
    <polygon points="2480.363849 1938.799226, 2480.363849 1939.618200, 2492.136687 1939.618200," fill="rgb(231,231,231)"/>
    <polyline points="2565.834886 1896.510255, 2565.834886 1891.968134, 2557.483596 1896.510255, 2565.834886 1896.510255" stroke="rgb(231,231,231)" fill="transparent" stroke-width="1.000000"/>
    <polygon points="2565.834886 1896.510255, 2565.834886 1891.968134, 2557.483596 1896.510255," fill="rgb(231,231,231)"/>
    <polyline points="2565.834886 1891.968134, 2557.483596 1891.968134, 2557.483596 1896.510255, 2565.834886 1891.968134" stroke="rgb(231,231,231)" fill="transparent" stroke-width="1.000000"/>
    <polygon points="2565.834886 1891.968134, 2557.483596 1891.968134, 2557.483596 1896.510255," fill="rgb(231,231,231)"/>
    <polyline points="2565.834886 1891.968134, 2565.834886 1886.872742, 2557.483596 1891.968134, 2565.834886 1891.968134" stroke="rgb(231,231,231)" fill="transparent" stroke-width="1.000000"/>
    <polygon points="2565.834886 1891.968134, 2565.834886 1886.872742, 2557.483596 1891.968134," fill="rgb(231,231,231)"/>
    <polyline points="2565.834886 1886.872742, 2557.483628 1886.872742, 2557.483596 1891.968134, 2565.834886 1886.872742" stroke="rgb(231,231,231)" fill="transparent" stroke-width="1.000000"/>
    <polygon points="2565.834886 1886.872742, 2557.483628 1886.872742, 2557.483596 1891.968134," fill="rgb(231,231,231)"/>
    <polyline points="2557.483628 1886.872742, 2555.268282 1886.872742, 2557.483596 1891.968134, 2557.483628 1886.872742" stroke="rgb(231,231,231)" fill="transparent" stroke-width="1.000000"/>
    <polygon points="2557.483628 1886.872742, 2555.268282 1886.872742, 2557.483596 1891.968134," fill="rgb(231,231,231)"/>
    <polyline points="2555.268282 1886.872742, 2555.268282 1891.968134, 2557.483596 1891.968134, 2555.268282 1886.872742" stroke="rgb(231,231,231)" fill="transparent" stroke-width="1.000000"/>
    <polygon points="2555.268282 1886.872742, 2555.268282 1891.968134, 2557.483596 1891.968134," fill="rgb(231,231,231)"/>
    <polyline points="2555.621251 1888.210008, 2554.551163 1888.210008, 2555.621251 1891.752949, 2555.621251 1888.210008" stroke="rgb(231,231,231)" fill="transparent" stroke-width="1.000000"/>
    <polygon points="2555.621251 1888.210008, 2554.551163 1888.210008, 2555.621251 1891.752949," fill="rgb(231,231,231)"/>
    <polyline points="2554.551163 1888.210008, 2554.551163 1891.752949, 2555.621251 1891.752949, 2554.551163 1888.210008" stroke="rgb(231,231,231)" fill="transparent" stroke-width="1.000000"/>
    <polygon points="2554.551163 1888.210008, 2554.551163 1891.752949, 2555.621251 1891.752949," fill="rgb(231,231,231)"/>
    <polyline points="2557.266444 1868.526772, 2554.671475 1868.526772, 2557.266444 1878.430283, 2557.266444 1868.526772" stroke="rgb(231,231,231)" fill="transparent" stroke-width="1.000000"/>
    <polygon points="2557.266444 1868.526772, 2554.671475 1868.526772, 2557.266444 1878.430283," fill="rgb(231,231,231)"/>
    <polyline points="2554.671475 1868.526772, 2554.671475 1878.430283, 2557.266444 1878.430283, 2554.671475 1868.526772" stroke="rgb(231,231,231)" fill="transparent" stroke-width="1.000000"/>
    <polygon points="2554.671475 1868.526772, 2554.671475 1878.430283, 2557.266444 1878.430283," fill="rgb(231,231,231)"/>
    <polyline points="2567.303774 1821.895686, 2564.708772 1821.895686, 2567.303774 1831.799296, 2567.303774 1821.895686" stroke="rgb(231,231,231)" fill="transparent" stroke-width="1.000000"/>
    <polygon points="2567.303774 1821.895686, 2564.708772 1821.895686, 2567.303774 1831.799296," fill="rgb(231,231,231)"/>
    <polyline points="2564.708772 1821.895686, 2564.708772 1831.799263, 2567.303774 1831.799296, 2564.708772 1821.895686" stroke="rgb(231,231,231)" fill="transparent" stroke-width="1.000000"/>
    <polygon points="2564.708772 1821.895686, 2564.708772 1831.799263, 2567.303774 1831.799296," fill="rgb(231,231,231)"/>
    <polyline points="2522.996381 1734.730612, 2530.656844 1734.730615" stroke-dasharray="1.500000,2.000000" stroke-opacity="0.2" stroke="black" fill="transparent" stroke-width="0.500000"/>
    <polyline points="2554.534609 1734.730626, 2554.534641 1805.750179" stroke-dasharray="1.500000,2.000000" stroke-opacity="0.2" stroke="black" fill="transparent" stroke-width="0.500000"/>
    <polyline points="2547.092903 1909.163323, 2554.753399 1909.163337" stroke-dasharray="1.500000,2.000000" stroke-opacity="0.2" stroke="black" fill="transparent" stroke-width="0.500000"/>
    <polyline points="2520.294541 1904.865297, 2579.411748 1904.865316" stroke-dasharray="1.500000,2.000000" stroke-opacity="0.2" stroke="black" fill="transparent" stroke-width="0.500000"/>
    <polyline points="2520.294541 1805.750125, 2554.534641 1805.750179" stroke-dasharray="1.500000,2.000000" stroke-opacity="0.2" stroke="black" fill="transparent" stroke-width="0.500000"/>
    <polyline points="2548.785630 1782.742202, 2548.785630 1790.402699" stroke-dasharray="1.500000,2.000000" stroke-opacity="0.2" stroke="black" fill="transparent" stroke-width="0.500000"/>
    <polyline points="2541.222793 1794.769859, 2541.222793 1802.299684" stroke-dasharray="1.500000,2.000000" stroke-opacity="0.2" stroke="black" fill="transparent" stroke-width="0.500000"/>
    <polyline points="2548.883256 1794.769870, 2548.883256 1802.299684" stroke-dasharray="1.500000,2.000000" stroke-opacity="0.2" stroke="black" fill="transparent" stroke-width="0.500000"/>
    <polyline points="2541.222793 1794.769859, 2548.883256 1794.769870" stroke-dasharray="1.500000,2.000000" stroke-opacity="0.2" stroke="black" fill="transparent" stroke-width="0.500000"/>
    <polyline points="2541.222793 1790.402689, 2548.785630 1790.402699" stroke-dasharray="1.500000,2.000000" stroke-opacity="0.2" stroke="black" fill="transparent" stroke-width="0.500000"/>
    <polyline points="2564.706314 1794.778088, 2564.706314 1802.430388" stroke-dasharray="1.500000,2.000000" stroke-opacity="0.2" stroke="black" fill="transparent" stroke-width="0.500000"/>
    <polyline points="2557.082891 1802.430378, 2564.706314 1802.430388" stroke-dasharray="1.500000,2.000000" stroke-opacity="0.2" stroke="black" fill="transparent" stroke-width="0.500000"/>
    <polyline points="2541.222793 1802.299684, 2548.883256 1802.299684" stroke-dasharray="1.500000,2.000000" stroke-opacity="0.2" stroke="black" fill="transparent" stroke-width="0.500000"/>
    <polyline points="2557.082866 1850.768778, 2564.706314 1850.768790" stroke-dasharray="1.500000,2.000000" stroke-opacity="0.2" stroke="black" fill="transparent" stroke-width="0.500000"/>
    <polyline points="2564.708772 1821.895686, 2564.708772 1831.799263" stroke-dasharray="1.500000,2.000000" stroke-opacity="0.2" stroke="black" fill="transparent" stroke-width="0.500000"/>
    <polyline points="2564.708772 1831.799263, 2564.743339 1831.799263" stroke-dasharray="1.500000,2.000000" stroke-opacity="0.2" stroke="black" fill="transparent" stroke-width="0.500000"/>
    <polyline points="2564.706314 1850.768790, 2564.706281 1858.385783" stroke-dasharray="1.500000,2.000000" stroke-opacity="0.2" stroke="black" fill="transparent" stroke-width="0.500000"/>
    <polyline points="2547.092903 1858.429227, 2554.753399 1858.429238" stroke-dasharray="1.500000,2.000000" stroke-opacity="0.2" stroke="black" fill="transparent" stroke-width="0.500000"/>
    <polyline points="2547.092903 1856.813532, 2547.092903 1858.429227" stroke-dasharray="1.500000,2.000000" stroke-opacity="0.2" stroke="black" fill="transparent" stroke-width="0.500000"/>
    <polyline points="2547.092903 1856.813532, 2554.753399 1856.813565" stroke-dasharray="1.500000,2.000000" stroke-opacity="0.2" stroke="black" fill="transparent" stroke-width="0.500000"/>
    <polyline points="2554.753399 1856.813565, 2554.753399 1858.429238" stroke-dasharray="1.500000,2.000000" stroke-opacity="0.2" stroke="black" fill="transparent" stroke-width="0.500000"/>
    <polyline points="2557.082862 1858.385751, 2564.706281 1858.385783" stroke-dasharray="1.500000,2.000000" stroke-opacity="0.2" stroke="black" fill="transparent" stroke-width="0.500000"/>
    <polyline points="2554.671475 1868.526772, 2554.671475 1878.430283" stroke-dasharray="1.500000,2.000000" stroke-opacity="0.2" stroke="black" fill="transparent" stroke-width="0.500000"/>
    <polyline points="2554.551163 1888.210008, 2554.551163 1891.752949" stroke-dasharray="1.500000,2.000000" stroke-opacity="0.2" stroke="black" fill="transparent" stroke-width="0.500000"/>
    <polyline points="2555.621251 1888.210008, 2555.621251 1891.752949" stroke-dasharray="1.500000,2.000000" stroke-opacity="0.2" stroke="black" fill="transparent" stroke-width="0.500000"/>
    <polyline points="2579.411748 1904.865316, 2579.411756 1909.163384" stroke-dasharray="1.500000,2.000000" stroke-opacity="0.2" stroke="black" fill="transparent" stroke-width="0.500000"/>
    <polyline points="2547.092903 1915.572550, 2554.753399 1915.572557" stroke-dasharray="1.500000,2.000000" stroke-opacity="0.2" stroke="black" fill="transparent" stroke-width="0.500000"/>
    <polyline points="2516.482323 1915.572525, 2516.482323 1923.232990" stroke-dasharray="1.500000,2.000000" stroke-opacity="0.2" stroke="black" fill="transparent" stroke-width="0.500000"/>
    <polyline points="2492.961398 1932.848848, 2492.961398 1938.799194" stroke-dasharray="1.500000,2.000000" stroke-opacity="0.2" stroke="black" fill="transparent" stroke-width="0.500000"/>
    <polyline points="2520.294541 1734.730610, 2520.294541 1805.750125" stroke-dasharray="1.500000,2.000000" stroke-opacity="0.2" stroke="black" fill="transparent" stroke-width="0.500000"/>
    <polyline points="2520.294541 1734.730610, 2522.996381 1734.730612" stroke="black" fill="transparent" stroke-width="0.500000"/>
    <polyline points="2530.656844 1734.730615, 2589.866039 1734.730643" stroke="black" fill="transparent" stroke-width="0.500000"/>
    <polyline points="2492.394423 1732.525918, 2554.534608 1732.525951" stroke="black" fill="transparent" stroke-width="0.500000"/>
    <polyline points="2492.394423 1732.525918, 2492.394358 1805.750081" stroke="black" fill="transparent" stroke-width="0.500000"/>
    <polyline points="2554.534608 1732.525951, 2554.534609 1734.730626" stroke="black" fill="transparent" stroke-width="0.500000"/>
    <polyline points="2522.996381 1734.494478, 2522.996381 1783.728072" stroke="black" fill="transparent" stroke-width="0.500000"/>
    <polyline points="2522.996381 1734.494478, 2530.656844 1734.494478" stroke="black" fill="transparent" stroke-width="0.500000"/>
    <polyline points="2530.656844 1734.494478, 2530.656844 1783.728072" stroke="black" fill="transparent" stroke-width="0.500000"/>
    <polyline points="2520.294541 1909.163272, 2547.092903 1909.163323" stroke="black" fill="transparent" stroke-width="0.500000"/>
    <polyline points="2554.753399 1909.163337, 2589.865974 1909.163404" stroke="black" fill="transparent" stroke-width="0.500000"/>
    <polyline points="2589.866039 1734.730643, 2589.865974 1909.163404" stroke="black" fill="transparent" stroke-width="0.500000"/>
    <polyline points="2472.508608 1904.865283, 2520.294541 1904.865297" stroke="black" fill="transparent" stroke-width="0.500000"/>
    <polyline points="2492.394358 1805.750081, 2520.294541 1805.750125" stroke="black" fill="transparent" stroke-width="0.500000"/>
    <polyline points="2557.082894 1794.778088, 2557.082862 1858.385751" stroke="black" fill="transparent" stroke-width="0.500000"/>
    <polyline points="2557.082894 1794.778088, 2564.743358 1794.778088" stroke="black" fill="transparent" stroke-width="0.500000"/>
    <polyline points="2522.996381 1783.728072, 2530.656844 1783.728072" stroke="black" fill="transparent" stroke-width="0.500000"/>
    <polyline points="2522.994742 1782.742202, 2548.785630 1782.742202" stroke="black" fill="transparent" stroke-width="0.500000"/>
    <polyline points="2522.994742 1782.742202, 2522.994709 1790.402666" stroke="black" fill="transparent" stroke-width="0.500000"/>
    <polyline points="2541.222793 1782.751906, 2541.222793 1794.769859" stroke="black" fill="transparent" stroke-width="0.500000"/>
    <polyline points="2541.222793 1782.751906, 2548.883256 1782.751906" stroke="black" fill="transparent" stroke-width="0.500000"/>
    <polyline points="2548.883256 1782.751906, 2548.883256 1794.769870" stroke="black" fill="transparent" stroke-width="0.500000"/>
    <polyline points="2541.216826 1794.769859, 2541.222793 1794.769859" stroke="black" fill="transparent" stroke-width="0.500000"/>
    <polyline points="2548.883256 1794.769870, 2564.706314 1794.769892" stroke="black" fill="transparent" stroke-width="0.500000"/>
    <polyline points="2522.994709 1790.402666, 2541.222793 1790.402689" stroke="black" fill="transparent" stroke-width="0.500000"/>
    <polyline points="2541.216826 1794.769859, 2541.216761 1802.430356" stroke="black" fill="transparent" stroke-width="0.500000"/>
    <polyline points="2564.706314 1794.769892, 2564.706314 1794.778088" stroke="black" fill="transparent" stroke-width="0.500000"/>
    <polyline points="2564.743358 1794.778088, 2564.743325 1858.385783" stroke="black" fill="transparent" stroke-width="0.500000"/>
    <polyline points="2541.216761 1802.430356, 2557.082891 1802.430378" stroke="black" fill="transparent" stroke-width="0.500000"/>
    <polyline points="2542.368183 1850.768757, 2557.082866 1850.768778" stroke="black" fill="transparent" stroke-width="0.500000"/>
    <polyline points="2564.708772 1821.895686, 2567.303774 1821.895686" stroke="black" fill="transparent" stroke-width="0.500000"/>
    <polyline points="2567.303774 1821.895686, 2567.303774 1831.799296" stroke="black" fill="transparent" stroke-width="0.500000"/>
    <polyline points="2564.743339 1831.799263, 2567.303774 1831.799296" stroke="black" fill="transparent" stroke-width="0.500000"/>
    <polyline points="2542.368183 1850.768757, 2542.368117 1858.429220" stroke="black" fill="transparent" stroke-width="0.500000"/>
    <polyline points="2564.706281 1858.385783, 2564.706281 1858.429253" stroke="black" fill="transparent" stroke-width="0.500000"/>
    <polyline points="2542.368117 1858.429220, 2547.092903 1858.429227" stroke="black" fill="transparent" stroke-width="0.500000"/>
    <polyline points="2554.753399 1858.429238, 2564.706281 1858.429253" stroke="black" fill="transparent" stroke-width="0.500000"/>
    <polyline points="2547.092903 1858.429227, 2547.092903 1915.870124" stroke="black" fill="transparent" stroke-width="0.500000"/>
    <polyline points="2554.753399 1858.429238, 2554.753399 1915.870190" stroke="black" fill="transparent" stroke-width="0.500000"/>
    <polyline points="2564.706281 1858.385783, 2564.743325 1858.385783" stroke="black" fill="transparent" stroke-width="0.500000"/>
    <polyline points="2565.834886 1891.968134, 2565.834886 1896.510255" stroke="black" fill="transparent" stroke-width="0.500000"/>
    <polyline points="2565.834886 1886.872742, 2565.834886 1891.968134" stroke="black" fill="transparent" stroke-width="0.500000"/>
    <polyline points="2557.483628 1886.872742, 2565.834886 1886.872742" stroke="black" fill="transparent" stroke-width="0.500000"/>
    <polyline points="2555.268282 1886.872742, 2557.483628 1886.872742" stroke="black" fill="transparent" stroke-width="0.500000"/>
    <polyline points="2554.671475 1868.526772, 2557.266444 1868.526772" stroke="black" fill="transparent" stroke-width="0.500000"/>
    <polyline points="2557.266444 1868.526772, 2557.266444 1878.430283" stroke="black" fill="transparent" stroke-width="0.500000"/>
    <polyline points="2554.671475 1878.430283, 2557.266444 1878.430283" stroke="black" fill="transparent" stroke-width="0.500000"/>
    <polyline points="2555.268282 1886.872742, 2555.268282 1891.968134" stroke="black" fill="transparent" stroke-width="0.500000"/>
    <polyline points="2555.268282 1891.968134, 2557.483596 1891.968134" stroke="black" fill="transparent" stroke-width="0.500000"/>
    <polyline points="2554.551163 1888.210008, 2555.621251 1888.210008" stroke="black" fill="transparent" stroke-width="0.500000"/>
    <polyline points="2554.551163 1891.752949, 2555.621251 1891.752949" stroke="black" fill="transparent" stroke-width="0.500000"/>
    <polyline points="2557.483596 1891.968134, 2557.483596 1896.510255" stroke="black" fill="transparent" stroke-width="0.500000"/>
    <polyline points="2557.483596 1896.510255, 2565.834886 1896.510255" stroke="black" fill="transparent" stroke-width="0.500000"/>
    <polyline points="2472.508608 1904.865283, 2472.508509 1957.852726" stroke="black" fill="transparent" stroke-width="0.500000"/>
    <polyline points="2579.411756 1909.163384, 2579.411846 1957.852791" stroke="black" fill="transparent" stroke-width="0.500000"/>
    <polyline points="2472.508509 1957.852726, 2579.411846 1957.852791" stroke="black" fill="transparent" stroke-width="0.500000"/>
    <polyline points="2547.092903 1915.870124, 2554.753399 1915.870190" stroke="black" fill="transparent" stroke-width="0.500000"/>
    <polyline points="2515.092900 1915.572524, 2515.092900 1923.232988" stroke="black" fill="transparent" stroke-width="0.500000"/>
    <polyline points="2515.092900 1915.572524, 2547.092903 1915.572550" stroke="black" fill="transparent" stroke-width="0.500000"/>
    <polyline points="2554.753399 1915.572557, 2554.817161 1915.572557" stroke="black" fill="transparent" stroke-width="0.500000"/>
    <polyline points="2492.656061 1915.572524, 2516.482323 1915.572524" stroke="black" fill="transparent" stroke-width="0.500000"/>
    <polyline points="2492.656061 1915.572524, 2492.656028 1941.054896" stroke="black" fill="transparent" stroke-width="0.500000"/>
    <polyline points="2554.817161 1915.572557, 2554.817161 1923.233053" stroke="black" fill="transparent" stroke-width="0.500000"/>
    <polyline points="2516.482323 1915.572524, 2516.482323 1915.572525" stroke="black" fill="transparent" stroke-width="0.500000"/>
    <polyline points="2516.482323 1923.232990, 2516.482323 1941.054928" stroke="black" fill="transparent" stroke-width="0.500000"/>
    <polyline points="2515.092900 1923.232988, 2554.817161 1923.233053" stroke="black" fill="transparent" stroke-width="0.500000"/>
    <polyline points="2492.656028 1941.054896, 2516.482323 1941.054928" stroke="black" fill="transparent" stroke-width="0.500000"/>
    <polyline points="2492.136687 1932.848848, 2492.961398 1932.848848" stroke="black" fill="transparent" stroke-width="0.500000"/>
    <polyline points="2480.363882 1932.029875, 2480.363882 1932.848848" stroke="black" fill="transparent" stroke-width="0.500000"/>
    <polyline points="2480.363882 1932.029875, 2492.136687 1932.029875" stroke="black" fill="transparent" stroke-width="0.500000"/>
    <polyline points="2492.136687 1932.029875, 2492.136687 1932.848848" stroke="black" fill="transparent" stroke-width="0.500000"/>
    <polyline points="2480.363882 1932.848848, 2480.363849 1938.799226" stroke="black" fill="transparent" stroke-width="0.500000"/>
    <polyline points="2492.136687 1938.799194, 2492.961398 1938.799194" stroke="black" fill="transparent" stroke-width="0.500000"/>
    <polyline points="2492.136687 1938.799194, 2492.136687 1939.618200" stroke="black" fill="transparent" stroke-width="0.500000"/>
    <polyline points="2480.363849 1938.799226, 2480.363849 1939.618200" stroke="black" fill="transparent" stroke-width="0.500000"/>
    <polyline points="2480.363849 1939.618200, 2492.136687 1939.618200" stroke="black" fill="transparent" stroke-width="0.500000"/>
    <polyline points="2520.294541 1805.750125, 2520.294541 1909.163272" stroke="black" fill="transparent" stroke-width="0.500000"/>
  </g>
</svg>
