<svg version="1.1" baseProfile="full" width="4400" height="4400" xmlns="http://www.w3.org/2000/svg">
  <g stroke-linejoin="round" stroke-linecap="round">
    <polyline points="2604.697490 1735.024506, 2604.697490 1583.428925, 2450.983976 1735.024473, 2604.697490 1735.024506" stroke="rgb(231,231,231)" fill="transparent" stroke-width="1.000000"/>
    <polygon points="2604.697490 1735.024506, 2604.697490 1583.428925, 2450.983976 1735.024473," fill="rgb(231,231,231)"/>
    <polyline points="2604.697490 1583.428925, 2450.983992 1583.428925, 2450.983976 1735.024473, 2604.697490 1583.428925" stroke="rgb(231,231,231)" fill="transparent" stroke-width="1.000000"/>
    <polygon points="2604.697490 1583.428925, 2450.983992 1583.428925, 2450.983976 1735.024473," fill="rgb(231,231,231)"/>
    <polyline points="2489.863610 1731.761888, 2453.662950 1731.764707, 2450.519758 1735.024473, 2522.980776 1735.024473, 2489.863610 1731.761888" stroke="rgb(128,127,128)" fill="transparent" stroke-width="1.000000"/>
    <polygon points="2489.863610 1731.761888, 2453.662950 1731.764707, 2450.519758 1735.024473, 2522.980776 1735.024473," fill="rgb(128,127,128)"/>
    <polyline points="2522.980776 1731.764740, 2489.863610 1731.761888, 2522.980776 1735.024473, 2522.980776 1731.764740" stroke="rgb(128,127,128)" fill="transparent" stroke-width="1.000000"/>
    <polygon points="2522.980776 1731.764740, 2489.863610 1731.761888, 2522.980776 1735.024473," fill="rgb(128,127,128)"/>
    <polyline points="2453.662950 1731.764707, 2453.614104 1654.841000, 2450.519775 1583.428925, 2450.519758 1735.024473, 2453.662950 1731.764707" stroke="rgb(128,127,128)" fill="transparent" stroke-width="1.000000"/>
    <polygon points="2453.662950 1731.764707, 2453.614104 1654.841000, 2450.519775 1583.428925, 2450.519758 1735.024473," fill="rgb(128,127,128)"/>
    <polyline points="2453.662884 1586.572772, 2450.519775 1583.428925, 2453.614104 1654.841000, 2453.662884 1586.572772" stroke="rgb(128,127,128)" fill="transparent" stroke-width="1.000000"/>
    <polygon points="2453.662884 1586.572772, 2450.519775 1583.428925, 2453.614104 1654.841000," fill="rgb(128,127,128)"/>
    <polyline points="2453.662884 1586.572772, 2604.677230 1583.428925, 2604.677886 1583.428925, 2450.519775 1583.428925, 2453.662884 1586.572772" stroke="rgb(128,127,128)" fill="transparent" stroke-width="1.000000"/>
    <polygon points="2453.662884 1586.572772, 2604.677230 1583.428925, 2604.677886 1583.428925, 2450.519775 1583.428925," fill="rgb(128,127,128)"/>
    <polyline points="2530.675301 1728.505138, 2530.674842 1735.024473, 2598.349673 1728.454357, 2530.675301 1728.505138" stroke="rgb(128,127,128)" fill="transparent" stroke-width="1.000000"/>
    <polygon points="2530.675301 1728.505138, 2530.674842 1735.024473, 2598.349673 1728.454357," fill="rgb(128,127,128)"/>
    <polyline points="2530.674842 1735.024473, 2604.677886 1735.024506, 2598.349673 1728.454357, 2530.674842 1735.024473" stroke="rgb(128,127,128)" fill="transparent" stroke-width="1.000000"/>
    <polygon points="2530.674842 1735.024473, 2604.677886 1735.024506, 2598.349673 1728.454357," fill="rgb(128,127,128)"/>
    <polyline points="2598.349673 1728.454357, 2604.677886 1735.024506, 2604.677886 1583.428925, 2598.349673 1728.454357" stroke="rgb(128,127,128)" fill="transparent" stroke-width="1.000000"/>
    <polygon points="2598.349673 1728.454357, 2604.677886 1735.024506, 2604.677886 1583.428925," fill="rgb(128,127,128)"/>
    <polyline points="2598.349673 1589.716619, 2598.349673 1728.454357, 2604.677886 1583.428925, 2598.349673 1589.716619" stroke="rgb(128,127,128)" fill="transparent" stroke-width="1.000000"/>
    <polygon points="2598.349673 1589.716619, 2598.349673 1728.454357, 2604.677886 1583.428925," fill="rgb(128,127,128)"/>
    <polyline points="2453.700043 1731.726220, 2453.662950 1731.764707, 2455.385607 1731.764576, 2453.700043 1731.726220" stroke="rgb(128,127,128)" fill="transparent" stroke-width="1.000000"/>
    <polygon points="2453.700043 1731.726220, 2453.662950 1731.764707, 2455.385607 1731.764576," fill="rgb(128,127,128)"/>
    <polyline points="2453.700060 1731.726220, 2454.745872 1680.960566, 2453.614104 1654.841000, 2453.662950 1731.764707, 2453.700060 1731.726220" stroke="rgb(128,127,128)" fill="transparent" stroke-width="1.000000"/>
    <polygon points="2453.700060 1731.726220, 2454.745872 1680.960566, 2453.614104 1654.841000, 2453.662950 1731.764707," fill="rgb(128,127,128)"/>
    <polyline points="2454.745872 1680.960828, 2456.805994 1589.716619, 2453.662884 1586.572772, 2453.614104 1654.841000, 2454.745872 1680.960828" stroke="rgb(128,127,128)" fill="transparent" stroke-width="1.000000"/>
    <polygon points="2454.745872 1680.960828, 2456.805994 1589.716619, 2453.662884 1586.572772, 2453.614104 1654.841000," fill="rgb(128,127,128)"/>
    <polyline points="2453.662884 1586.572772, 2456.805994 1589.716619, 2604.677230 1583.428925, 2453.662884 1586.572772" stroke="rgb(128,127,128)" fill="transparent" stroke-width="1.000000"/>
    <polygon points="2453.662884 1586.572772, 2456.805994 1589.716619, 2604.677230 1583.428925," fill="rgb(128,127,128)"/>
    <polyline points="2598.349673 1589.716619, 2604.677886 1583.428925, 2456.805994 1589.716619, 2598.349673 1589.716619" stroke="rgb(128,127,128)" fill="transparent" stroke-width="1.000000"/>
    <polygon points="2598.349673 1589.716619, 2604.677886 1583.428925, 2456.805994 1589.716619," fill="rgb(128,127,128)"/>
    <polyline points="2457.570401 1728.505138, 2456.805994 1728.505138, 2489.863610 1731.761888, 2490.585810 1731.761920, 2457.570401 1728.505138" stroke="rgb(128,127,128)" fill="transparent" stroke-width="1.000000"/>
    <polygon points="2457.570401 1728.505138, 2456.805994 1728.505138, 2489.863610 1731.761888, 2490.585810 1731.761920," fill="rgb(128,127,128)"/>
    <polyline points="2453.700043 1731.726220, 2455.385607 1731.764576, 2489.863610 1731.761888, 2456.805994 1728.505138, 2453.700043 1731.726220" stroke="rgb(128,127,128)" fill="transparent" stroke-width="1.000000"/>
    <polygon points="2453.700043 1731.726220, 2455.385607 1731.764576, 2489.863610 1731.761888, 2456.805994 1728.505138," fill="rgb(128,127,128)"/>
    <polyline points="2457.570401 1728.505138, 2490.585810 1731.761920, 2522.980776 1731.764740, 2522.980776 1728.505138, 2457.570401 1728.505138" stroke="rgb(128,127,128)" fill="transparent" stroke-width="1.000000"/>
    <polygon points="2457.570401 1728.505138, 2490.585810 1731.761920, 2522.980776 1731.764740, 2522.980776 1728.505138," fill="rgb(128,127,128)"/>
    <polyline points="2453.700060 1731.726220, 2456.805994 1728.505138, 2454.745872 1680.960566, 2453.700060 1731.726220" stroke="rgb(128,127,128)" fill="transparent" stroke-width="1.000000"/>
    <polygon points="2453.700060 1731.726220, 2456.805994 1728.505138, 2454.745872 1680.960566," fill="rgb(128,127,128)"/>
    <polyline points="2454.745872 1680.960828, 2456.805994 1728.505138, 2456.805994 1589.716619, 2456.805994 1589.716619, 2454.745872 1680.960828" stroke="rgb(128,127,128)" fill="transparent" stroke-width="1.000000"/>
    <polygon points="2454.745872 1680.960828, 2456.805994 1728.505138, 2456.805994 1589.716619, 2456.805994 1589.716619," fill="rgb(128,127,128)"/>
    <polyline points="2450.983992 1583.428925, 2450.983976 1735.024473" stroke-dasharray="1.500000,2.000000" stroke-opacity="0.2" stroke="black" fill="transparent" stroke-width="0.500000"/>
    <polyline points="2598.349673 1728.454357, 2530.675301 1728.505138" stroke="black" fill="transparent" stroke-width="0.500000"/>
    <polyline points="2604.677886 1583.428925, 2604.677886 1735.024506" stroke="black" fill="transparent" stroke-width="0.500000"/>
    <polyline points="2450.519775 1583.428925, 2604.677886 1583.428925" stroke="black" fill="transparent" stroke-width="0.500000"/>
    <polyline points="2450.519775 1583.428925, 2450.519758 1735.024473" stroke="black" fill="transparent" stroke-width="0.500000"/>
    <polyline points="2450.983992 1583.428925, 2604.697490 1583.428925" stroke="black" fill="transparent" stroke-width="0.500000"/>
    <polyline points="2598.349673 1589.716619, 2598.349673 1728.454357" stroke="black" fill="transparent" stroke-width="0.500000"/>
    <polyline points="2456.805994 1589.716619, 2598.349673 1589.716619" stroke="black" fill="transparent" stroke-width="0.500000"/>
    <polyline points="2604.697490 1583.428925, 2604.697490 1735.024506" stroke="black" fill="transparent" stroke-width="0.500000"/>
    <polyline points="2456.805994 1589.716619, 2456.805994 1728.505138" stroke="black" fill="transparent" stroke-width="0.500000"/>
    <polyline points="2456.805994 1728.505138, 2522.980776 1728.505138" stroke="black" fill="transparent" stroke-width="0.500000"/>
    <polyline points="2522.980776 1728.505138, 2522.980776 1735.024473" stroke="black" fill="transparent" stroke-width="0.500000"/>
    <polyline points="2530.674842 1735.024473, 2604.677886 1735.024506" stroke="black" fill="transparent" stroke-width="0.500000"/>
    <polyline points="2450.519758 1735.024473, 2522.980776 1735.024473" stroke="black" fill="transparent" stroke-width="0.500000"/>
    <polyline points="2450.983976 1735.024473, 2604.697490 1735.024506" stroke="black" fill="transparent" stroke-width="0.500000"/>
    <polyline points="2530.675301 1728.505138, 2530.674842 1735.024473" stroke="black" fill="transparent" stroke-width="0.500000"/>
  </g>
</svg>
