<svg version="1.1" baseProfile="full" width="4400" height="4400" xmlns="http://www.w3.org/2000/svg">
  <g stroke-linejoin="round" stroke-linecap="round">
    <polyline points="2187.888174 2271.896437, 2238.152349 2271.896437, 2187.888178 2171.482421, 2187.888174 2271.896437" stroke="rgb(128,127,128)" fill="transparent" stroke-width="1.000000"/>
    <polygon points="2187.888174 2271.896437, 2238.152349 2271.896437, 2187.888178 2171.482421," fill="rgb(128,127,128)"/>
    <polyline points="2238.152349 2271.896437, 2238.152353 2171.482421, 2187.888178 2171.482421, 2238.152349 2271.896437" stroke="rgb(128,127,128)" fill="transparent" stroke-width="1.000000"/>
    <polygon points="2238.152349 2271.896437, 2238.152353 2171.482421, 2187.888178 2171.482421," fill="rgb(128,127,128)"/>
    <polyline points="2237.211248 2305.614155, 2265.851112 2305.614155, 2237.211252 2164.721660, 2237.211248 2305.614155" stroke="rgb(128,127,128)" fill="transparent" stroke-width="1.000000"/>
    <polygon points="2237.211248 2305.614155, 2265.851112 2305.614155, 2237.211252 2164.721660," fill="rgb(128,127,128)"/>
    <polyline points="2265.851112 2305.614155, 2265.851121 2164.721664, 2237.211252 2164.721660, 2265.851112 2305.614155" stroke="rgb(128,127,128)" fill="transparent" stroke-width="1.000000"/>
    <polygon points="2265.851112 2305.614155, 2265.851121 2164.721664, 2237.211252 2164.721660," fill="rgb(128,127,128)"/>
    <polyline points="2189.279876 2255.740632, 2189.186982 2235.343098, 2189.246915 2255.740538, 2189.279876 2255.740632" stroke="rgb(231,231,231)" fill="transparent" stroke-width="1.000000"/>
    <polygon points="2189.279876 2255.740632, 2189.186982 2235.343098, 2189.246915 2255.740538," fill="rgb(231,231,231)"/>
    <polyline points="2244.075678 2253.071120, 2251.763211 2253.071120, 2243.747176 2233.644318, 2244.075678 2253.071120" stroke="rgb(231,231,231)" fill="transparent" stroke-width="1.000000"/>
    <polygon points="2244.075678 2253.071120, 2251.763211 2253.071120, 2243.747176 2233.644318," fill="rgb(231,231,231)"/>
    <polyline points="2243.414306 2213.959001, 2243.747176 2233.644314, 2251.763211 2253.071120, 2251.763215 2213.959001, 2243.414306 2213.959001" stroke="rgb(231,231,231)" fill="transparent" stroke-width="1.000000"/>
    <polygon points="2243.414306 2213.959001, 2243.747176 2233.644314, 2251.763211 2253.071120, 2251.763215 2213.959001," fill="rgb(231,231,231)"/>
    <polyline points="2251.735412 2247.807980, 2251.735412 2252.631543, 2253.113750 2247.807980, 2251.735412 2247.807980" stroke="rgb(231,231,231)" fill="transparent" stroke-width="1.000000"/>
    <polygon points="2251.735412 2247.807980, 2251.735412 2252.631543, 2253.113750 2247.807980," fill="rgb(231,231,231)"/>
    <polyline points="2251.735412 2252.631543, 2253.113750 2252.631543, 2253.113750 2247.807980, 2251.735412 2252.631543" stroke="rgb(231,231,231)" fill="transparent" stroke-width="1.000000"/>
    <polygon points="2251.735412 2252.631543, 2253.113750 2252.631543, 2253.113750 2247.807980," fill="rgb(231,231,231)"/>
    <polyline points="2251.735416 2239.539904, 2251.735412 2244.363447, 2253.113754 2239.539904, 2251.735416 2239.539904" stroke="rgb(231,231,231)" fill="transparent" stroke-width="1.000000"/>
    <polygon points="2251.735416 2239.539904, 2251.735412 2244.363447, 2253.113754 2239.539904," fill="rgb(231,231,231)"/>
    <polyline points="2251.735412 2244.363447, 2253.113750 2244.363447, 2253.113754 2239.539904, 2251.735412 2244.363447" stroke="rgb(231,231,231)" fill="transparent" stroke-width="1.000000"/>
    <polygon points="2251.735412 2244.363447, 2253.113750 2244.363447, 2253.113754 2239.539904," fill="rgb(231,231,231)"/>
    <polyline points="2252.860070 2246.245424, 2252.867672 2254.197885, 2264.348442 2246.265982, 2252.860070 2246.245424" stroke="rgb(231,231,231)" fill="transparent" stroke-width="1.000000"/>
    <polygon points="2252.860070 2246.245424, 2252.867672 2254.197885, 2264.348442 2246.265982," fill="rgb(231,231,231)"/>
    <polyline points="2252.867672 2254.197885, 2264.335235 2254.176942, 2264.348442 2246.265982, 2252.867672 2254.197885" stroke="rgb(231,231,231)" fill="transparent" stroke-width="1.000000"/>
    <polygon points="2252.867672 2254.197885, 2264.335235 2254.176942, 2264.348442 2246.265982," fill="rgb(231,231,231)"/>
    <polyline points="2252.860074 2238.030763, 2252.867672 2245.983200, 2264.348442 2238.051301, 2252.860074 2238.030763" stroke="rgb(231,231,231)" fill="transparent" stroke-width="1.000000"/>
    <polygon points="2252.860074 2238.030763, 2252.867672 2245.983200, 2264.348442 2238.051301," fill="rgb(231,231,231)"/>
    <polyline points="2252.867672 2245.983200, 2264.335235 2245.962264, 2264.348442 2238.051301, 2252.867672 2245.983200" stroke="rgb(231,231,231)" fill="transparent" stroke-width="1.000000"/>
    <polygon points="2252.867672 2245.983200, 2264.335235 2245.962264, 2264.348442 2238.051301," fill="rgb(231,231,231)"/>
    <polyline points="2031.220149 2198.944893, 2030.686842 2198.486593, 2030.462347 2200.811707, 2031.220149 2198.944893" stroke="rgb(128,127,128)" fill="transparent" stroke-width="1.000000"/>
    <polygon points="2031.220149 2198.944893, 2030.686842 2198.486593, 2030.462347 2200.811707," fill="rgb(128,127,128)"/>
    <polyline points="2030.274339 2189.693293, 2030.686842 2198.486593, 2031.220067 2198.944806, 2030.274339 2189.693293" stroke="rgb(128,127,128)" fill="transparent" stroke-width="1.000000"/>
    <polygon points="2030.274339 2189.693293, 2030.686842 2198.486593, 2031.220067 2198.944806," fill="rgb(128,127,128)"/>
    <polyline points="2030.274339 2189.693293, 2189.246915 2256.750339, 2189.103877 2205.677499, 2030.274339 2189.693293" stroke="rgb(128,127,128)" fill="transparent" stroke-width="1.000000"/>
    <polygon points="2030.274339 2189.693293, 2189.246915 2256.750339, 2189.103877 2205.677499," fill="rgb(128,127,128)"/>
    <polyline points="2189.103875 2202.378494, 2124.529945 2199.178940, 2189.103877 2205.677499, 2189.103875 2202.378494" stroke="rgb(128,127,128)" fill="transparent" stroke-width="1.000000"/>
    <polygon points="2189.103875 2202.378494, 2124.529945 2199.178940, 2189.103877 2205.677499," fill="rgb(128,127,128)"/>
    <polyline points="2238.663319 2221.323622, 2237.039480 2253.071116, 2244.075678 2253.071120, 2243.747176 2233.644318, 2238.663319 2221.323622" stroke="rgb(231,231,231)" fill="transparent" stroke-width="1.000000"/>
    <polygon points="2238.663319 2221.323622, 2237.039480 2253.071116, 2244.075678 2253.071120, 2243.747176 2233.644318," fill="rgb(231,231,231)"/>
    <polyline points="2239.039781 2213.959001, 2238.663323 2221.323624, 2243.747176 2233.644314, 2243.414306 2213.959001, 2239.039781 2213.959001" stroke="rgb(231,231,231)" fill="transparent" stroke-width="1.000000"/>
    <polygon points="2239.039781 2213.959001, 2238.663323 2221.323624, 2243.747176 2233.644314, 2243.414306 2213.959001," fill="rgb(231,231,231)"/>
    <polyline points="2237.554232 2295.369861, 2237.554232 2270.212356, 2209.630894 2277.429198, 2237.554232 2295.369861" stroke="rgb(128,127,128)" fill="transparent" stroke-width="1.000000"/>
    <polygon points="2237.554232 2295.369861, 2237.554232 2270.212356, 2209.630894 2277.429198," fill="rgb(128,127,128)"/>
    <polyline points="2236.235123 2295.949792, 2237.554232 2295.369861, 2209.634661 2277.431615, 2236.235123 2295.949792" stroke="rgb(128,127,128)" fill="transparent" stroke-width="1.000000"/>
    <polygon points="2236.235123 2295.949792, 2237.554232 2295.369861, 2209.634661 2277.431615," fill="rgb(128,127,128)"/>
    <polyline points="2237.554232 2270.212356, 2209.508814 2270.212356, 2209.630894 2277.429198, 2237.554232 2270.212356" stroke="rgb(128,127,128)" fill="transparent" stroke-width="1.000000"/>
    <polygon points="2237.554232 2270.212356, 2209.508814 2270.212356, 2209.630894 2277.429198," fill="rgb(128,127,128)"/>
    <polyline points="2236.235123 2295.949792, 2209.634661 2277.431615, 2209.630894 2277.429198, 2209.630886 2277.429214, 2227.030507 2299.996503, 2236.235123 2295.949792" stroke="rgb(128,127,128)" fill="transparent" stroke-width="1.000000"/>
    <polygon points="2236.235123 2295.949792, 2209.634661 2277.431615, 2209.630894 2277.429198, 2209.630886 2277.429214, 2227.030507 2299.996503," fill="rgb(128,127,128)"/>
    <polyline points="2227.543216 2258.077811, 2221.899834 2265.549624, 2227.577187 2269.652250, 2227.543216 2258.077811" stroke="rgb(231,231,231)" fill="transparent" stroke-width="1.000000"/>
    <polygon points="2227.543216 2258.077811, 2221.899834 2265.549624, 2227.577187 2269.652250," fill="rgb(231,231,231)"/>
    <polyline points="2227.549777 2270.355296, 2227.577195 2269.652258, 2221.899123 2265.549111, 2221.722030 2270.355288, 2227.549777 2270.355296" stroke="rgb(231,231,231)" fill="transparent" stroke-width="1.000000"/>
    <polygon points="2227.549777 2270.355296, 2227.577195 2269.652258, 2221.899123 2265.549111, 2221.722030 2270.355288," fill="rgb(231,231,231)"/>
    <polyline points="2238.663319 2221.323622, 2235.624474 2213.959001, 2235.624470 2253.071116, 2237.039480 2253.071116, 2238.663319 2221.323622" stroke="rgb(231,231,231)" fill="transparent" stroke-width="1.000000"/>
    <polygon points="2238.663319 2221.323622, 2235.624474 2213.959001, 2235.624470 2253.071116, 2237.039480 2253.071116," fill="rgb(231,231,231)"/>
    <polyline points="2239.039781 2213.959001, 2235.624474 2213.959001, 2238.663323 2221.323624, 2239.039781 2213.959001" stroke="rgb(231,231,231)" fill="transparent" stroke-width="1.000000"/>
    <polygon points="2239.039781 2213.959001, 2235.624474 2213.959001, 2238.663323 2221.323624," fill="rgb(231,231,231)"/>
    <polyline points="2230.072275 2253.568297, 2232.187133 2253.568297, 2230.072275 2224.451481, 2230.072275 2253.568297" stroke="rgb(231,231,231)" fill="transparent" stroke-width="1.000000"/>
    <polygon points="2230.072275 2253.568297, 2232.187133 2253.568297, 2230.072275 2224.451481," fill="rgb(231,231,231)"/>
    <polyline points="2232.187133 2253.568297, 2232.187137 2224.451481, 2230.072275 2224.451481, 2232.187133 2253.568297" stroke="rgb(231,231,231)" fill="transparent" stroke-width="1.000000"/>
    <polygon points="2232.187133 2253.568297, 2232.187137 2224.451481, 2230.072275 2224.451481," fill="rgb(231,231,231)"/>
    <polyline points="2228.240655 2240.124048, 2228.240653 2271.015102, 2230.355515 2271.015102, 2228.831273 2224.920462, 2228.240655 2240.124048" stroke="rgb(231,231,231)" fill="transparent" stroke-width="1.000000"/>
    <polygon points="2228.240655 2240.124048, 2228.240653 2271.015102, 2230.355515 2271.015102, 2228.831273 2224.920462," fill="rgb(231,231,231)"/>
    <polyline points="2229.237558 2214.462054, 2228.831275 2224.920466, 2230.355515 2271.015102, 2230.355519 2212.268715, 2229.237558 2214.462054" stroke="rgb(231,231,231)" fill="transparent" stroke-width="1.000000"/>
    <polygon points="2229.237558 2214.462054, 2228.831275 2224.920466, 2230.355515 2271.015102, 2230.355519 2212.268715," fill="rgb(231,231,231)"/>
    <polyline points="2227.543216 2258.077811, 2227.577187 2269.652250, 2228.550073 2270.355296, 2228.510283 2256.797419, 2227.543216 2258.077811" stroke="rgb(231,231,231)" fill="transparent" stroke-width="1.000000"/>
    <polygon points="2227.543216 2258.077811, 2227.577187 2269.652250, 2228.550073 2270.355296, 2228.510283 2256.797419," fill="rgb(231,231,231)"/>
    <polyline points="2227.549777 2270.355296, 2228.550073 2270.355296, 2227.577195 2269.652258, 2227.549777 2270.355296" stroke="rgb(231,231,231)" fill="transparent" stroke-width="1.000000"/>
    <polygon points="2227.549777 2270.355296, 2228.550073 2270.355296, 2227.577195 2269.652258," fill="rgb(231,231,231)"/>
    <polyline points="2235.239357 2242.140818, 2232.040013 2250.427937, 2235.239353 2250.427937, 2235.239357 2242.140818" stroke="rgb(231,231,231)" fill="transparent" stroke-width="1.000000"/>
    <polygon points="2235.239357 2242.140818, 2232.040013 2250.427937, 2235.239353 2250.427937," fill="rgb(231,231,231)"/>
    <polyline points="2235.239357 2227.144603, 2232.040015 2227.144603, 2235.239357 2235.233460, 2235.239357 2227.144603" stroke="rgb(231,231,231)" fill="transparent" stroke-width="1.000000"/>
    <polygon points="2235.239357 2227.144603, 2232.040015 2227.144603, 2235.239357 2235.233460," fill="rgb(231,231,231)"/>
    <polyline points="2235.239357 2235.233460, 2232.040015 2227.144603, 2235.239357 2242.140818, 2235.239357 2235.233460" stroke="rgb(231,231,231)" fill="transparent" stroke-width="1.000000"/>
    <polygon points="2235.239357 2235.233460, 2232.040015 2227.144603, 2235.239357 2242.140818," fill="rgb(231,231,231)"/>
    <polyline points="2232.040015 2227.144603, 2232.040013 2250.427937, 2235.239357 2242.140818, 2232.040015 2227.144603" stroke="rgb(231,231,231)" fill="transparent" stroke-width="1.000000"/>
    <polygon points="2232.040015 2227.144603, 2232.040013 2250.427937, 2235.239357 2242.140818," fill="rgb(231,231,231)"/>
    <polyline points="2236.236295 2242.140818, 2236.236295 2235.233460, 2235.239357 2242.140818, 2236.236295 2242.140818" stroke="rgb(231,231,231)" fill="transparent" stroke-width="1.000000"/>
    <polygon points="2236.236295 2242.140818, 2236.236295 2235.233460, 2235.239357 2242.140818," fill="rgb(231,231,231)"/>
    <polyline points="2236.236295 2235.233460, 2235.239357 2235.233460, 2235.239357 2242.140818, 2236.236295 2235.233460" stroke="rgb(231,231,231)" fill="transparent" stroke-width="1.000000"/>
    <polygon points="2236.236295 2235.233460, 2235.239357 2235.233460, 2235.239357 2242.140818," fill="rgb(231,231,231)"/>
    <polyline points="2239.227613 2253.073059, 2240.287891 2253.073059, 2239.227613 2251.998139, 2239.227613 2253.073059" stroke="rgb(128,127,128)" fill="transparent" stroke-width="1.000000"/>
    <polygon points="2239.227613 2253.073059, 2240.287891 2253.073059, 2239.227613 2251.998139," fill="rgb(128,127,128)"/>
    <polyline points="2240.287891 2253.073059, 2240.287891 2251.998139, 2239.227613 2251.998139, 2240.287891 2253.073059" stroke="rgb(128,127,128)" fill="transparent" stroke-width="1.000000"/>
    <polygon points="2240.287891 2253.073059, 2240.287891 2251.998139, 2239.227613 2251.998139," fill="rgb(128,127,128)"/>
    <polyline points="2240.283949 2253.071436, 2244.006814 2253.071440, 2240.283949 2252.123438, 2240.283949 2253.071436" stroke="rgb(128,127,128)" fill="transparent" stroke-width="1.000000"/>
    <polygon points="2240.283949 2253.071436, 2244.006814 2253.071440, 2240.283949 2252.123438," fill="rgb(128,127,128)"/>
    <polyline points="2244.006814 2253.071440, 2244.006814 2252.123442, 2240.283949 2252.123438, 2244.006814 2253.071440" stroke="rgb(128,127,128)" fill="transparent" stroke-width="1.000000"/>
    <polygon points="2244.006814 2253.071440, 2244.006814 2252.123442, 2240.283949 2252.123438," fill="rgb(128,127,128)"/>
    <polyline points="2246.611113 2221.191522, 2250.477016 2221.191522, 2246.611113 2220.643041, 2246.611113 2221.191522" stroke="rgb(128,127,128)" fill="transparent" stroke-width="1.000000"/>
    <polygon points="2246.611113 2221.191522, 2250.477016 2221.191522, 2246.611113 2220.643041," fill="rgb(128,127,128)"/>
    <polyline points="2250.477016 2221.191522, 2250.477016 2220.643041, 2246.611113 2220.643041, 2250.477016 2221.191522" stroke="rgb(128,127,128)" fill="transparent" stroke-width="1.000000"/>
    <polygon points="2250.477016 2221.191522, 2250.477016 2220.643041, 2246.611113 2220.643041," fill="rgb(128,127,128)"/>
    <polyline points="2238.482867 2253.070039, 2239.282553 2253.070039, 2238.493460 2252.797370, 2238.482867 2253.070039" stroke="rgb(128,127,128)" fill="transparent" stroke-width="1.000000"/>
    <polygon points="2238.482867 2253.070039, 2239.282553 2253.070039, 2238.493460 2252.797370," fill="rgb(128,127,128)"/>
    <polyline points="2238.532275 2251.798219, 2238.493460 2252.797370, 2239.282553 2253.070039, 2239.282553 2251.798219, 2238.532275 2251.798219" stroke="rgb(128,127,128)" fill="transparent" stroke-width="1.000000"/>
    <polygon points="2238.532275 2251.798219, 2238.493460 2252.797370, 2239.282553 2253.070039, 2239.282553 2251.798219," fill="rgb(128,127,128)"/>
    <polyline points="2243.129282 2220.161408, 2242.883774 2220.643041, 2251.870496 2220.643041, 2251.844377 2213.959001, 2243.129282 2220.161408" stroke="rgb(128,127,128)" fill="transparent" stroke-width="1.000000"/>
    <polygon points="2243.129282 2220.161408, 2242.883774 2220.643041, 2251.870496 2220.643041, 2251.844377 2213.959001," fill="rgb(128,127,128)"/>
    <polyline points="2246.290860 2213.959001, 2243.129278 2220.161412, 2251.844377 2213.959001, 2246.290860 2213.959001" stroke="rgb(128,127,128)" fill="transparent" stroke-width="1.000000"/>
    <polygon points="2246.290860 2213.959001, 2243.129278 2220.161412, 2251.844377 2213.959001," fill="rgb(128,127,128)"/>
    <polyline points="2189.246915 2256.750339, 2209.630894 2277.429198, 2209.508814 2270.212356, 2189.246915 2256.750339" stroke="rgb(128,127,128)" fill="transparent" stroke-width="1.000000"/>
    <polygon points="2189.246915 2256.750339, 2209.630894 2277.429198, 2209.508814 2270.212356," fill="rgb(128,127,128)"/>
    <polyline points="2227.030507 2299.996503, 2209.630886 2277.429214, 2209.577607 2277.499508, 2226.826800 2300.086065, 2227.030507 2299.996503" stroke="rgb(128,127,128)" fill="transparent" stroke-width="1.000000"/>
    <polygon points="2227.030507 2299.996503, 2209.630886 2277.429214, 2209.577607 2277.499508, 2226.826800 2300.086065," fill="rgb(128,127,128)"/>
    <polyline points="2209.577534 2277.499606, 2209.630894 2277.429198, 2189.280623 2256.784540, 2209.577534 2277.499606" stroke="rgb(128,127,128)" fill="transparent" stroke-width="1.000000"/>
    <polygon points="2209.577534 2277.499606, 2209.630894 2277.429198, 2189.280623 2256.784540," fill="rgb(128,127,128)"/>
    <polyline points="2209.508814 2256.802599, 2189.246915 2256.750339, 2209.508814 2270.212356, 2209.508814 2256.802599" stroke="rgb(128,127,128)" fill="transparent" stroke-width="1.000000"/>
    <polygon points="2209.508814 2256.802599, 2189.246915 2256.750339, 2209.508814 2270.212356," fill="rgb(128,127,128)"/>
    <polyline points="2226.826800 2300.086065, 2209.577607 2277.499508, 2175.287172 2322.744941, 2226.826800 2300.086065" stroke="rgb(128,127,128)" fill="transparent" stroke-width="1.000000"/>
    <polygon points="2226.826800 2300.086065, 2209.577607 2277.499508, 2175.287172 2322.744941," fill="rgb(128,127,128)"/>
    <polyline points="2209.577534 2277.499606, 2189.280623 2256.784540, 2189.246915 2256.750339, 2175.287172 2322.744941, 2209.577534 2277.499606" stroke="rgb(128,127,128)" fill="transparent" stroke-width="1.000000"/>
    <polygon points="2209.577534 2277.499606, 2189.280623 2256.784540, 2189.246915 2256.750339, 2175.287172 2322.744941," fill="rgb(128,127,128)"/>
    <polyline points="2175.287172 2322.744941, 2189.246915 2256.750339, 2066.334764 2204.904127, 2175.287172 2322.744941" stroke="rgb(128,127,128)" fill="transparent" stroke-width="1.000000"/>
    <polygon points="2175.287172 2322.744941, 2189.246915 2256.750339, 2066.334764 2204.904127," fill="rgb(128,127,128)"/>
    <polyline points="2228.240655 2240.124048, 2228.831273 2224.920462, 2228.531264 2215.847745, 2228.240657 2216.417891, 2228.240655 2240.124048" stroke="rgb(231,231,231)" fill="transparent" stroke-width="1.000000"/>
    <polygon points="2228.240655 2240.124048, 2228.831273 2224.920462, 2228.531264 2215.847745, 2228.240657 2216.417891," fill="rgb(231,231,231)"/>
    <polyline points="2229.237558 2214.462054, 2228.531264 2215.847743, 2228.831275 2224.920466, 2229.237558 2214.462054" stroke="rgb(231,231,231)" fill="transparent" stroke-width="1.000000"/>
    <polygon points="2229.237558 2214.462054, 2228.531264 2215.847743, 2228.831275 2224.920466," fill="rgb(231,231,231)"/>
    <polyline points="2228.378044 2218.586508, 2224.494672 2216.452200, 2208.398054 2255.792818, 2228.507195 2255.744960, 2228.378044 2218.586508" stroke="rgb(231,231,231)" fill="transparent" stroke-width="1.000000"/>
    <polygon points="2228.378044 2218.586508, 2224.494672 2216.452200, 2208.398054 2255.792818, 2228.507195 2255.744960," fill="rgb(231,231,231)"/>
    <polyline points="2228.510283 2256.797419, 2228.507195 2255.744960, 2208.398054 2255.792818, 2221.899834 2265.549624, 2228.510283 2256.797419" stroke="rgb(231,231,231)" fill="transparent" stroke-width="1.000000"/>
    <polygon points="2228.510283 2256.797419, 2228.507195 2255.744960, 2208.398054 2255.792818, 2221.899834 2265.549624," fill="rgb(231,231,231)"/>
    <polyline points="2208.398054 2255.795609, 2213.477188 2270.355280, 2221.722030 2270.355288, 2221.899123 2265.549111, 2208.398054 2255.792818, 2208.398054 2255.795609" stroke="rgb(231,231,231)" fill="transparent" stroke-width="1.000000"/>
    <polygon points="2208.398054 2255.795609, 2213.477188 2270.355280, 2221.722030 2270.355288, 2221.899123 2265.549111, 2208.398054 2255.792818," fill="rgb(231,231,231)"/>
    <polyline points="2224.494656 2216.452242, 2210.988596 2207.059040, 2189.103877 2207.059039, 2208.398054 2255.792818, 2224.494656 2216.452242" stroke="rgb(231,231,231)" fill="transparent" stroke-width="1.000000"/>
    <polygon points="2224.494656 2216.452242, 2210.988596 2207.059040, 2189.103877 2207.059039, 2208.398054 2255.792818," fill="rgb(231,231,231)"/>
    <polyline points="2189.279876 2255.740632, 2208.398054 2255.792818, 2189.103877 2207.059039, 2189.186982 2235.343098, 2189.279876 2255.740632" stroke="rgb(231,231,231)" fill="transparent" stroke-width="1.000000"/>
    <polygon points="2189.279876 2255.740632, 2208.398054 2255.792818, 2189.103877 2207.059039, 2189.186982 2235.343098," fill="rgb(231,231,231)"/>
    <polyline points="2208.398054 2255.795609, 2208.398054 2270.355280, 2213.477188 2270.355280, 2208.398054 2255.795609" stroke="rgb(231,231,231)" fill="transparent" stroke-width="1.000000"/>
    <polygon points="2208.398054 2255.795609, 2208.398054 2270.355280, 2213.477188 2270.355280," fill="rgb(231,231,231)"/>
    <polyline points="2238.482867 2253.070039, 2238.493460 2252.797370, 2235.601953 2251.798219, 2235.601953 2253.070039, 2238.482867 2253.070039" stroke="rgb(128,127,128)" fill="transparent" stroke-width="1.000000"/>
    <polygon points="2238.482867 2253.070039, 2238.493460 2252.797370, 2235.601953 2251.798219, 2235.601953 2253.070039," fill="rgb(128,127,128)"/>
    <polyline points="2238.532275 2251.798219, 2235.601953 2251.798219, 2238.493460 2252.797370, 2238.532275 2251.798219" stroke="rgb(128,127,128)" fill="transparent" stroke-width="1.000000"/>
    <polygon points="2238.532275 2251.798219, 2235.601953 2251.798219, 2238.493460 2252.797370," fill="rgb(128,127,128)"/>
    <polyline points="2175.287172 2322.744941, 2028.001361 2213.501991, 2023.759528 2221.824053, 2175.287172 2322.744941" stroke="rgb(128,127,128)" fill="transparent" stroke-width="1.000000"/>
    <polygon points="2175.287172 2322.744941, 2028.001361 2213.501991, 2023.759528 2221.824053," fill="rgb(128,127,128)"/>
    <polyline points="2189.103868 2188.052430, 2050.327313 2191.711373, 2124.529945 2199.178940, 2189.103875 2202.378494, 2189.103868 2188.052430" stroke="rgb(128,127,128)" fill="transparent" stroke-width="1.000000"/>
    <polygon points="2189.103868 2188.052430, 2050.327313 2191.711373, 2124.529945 2199.178940, 2189.103875 2202.378494," fill="rgb(128,127,128)"/>
    <polyline points="2175.287172 2322.744941, 2066.334764 2204.904127, 2044.172798 2195.555875, 2175.287172 2322.744941" stroke="rgb(128,127,128)" fill="transparent" stroke-width="1.000000"/>
    <polygon points="2175.287172 2322.744941, 2066.334764 2204.904127, 2044.172798 2195.555875," fill="rgb(128,127,128)"/>
    <polyline points="2228.531264 2215.847745, 2228.240657 2207.059481, 2228.240657 2216.417891, 2228.531264 2215.847745" stroke="rgb(231,231,231)" fill="transparent" stroke-width="1.000000"/>
    <polygon points="2228.531264 2215.847745, 2228.240657 2207.059481, 2228.240657 2216.417891," fill="rgb(231,231,231)"/>
    <polyline points="2230.355519 2212.268715, 2230.355519 2207.059481, 2228.240657 2207.059481, 2228.531264 2215.847743, 2230.355519 2212.268715" stroke="rgb(231,231,231)" fill="transparent" stroke-width="1.000000"/>
    <polygon points="2230.355519 2212.268715, 2230.355519 2207.059481, 2228.240657 2207.059481, 2228.531264 2215.847743," fill="rgb(231,231,231)"/>
    <polyline points="2228.378044 2218.586508, 2228.337978 2207.059041, 2224.494672 2216.452200, 2228.378044 2218.586508" stroke="rgb(231,231,231)" fill="transparent" stroke-width="1.000000"/>
    <polygon points="2228.378044 2218.586508, 2228.337978 2207.059041, 2224.494672 2216.452200," fill="rgb(231,231,231)"/>
    <polyline points="2224.494656 2216.452242, 2228.337978 2207.059041, 2210.988596 2207.059040, 2224.494656 2216.452242" stroke="rgb(231,231,231)" fill="transparent" stroke-width="1.000000"/>
    <polygon points="2224.494656 2216.452242, 2228.337978 2207.059041, 2210.988596 2207.059040," fill="rgb(231,231,231)"/>
    <polyline points="2243.129282 2220.161408, 2242.452535 2220.643041, 2242.883774 2220.643041, 2243.129282 2220.161408" stroke="rgb(128,127,128)" fill="transparent" stroke-width="1.000000"/>
    <polygon points="2243.129282 2220.161408, 2242.452535 2220.643041, 2242.883774 2220.643041," fill="rgb(128,127,128)"/>
    <polyline points="2246.290860 2213.959001, 2242.452535 2213.959001, 2242.452535 2220.643041, 2243.129278 2220.161412, 2246.290860 2213.959001" stroke="rgb(128,127,128)" fill="transparent" stroke-width="1.000000"/>
    <polygon points="2246.290860 2213.959001, 2242.452535 2213.959001, 2242.452535 2220.643041, 2243.129278 2220.161412," fill="rgb(128,127,128)"/>
    <polyline points="2236.000273 2215.397821, 2239.866172 2215.397821, 2236.000273 2213.959001, 2236.000273 2215.397821" stroke="rgb(128,127,128)" fill="transparent" stroke-width="1.000000"/>
    <polygon points="2236.000273 2215.397821, 2239.866172 2215.397821, 2236.000273 2213.959001," fill="rgb(128,127,128)"/>
    <polyline points="2239.866172 2215.397821, 2239.866172 2213.959001, 2236.000273 2213.959001, 2239.866172 2215.397821" stroke="rgb(128,127,128)" fill="transparent" stroke-width="1.000000"/>
    <polygon points="2239.866172 2215.397821, 2239.866172 2213.959001, 2236.000273 2213.959001," fill="rgb(128,127,128)"/>
    <polyline points="2175.287172 2322.744941, 2029.936466 2206.258312, 2028.001361 2213.501991, 2175.287172 2322.744941" stroke="rgb(128,127,128)" fill="transparent" stroke-width="1.000000"/>
    <polygon points="2175.287172 2322.744941, 2029.936466 2206.258312, 2028.001361 2213.501991," fill="rgb(128,127,128)"/>
    <polyline points="2189.103858 2172.096344, 2034.789956 2190.147733, 2050.327313 2191.711373, 2189.103868 2188.052430, 2189.103858 2172.096344" stroke="rgb(128,127,128)" fill="transparent" stroke-width="1.000000"/>
    <polygon points="2189.103858 2172.096344, 2034.789956 2190.147733, 2050.327313 2191.711373, 2189.103868 2188.052430," fill="rgb(128,127,128)"/>
    <polyline points="2175.278698 2322.736721, 2044.172798 2195.555875, 2034.287842 2191.386250, 2175.278698 2322.736721" stroke="rgb(128,127,128)" fill="transparent" stroke-width="1.000000"/>
    <polygon points="2175.278698 2322.736721, 2044.172798 2195.555875, 2034.287842 2191.386250," fill="rgb(128,127,128)"/>
    <polyline points="2031.220149 2198.944893, 2030.462347 2200.811707, 2029.936466 2206.258312, 2175.287172 2322.744941, 2031.220149 2198.944893" stroke="rgb(128,127,128)" fill="transparent" stroke-width="1.000000"/>
    <polygon points="2031.220149 2198.944893, 2030.462347 2200.811707, 2029.936466 2206.258312, 2175.287172 2322.744941," fill="rgb(128,127,128)"/>
    <polyline points="2050.282417 2171.482394, 2041.062783 2180.260970, 2189.103858 2171.482400, 2050.282417 2171.482394" stroke="rgb(128,127,128)" fill="transparent" stroke-width="1.000000"/>
    <polygon points="2050.282417 2171.482394, 2041.062783 2180.260970, 2189.103858 2171.482400," fill="rgb(128,127,128)"/>
    <polyline points="2030.274339 2189.693293, 2189.103858 2171.482400, 2041.062652 2180.260978, 2030.274339 2189.693293" stroke="rgb(128,127,128)" fill="transparent" stroke-width="1.000000"/>
    <polygon points="2030.274339 2189.693293, 2189.103858 2171.482400, 2041.062652 2180.260978," fill="rgb(128,127,128)"/>
    <polyline points="2189.103858 2172.096344, 2189.103858 2171.482400, 2030.274339 2189.693293, 2034.789956 2190.147733, 2189.103858 2172.096344" stroke="rgb(128,127,128)" fill="transparent" stroke-width="1.000000"/>
    <polygon points="2189.103858 2172.096344, 2189.103858 2171.482400, 2030.274339 2189.693293, 2034.789956 2190.147733," fill="rgb(128,127,128)"/>
    <polyline points="2175.278698 2322.736721, 2034.287842 2191.386250, 2030.274339 2189.693293, 2175.287172 2322.744941, 2175.278698 2322.736721" stroke="rgb(128,127,128)" fill="transparent" stroke-width="1.000000"/>
    <polygon points="2175.278698 2322.736721, 2034.287842 2191.386250, 2030.274339 2189.693293, 2175.287172 2322.744941," fill="rgb(128,127,128)"/>
    <polyline points="2191.360254 2229.599020, 2192.558556 2229.599020, 2191.094097 2223.925358, 2191.360254 2229.599020" stroke="rgb(128,127,128)" fill="transparent" stroke-width="1.000000"/>
    <polygon points="2191.360254 2229.599020, 2192.558556 2229.599020, 2191.094097 2223.925358," fill="rgb(128,127,128)"/>
    <polyline points="2190.671520 2214.917381, 2191.094097 2223.925358, 2192.558556 2229.599020, 2192.558557 2214.917381, 2190.671520 2214.917381" stroke="rgb(128,127,128)" fill="transparent" stroke-width="1.000000"/>
    <polygon points="2190.671520 2214.917381, 2191.094097 2223.925358, 2192.558556 2229.599020, 2192.558557 2214.917381," fill="rgb(128,127,128)"/>
    <polyline points="2192.558555 2255.143056, 2192.558556 2241.436018, 2191.915542 2241.436018, 2192.558555 2255.143056" stroke="rgb(128,127,128)" fill="transparent" stroke-width="1.000000"/>
    <polygon points="2192.558555 2255.143056, 2192.558556 2241.436018, 2191.915542 2241.436018," fill="rgb(128,127,128)"/>
    <polyline points="2030.274339 2189.693293, 2031.220067 2198.944806, 2175.287172 2322.744941, 2030.274339 2189.693293" stroke="rgb(128,127,128)" fill="transparent" stroke-width="1.000000"/>
    <polygon points="2030.274339 2189.693293, 2031.220067 2198.944806, 2175.287172 2322.744941," fill="rgb(128,127,128)"/>
    <polyline points="2018.084818 2229.654171, 2012.898847 2236.850534, 2175.287172 2322.744941, 2018.084818 2229.654171" stroke="rgb(128,127,128)" fill="transparent" stroke-width="1.000000"/>
    <polygon points="2018.084818 2229.654171, 2012.898847 2236.850534, 2175.287172 2322.744941," fill="rgb(128,127,128)"/>
    <polyline points="2023.759528 2221.824053, 2018.084818 2229.654171, 2175.287172 2322.744941, 2023.759528 2221.824053" stroke="rgb(128,127,128)" fill="transparent" stroke-width="1.000000"/>
    <polygon points="2023.759528 2221.824053, 2018.084818 2229.654171, 2175.287172 2322.744941," fill="rgb(128,127,128)"/>
    <polyline points="2050.282417 2171.482394, 2025.722252 2171.482394, 2028.026603 2181.033993, 2041.062783 2180.260970, 2050.282417 2171.482394" stroke="rgb(128,127,128)" fill="transparent" stroke-width="1.000000"/>
    <polygon points="2050.282417 2171.482394, 2025.722252 2171.482394, 2028.026603 2181.033993, 2041.062783 2180.260970," fill="rgb(128,127,128)"/>
    <polyline points="2030.274339 2189.693293, 2041.062652 2180.260978, 2028.026603 2181.033993, 2030.274339 2189.693293" stroke="rgb(128,127,128)" fill="transparent" stroke-width="1.000000"/>
    <polygon points="2030.274339 2189.693293, 2041.062652 2180.260978, 2028.026603 2181.033993," fill="rgb(128,127,128)"/>
    <polyline points="2191.360254 2229.599020, 2191.094097 2223.925358, 2188.768996 2214.917380, 2188.768996 2229.599020, 2191.360254 2229.599020" stroke="rgb(128,127,128)" fill="transparent" stroke-width="1.000000"/>
    <polygon points="2191.360254 2229.599020, 2191.094097 2223.925358, 2188.768996 2214.917380, 2188.768996 2229.599020," fill="rgb(128,127,128)"/>
    <polyline points="2190.671520 2214.917381, 2188.768996 2214.917380, 2191.094097 2223.925358, 2190.671520 2214.917381" stroke="rgb(128,127,128)" fill="transparent" stroke-width="1.000000"/>
    <polygon points="2190.671520 2214.917381, 2188.768996 2214.917380, 2191.094097 2223.925358," fill="rgb(128,127,128)"/>
    <polyline points="2188.768994 2256.018194, 2192.558555 2256.018194, 2188.768995 2241.436018, 2188.768994 2256.018194" stroke="rgb(128,127,128)" fill="transparent" stroke-width="1.000000"/>
    <polygon points="2188.768994 2256.018194, 2192.558555 2256.018194, 2188.768995 2241.436018," fill="rgb(128,127,128)"/>
    <polyline points="2192.558555 2255.143056, 2191.915542 2241.436018, 2188.768995 2241.436018, 2192.558555 2256.018194, 2192.558555 2255.143056" stroke="rgb(128,127,128)" fill="transparent" stroke-width="1.000000"/>
    <polygon points="2192.558555 2255.143056, 2191.915542 2241.436018, 2188.768995 2241.436018, 2192.558555 2256.018194," fill="rgb(128,127,128)"/>
    <polyline points="2200.667676 2222.446178, 2200.667676 2221.623082, 2194.004076 2222.446178, 2200.667676 2222.446178" stroke="rgb(231,231,231)" fill="transparent" stroke-width="1.000000"/>
    <polygon points="2200.667676 2222.446178, 2200.667676 2221.623082, 2194.004076 2222.446178," fill="rgb(231,231,231)"/>
    <polyline points="2200.667676 2221.623082, 2194.004076 2221.623082, 2194.004076 2222.446178, 2200.667676 2221.623082" stroke="rgb(231,231,231)" fill="transparent" stroke-width="1.000000"/>
    <polygon points="2200.667676 2221.623082, 2194.004076 2221.623082, 2194.004076 2222.446178," fill="rgb(231,231,231)"/>
    <polyline points="2200.667676 2221.683740, 2200.667676 2220.860640, 2194.004076 2221.683740, 2200.667676 2221.683740" stroke="rgb(231,231,231)" fill="transparent" stroke-width="1.000000"/>
    <polygon points="2200.667676 2221.683740, 2200.667676 2220.860640, 2194.004076 2221.683740," fill="rgb(231,231,231)"/>
    <polyline points="2200.667676 2220.860640, 2194.004076 2220.860640, 2194.004076 2221.683740, 2200.667676 2220.860640" stroke="rgb(231,231,231)" fill="transparent" stroke-width="1.000000"/>
    <polygon points="2200.667676 2220.860640, 2194.004076 2220.860640, 2194.004076 2221.683740," fill="rgb(231,231,231)"/>
    <polyline points="2200.667676 2221.000820, 2200.667676 2220.177720, 2194.004076 2221.000820, 2200.667676 2221.000820" stroke="rgb(231,231,231)" fill="transparent" stroke-width="1.000000"/>
    <polygon points="2200.667676 2221.000820, 2200.667676 2220.177720, 2194.004076 2221.000820," fill="rgb(231,231,231)"/>
    <polyline points="2200.667676 2220.177720, 2194.004076 2220.177720, 2194.004076 2221.000820, 2200.667676 2220.177720" stroke="rgb(231,231,231)" fill="transparent" stroke-width="1.000000"/>
    <polygon points="2200.667676 2220.177720, 2194.004076 2220.177720, 2194.004076 2221.000820," fill="rgb(231,231,231)"/>
    <polyline points="2200.667676 2220.231700, 2200.667676 2219.408600, 2194.004076 2220.231700, 2200.667676 2220.231700" stroke="rgb(231,231,231)" fill="transparent" stroke-width="1.000000"/>
    <polygon points="2200.667676 2220.231700, 2200.667676 2219.408600, 2194.004076 2220.231700," fill="rgb(231,231,231)"/>
    <polyline points="2200.667676 2219.408600, 2194.004076 2219.408600, 2194.004076 2220.231700, 2200.667676 2219.408600" stroke="rgb(231,231,231)" fill="transparent" stroke-width="1.000000"/>
    <polygon points="2200.667676 2219.408600, 2194.004076 2219.408600, 2194.004076 2220.231700," fill="rgb(231,231,231)"/>
    <polyline points="2200.667676 2219.560199, 2200.667676 2218.737119, 2194.004076 2219.560199, 2200.667676 2219.560199" stroke="rgb(231,231,231)" fill="transparent" stroke-width="1.000000"/>
    <polygon points="2200.667676 2219.560199, 2200.667676 2218.737119, 2194.004076 2219.560199," fill="rgb(231,231,231)"/>
    <polyline points="2200.667676 2218.737119, 2194.004076 2218.737119, 2194.004076 2219.560199, 2200.667676 2218.737119" stroke="rgb(231,231,231)" fill="transparent" stroke-width="1.000000"/>
    <polygon points="2200.667676 2218.737119, 2194.004076 2218.737119, 2194.004076 2219.560199," fill="rgb(231,231,231)"/>
    <polyline points="2200.667676 2218.888699, 2200.667676 2218.065620, 2194.004076 2218.888699, 2200.667676 2218.888699" stroke="rgb(231,231,231)" fill="transparent" stroke-width="1.000000"/>
    <polygon points="2200.667676 2218.888699, 2200.667676 2218.065620, 2194.004076 2218.888699," fill="rgb(231,231,231)"/>
    <polyline points="2200.667676 2218.065620, 2194.004076 2218.065620, 2194.004076 2218.888699, 2200.667676 2218.065620" stroke="rgb(231,231,231)" fill="transparent" stroke-width="1.000000"/>
    <polygon points="2200.667676 2218.065620, 2194.004076 2218.065620, 2194.004076 2218.888699," fill="rgb(231,231,231)"/>
    <polyline points="2200.667676 2218.201059, 2200.667676 2217.377979, 2194.004076 2218.201059, 2200.667676 2218.201059" stroke="rgb(231,231,231)" fill="transparent" stroke-width="1.000000"/>
    <polygon points="2200.667676 2218.201059, 2200.667676 2217.377979, 2194.004076 2218.201059," fill="rgb(231,231,231)"/>
    <polyline points="2200.667676 2217.377979, 2194.004076 2217.377979, 2194.004076 2218.201059, 2200.667676 2217.377979" stroke="rgb(231,231,231)" fill="transparent" stroke-width="1.000000"/>
    <polygon points="2200.667676 2217.377979, 2194.004076 2217.377979, 2194.004076 2218.201059," fill="rgb(231,231,231)"/>
    <polyline points="2200.667676 2217.470838, 2200.667676 2216.647761, 2194.004076 2217.470838, 2200.667676 2217.470838" stroke="rgb(231,231,231)" fill="transparent" stroke-width="1.000000"/>
    <polygon points="2200.667676 2217.470838, 2200.667676 2216.647761, 2194.004076 2217.470838," fill="rgb(231,231,231)"/>
    <polyline points="2200.667676 2216.647761, 2194.004076 2216.647761, 2194.004076 2217.470838, 2200.667676 2216.647761" stroke="rgb(231,231,231)" fill="transparent" stroke-width="1.000000"/>
    <polygon points="2200.667676 2216.647761, 2194.004076 2216.647761, 2194.004076 2217.470838," fill="rgb(231,231,231)"/>
    <polyline points="2200.667676 2216.795118, 2200.667677 2214.774040, 2194.004076 2216.795118, 2200.667676 2216.795118" stroke="rgb(231,231,231)" fill="transparent" stroke-width="1.000000"/>
    <polygon points="2200.667676 2216.795118, 2200.667677 2214.774040, 2194.004076 2216.795118," fill="rgb(231,231,231)"/>
    <polyline points="2200.667677 2214.774040, 2194.004077 2214.774040, 2194.004076 2216.795118, 2200.667677 2214.774040" stroke="rgb(231,231,231)" fill="transparent" stroke-width="1.000000"/>
    <polygon points="2200.667677 2214.774040, 2194.004077 2214.774040, 2194.004076 2216.795118," fill="rgb(231,231,231)"/>
    <polyline points="2200.667677 2204.734220, 2186.786857 2204.734219, 2200.667677 2214.950640, 2200.667677 2204.734220" stroke="rgb(231,231,231)" fill="transparent" stroke-width="1.000000"/>
    <polygon points="2200.667677 2204.734220, 2186.786857 2204.734219, 2200.667677 2214.950640," fill="rgb(231,231,231)"/>
    <polyline points="2186.786857 2204.734219, 2186.786857 2214.950639, 2200.667677 2214.950640, 2186.786857 2204.734219" stroke="rgb(231,231,231)" fill="transparent" stroke-width="1.000000"/>
    <polygon points="2186.786857 2204.734219, 2186.786857 2214.950639, 2200.667677 2214.950640," fill="rgb(231,231,231)"/>
    <polyline points="2061.153162 2187.407094, 2049.815364 2237.761290, 2171.681438 2187.496419, 2061.153162 2187.407094" stroke="rgb(231,231,231)" fill="transparent" stroke-width="1.000000"/>
    <polygon points="2061.153162 2187.407094, 2049.815364 2237.761290, 2171.681438 2187.496419," fill="rgb(231,231,231)"/>
    <polyline points="2049.815364 2237.761290, 2147.407837 2289.056334, 2171.681438 2187.496419, 2049.815364 2237.761290" stroke="rgb(231,231,231)" fill="transparent" stroke-width="1.000000"/>
    <polygon points="2049.815364 2237.761290, 2147.407837 2289.056334, 2171.681438 2187.496419," fill="rgb(231,231,231)"/>
    <polyline points="2179.350519 2198.972035, 2171.681438 2187.496419, 2179.350517 2244.886521, 2179.350519 2198.972035" stroke="rgb(231,231,231)" fill="transparent" stroke-width="1.000000"/>
    <polygon points="2179.350519 2198.972035, 2171.681438 2187.496419, 2179.350517 2244.886521," fill="rgb(231,231,231)"/>
    <polyline points="2179.350517 2258.312744, 2179.350517 2244.886509, 2171.681438 2187.496419, 2147.407837 2289.056334, 2179.350517 2258.312744" stroke="rgb(231,231,231)" fill="transparent" stroke-width="1.000000"/>
    <polygon points="2179.350517 2258.312744, 2179.350517 2244.886509, 2171.681438 2187.496419, 2147.407837 2289.056334," fill="rgb(231,231,231)"/>
    <polyline points="2179.350519 2204.734219, 2179.350519 2214.950639, 2186.786857 2204.734219, 2179.350519 2204.734219" stroke="rgb(231,231,231)" fill="transparent" stroke-width="1.000000"/>
    <polygon points="2179.350519 2204.734219, 2179.350519 2214.950639, 2186.786857 2204.734219," fill="rgb(231,231,231)"/>
    <polyline points="2179.350519 2214.950639, 2186.786857 2214.950639, 2186.786857 2204.734219, 2179.350519 2214.950639" stroke="rgb(231,231,231)" fill="transparent" stroke-width="1.000000"/>
    <polygon points="2179.350519 2214.950639, 2186.786857 2214.950639, 2186.786857 2204.734219," fill="rgb(231,231,231)"/>
    <polyline points="2179.350519 2198.972035, 2179.350517 2244.886521, 2180.940217 2256.782720, 2180.688178 2200.973639, 2179.350519 2198.972035" stroke="rgb(231,231,231)" fill="transparent" stroke-width="1.000000"/>
    <polygon points="2179.350519 2198.972035, 2179.350517 2244.886521, 2180.940217 2256.782720, 2180.688178 2200.973639," fill="rgb(231,231,231)"/>
    <polyline points="2179.350517 2258.312744, 2180.940217 2256.782720, 2179.350517 2244.886509, 2179.350517 2258.312744" stroke="rgb(231,231,231)" fill="transparent" stroke-width="1.000000"/>
    <polygon points="2179.350517 2258.312744, 2180.940217 2256.782720, 2179.350517 2244.886509," fill="rgb(231,231,231)"/>
    <polyline points="2200.353076 2222.668958, 2201.469476 2222.668958, 2200.353077 2204.031540, 2200.353076 2222.668958" stroke="rgb(128,127,128)" fill="transparent" stroke-width="1.000000"/>
    <polygon points="2200.353076 2222.668958, 2201.469476 2222.668958, 2200.353077 2204.031540," fill="rgb(128,127,128)"/>
    <polyline points="2201.469476 2222.668958, 2201.469477 2204.031540, 2200.353077 2204.031540, 2201.469476 2222.668958" stroke="rgb(128,127,128)" fill="transparent" stroke-width="1.000000"/>
    <polygon points="2201.469476 2222.668958, 2201.469477 2204.031540, 2200.353077 2204.031540," fill="rgb(128,127,128)"/>
    <polyline points="2192.451016 2222.668958, 2194.368796 2222.668958, 2192.451017 2214.967120, 2192.451016 2222.668958" stroke="rgb(128,127,128)" fill="transparent" stroke-width="1.000000"/>
    <polygon points="2192.451016 2222.668958, 2194.368796 2222.668958, 2192.451017 2214.967120," fill="rgb(128,127,128)"/>
    <polyline points="2194.368796 2222.668958, 2194.368797 2214.967120, 2192.451017 2214.967120, 2194.368796 2222.668958" stroke="rgb(128,127,128)" fill="transparent" stroke-width="1.000000"/>
    <polygon points="2194.368796 2222.668958, 2194.368797 2214.967120, 2192.451017 2214.967120," fill="rgb(128,127,128)"/>
    <polyline points="2189.103876 2204.734219, 2189.103877 2205.677500" stroke-dasharray="1.500000,2.000000" stroke-opacity="0.2" stroke="black" fill="transparent" stroke-width="0.500000"/>
    <polyline points="2237.211250 2253.071117, 2237.211249 2295.520650" stroke-dasharray="1.500000,2.000000" stroke-opacity="0.2" stroke="black" fill="transparent" stroke-width="0.500000"/>
    <polyline points="2187.888178 2171.482421, 2187.888174 2271.896435" stroke-dasharray="1.500000,2.000000" stroke-opacity="0.2" stroke="black" fill="transparent" stroke-width="0.500000"/>
    <polyline points="2238.152353 2171.482421, 2238.152349 2271.896435" stroke-dasharray="1.500000,2.000000" stroke-opacity="0.2" stroke="black" fill="transparent" stroke-width="0.500000"/>
    <polyline points="2189.103877 2205.677499, 2189.246915 2256.750339" stroke-dasharray="1.500000,2.000000" stroke-opacity="0.2" stroke="black" fill="transparent" stroke-width="0.500000"/>
    <polyline points="2179.350519 2204.734219, 2180.705161 2204.734219" stroke-dasharray="1.500000,2.000000" stroke-opacity="0.2" stroke="black" fill="transparent" stroke-width="0.500000"/>
    <polyline points="2200.353077 2204.734220, 2200.667677 2204.734220" stroke-dasharray="1.500000,2.000000" stroke-opacity="0.2" stroke="black" fill="transparent" stroke-width="0.500000"/>
    <polyline points="2200.667677 2204.734220, 2200.667677 2214.950640" stroke-dasharray="1.500000,2.000000" stroke-opacity="0.2" stroke="black" fill="transparent" stroke-width="0.500000"/>
    <polyline points="2189.103877 2207.059039, 2189.246915 2255.740539" stroke-dasharray="1.500000,2.000000" stroke-opacity="0.2" stroke="black" fill="transparent" stroke-width="0.500000"/>
    <polyline points="2189.103877 2207.059039, 2201.469477 2207.059040" stroke-dasharray="1.500000,2.000000" stroke-opacity="0.2" stroke="black" fill="transparent" stroke-width="0.500000"/>
    <polyline points="2228.240657 2207.059481, 2228.240653 2270.355296" stroke-dasharray="1.500000,2.000000" stroke-opacity="0.2" stroke="black" fill="transparent" stroke-width="0.500000"/>
    <polyline points="2230.355519 2207.059481, 2230.355515 2271.015102" stroke-dasharray="1.500000,2.000000" stroke-opacity="0.2" stroke="black" fill="transparent" stroke-width="0.500000"/>
    <polyline points="2188.768996 2214.917380, 2188.768996 2214.950639" stroke-dasharray="1.500000,2.000000" stroke-opacity="0.2" stroke="black" fill="transparent" stroke-width="0.500000"/>
    <polyline points="2188.768996 2214.917380, 2192.558557 2214.917381" stroke-dasharray="1.500000,2.000000" stroke-opacity="0.2" stroke="black" fill="transparent" stroke-width="0.500000"/>
    <polyline points="2200.667677 2214.774040, 2200.667676 2216.795118" stroke-dasharray="1.500000,2.000000" stroke-opacity="0.2" stroke="black" fill="transparent" stroke-width="0.500000"/>
    <polyline points="2194.004077 2214.774040, 2200.667677 2214.774040" stroke-dasharray="1.500000,2.000000" stroke-opacity="0.2" stroke="black" fill="transparent" stroke-width="0.500000"/>
    <polyline points="2194.004077 2214.774040, 2194.004076 2216.795118" stroke-dasharray="1.500000,2.000000" stroke-opacity="0.2" stroke="black" fill="transparent" stroke-width="0.500000"/>
    <polyline points="2192.558557 2214.917381, 2192.558556 2229.599020" stroke-dasharray="1.500000,2.000000" stroke-opacity="0.2" stroke="black" fill="transparent" stroke-width="0.500000"/>
    <polyline points="2200.353076 2214.950640, 2200.667676 2214.950640" stroke-dasharray="1.500000,2.000000" stroke-opacity="0.2" stroke="black" fill="transparent" stroke-width="0.500000"/>
    <polyline points="2200.667676 2220.177720, 2200.667676 2221.000820" stroke-dasharray="1.500000,2.000000" stroke-opacity="0.2" stroke="black" fill="transparent" stroke-width="0.500000"/>
    <polyline points="2194.004076 2220.177720, 2200.667677 2220.177720" stroke-dasharray="1.500000,2.000000" stroke-opacity="0.2" stroke="black" fill="transparent" stroke-width="0.500000"/>
    <polyline points="2200.667676 2219.408600, 2200.667676 2220.231700" stroke-dasharray="1.500000,2.000000" stroke-opacity="0.2" stroke="black" fill="transparent" stroke-width="0.500000"/>
    <polyline points="2194.004076 2219.408600, 2200.667677 2219.408600" stroke-dasharray="1.500000,2.000000" stroke-opacity="0.2" stroke="black" fill="transparent" stroke-width="0.500000"/>
    <polyline points="2200.667676 2218.737119, 2200.667676 2219.560199" stroke-dasharray="1.500000,2.000000" stroke-opacity="0.2" stroke="black" fill="transparent" stroke-width="0.500000"/>
    <polyline points="2194.004076 2218.737119, 2200.667677 2218.737119" stroke-dasharray="1.500000,2.000000" stroke-opacity="0.2" stroke="black" fill="transparent" stroke-width="0.500000"/>
    <polyline points="2200.667676 2218.065620, 2200.667676 2218.888699" stroke-dasharray="1.500000,2.000000" stroke-opacity="0.2" stroke="black" fill="transparent" stroke-width="0.500000"/>
    <polyline points="2194.004076 2218.065620, 2200.667677 2218.065620" stroke-dasharray="1.500000,2.000000" stroke-opacity="0.2" stroke="black" fill="transparent" stroke-width="0.500000"/>
    <polyline points="2200.667676 2217.377979, 2200.667676 2218.201059" stroke-dasharray="1.500000,2.000000" stroke-opacity="0.2" stroke="black" fill="transparent" stroke-width="0.500000"/>
    <polyline points="2194.004076 2217.377979, 2200.667677 2217.377979" stroke-dasharray="1.500000,2.000000" stroke-opacity="0.2" stroke="black" fill="transparent" stroke-width="0.500000"/>
    <polyline points="2200.667676 2216.647761, 2200.667676 2217.470838" stroke-dasharray="1.500000,2.000000" stroke-opacity="0.2" stroke="black" fill="transparent" stroke-width="0.500000"/>
    <polyline points="2194.004076 2216.647761, 2200.667677 2216.647761" stroke-dasharray="1.500000,2.000000" stroke-opacity="0.2" stroke="black" fill="transparent" stroke-width="0.500000"/>
    <polyline points="2194.004076 2216.647761, 2194.004076 2217.470838" stroke-dasharray="1.500000,2.000000" stroke-opacity="0.2" stroke="black" fill="transparent" stroke-width="0.500000"/>
    <polyline points="2194.004076 2217.377979, 2194.004076 2218.201059" stroke-dasharray="1.500000,2.000000" stroke-opacity="0.2" stroke="black" fill="transparent" stroke-width="0.500000"/>
    <polyline points="2194.004076 2218.065620, 2194.004076 2218.888699" stroke-dasharray="1.500000,2.000000" stroke-opacity="0.2" stroke="black" fill="transparent" stroke-width="0.500000"/>
    <polyline points="2194.004076 2218.737119, 2194.004076 2219.560199" stroke-dasharray="1.500000,2.000000" stroke-opacity="0.2" stroke="black" fill="transparent" stroke-width="0.500000"/>
    <polyline points="2194.004076 2219.408600, 2194.004076 2220.231700" stroke-dasharray="1.500000,2.000000" stroke-opacity="0.2" stroke="black" fill="transparent" stroke-width="0.500000"/>
    <polyline points="2194.004076 2220.177720, 2194.004076 2221.000820" stroke-dasharray="1.500000,2.000000" stroke-opacity="0.2" stroke="black" fill="transparent" stroke-width="0.500000"/>
    <polyline points="2200.667676 2220.860640, 2200.667676 2221.683740" stroke-dasharray="1.500000,2.000000" stroke-opacity="0.2" stroke="black" fill="transparent" stroke-width="0.500000"/>
    <polyline points="2194.004076 2220.860640, 2200.667677 2220.860640" stroke-dasharray="1.500000,2.000000" stroke-opacity="0.2" stroke="black" fill="transparent" stroke-width="0.500000"/>
    <polyline points="2194.004076 2220.860640, 2194.004076 2221.683740" stroke-dasharray="1.500000,2.000000" stroke-opacity="0.2" stroke="black" fill="transparent" stroke-width="0.500000"/>
    <polyline points="2200.667676 2221.623082, 2200.667676 2222.446178" stroke-dasharray="1.500000,2.000000" stroke-opacity="0.2" stroke="black" fill="transparent" stroke-width="0.500000"/>
    <polyline points="2194.004076 2221.623082, 2200.667677 2221.623082" stroke-dasharray="1.500000,2.000000" stroke-opacity="0.2" stroke="black" fill="transparent" stroke-width="0.500000"/>
    <polyline points="2194.004076 2221.623082, 2194.004076 2222.446178" stroke-dasharray="1.500000,2.000000" stroke-opacity="0.2" stroke="black" fill="transparent" stroke-width="0.500000"/>
    <polyline points="2232.187137 2227.144603, 2232.187133 2253.568297" stroke-dasharray="1.500000,2.000000" stroke-opacity="0.2" stroke="black" fill="transparent" stroke-width="0.500000"/>
    <polyline points="2208.398054 2256.799734, 2209.508813 2256.802599" stroke-dasharray="1.500000,2.000000" stroke-opacity="0.2" stroke="black" fill="transparent" stroke-width="0.500000"/>
    <polyline points="2252.861516 2239.539904, 2253.113754 2239.539904" stroke-dasharray="1.500000,2.000000" stroke-opacity="0.2" stroke="black" fill="transparent" stroke-width="0.500000"/>
    <polyline points="2253.113754 2239.539904, 2253.113750 2244.363447" stroke-dasharray="1.500000,2.000000" stroke-opacity="0.2" stroke="black" fill="transparent" stroke-width="0.500000"/>
    <polyline points="2252.861564 2247.807980, 2253.113750 2247.807980" stroke-dasharray="1.500000,2.000000" stroke-opacity="0.2" stroke="black" fill="transparent" stroke-width="0.500000"/>
    <polyline points="2253.113750 2247.807980, 2253.113750 2252.631543" stroke-dasharray="1.500000,2.000000" stroke-opacity="0.2" stroke="black" fill="transparent" stroke-width="0.500000"/>
    <polyline points="2239.282553 2251.998139, 2239.282553 2253.070039" stroke-dasharray="1.500000,2.000000" stroke-opacity="0.2" stroke="black" fill="transparent" stroke-width="0.500000"/>
    <polyline points="2240.287891 2252.123438, 2240.287891 2253.071436" stroke-dasharray="1.500000,2.000000" stroke-opacity="0.2" stroke="black" fill="transparent" stroke-width="0.500000"/>
    <polyline points="2240.283949 2253.071436, 2240.287891 2253.071436" stroke-dasharray="1.500000,2.000000" stroke-opacity="0.2" stroke="black" fill="transparent" stroke-width="0.500000"/>
    <polyline points="2240.283949 2253.071117, 2240.283949 2253.071436" stroke-dasharray="1.500000,2.000000" stroke-opacity="0.2" stroke="black" fill="transparent" stroke-width="0.500000"/>
    <polyline points="2239.227613 2253.071117, 2244.006814 2253.071118" stroke-dasharray="1.500000,2.000000" stroke-opacity="0.2" stroke="black" fill="transparent" stroke-width="0.500000"/>
    <polyline points="2189.246915 2255.740538, 2192.558555 2255.749579" stroke-dasharray="1.500000,2.000000" stroke-opacity="0.2" stroke="black" fill="transparent" stroke-width="0.500000"/>
    <polyline points="2209.508814 2256.802599, 2209.508814 2270.212356" stroke-dasharray="1.500000,2.000000" stroke-opacity="0.2" stroke="black" fill="transparent" stroke-width="0.500000"/>
    <polyline points="2209.508814 2270.212356, 2237.554232 2270.212356" stroke-dasharray="1.500000,2.000000" stroke-opacity="0.2" stroke="black" fill="transparent" stroke-width="0.500000"/>
    <polyline points="2187.888174 2271.896437, 2238.152349 2271.896437" stroke-dasharray="1.500000,2.000000" stroke-opacity="0.2" stroke="black" fill="transparent" stroke-width="0.500000"/>
    <polyline points="2030.274339 2189.693293, 2030.686842 2198.486592" stroke="black" fill="transparent" stroke-width="0.500000"/>
    <polyline points="2189.103858 2171.482400, 2189.103876 2204.734219" stroke="black" fill="transparent" stroke-width="0.500000"/>
    <polyline points="2025.722252 2171.482394, 2189.103866 2171.482400" stroke="black" fill="transparent" stroke-width="0.500000"/>
    <polyline points="2237.211252 2164.721660, 2237.211250 2253.071117" stroke="black" fill="transparent" stroke-width="0.500000"/>
    <polyline points="2237.211249 2295.520650, 2237.211248 2305.614163" stroke="black" fill="transparent" stroke-width="0.500000"/>
    <polyline points="2237.211252 2164.721660, 2265.851121 2164.721664" stroke="black" fill="transparent" stroke-width="0.500000"/>
    <polyline points="2265.851121 2164.721664, 2265.851112 2305.614151" stroke="black" fill="transparent" stroke-width="0.500000"/>
    <polyline points="2025.722252 2171.482394, 2028.026603 2181.033993" stroke="black" fill="transparent" stroke-width="0.500000"/>
    <polyline points="2028.026603 2181.033993, 2030.274339 2189.693293" stroke="black" fill="transparent" stroke-width="0.500000"/>
    <polyline points="2187.888178 2171.482421, 2238.152353 2171.482421" stroke="black" fill="transparent" stroke-width="0.500000"/>
    <polyline points="2061.153162 2187.407094, 2049.815364 2237.761290" stroke="black" fill="transparent" stroke-width="0.500000"/>
    <polyline points="2061.153162 2187.407094, 2171.681438 2187.496419" stroke="black" fill="transparent" stroke-width="0.500000"/>
    <polyline points="2171.681438 2187.496419, 2180.688178 2200.973639" stroke="black" fill="transparent" stroke-width="0.500000"/>
    <polyline points="2030.686842 2198.486593, 2029.936466 2206.258312" stroke="black" fill="transparent" stroke-width="0.500000"/>
    <polyline points="2200.353077 2204.031540, 2200.353076 2222.668959" stroke="black" fill="transparent" stroke-width="0.500000"/>
    <polyline points="2200.353077 2204.031540, 2201.469477 2204.031540" stroke="black" fill="transparent" stroke-width="0.500000"/>
    <polyline points="2180.688178 2200.973639, 2180.940217 2256.782722" stroke="black" fill="transparent" stroke-width="0.500000"/>
    <polyline points="2201.469477 2204.031540, 2201.469476 2222.668959" stroke="black" fill="transparent" stroke-width="0.500000"/>
    <polyline points="2179.350519 2204.734219, 2179.350519 2214.950639" stroke="black" fill="transparent" stroke-width="0.500000"/>
    <polyline points="2180.705161 2204.734219, 2186.786857 2204.734219" stroke="black" fill="transparent" stroke-width="0.500000"/>
    <polyline points="2186.786857 2204.734219, 2200.353077 2204.734220" stroke="black" fill="transparent" stroke-width="0.500000"/>
    <polyline points="2028.001361 2213.501991, 2023.759528 2221.824053" stroke="black" fill="transparent" stroke-width="0.500000"/>
    <polyline points="2029.936466 2206.258312, 2028.001361 2213.501991" stroke="black" fill="transparent" stroke-width="0.500000"/>
    <polyline points="2201.469477 2207.059040, 2228.337977 2207.059041" stroke="black" fill="transparent" stroke-width="0.500000"/>
    <polyline points="2228.337978 2207.059041, 2228.507195 2255.744962" stroke="black" fill="transparent" stroke-width="0.500000"/>
    <polyline points="2228.240653 2270.355296, 2228.240653 2271.015102" stroke="black" fill="transparent" stroke-width="0.500000"/>
    <polyline points="2228.240657 2207.059481, 2230.355519 2207.059481" stroke="black" fill="transparent" stroke-width="0.500000"/>
    <polyline points="2023.759528 2221.824053, 2018.084818 2229.654171" stroke="black" fill="transparent" stroke-width="0.500000"/>
    <polyline points="2251.844377 2213.959001, 2251.870496 2220.643041" stroke="black" fill="transparent" stroke-width="0.500000"/>
    <polyline points="2242.452535 2213.959001, 2251.844377 2213.959001" stroke="black" fill="transparent" stroke-width="0.500000"/>
    <polyline points="2236.000273 2213.959001, 2236.000273 2215.397821" stroke="black" fill="transparent" stroke-width="0.500000"/>
    <polyline points="2236.000273 2213.959001, 2239.866172 2213.959001" stroke="black" fill="transparent" stroke-width="0.500000"/>
    <polyline points="2235.624474 2213.959001, 2235.624470 2253.071117" stroke="black" fill="transparent" stroke-width="0.500000"/>
    <polyline points="2235.624474 2213.959001, 2251.763215 2213.959001" stroke="black" fill="transparent" stroke-width="0.500000"/>
    <polyline points="2239.866172 2213.959001, 2239.866172 2215.397821" stroke="black" fill="transparent" stroke-width="0.500000"/>
    <polyline points="2242.452535 2213.959001, 2242.452535 2220.643041" stroke="black" fill="transparent" stroke-width="0.500000"/>
    <polyline points="2251.763215 2213.959001, 2251.763211 2253.071121" stroke="black" fill="transparent" stroke-width="0.500000"/>
    <polyline points="2242.452535 2220.643041, 2251.870496 2220.643041" stroke="black" fill="transparent" stroke-width="0.500000"/>
    <polyline points="2236.000273 2215.397821, 2239.866172 2215.397821" stroke="black" fill="transparent" stroke-width="0.500000"/>
    <polyline points="2188.768996 2214.950639, 2188.768996 2229.599020" stroke="black" fill="transparent" stroke-width="0.500000"/>
    <polyline points="2192.451017 2214.967120, 2192.451016 2222.668958" stroke="black" fill="transparent" stroke-width="0.500000"/>
    <polyline points="2192.451017 2214.967120, 2194.368797 2214.967120" stroke="black" fill="transparent" stroke-width="0.500000"/>
    <polyline points="2179.350519 2214.950639, 2186.786857 2214.950639" stroke="black" fill="transparent" stroke-width="0.500000"/>
    <polyline points="2186.786857 2214.950639, 2200.353076 2214.950640" stroke="black" fill="transparent" stroke-width="0.500000"/>
    <polyline points="2194.368797 2214.967120, 2194.368796 2222.668958" stroke="black" fill="transparent" stroke-width="0.500000"/>
    <polyline points="2194.004076 2216.795118, 2200.667677 2216.795118" stroke="black" fill="transparent" stroke-width="0.500000"/>
    <polyline points="2194.004076 2217.470838, 2200.667677 2217.470838" stroke="black" fill="transparent" stroke-width="0.500000"/>
    <polyline points="2194.004076 2218.201059, 2200.667677 2218.201059" stroke="black" fill="transparent" stroke-width="0.500000"/>
    <polyline points="2194.004076 2218.888699, 2200.667677 2218.888699" stroke="black" fill="transparent" stroke-width="0.500000"/>
    <polyline points="2194.004076 2219.560199, 2200.667677 2219.560199" stroke="black" fill="transparent" stroke-width="0.500000"/>
    <polyline points="2194.004076 2220.231700, 2200.667677 2220.231700" stroke="black" fill="transparent" stroke-width="0.500000"/>
    <polyline points="2246.611113 2221.191522, 2250.477016 2221.191522" stroke="black" fill="transparent" stroke-width="0.500000"/>
    <polyline points="2246.611113 2220.643041, 2246.611113 2221.191522" stroke="black" fill="transparent" stroke-width="0.500000"/>
    <polyline points="2246.611113 2220.643041, 2250.477016 2220.643041" stroke="black" fill="transparent" stroke-width="0.500000"/>
    <polyline points="2250.477016 2220.643041, 2250.477016 2221.191522" stroke="black" fill="transparent" stroke-width="0.500000"/>
    <polyline points="2194.004076 2221.000820, 2200.667677 2221.000820" stroke="black" fill="transparent" stroke-width="0.500000"/>
    <polyline points="2194.004076 2221.683740, 2200.667676 2221.683740" stroke="black" fill="transparent" stroke-width="0.500000"/>
    <polyline points="2018.084818 2229.654171, 2012.898847 2236.850534" stroke="black" fill="transparent" stroke-width="0.500000"/>
    <polyline points="2188.768996 2229.599020, 2192.558556 2229.599020" stroke="black" fill="transparent" stroke-width="0.500000"/>
    <polyline points="2200.353076 2222.668958, 2201.469476 2222.668958" stroke="black" fill="transparent" stroke-width="0.500000"/>
    <polyline points="2192.451016 2222.668958, 2194.368796 2222.668958" stroke="black" fill="transparent" stroke-width="0.500000"/>
    <polyline points="2194.004076 2222.446178, 2200.667677 2222.446178" stroke="black" fill="transparent" stroke-width="0.500000"/>
    <polyline points="2232.040015 2227.144603, 2235.239357 2227.144603" stroke="black" fill="transparent" stroke-width="0.500000"/>
    <polyline points="2230.072275 2224.451481, 2230.072275 2253.568297" stroke="black" fill="transparent" stroke-width="0.500000"/>
    <polyline points="2230.072275 2224.451481, 2232.187137 2224.451481" stroke="black" fill="transparent" stroke-width="0.500000"/>
    <polyline points="2232.187137 2224.451481, 2232.187137 2227.144603" stroke="black" fill="transparent" stroke-width="0.500000"/>
    <polyline points="2235.239357 2227.144603, 2235.239357 2235.233460" stroke="black" fill="transparent" stroke-width="0.500000"/>
    <polyline points="2232.040015 2227.144603, 2232.040013 2250.427937" stroke="black" fill="transparent" stroke-width="0.500000"/>
    <polyline points="2012.898847 2236.850534, 2175.287166 2322.744941" stroke="black" fill="transparent" stroke-width="0.500000"/>
    <polyline points="2235.239357 2235.233460, 2236.236295 2235.233460" stroke="black" fill="transparent" stroke-width="0.500000"/>
    <polyline points="2236.236295 2235.233460, 2236.236295 2242.140818" stroke="black" fill="transparent" stroke-width="0.500000"/>
    <polyline points="2189.246915 2256.750339, 2208.398054 2256.799734" stroke="black" fill="transparent" stroke-width="0.500000"/>
    <polyline points="2239.227613 2253.073059, 2240.287891 2253.073059" stroke="black" fill="transparent" stroke-width="0.500000"/>
    <polyline points="2239.227613 2251.998139, 2239.227613 2253.073059" stroke="black" fill="transparent" stroke-width="0.500000"/>
    <polyline points="2239.227613 2251.998139, 2240.287891 2251.998139" stroke="black" fill="transparent" stroke-width="0.500000"/>
    <polyline points="2235.601953 2251.798219, 2235.601953 2253.070039" stroke="black" fill="transparent" stroke-width="0.500000"/>
    <polyline points="2235.601953 2251.798219, 2239.282553 2251.798219" stroke="black" fill="transparent" stroke-width="0.500000"/>
    <polyline points="2188.768995 2241.436018, 2188.768994 2256.018194" stroke="black" fill="transparent" stroke-width="0.500000"/>
    <polyline points="2188.768995 2241.436018, 2192.558556 2241.436018" stroke="black" fill="transparent" stroke-width="0.500000"/>
    <polyline points="2049.815364 2237.761290, 2147.407833 2289.056334" stroke="black" fill="transparent" stroke-width="0.500000"/>
    <polyline points="2251.735416 2239.539904, 2251.735412 2244.363447" stroke="black" fill="transparent" stroke-width="0.500000"/>
    <polyline points="2251.735416 2239.539904, 2252.861516 2239.539904" stroke="black" fill="transparent" stroke-width="0.500000"/>
    <polyline points="2252.860074 2238.030763, 2252.867672 2245.983200" stroke="black" fill="transparent" stroke-width="0.500000"/>
    <polyline points="2252.860074 2238.030763, 2264.348442 2238.051301" stroke="black" fill="transparent" stroke-width="0.500000"/>
    <polyline points="2264.348442 2238.051301, 2264.335235 2245.962264" stroke="black" fill="transparent" stroke-width="0.500000"/>
    <polyline points="2192.558556 2241.436018, 2192.558555 2256.018194" stroke="black" fill="transparent" stroke-width="0.500000"/>
    <polyline points="2235.239357 2242.140818, 2236.236295 2242.140818" stroke="black" fill="transparent" stroke-width="0.500000"/>
    <polyline points="2232.040013 2250.427937, 2235.239353 2250.427937" stroke="black" fill="transparent" stroke-width="0.500000"/>
    <polyline points="2235.239357 2242.140818, 2235.239353 2250.427937" stroke="black" fill="transparent" stroke-width="0.500000"/>
    <polyline points="2251.735412 2247.807980, 2251.735412 2252.631543" stroke="black" fill="transparent" stroke-width="0.500000"/>
    <polyline points="2251.735412 2247.807980, 2252.861564 2247.807980" stroke="black" fill="transparent" stroke-width="0.500000"/>
    <polyline points="2251.735412 2244.363447, 2253.113750 2244.363447" stroke="black" fill="transparent" stroke-width="0.500000"/>
    <polyline points="2252.860070 2246.245424, 2252.867672 2254.197885" stroke="black" fill="transparent" stroke-width="0.500000"/>
    <polyline points="2252.860070 2246.245424, 2264.348442 2246.265982" stroke="black" fill="transparent" stroke-width="0.500000"/>
    <polyline points="2264.335235 2245.962264, 2252.867672 2245.983200" stroke="black" fill="transparent" stroke-width="0.500000"/>
    <polyline points="2264.348442 2246.265982, 2264.335235 2254.176942" stroke="black" fill="transparent" stroke-width="0.500000"/>
    <polyline points="2239.282553 2251.798219, 2239.282553 2251.998139" stroke="black" fill="transparent" stroke-width="0.500000"/>
    <polyline points="2240.287891 2251.998139, 2240.287891 2252.123438" stroke="black" fill="transparent" stroke-width="0.500000"/>
    <polyline points="2240.287891 2253.071436, 2240.287891 2253.073059" stroke="black" fill="transparent" stroke-width="0.500000"/>
    <polyline points="2240.287891 2253.071436, 2244.006814 2253.071440" stroke="black" fill="transparent" stroke-width="0.500000"/>
    <polyline points="2240.283949 2252.123438, 2240.283949 2253.071117" stroke="black" fill="transparent" stroke-width="0.500000"/>
    <polyline points="2240.283949 2252.123438, 2244.006814 2252.123442" stroke="black" fill="transparent" stroke-width="0.500000"/>
    <polyline points="2244.006814 2252.123442, 2244.006814 2253.071440" stroke="black" fill="transparent" stroke-width="0.500000"/>
    <polyline points="2235.601953 2253.070039, 2239.282553 2253.070039" stroke="black" fill="transparent" stroke-width="0.500000"/>
    <polyline points="2251.735412 2252.631543, 2253.113750 2252.631543" stroke="black" fill="transparent" stroke-width="0.500000"/>
    <polyline points="2235.624470 2253.071116, 2239.227613 2253.071117" stroke="black" fill="transparent" stroke-width="0.500000"/>
    <polyline points="2244.006814 2253.071118, 2251.763211 2253.071120" stroke="black" fill="transparent" stroke-width="0.500000"/>
    <polyline points="2188.768994 2256.018194, 2192.558555 2256.018194" stroke="black" fill="transparent" stroke-width="0.500000"/>
    <polyline points="2192.558555 2255.749579, 2208.398054 2255.792818" stroke="black" fill="transparent" stroke-width="0.500000"/>
    <polyline points="2264.335235 2254.176942, 2252.867672 2254.197885" stroke="black" fill="transparent" stroke-width="0.500000"/>
    <polyline points="2230.072275 2253.568297, 2232.187133 2253.568297" stroke="black" fill="transparent" stroke-width="0.500000"/>
    <polyline points="2228.507195 2255.744960, 2228.550073 2270.355296" stroke="black" fill="transparent" stroke-width="0.500000"/>
    <polyline points="2208.398054 2255.792818, 2208.398054 2270.355280" stroke="black" fill="transparent" stroke-width="0.500000"/>
    <polyline points="2180.940217 2256.782720, 2147.407837 2289.056334" stroke="black" fill="transparent" stroke-width="0.500000"/>
    <polyline points="2237.554232 2270.212356, 2237.554232 2295.369861" stroke="black" fill="transparent" stroke-width="0.500000"/>
    <polyline points="2208.398054 2270.355280, 2228.550072 2270.355296" stroke="black" fill="transparent" stroke-width="0.500000"/>
    <polyline points="2228.240653 2271.015102, 2230.355515 2271.015102" stroke="black" fill="transparent" stroke-width="0.500000"/>
    <polyline points="2237.554232 2295.369861, 2175.287170 2322.744941" stroke="black" fill="transparent" stroke-width="0.500000"/>
    <polyline points="2237.211248 2305.614155, 2265.851112 2305.614155" stroke="black" fill="transparent" stroke-width="0.500000"/>
  </g>
</svg>
