<svg version="1.1" baseProfile="full" width="4400" height="4400" xmlns="http://www.w3.org/2000/svg">
  <g stroke-linejoin="round" stroke-linecap="round">
    <polyline points="2279.927532 2244.932159, 2272.078208 2235.578144, 2241.484389 2253.241737, 2279.927532 2244.932159" stroke="rgb(231,231,231)" fill="transparent" stroke-width="1.000000"/>
    <polygon points="2279.927532 2244.932159, 2272.078208 2235.578144, 2241.484389 2253.241737," fill="rgb(231,231,231)"/>
    <polyline points="2257.218310 2271.994137, 2279.927532 2244.932159, 2241.484389 2253.241737, 2257.218310 2271.994137" stroke="rgb(231,231,231)" fill="transparent" stroke-width="1.000000"/>
    <polygon points="2257.218310 2271.994137, 2279.927532 2244.932159, 2241.484389 2253.241737," fill="rgb(231,231,231)"/>
    <polyline points="2290.505864 2251.042122, 2279.927532 2244.932159, 2257.218310 2271.994137, 2290.505864 2251.042122" stroke="rgb(231,231,231)" fill="transparent" stroke-width="1.000000"/>
    <polygon points="2290.505864 2251.042122, 2279.927532 2244.932159, 2257.218310 2271.994137," fill="rgb(231,231,231)"/>
    <polyline points="2278.428713 2284.229004, 2290.505864 2251.042122, 2257.218310 2271.994137, 2278.428713 2284.229004" stroke="rgb(231,231,231)" fill="transparent" stroke-width="1.000000"/>
    <polygon points="2278.428713 2284.229004, 2290.505864 2251.042122, 2257.218310 2271.994137," fill="rgb(231,231,231)"/>
    <polyline points="2302.527874 2253.156343, 2290.505864 2251.042122, 2278.428713 2284.229004, 2302.527874 2253.156343" stroke="rgb(231,231,231)" fill="transparent" stroke-width="1.000000"/>
    <polygon points="2302.527874 2253.156343, 2290.505864 2251.042122, 2278.428713 2284.229004," fill="rgb(231,231,231)"/>
    <polyline points="2302.527866 2288.479484, 2302.527874 2253.156343, 2278.428713 2284.229004, 2302.527866 2288.479484" stroke="rgb(231,231,231)" fill="transparent" stroke-width="1.000000"/>
    <polygon points="2302.527866 2288.479484, 2302.527874 2253.156343, 2278.428713 2284.229004," fill="rgb(231,231,231)"/>
    <polyline points="2302.814795 2271.571808, 2302.814795 2267.764130, 2302.433190 2271.571808, 2302.814795 2271.571808" stroke="rgb(231,231,231)" fill="transparent" stroke-width="1.000000"/>
    <polygon points="2302.814795 2271.571808, 2302.814795 2267.764130, 2302.433190 2271.571808," fill="rgb(231,231,231)"/>
    <polyline points="2302.814795 2267.764130, 2302.433190 2267.764130, 2302.433190 2271.571808, 2302.814795 2267.764130" stroke="rgb(231,231,231)" fill="transparent" stroke-width="1.000000"/>
    <polygon points="2302.814795 2267.764130, 2302.433190 2267.764130, 2302.433190 2271.571808," fill="rgb(231,231,231)"/>
    <polyline points="2305.743007 2275.039890, 2305.743007 2265.478387, 2304.686007 2275.039890, 2305.743007 2275.039890" stroke="rgb(231,231,231)" fill="transparent" stroke-width="1.000000"/>
    <polygon points="2305.743007 2275.039890, 2305.743007 2265.478387, 2304.686007 2275.039890," fill="rgb(231,231,231)"/>
    <polyline points="2305.743007 2265.478387, 2304.686007 2265.478387, 2304.686007 2275.039890, 2305.743007 2265.478387" stroke="rgb(231,231,231)" fill="transparent" stroke-width="1.000000"/>
    <polygon points="2305.743007 2265.478387, 2304.686007 2265.478387, 2304.686007 2275.039890," fill="rgb(231,231,231)"/>
    <polyline points="2313.276011 2285.291905, 2313.276011 2220.455865, 2305.601132 2285.291905, 2313.276011 2285.291905" stroke="rgb(231,231,231)" fill="transparent" stroke-width="1.000000"/>
    <polygon points="2313.276011 2285.291905, 2313.276011 2220.455865, 2305.601132 2285.291905," fill="rgb(231,231,231)"/>
    <polyline points="2313.276011 2220.455865, 2305.601132 2220.455863, 2305.601132 2285.291905, 2313.276011 2220.455865" stroke="rgb(231,231,231)" fill="transparent" stroke-width="1.000000"/>
    <polygon points="2313.276011 2220.455865, 2305.601132 2220.455863, 2305.601132 2285.291905," fill="rgb(231,231,231)"/>
    <polyline points="2331.121228 2220.466684, 2311.955489 2220.466684, 2331.121228 2228.141584, 2331.121228 2220.466684" stroke="rgb(231,231,231)" fill="transparent" stroke-width="1.000000"/>
    <polygon points="2331.121228 2220.466684, 2311.955489 2220.466684, 2331.121228 2228.141584," fill="rgb(231,231,231)"/>
    <polyline points="2311.955489 2220.466684, 2311.955489 2228.141584, 2331.121228 2228.141584, 2311.955489 2220.466684" stroke="rgb(231,231,231)" fill="transparent" stroke-width="1.000000"/>
    <polygon points="2311.955489 2220.466684, 2311.955489 2228.141584, 2331.121228 2228.141584," fill="rgb(231,231,231)"/>
    <polyline points="2259.396068 2254.926101, 2257.786690 2255.066902, 2259.747152 2258.938903, 2259.396068 2254.926101" stroke="rgb(128,127,128)" fill="transparent" stroke-width="1.000000"/>
    <polygon points="2259.396068 2254.926101, 2257.786690 2255.066902, 2259.747152 2258.938903," fill="rgb(128,127,128)"/>
    <polyline points="2257.786690 2255.066902, 2258.137767 2259.079704, 2259.747152 2258.938903, 2257.786690 2255.066902" stroke="rgb(128,127,128)" fill="transparent" stroke-width="1.000000"/>
    <polygon points="2257.786690 2255.066902, 2258.137767 2259.079704, 2259.747152 2258.938903," fill="rgb(128,127,128)"/>
    <polyline points="2263.320012 2249.234541, 2261.556090 2247.470045, 2259.399370 2253.153925, 2263.320012 2249.234541" stroke="rgb(128,127,128)" fill="transparent" stroke-width="1.000000"/>
    <polygon points="2263.320012 2249.234541, 2261.556090 2247.470045, 2259.399370 2253.153925," fill="rgb(128,127,128)"/>
    <polyline points="2261.556090 2247.470045, 2257.635448 2251.389425, 2259.399370 2253.153925, 2261.556090 2247.470045" stroke="rgb(128,127,128)" fill="transparent" stroke-width="1.000000"/>
    <polygon points="2261.556090 2247.470045, 2257.635448 2251.389425, 2259.399370 2253.153925," fill="rgb(128,127,128)"/>
    <polyline points="2257.097769 2261.970900, 2255.312451 2263.713702, 2260.970270 2265.937859, 2257.097769 2261.970900" stroke="rgb(128,127,128)" fill="transparent" stroke-width="1.000000"/>
    <polygon points="2257.097769 2261.970900, 2255.312451 2263.713702, 2260.970270 2265.937859," fill="rgb(128,127,128)"/>
    <polyline points="2255.312451 2263.713702, 2259.184932 2267.680678, 2260.970270 2265.937859, 2255.312451 2263.713702" stroke="rgb(128,127,128)" fill="transparent" stroke-width="1.000000"/>
    <polygon points="2255.312451 2263.713702, 2259.184932 2267.680678, 2260.970270 2265.937859," fill="rgb(128,127,128)"/>
    <polyline points="2290.314553 2279.713093, 2289.802186 2281.683390, 2296.092831 2281.215706, 2290.314553 2279.713093" stroke="rgb(128,127,128)" fill="transparent" stroke-width="1.000000"/>
    <polygon points="2290.314553 2279.713093, 2289.802186 2281.683390, 2296.092831 2281.215706," fill="rgb(128,127,128)"/>
    <polyline points="2289.802186 2281.683390, 2295.580456 2283.186003, 2296.092831 2281.215706, 2289.802186 2281.683390" stroke="rgb(128,127,128)" fill="transparent" stroke-width="1.000000"/>
    <polygon points="2289.802186 2281.683390, 2295.580456 2283.186003, 2296.092831 2281.215706," fill="rgb(128,127,128)"/>
    <polyline points="2292.970661 2278.761186, 2292.631550 2280.065210, 2294.086915 2279.051467, 2292.970661 2278.761186" stroke="rgb(128,127,128)" fill="transparent" stroke-width="1.000000"/>
    <polygon points="2292.970661 2278.761186, 2292.631550 2280.065210, 2294.086915 2279.051467," fill="rgb(128,127,128)"/>
    <polyline points="2292.631550 2280.065210, 2293.747813 2280.355483, 2294.086915 2279.051467, 2292.631550 2280.065210" stroke="rgb(128,127,128)" fill="transparent" stroke-width="1.000000"/>
    <polygon points="2292.631550 2280.065210, 2293.747813 2280.355483, 2294.086915 2279.051467," fill="rgb(128,127,128)"/>
    <polyline points="2295.294289 2279.422508, 2294.616313 2280.586887, 2296.291026 2280.002850, 2295.294289 2279.422508" stroke="rgb(128,127,128)" fill="transparent" stroke-width="1.000000"/>
    <polygon points="2295.294289 2279.422508, 2294.616313 2280.586887, 2296.291026 2280.002850," fill="rgb(128,127,128)"/>
    <polyline points="2294.616313 2280.586887, 2295.613042 2281.167245, 2296.291026 2280.002850, 2294.616313 2280.586887" stroke="rgb(128,127,128)" fill="transparent" stroke-width="1.000000"/>
    <polygon points="2294.616313 2280.586887, 2295.613042 2281.167245, 2296.291026 2280.002850," fill="rgb(128,127,128)"/>
    <polyline points="2293.922314 2283.044185, 2293.583195 2284.348202, 2295.038576 2283.334467, 2293.922314 2283.044185" stroke="rgb(128,127,128)" fill="transparent" stroke-width="1.000000"/>
    <polygon points="2293.922314 2283.044185, 2293.583195 2284.348202, 2295.038576 2283.334467," fill="rgb(128,127,128)"/>
    <polyline points="2293.583195 2284.348202, 2294.699457 2284.638483, 2295.038576 2283.334467, 2293.583195 2284.348202" stroke="rgb(128,127,128)" fill="transparent" stroke-width="1.000000"/>
    <polygon points="2293.583195 2284.348202, 2294.699457 2284.638483, 2295.038576 2283.334467," fill="rgb(128,127,128)"/>
    <polyline points="2292.038866 2282.249241, 2291.360882 2283.413653, 2293.035603 2282.829607, 2292.038866 2282.249241" stroke="rgb(128,127,128)" fill="transparent" stroke-width="1.000000"/>
    <polygon points="2292.038866 2282.249241, 2291.360882 2283.413653, 2293.035603 2282.829607," fill="rgb(128,127,128)"/>
    <polyline points="2291.360882 2283.413653, 2292.357627 2283.994011, 2293.035603 2282.829607, 2291.360882 2283.413653" stroke="rgb(128,127,128)" fill="transparent" stroke-width="1.000000"/>
    <polygon points="2291.360882 2283.413653, 2292.357627 2283.994011, 2293.035603 2282.829607," fill="rgb(128,127,128)"/>
    <polyline points="2290.510601 2278.377269, 2290.969860 2279.643971, 2291.594949 2277.984149, 2290.510601 2278.377269" stroke="rgb(128,127,128)" fill="transparent" stroke-width="1.000000"/>
    <polygon points="2290.510601 2278.377269, 2290.969860 2279.643971, 2291.594949 2277.984149," fill="rgb(128,127,128)"/>
    <polyline points="2290.969860 2279.643971, 2292.054167 2279.250859, 2291.594949 2277.984149, 2290.969860 2279.643971" stroke="rgb(128,127,128)" fill="transparent" stroke-width="1.000000"/>
    <polygon points="2290.969860 2279.643971, 2292.054167 2279.250859, 2291.594949 2277.984149," fill="rgb(128,127,128)"/>
    <polyline points="2297.757332 2279.609565, 2296.508046 2280.114310, 2298.189390 2280.678965, 2297.757332 2279.609565" stroke="rgb(128,127,128)" fill="transparent" stroke-width="1.000000"/>
    <polygon points="2297.757332 2279.609565, 2296.508046 2280.114310, 2298.189390 2280.678965," fill="rgb(128,127,128)"/>
    <polyline points="2296.508046 2280.114310, 2296.940112 2281.183710, 2298.189390 2280.678965, 2296.508046 2280.114310" stroke="rgb(128,127,128)" fill="transparent" stroke-width="1.000000"/>
    <polygon points="2296.508046 2280.114310, 2296.940112 2281.183710, 2298.189390 2280.678965," fill="rgb(128,127,128)"/>
    <polyline points="2297.669344 2282.937863, 2296.637185 2282.071781, 2296.927974 2283.821402, 2297.669344 2282.937863" stroke="rgb(128,127,128)" fill="transparent" stroke-width="1.000000"/>
    <polygon points="2297.669344 2282.937863, 2296.637185 2282.071781, 2296.927974 2283.821402," fill="rgb(128,127,128)"/>
    <polyline points="2296.637185 2282.071781, 2295.895791 2282.955328, 2296.927974 2283.821402, 2296.637185 2282.071781" stroke="rgb(128,127,128)" fill="transparent" stroke-width="1.000000"/>
    <polygon points="2296.637185 2282.071781, 2295.895791 2282.955328, 2296.927974 2283.821402," fill="rgb(128,127,128)"/>
    <polyline points="2288.633103 2280.113827, 2287.600944 2280.979925, 2289.374489 2280.997366, 2288.633103 2280.113827" stroke="rgb(128,127,128)" fill="transparent" stroke-width="1.000000"/>
    <polygon points="2288.633103 2280.113827, 2287.600944 2280.979925, 2289.374489 2280.997366," fill="rgb(128,127,128)"/>
    <polyline points="2287.600944 2280.979925, 2288.342330 2281.863464, 2289.374489 2280.997366, 2287.600944 2280.979925" stroke="rgb(128,127,128)" fill="transparent" stroke-width="1.000000"/>
    <polygon points="2287.600944 2280.979925, 2288.342330 2281.863464, 2289.374489 2280.997366," fill="rgb(128,127,128)"/>
    <polyline points="2288.212224 2283.084246, 2288.955749 2285.135122, 2289.284976 2282.695355, 2288.212224 2283.084246" stroke="rgb(128,127,128)" fill="transparent" stroke-width="1.000000"/>
    <polygon points="2288.212224 2283.084246, 2288.955749 2285.135122, 2289.284976 2282.695355," fill="rgb(128,127,128)"/>
    <polyline points="2288.955749 2285.135122, 2290.028468 2284.746223, 2289.284976 2282.695355, 2288.955749 2285.135122" stroke="rgb(128,127,128)" fill="transparent" stroke-width="1.000000"/>
    <polygon points="2288.955749 2285.135122, 2290.028468 2284.746223, 2289.284976 2282.695355," fill="rgb(128,127,128)"/>
    <polyline points="2290.599499 2281.679505, 2289.253414 2281.739292, 2290.640215 2282.596204, 2290.599499 2281.679505" stroke="rgb(128,127,128)" fill="transparent" stroke-width="1.000000"/>
    <polygon points="2290.599499 2281.679505, 2289.253414 2281.739292, 2290.640215 2282.596204," fill="rgb(128,127,128)"/>
    <polyline points="2289.253414 2281.739292, 2289.294130 2282.655983, 2290.640215 2282.596204, 2289.253414 2281.739292" stroke="rgb(128,127,128)" fill="transparent" stroke-width="1.000000"/>
    <polygon points="2289.253414 2281.739292, 2289.294130 2282.655983, 2290.640215 2282.596204," fill="rgb(128,127,128)"/>
    <polyline points="2280.940316 2284.669536, 2282.640370 2285.012417, 2285.943712 2277.119419, 2280.940316 2284.669536" stroke="rgb(128,127,128)" fill="transparent" stroke-width="1.000000"/>
    <polygon points="2280.940316 2284.669536, 2282.640370 2285.012417, 2285.943712 2277.119419," fill="rgb(128,127,128)"/>
    <polyline points="2284.309854 2276.203458, 2280.940316 2284.669536, 2285.943712 2277.119419, 2284.309854 2276.203458" stroke="rgb(128,127,128)" fill="transparent" stroke-width="1.000000"/>
    <polygon points="2284.309854 2276.203458, 2280.940316 2284.669536, 2285.943712 2277.119419," fill="rgb(128,127,128)"/>
    <polyline points="2278.419551 2284.213490, 2280.940316 2284.669536, 2284.309854 2276.203458, 2278.419551 2284.213490" stroke="rgb(128,127,128)" fill="transparent" stroke-width="1.000000"/>
    <polygon points="2278.419551 2284.213490, 2280.940316 2284.669536, 2284.309854 2276.203458," fill="rgb(128,127,128)"/>
    <polyline points="2279.499891 2277.042323, 2278.419551 2284.213490, 2284.309854 2276.203458, 2279.499891 2277.042323" stroke="rgb(128,127,128)" fill="transparent" stroke-width="1.000000"/>
    <polygon points="2279.499891 2277.042323, 2278.419551 2284.213490, 2284.309854 2276.203458," fill="rgb(128,127,128)"/>
    <polyline points="2274.614389 2282.024386, 2278.419551 2284.213490, 2279.499891 2277.042323, 2274.614389 2282.024386" stroke="rgb(128,127,128)" fill="transparent" stroke-width="1.000000"/>
    <polygon points="2274.614389 2282.024386, 2278.419551 2284.213490, 2279.499891 2277.042323," fill="rgb(128,127,128)"/>
    <polyline points="2277.506950 2275.919537, 2274.614389 2282.024386, 2279.499891 2277.042323, 2277.506950 2275.919537" stroke="rgb(128,127,128)" fill="transparent" stroke-width="1.000000"/>
    <polygon points="2277.506950 2275.919537, 2274.614389 2282.024386, 2279.499891 2277.042323," fill="rgb(128,127,128)"/>
    <polyline points="2274.614389 2282.024386, 2277.506950 2275.919537, 2270.636710 2279.731623, 2274.614389 2282.024386" stroke="rgb(128,127,128)" fill="transparent" stroke-width="1.000000"/>
    <polygon points="2274.614389 2282.024386, 2277.506950 2275.919537, 2270.636710 2279.731623," fill="rgb(128,127,128)"/>
    <polyline points="2277.506950 2275.919537, 2271.915049 2273.270018, 2270.636710 2279.731623, 2277.506950 2275.919537" stroke="rgb(128,127,128)" fill="transparent" stroke-width="1.000000"/>
    <polygon points="2277.506950 2275.919537, 2271.915049 2273.270018, 2270.636710 2279.731623," fill="rgb(128,127,128)"/>
    <polyline points="2297.822905 2260.414441, 2299.439012 2260.934504, 2302.526268 2253.155802, 2297.822905 2260.414441" stroke="rgb(128,127,128)" fill="transparent" stroke-width="1.000000"/>
    <polygon points="2297.822905 2260.414441, 2299.439012 2260.934504, 2302.526268 2253.155802," fill="rgb(128,127,128)"/>
    <polyline points="2300.766508 2252.847338, 2297.822905 2260.414441, 2302.526268 2253.155802, 2300.766508 2252.847338" stroke="rgb(128,127,128)" fill="transparent" stroke-width="1.000000"/>
    <polygon points="2300.766508 2252.847338, 2297.822905 2260.414441, 2302.526268 2253.155802," fill="rgb(128,127,128)"/>
    <polyline points="2295.789436 2258.743445, 2297.822905 2260.414441, 2300.766508 2252.847338, 2295.789436 2258.743445" stroke="rgb(128,127,128)" fill="transparent" stroke-width="1.000000"/>
    <polygon points="2295.789436 2258.743445, 2297.822905 2260.414441, 2300.766508 2252.847338," fill="rgb(128,127,128)"/>
    <polyline points="2296.694374 2252.128983, 2295.789436 2258.743445, 2300.766508 2252.847338, 2296.694374 2252.128983" stroke="rgb(128,127,128)" fill="transparent" stroke-width="1.000000"/>
    <polygon points="2296.694374 2252.128983, 2295.789436 2258.743445, 2300.766508 2252.847338," fill="rgb(128,127,128)"/>
    <polyline points="2293.414242 2261.147160, 2295.789436 2258.743445, 2296.694374 2252.128983, 2293.414242 2261.147160" stroke="rgb(128,127,128)" fill="transparent" stroke-width="1.000000"/>
    <polygon points="2293.414242 2261.147160, 2295.789436 2258.743445, 2296.694374 2252.128983," fill="rgb(128,127,128)"/>
    <polyline points="2294.362969 2251.720565, 2293.414242 2261.147160, 2296.694374 2252.128983, 2294.362969 2251.720565" stroke="rgb(128,127,128)" fill="transparent" stroke-width="1.000000"/>
    <polygon points="2294.362969 2251.720565, 2293.414242 2261.147160, 2296.694374 2252.128983," fill="rgb(128,127,128)"/>
    <polyline points="2293.414242 2261.147160, 2294.362969 2251.720565, 2286.751745 2257.096462, 2293.414242 2261.147160" stroke="rgb(128,127,128)" fill="transparent" stroke-width="1.000000"/>
    <polygon points="2293.414242 2261.147160, 2294.362969 2251.720565, 2286.751745 2257.096462," fill="rgb(128,127,128)"/>
    <polyline points="2294.362969 2251.720565, 2290.508208 2251.044003, 2286.751745 2257.096462, 2294.362969 2251.720565" stroke="rgb(128,127,128)" fill="transparent" stroke-width="1.000000"/>
    <polygon points="2294.362969 2251.720565, 2290.508208 2251.044003, 2286.751745 2257.096462," fill="rgb(128,127,128)"/>
    <polyline points="2281.938471 2253.346387, 2281.574552 2255.349422, 2287.812752 2254.413640, 2281.938471 2253.346387" stroke="rgb(128,127,128)" fill="transparent" stroke-width="1.000000"/>
    <polygon points="2281.938471 2253.346387, 2281.574552 2255.349422, 2287.812752 2254.413640," fill="rgb(128,127,128)"/>
    <polyline points="2281.574552 2255.349422, 2287.448841 2256.416683, 2287.812752 2254.413640, 2281.574552 2255.349422" stroke="rgb(128,127,128)" fill="transparent" stroke-width="1.000000"/>
    <polygon points="2281.574552 2255.349422, 2287.448841 2256.416683, 2287.812752 2254.413640," fill="rgb(128,127,128)"/>
    <polyline points="2288.176803 2253.396741, 2286.830751 2253.456520, 2288.217527 2254.313448, 2288.176803 2253.396741" stroke="rgb(128,127,128)" fill="transparent" stroke-width="1.000000"/>
    <polygon points="2288.176803 2253.396741, 2286.830751 2253.456520, 2288.217527 2254.313448," fill="rgb(128,127,128)"/>
    <polyline points="2286.830751 2253.456520, 2286.871475 2254.373219, 2288.217527 2254.313448, 2286.830751 2253.456520" stroke="rgb(128,127,128)" fill="transparent" stroke-width="1.000000"/>
    <polygon points="2286.830751 2253.456520, 2286.871475 2254.373219, 2288.217527 2254.313448," fill="rgb(128,127,128)"/>
    <polyline points="2287.399700 2251.269285, 2288.143209 2253.320165, 2288.472452 2250.880381, 2287.399700 2251.269285" stroke="rgb(128,127,128)" fill="transparent" stroke-width="1.000000"/>
    <polygon points="2287.399700 2251.269285, 2288.143209 2253.320165, 2288.472452 2250.880381," fill="rgb(128,127,128)"/>
    <polyline points="2288.143209 2253.320165, 2289.215952 2252.931245, 2288.472452 2250.880381, 2288.143209 2253.320165" stroke="rgb(128,127,128)" fill="transparent" stroke-width="1.000000"/>
    <polygon points="2288.143209 2253.320165, 2289.215952 2252.931245, 2288.472452 2250.880381," fill="rgb(128,127,128)"/>
    <polyline points="2285.684394 2256.862103, 2286.143612 2258.128821, 2286.768718 2256.469003, 2285.684394 2256.862103" stroke="rgb(128,127,128)" fill="transparent" stroke-width="1.000000"/>
    <polygon points="2285.684394 2256.862103, 2286.143612 2258.128821, 2286.768718 2256.469003," fill="rgb(128,127,128)"/>
    <polyline points="2286.143612 2258.128821, 2287.227928 2257.735721, 2286.768718 2256.469003, 2286.143612 2258.128821" stroke="rgb(128,127,128)" fill="transparent" stroke-width="1.000000"/>
    <polygon points="2286.143612 2258.128821, 2287.227928 2257.735721, 2286.768718 2256.469003," fill="rgb(128,127,128)"/>
    <polyline points="2282.676931 2251.836558, 2282.337828 2253.140583, 2283.793193 2252.126843, 2282.676931 2251.836558" stroke="rgb(128,127,128)" fill="transparent" stroke-width="1.000000"/>
    <polygon points="2282.676931 2251.836558, 2282.337828 2253.140583, 2283.793193 2252.126843," fill="rgb(128,127,128)"/>
    <polyline points="2282.337828 2253.140583, 2283.454090 2253.430864, 2283.793193 2252.126843, 2282.337828 2253.140583" stroke="rgb(128,127,128)" fill="transparent" stroke-width="1.000000"/>
    <polygon points="2282.337828 2253.140583, 2283.454090 2253.430864, 2283.793193 2252.126843," fill="rgb(128,127,128)"/>
    <polyline points="2280.668934 2255.536385, 2279.419648 2256.041121, 2281.100991 2256.605785, 2280.668934 2255.536385" stroke="rgb(128,127,128)" fill="transparent" stroke-width="1.000000"/>
    <polygon points="2280.668934 2255.536385, 2279.419648 2256.041121, 2281.100991 2256.605785," fill="rgb(128,127,128)"/>
    <polyline points="2279.419648 2256.041121, 2279.851706 2257.110521, 2281.100991 2256.605785, 2279.419648 2256.041121" stroke="rgb(128,127,128)" fill="transparent" stroke-width="1.000000"/>
    <polygon points="2279.419648 2256.041121, 2279.851706 2257.110521, 2281.100991 2256.605785," fill="rgb(128,127,128)"/>
    <polyline points="2281.522968 2253.712843, 2280.490818 2252.846761, 2280.781591 2254.596386, 2281.522968 2253.712843" stroke="rgb(128,127,128)" fill="transparent" stroke-width="1.000000"/>
    <polygon points="2281.522968 2253.712843, 2280.490818 2252.846761, 2280.781591 2254.596386," fill="rgb(128,127,128)"/>
    <polyline points="2280.490818 2252.846761, 2279.749424 2253.730300, 2280.781591 2254.596386, 2280.490818 2252.846761" stroke="rgb(128,127,128)" fill="transparent" stroke-width="1.000000"/>
    <polygon points="2280.490818 2252.846761, 2279.749424 2253.730300, 2280.781591 2254.596386," fill="rgb(128,127,128)"/>
    <polyline points="2283.820927 2256.106441, 2283.703508 2257.448722, 2284.969931 2256.206960, 2283.820927 2256.106441" stroke="rgb(128,127,128)" fill="transparent" stroke-width="1.000000"/>
    <polygon points="2283.820927 2256.106441, 2283.703508 2257.448722, 2284.969931 2256.206960," fill="rgb(128,127,128)"/>
    <polyline points="2283.703508 2257.448722, 2284.852496 2257.549242, 2284.969931 2256.206960, 2283.703508 2257.448722" stroke="rgb(128,127,128)" fill="transparent" stroke-width="1.000000"/>
    <polygon points="2283.703508 2257.448722, 2284.852496 2257.549242, 2284.969931 2256.206960," fill="rgb(128,127,128)"/>
    <polyline points="2285.053158 2252.290383, 2284.375165 2253.454762, 2286.049895 2252.870745, 2285.053158 2252.290383" stroke="rgb(128,127,128)" fill="transparent" stroke-width="1.000000"/>
    <polygon points="2285.053158 2252.290383, 2284.375165 2253.454762, 2286.049895 2252.870745," fill="rgb(128,127,128)"/>
    <polyline points="2284.375165 2253.454762, 2285.371919 2254.035124, 2286.049895 2252.870745, 2284.375165 2253.454762" stroke="rgb(128,127,128)" fill="transparent" stroke-width="1.000000"/>
    <polygon points="2284.375165 2253.454762, 2285.371919 2254.035124, 2286.049895 2252.870745," fill="rgb(128,127,128)"/>
    <polyline points="2282.070011 2255.398063, 2281.392027 2256.562462, 2283.066723 2255.978421, 2282.070011 2255.398063" stroke="rgb(128,127,128)" fill="transparent" stroke-width="1.000000"/>
    <polygon points="2282.070011 2255.398063, 2281.392027 2256.562462, 2283.066723 2255.978421," fill="rgb(128,127,128)"/>
    <polyline points="2281.392027 2256.562462, 2282.388747 2257.142824, 2283.066723 2255.978421, 2281.392027 2256.562462" stroke="rgb(128,127,128)" fill="transparent" stroke-width="1.000000"/>
    <polygon points="2281.392027 2256.562462, 2282.388747 2257.142824, 2283.066723 2255.978421," fill="rgb(128,127,128)"/>
    <polyline points="2271.190268 2245.542664, 2272.806349 2246.062722, 2275.333573 2239.466004, 2271.190268 2245.542664" stroke="rgb(128,127,128)" fill="transparent" stroke-width="1.000000"/>
    <polygon points="2271.190268 2245.542664, 2272.806349 2246.062722, 2275.333573 2239.466004," fill="rgb(128,127,128)"/>
    <polyline points="2272.088190 2235.579546, 2271.190268 2245.542664, 2275.333573 2239.466004, 2272.088190 2235.579546" stroke="rgb(128,127,128)" fill="transparent" stroke-width="1.000000"/>
    <polygon points="2272.088190 2235.579546, 2271.190268 2245.542664, 2275.333573 2239.466004," fill="rgb(128,127,128)"/>
    <polyline points="2268.667413 2243.289904, 2271.190268 2245.542664, 2272.088190 2235.579546, 2268.667413 2243.289904" stroke="rgb(128,127,128)" fill="transparent" stroke-width="1.000000"/>
    <polygon points="2268.667413 2243.289904, 2271.190268 2245.542664, 2272.088190 2235.579546," fill="rgb(128,127,128)"/>
    <polyline points="2266.763955 2238.649866, 2268.667413 2243.289904, 2272.088190 2235.579546, 2266.763955 2238.649866" stroke="rgb(128,127,128)" fill="transparent" stroke-width="1.000000"/>
    <polygon points="2266.763955 2238.649866, 2268.667413 2243.289904, 2272.088190 2235.579546," fill="rgb(128,127,128)"/>
    <polyline points="2249.016931 2248.910441, 2250.463371 2258.943886, 2252.580534 2253.212622, 2249.016931 2248.910441" stroke="rgb(128,127,128)" fill="transparent" stroke-width="1.000000"/>
    <polygon points="2249.016931 2248.910441, 2250.463371 2258.943886, 2252.580534 2253.212622," fill="rgb(128,127,128)"/>
    <polyline points="2249.016931 2248.910441, 2249.196612 2260.362141, 2250.463371 2258.943886, 2249.016931 2248.910441" stroke="rgb(128,127,128)" fill="transparent" stroke-width="1.000000"/>
    <polygon points="2249.016931 2248.910441, 2249.196612 2260.362141, 2250.463371 2258.943886," fill="rgb(128,127,128)"/>
    <polyline points="2247.806074 2260.783462, 2249.196612 2260.362141, 2249.016931 2248.910441, 2247.806074 2260.783462" stroke="rgb(128,127,128)" fill="transparent" stroke-width="1.000000"/>
    <polygon points="2247.806074 2260.783462, 2249.196612 2260.362141, 2249.016931 2248.910441," fill="rgb(128,127,128)"/>
    <polyline points="2241.440009 2253.229620, 2247.806074 2260.783462, 2249.016931 2248.910441, 2241.440009 2253.229620" stroke="rgb(128,127,128)" fill="transparent" stroke-width="1.000000"/>
    <polygon points="2241.440009 2253.229620, 2247.806074 2260.783462, 2249.016931 2248.910441," fill="rgb(128,127,128)"/>
    <polyline points="2272.082256 2235.582968, 2273.885890 2237.732353" stroke-dasharray="1.500000,2.000000" stroke-opacity="0.2" stroke="black" fill="transparent" stroke-width="0.500000"/>
    <polyline points="2246.599921 2250.288243, 2241.484389 2253.241737" stroke-dasharray="1.500000,2.000000" stroke-opacity="0.2" stroke="black" fill="transparent" stroke-width="0.500000"/>
    <polyline points="2294.543421 2251.752177, 2299.383786 2252.603416" stroke-dasharray="1.500000,2.000000" stroke-opacity="0.2" stroke="black" fill="transparent" stroke-width="0.500000"/>
    <polyline points="2302.077050 2253.077060, 2302.526172 2253.156043" stroke-dasharray="1.500000,2.000000" stroke-opacity="0.2" stroke="black" fill="transparent" stroke-width="0.500000"/>
    <polyline points="2285.406114 2253.976396, 2285.371919 2254.035124" stroke-dasharray="1.500000,2.000000" stroke-opacity="0.2" stroke="black" fill="transparent" stroke-width="0.500000"/>
    <polyline points="2241.484389 2253.241737, 2247.810927 2260.781992" stroke-dasharray="1.500000,2.000000" stroke-opacity="0.2" stroke="black" fill="transparent" stroke-width="0.500000"/>
    <polyline points="2285.209799 2253.940729, 2285.371919 2254.035124" stroke-dasharray="1.500000,2.000000" stroke-opacity="0.2" stroke="black" fill="transparent" stroke-width="0.500000"/>
    <polyline points="2286.865626 2254.241564, 2286.871475 2254.373219" stroke-dasharray="1.500000,2.000000" stroke-opacity="0.2" stroke="black" fill="transparent" stroke-width="0.500000"/>
    <polyline points="2282.070011 2255.398063, 2282.048224 2255.435480" stroke-dasharray="1.500000,2.000000" stroke-opacity="0.2" stroke="black" fill="transparent" stroke-width="0.500000"/>
    <polyline points="2282.070011 2255.398063, 2282.173298 2255.458204" stroke-dasharray="1.500000,2.000000" stroke-opacity="0.2" stroke="black" fill="transparent" stroke-width="0.500000"/>
    <polyline points="2286.906053 2256.847838, 2287.065291 2257.287093" stroke-dasharray="1.500000,2.000000" stroke-opacity="0.2" stroke="black" fill="transparent" stroke-width="0.500000"/>
    <polyline points="2295.376226 2281.029356, 2295.651629 2281.100973" stroke-dasharray="1.500000,2.000000" stroke-opacity="0.2" stroke="black" fill="transparent" stroke-width="0.500000"/>
    <polyline points="2295.651629 2281.100973, 2295.613042 2281.167245" stroke-dasharray="1.500000,2.000000" stroke-opacity="0.2" stroke="black" fill="transparent" stroke-width="0.500000"/>
    <polyline points="2295.376226 2281.029356, 2295.613042 2281.167245" stroke-dasharray="1.500000,2.000000" stroke-opacity="0.2" stroke="black" fill="transparent" stroke-width="0.500000"/>
    <polyline points="2292.030883 2282.262952, 2292.087861 2282.277769" stroke-dasharray="1.500000,2.000000" stroke-opacity="0.2" stroke="black" fill="transparent" stroke-width="0.500000"/>
    <polyline points="2290.599499 2281.679505, 2289.905741 2281.710319" stroke-dasharray="1.500000,2.000000" stroke-opacity="0.2" stroke="black" fill="transparent" stroke-width="0.500000"/>
    <polyline points="2290.599499 2281.679505, 2290.608990 2281.893196" stroke-dasharray="1.500000,2.000000" stroke-opacity="0.2" stroke="black" fill="transparent" stroke-width="0.500000"/>
    <polyline points="2292.038866 2282.249241, 2292.030883 2282.262952" stroke-dasharray="1.500000,2.000000" stroke-opacity="0.2" stroke="black" fill="transparent" stroke-width="0.500000"/>
    <polyline points="2292.038866 2282.249241, 2292.087861 2282.277769" stroke-dasharray="1.500000,2.000000" stroke-opacity="0.2" stroke="black" fill="transparent" stroke-width="0.500000"/>
    <polyline points="2281.037144 2284.689065, 2282.656187 2284.974624" stroke-dasharray="1.500000,2.000000" stroke-opacity="0.2" stroke="black" fill="transparent" stroke-width="0.500000"/>
    <polyline points="2261.556090 2247.470045, 2263.320012 2249.234541" stroke="black" fill="transparent" stroke-width="0.500000"/>
    <polyline points="2271.190268 2245.542664, 2272.806349 2246.062722" stroke="black" fill="transparent" stroke-width="0.500000"/>
    <polyline points="2275.333573 2239.466004, 2272.806349 2246.062722" stroke="black" fill="transparent" stroke-width="0.500000"/>
    <polyline points="2272.088190 2235.579546, 2275.333573 2239.466004" stroke="black" fill="transparent" stroke-width="0.500000"/>
    <polyline points="2272.088190 2235.579546, 2266.763955 2238.649866" stroke="black" fill="transparent" stroke-width="0.500000"/>
    <polyline points="2272.078208 2235.578144, 2272.082256 2235.582968" stroke="black" fill="transparent" stroke-width="0.500000"/>
    <polyline points="2273.885890 2237.732353, 2279.927532 2244.932159" stroke="black" fill="transparent" stroke-width="0.500000"/>
    <polyline points="2313.276011 2220.455865, 2313.276011 2285.291907" stroke="black" fill="transparent" stroke-width="0.500000"/>
    <polyline points="2305.601132 2220.455863, 2313.276011 2220.455865" stroke="black" fill="transparent" stroke-width="0.500000"/>
    <polyline points="2305.601132 2220.455863, 2305.601132 2285.291905" stroke="black" fill="transparent" stroke-width="0.500000"/>
    <polyline points="2311.955489 2220.466684, 2331.121228 2220.466684" stroke="black" fill="transparent" stroke-width="0.500000"/>
    <polyline points="2311.955489 2220.466684, 2311.955489 2228.141584" stroke="black" fill="transparent" stroke-width="0.500000"/>
    <polyline points="2331.121228 2220.466684, 2331.121228 2228.141584" stroke="black" fill="transparent" stroke-width="0.500000"/>
    <polyline points="2311.955489 2228.141584, 2331.121228 2228.141584" stroke="black" fill="transparent" stroke-width="0.500000"/>
    <polyline points="2272.078208 2235.578144, 2246.599921 2250.288243" stroke="black" fill="transparent" stroke-width="0.500000"/>
    <polyline points="2266.763955 2238.649866, 2268.667413 2243.289904" stroke="black" fill="transparent" stroke-width="0.500000"/>
    <polyline points="2268.667413 2243.289904, 2271.190268 2245.542664" stroke="black" fill="transparent" stroke-width="0.500000"/>
    <polyline points="2279.927532 2244.932159, 2290.505864 2251.042122" stroke="black" fill="transparent" stroke-width="0.500000"/>
    <polyline points="2261.556090 2247.470045, 2257.635448 2251.389425" stroke="black" fill="transparent" stroke-width="0.500000"/>
    <polyline points="2263.320012 2249.234541, 2259.399370 2253.153925" stroke="black" fill="transparent" stroke-width="0.500000"/>
    <polyline points="2249.016931 2248.910441, 2252.580534 2253.212622" stroke="black" fill="transparent" stroke-width="0.500000"/>
    <polyline points="2249.016931 2248.910441, 2241.440009 2253.229620" stroke="black" fill="transparent" stroke-width="0.500000"/>
    <polyline points="2257.635448 2251.389425, 2259.399370 2253.153925" stroke="black" fill="transparent" stroke-width="0.500000"/>
    <polyline points="2290.508208 2251.044003, 2294.362969 2251.720565" stroke="black" fill="transparent" stroke-width="0.500000"/>
    <polyline points="2288.472452 2250.880381, 2287.399700 2251.269285" stroke="black" fill="transparent" stroke-width="0.500000"/>
    <polyline points="2288.472452 2250.880381, 2289.215952 2252.931245" stroke="black" fill="transparent" stroke-width="0.500000"/>
    <polyline points="2290.505864 2251.042122, 2294.543421 2251.752177" stroke="black" fill="transparent" stroke-width="0.500000"/>
    <polyline points="2299.383786 2252.603416, 2302.077050 2253.077060" stroke="black" fill="transparent" stroke-width="0.500000"/>
    <polyline points="2302.526172 2253.156043, 2302.527874 2253.156343" stroke="black" fill="transparent" stroke-width="0.500000"/>
    <polyline points="2290.508208 2251.044003, 2286.751745 2257.096462" stroke="black" fill="transparent" stroke-width="0.500000"/>
    <polyline points="2287.399700 2251.269285, 2288.143209 2253.320165" stroke="black" fill="transparent" stroke-width="0.500000"/>
    <polyline points="2302.526268 2253.155802, 2299.439012 2260.934504" stroke="black" fill="transparent" stroke-width="0.500000"/>
    <polyline points="2300.766508 2252.847338, 2302.526268 2253.155802" stroke="black" fill="transparent" stroke-width="0.500000"/>
    <polyline points="2296.694374 2252.128983, 2300.766508 2252.847338" stroke="black" fill="transparent" stroke-width="0.500000"/>
    <polyline points="2294.362969 2251.720565, 2296.694374 2252.128983" stroke="black" fill="transparent" stroke-width="0.500000"/>
    <polyline points="2282.676931 2251.836558, 2282.337828 2253.140583" stroke="black" fill="transparent" stroke-width="0.500000"/>
    <polyline points="2282.676931 2251.836558, 2283.793193 2252.126843" stroke="black" fill="transparent" stroke-width="0.500000"/>
    <polyline points="2283.793193 2252.126843, 2283.454090 2253.430864" stroke="black" fill="transparent" stroke-width="0.500000"/>
    <polyline points="2280.490818 2252.846761, 2281.522968 2253.712843" stroke="black" fill="transparent" stroke-width="0.500000"/>
    <polyline points="2285.053158 2252.290383, 2284.375165 2253.454762" stroke="black" fill="transparent" stroke-width="0.500000"/>
    <polyline points="2285.053158 2252.290383, 2286.049895 2252.870745" stroke="black" fill="transparent" stroke-width="0.500000"/>
    <polyline points="2280.490818 2252.846761, 2279.749424 2253.730300" stroke="black" fill="transparent" stroke-width="0.500000"/>
    <polyline points="2289.215952 2252.931245, 2288.143209 2253.320165" stroke="black" fill="transparent" stroke-width="0.500000"/>
    <polyline points="2286.049895 2252.870745, 2285.406114 2253.976396" stroke="black" fill="transparent" stroke-width="0.500000"/>
    <polyline points="2282.337828 2253.140583, 2283.454090 2253.430864" stroke="black" fill="transparent" stroke-width="0.500000"/>
    <polyline points="2281.938471 2253.346387, 2281.574552 2255.349422" stroke="black" fill="transparent" stroke-width="0.500000"/>
    <polyline points="2281.938471 2253.346387, 2287.812752 2254.413640" stroke="black" fill="transparent" stroke-width="0.500000"/>
    <polyline points="2252.580534 2253.212622, 2250.463371 2258.943886" stroke="black" fill="transparent" stroke-width="0.500000"/>
    <polyline points="2302.527874 2253.156343, 2302.527866 2288.479484" stroke="black" fill="transparent" stroke-width="0.500000"/>
    <polyline points="2241.440009 2253.229620, 2247.806074 2260.783462" stroke="black" fill="transparent" stroke-width="0.500000"/>
    <polyline points="2247.810927 2260.781992, 2257.218310 2271.994137" stroke="black" fill="transparent" stroke-width="0.500000"/>
    <polyline points="2288.176803 2253.396741, 2286.830751 2253.456520" stroke="black" fill="transparent" stroke-width="0.500000"/>
    <polyline points="2288.176803 2253.396741, 2288.217527 2254.313448" stroke="black" fill="transparent" stroke-width="0.500000"/>
    <polyline points="2284.375165 2253.454762, 2285.209799 2253.940729" stroke="black" fill="transparent" stroke-width="0.500000"/>
    <polyline points="2286.830751 2253.456520, 2286.865626 2254.241564" stroke="black" fill="transparent" stroke-width="0.500000"/>
    <polyline points="2288.217527 2254.313448, 2286.871475 2254.373219" stroke="black" fill="transparent" stroke-width="0.500000"/>
    <polyline points="2281.522968 2253.712843, 2280.781591 2254.596386" stroke="black" fill="transparent" stroke-width="0.500000"/>
    <polyline points="2279.749424 2253.730300, 2280.781591 2254.596386" stroke="black" fill="transparent" stroke-width="0.500000"/>
    <polyline points="2287.812752 2254.413640, 2287.448841 2256.416683" stroke="black" fill="transparent" stroke-width="0.500000"/>
    <polyline points="2259.396068 2254.926101, 2259.747152 2258.938903" stroke="black" fill="transparent" stroke-width="0.500000"/>
    <polyline points="2257.786690 2255.066902, 2258.137767 2259.079704" stroke="black" fill="transparent" stroke-width="0.500000"/>
    <polyline points="2259.747152 2258.938903, 2258.137767 2259.079704" stroke="black" fill="transparent" stroke-width="0.500000"/>
    <polyline points="2295.789436 2258.743445, 2297.822905 2260.414441" stroke="black" fill="transparent" stroke-width="0.500000"/>
    <polyline points="2286.751745 2257.096462, 2293.414242 2261.147160" stroke="black" fill="transparent" stroke-width="0.500000"/>
    <polyline points="2281.574552 2255.349422, 2287.448841 2256.416683" stroke="black" fill="transparent" stroke-width="0.500000"/>
    <polyline points="2285.684394 2256.862103, 2286.143612 2258.128821" stroke="black" fill="transparent" stroke-width="0.500000"/>
    <polyline points="2286.768718 2256.469003, 2285.684394 2256.862103" stroke="black" fill="transparent" stroke-width="0.500000"/>
    <polyline points="2280.668934 2255.536385, 2279.419648 2256.041121" stroke="black" fill="transparent" stroke-width="0.500000"/>
    <polyline points="2282.048224 2255.435480, 2281.392027 2256.562462" stroke="black" fill="transparent" stroke-width="0.500000"/>
    <polyline points="2282.173298 2255.458204, 2283.066723 2255.978421" stroke="black" fill="transparent" stroke-width="0.500000"/>
    <polyline points="2280.668934 2255.536385, 2281.100991 2256.605785" stroke="black" fill="transparent" stroke-width="0.500000"/>
    <polyline points="2283.066723 2255.978421, 2282.388747 2257.142824" stroke="black" fill="transparent" stroke-width="0.500000"/>
    <polyline points="2279.419648 2256.041121, 2279.851706 2257.110521" stroke="black" fill="transparent" stroke-width="0.500000"/>
    <polyline points="2283.820927 2256.106441, 2283.703508 2257.448722" stroke="black" fill="transparent" stroke-width="0.500000"/>
    <polyline points="2283.820927 2256.106441, 2284.969931 2256.206960" stroke="black" fill="transparent" stroke-width="0.500000"/>
    <polyline points="2284.969931 2256.206960, 2284.852496 2257.549242" stroke="black" fill="transparent" stroke-width="0.500000"/>
    <polyline points="2286.768718 2256.469003, 2286.906053 2256.847838" stroke="black" fill="transparent" stroke-width="0.500000"/>
    <polyline points="2287.065291 2257.287093, 2287.227928 2257.735721" stroke="black" fill="transparent" stroke-width="0.500000"/>
    <polyline points="2281.100991 2256.605785, 2279.851706 2257.110521" stroke="black" fill="transparent" stroke-width="0.500000"/>
    <polyline points="2281.392027 2256.562462, 2282.388747 2257.142824" stroke="black" fill="transparent" stroke-width="0.500000"/>
    <polyline points="2287.227928 2257.735721, 2286.143612 2258.128821" stroke="black" fill="transparent" stroke-width="0.500000"/>
    <polyline points="2283.703508 2257.448722, 2284.852496 2257.549242" stroke="black" fill="transparent" stroke-width="0.500000"/>
    <polyline points="2295.789436 2258.743445, 2293.414242 2261.147160" stroke="black" fill="transparent" stroke-width="0.500000"/>
    <polyline points="2257.097769 2261.970900, 2255.312451 2263.713702" stroke="black" fill="transparent" stroke-width="0.500000"/>
    <polyline points="2297.822905 2260.414441, 2299.439012 2260.934504" stroke="black" fill="transparent" stroke-width="0.500000"/>
    <polyline points="2250.463371 2258.943886, 2249.196612 2260.362141" stroke="black" fill="transparent" stroke-width="0.500000"/>
    <polyline points="2249.196612 2260.362141, 2247.806074 2260.783462" stroke="black" fill="transparent" stroke-width="0.500000"/>
    <polyline points="2257.097769 2261.970900, 2260.970270 2265.937859" stroke="black" fill="transparent" stroke-width="0.500000"/>
    <polyline points="2255.312451 2263.713702, 2259.184932 2267.680678" stroke="black" fill="transparent" stroke-width="0.500000"/>
    <polyline points="2260.970270 2265.937859, 2259.184932 2267.680678" stroke="black" fill="transparent" stroke-width="0.500000"/>
    <polyline points="2305.743007 2265.478387, 2305.743007 2275.039890" stroke="black" fill="transparent" stroke-width="0.500000"/>
    <polyline points="2304.686007 2265.478387, 2305.743007 2265.478387" stroke="black" fill="transparent" stroke-width="0.500000"/>
    <polyline points="2304.686007 2265.478387, 2304.686007 2275.039890" stroke="black" fill="transparent" stroke-width="0.500000"/>
    <polyline points="2290.314553 2279.713093, 2289.802186 2281.683390" stroke="black" fill="transparent" stroke-width="0.500000"/>
    <polyline points="2290.314553 2279.713093, 2295.376226 2281.029356" stroke="black" fill="transparent" stroke-width="0.500000"/>
    <polyline points="2295.651629 2281.100973, 2296.092831 2281.215706" stroke="black" fill="transparent" stroke-width="0.500000"/>
    <polyline points="2292.970661 2278.761186, 2292.631550 2280.065210" stroke="black" fill="transparent" stroke-width="0.500000"/>
    <polyline points="2292.970661 2278.761186, 2294.086915 2279.051467" stroke="black" fill="transparent" stroke-width="0.500000"/>
    <polyline points="2290.510601 2278.377269, 2290.969860 2279.643971" stroke="black" fill="transparent" stroke-width="0.500000"/>
    <polyline points="2291.594949 2277.984149, 2290.510601 2278.377269" stroke="black" fill="transparent" stroke-width="0.500000"/>
    <polyline points="2285.943712 2277.119419, 2282.640370 2285.012417" stroke="black" fill="transparent" stroke-width="0.500000"/>
    <polyline points="2284.309854 2276.203458, 2285.943712 2277.119419" stroke="black" fill="transparent" stroke-width="0.500000"/>
    <polyline points="2284.309854 2276.203458, 2279.499891 2277.042323" stroke="black" fill="transparent" stroke-width="0.500000"/>
    <polyline points="2277.506950 2275.919537, 2279.499891 2277.042323" stroke="black" fill="transparent" stroke-width="0.500000"/>
    <polyline points="2271.915049 2273.270018, 2277.506950 2275.919537" stroke="black" fill="transparent" stroke-width="0.500000"/>
    <polyline points="2257.218310 2271.994137, 2278.428713 2284.229004" stroke="black" fill="transparent" stroke-width="0.500000"/>
    <polyline points="2302.814795 2267.764130, 2302.814795 2271.571808" stroke="black" fill="transparent" stroke-width="0.500000"/>
    <polyline points="2302.433190 2267.764130, 2302.814795 2267.764130" stroke="black" fill="transparent" stroke-width="0.500000"/>
    <polyline points="2302.433190 2267.764130, 2302.433190 2271.571808" stroke="black" fill="transparent" stroke-width="0.500000"/>
    <polyline points="2302.433190 2271.571808, 2302.814795 2271.571808" stroke="black" fill="transparent" stroke-width="0.500000"/>
    <polyline points="2271.915049 2273.270018, 2270.636710 2279.731623" stroke="black" fill="transparent" stroke-width="0.500000"/>
    <polyline points="2304.686007 2275.039890, 2305.743007 2275.039890" stroke="black" fill="transparent" stroke-width="0.500000"/>
    <polyline points="2291.594949 2277.984149, 2292.054167 2279.250859" stroke="black" fill="transparent" stroke-width="0.500000"/>
    <polyline points="2294.086915 2279.051467, 2293.747813 2280.355483" stroke="black" fill="transparent" stroke-width="0.500000"/>
    <polyline points="2295.294289 2279.422508, 2294.616313 2280.586887" stroke="black" fill="transparent" stroke-width="0.500000"/>
    <polyline points="2295.294289 2279.422508, 2296.291026 2280.002850" stroke="black" fill="transparent" stroke-width="0.500000"/>
    <polyline points="2292.054167 2279.250859, 2290.969860 2279.643971" stroke="black" fill="transparent" stroke-width="0.500000"/>
    <polyline points="2297.757332 2279.609565, 2296.508046 2280.114310" stroke="black" fill="transparent" stroke-width="0.500000"/>
    <polyline points="2297.757332 2279.609565, 2298.189390 2280.678965" stroke="black" fill="transparent" stroke-width="0.500000"/>
    <polyline points="2292.631550 2280.065210, 2293.747813 2280.355483" stroke="black" fill="transparent" stroke-width="0.500000"/>
    <polyline points="2270.636710 2279.731623, 2274.614389 2282.024386" stroke="black" fill="transparent" stroke-width="0.500000"/>
    <polyline points="2296.291026 2280.002850, 2295.651629 2281.100973" stroke="black" fill="transparent" stroke-width="0.500000"/>
    <polyline points="2294.616313 2280.586887, 2295.376226 2281.029356" stroke="black" fill="transparent" stroke-width="0.500000"/>
    <polyline points="2288.633103 2280.113827, 2287.600944 2280.979925" stroke="black" fill="transparent" stroke-width="0.500000"/>
    <polyline points="2288.633103 2280.113827, 2289.374489 2280.997366" stroke="black" fill="transparent" stroke-width="0.500000"/>
    <polyline points="2296.508046 2280.114310, 2296.940112 2281.183710" stroke="black" fill="transparent" stroke-width="0.500000"/>
    <polyline points="2298.189390 2280.678965, 2296.940112 2281.183710" stroke="black" fill="transparent" stroke-width="0.500000"/>
    <polyline points="2287.600944 2280.979925, 2288.342330 2281.863464" stroke="black" fill="transparent" stroke-width="0.500000"/>
    <polyline points="2289.374489 2280.997366, 2288.342330 2281.863464" stroke="black" fill="transparent" stroke-width="0.500000"/>
    <polyline points="2289.802186 2281.683390, 2292.030883 2282.262952" stroke="black" fill="transparent" stroke-width="0.500000"/>
    <polyline points="2292.087861 2282.277769, 2295.580456 2283.186003" stroke="black" fill="transparent" stroke-width="0.500000"/>
    <polyline points="2296.092831 2281.215706, 2295.580456 2283.186003" stroke="black" fill="transparent" stroke-width="0.500000"/>
    <polyline points="2289.905741 2281.710319, 2289.253414 2281.739292" stroke="black" fill="transparent" stroke-width="0.500000"/>
    <polyline points="2290.608990 2281.893196, 2290.640215 2282.596204" stroke="black" fill="transparent" stroke-width="0.500000"/>
    <polyline points="2293.922314 2283.044185, 2293.583195 2284.348202" stroke="black" fill="transparent" stroke-width="0.500000"/>
    <polyline points="2293.922314 2283.044185, 2295.038576 2283.334467" stroke="black" fill="transparent" stroke-width="0.500000"/>
    <polyline points="2292.030883 2282.262952, 2291.360882 2283.413653" stroke="black" fill="transparent" stroke-width="0.500000"/>
    <polyline points="2292.087861 2282.277769, 2293.035603 2282.829607" stroke="black" fill="transparent" stroke-width="0.500000"/>
    <polyline points="2296.637185 2282.071781, 2297.669344 2282.937863" stroke="black" fill="transparent" stroke-width="0.500000"/>
    <polyline points="2289.253414 2281.739292, 2289.294130 2282.655983" stroke="black" fill="transparent" stroke-width="0.500000"/>
    <polyline points="2274.614389 2282.024386, 2278.419551 2284.213490" stroke="black" fill="transparent" stroke-width="0.500000"/>
    <polyline points="2296.637185 2282.071781, 2295.895791 2282.955328" stroke="black" fill="transparent" stroke-width="0.500000"/>
    <polyline points="2289.284976 2282.695355, 2288.212224 2283.084246" stroke="black" fill="transparent" stroke-width="0.500000"/>
    <polyline points="2290.640215 2282.596204, 2289.294130 2282.655983" stroke="black" fill="transparent" stroke-width="0.500000"/>
    <polyline points="2289.284976 2282.695355, 2290.028468 2284.746223" stroke="black" fill="transparent" stroke-width="0.500000"/>
    <polyline points="2293.035603 2282.829607, 2292.357627 2283.994011" stroke="black" fill="transparent" stroke-width="0.500000"/>
    <polyline points="2297.669344 2282.937863, 2296.927974 2283.821402" stroke="black" fill="transparent" stroke-width="0.500000"/>
    <polyline points="2295.895791 2282.955328, 2296.927974 2283.821402" stroke="black" fill="transparent" stroke-width="0.500000"/>
    <polyline points="2288.212224 2283.084246, 2288.955749 2285.135122" stroke="black" fill="transparent" stroke-width="0.500000"/>
    <polyline points="2293.583195 2284.348202, 2294.699457 2284.638483" stroke="black" fill="transparent" stroke-width="0.500000"/>
    <polyline points="2295.038576 2283.334467, 2294.699457 2284.638483" stroke="black" fill="transparent" stroke-width="0.500000"/>
    <polyline points="2291.360882 2283.413653, 2292.357627 2283.994011" stroke="black" fill="transparent" stroke-width="0.500000"/>
    <polyline points="2278.419551 2284.213490, 2280.940316 2284.669536" stroke="black" fill="transparent" stroke-width="0.500000"/>
    <polyline points="2278.428713 2284.229004, 2281.037144 2284.689065" stroke="black" fill="transparent" stroke-width="0.500000"/>
    <polyline points="2282.656187 2284.974624, 2302.527866 2288.479484" stroke="black" fill="transparent" stroke-width="0.500000"/>
    <polyline points="2290.028468 2284.746223, 2288.955749 2285.135122" stroke="black" fill="transparent" stroke-width="0.500000"/>
    <polyline points="2280.940316 2284.669536, 2282.640370 2285.012417" stroke="black" fill="transparent" stroke-width="0.500000"/>
    <polyline points="2305.601132 2285.291905, 2313.276011 2285.291905" stroke="black" fill="transparent" stroke-width="0.500000"/>
    <polyline points="2259.396068 2254.926101, 2257.786690 2255.066902" stroke="black" fill="transparent" stroke-width="0.500000"/>
  </g>
</svg>
