<svg version="1.1" baseProfile="full" width="4400" height="4400" xmlns="http://www.w3.org/2000/svg">
  <g stroke-linejoin="round" stroke-linecap="round">
    <polyline points="2435.897247 2354.549502, 2435.897247 2301.836613, 2342.545497 2354.549485, 2435.897247 2354.549502" stroke="rgb(231,231,231)" fill="transparent" stroke-width="1.000000"/>
    <polygon points="2435.897247 2354.549502, 2435.897247 2301.836613, 2342.545497 2354.549485," fill="rgb(231,231,231)"/>
    <polyline points="2435.897247 2301.836613, 2342.545497 2301.836613, 2342.545497 2354.549485, 2435.897247 2301.836613" stroke="rgb(231,231,231)" fill="transparent" stroke-width="1.000000"/>
    <polygon points="2435.897247 2301.836613, 2342.545497 2301.836613, 2342.545497 2354.549485," fill="rgb(231,231,231)"/>
    <polyline points="2343.121323 2331.285993, 2343.121323 2325.100081, 2340.742490 2331.285993, 2343.121323 2331.285993" stroke="rgb(231,231,231)" fill="transparent" stroke-width="1.000000"/>
    <polygon points="2343.121323 2331.285993, 2343.121323 2325.100081, 2340.742490 2331.285993," fill="rgb(231,231,231)"/>
    <polyline points="2343.121323 2325.100081, 2340.742490 2325.100081, 2340.742490 2331.285993, 2343.121323 2325.100081" stroke="rgb(231,231,231)" fill="transparent" stroke-width="1.000000"/>
    <polygon points="2343.121323 2325.100081, 2340.742490 2325.100081, 2340.742490 2331.285993," fill="rgb(231,231,231)"/>
    <polyline points="2371.660028 2323.812488, 2371.664503 2324.354810, 2374.686415 2323.812488, 2371.660028 2323.812488" stroke="rgb(231,231,231)" fill="transparent" stroke-width="1.000000"/>
    <polygon points="2371.660028 2323.812488, 2371.664503 2324.354810, 2374.686415 2323.812488," fill="rgb(231,231,231)"/>
    <polyline points="2371.664503 2324.354810, 2375.121669 2324.350155, 2374.686415 2323.812488, 2371.664503 2324.354810" stroke="rgb(231,231,231)" fill="transparent" stroke-width="1.000000"/>
    <polygon points="2371.664503 2324.354810, 2375.121669 2324.350155, 2374.686415 2323.812488," fill="rgb(231,231,231)"/>
    <polyline points="2375.121669 2324.350155, 2375.121669 2301.836400, 2374.686415 2323.812488, 2375.121669 2324.350155" stroke="rgb(231,231,231)" fill="transparent" stroke-width="1.000000"/>
    <polygon points="2375.121669 2324.350155, 2375.121669 2301.836400, 2374.686415 2323.812488," fill="rgb(231,231,231)"/>
    <polyline points="2375.121669 2301.836400, 2374.686415 2301.836400, 2374.686415 2323.812488, 2375.121669 2301.836400" stroke="rgb(231,231,231)" fill="transparent" stroke-width="1.000000"/>
    <polygon points="2375.121669 2301.836400, 2374.686415 2301.836400, 2374.686415 2323.812488," fill="rgb(231,231,231)"/>
    <polyline points="2374.687169 2354.424010, 2375.120080 2354.424010, 2374.687169 2332.274854, 2374.687169 2354.424010" stroke="rgb(231,231,231)" fill="transparent" stroke-width="1.000000"/>
    <polygon points="2374.687169 2354.424010, 2375.120080 2354.424010, 2374.687169 2332.274854," fill="rgb(231,231,231)"/>
    <polyline points="2375.120080 2354.424010, 2375.115441 2331.689145, 2374.687169 2332.274854, 2375.120080 2354.424010" stroke="rgb(231,231,231)" fill="transparent" stroke-width="1.000000"/>
    <polygon points="2375.120080 2354.424010, 2375.115441 2331.689145, 2374.687169 2332.274854," fill="rgb(231,231,231)"/>
    <polyline points="2375.115441 2331.689145, 2371.631278 2331.689136, 2374.687169 2332.274854, 2375.115441 2331.689145" stroke="rgb(231,231,231)" fill="transparent" stroke-width="1.000000"/>
    <polygon points="2375.115441 2331.689145, 2371.631278 2331.689136, 2374.687169 2332.274854," fill="rgb(231,231,231)"/>
    <polyline points="2371.631278 2331.689136, 2371.631278 2332.274838, 2374.687169 2332.274854, 2371.631278 2331.689136" stroke="rgb(231,231,231)" fill="transparent" stroke-width="1.000000"/>
    <polygon points="2371.631278 2331.689136, 2371.631278 2332.274838, 2374.687169 2332.274854," fill="rgb(231,231,231)"/>
    <polyline points="2436.226401 2323.789492, 2436.226401 2301.828942, 2430.805412 2323.789492, 2436.226401 2323.789492" stroke="rgb(231,231,231)" fill="transparent" stroke-width="1.000000"/>
    <polygon points="2436.226401 2323.789492, 2436.226401 2301.828942, 2430.805412 2323.789492," fill="rgb(231,231,231)"/>
    <polyline points="2436.226401 2301.828942, 2430.805412 2301.828942, 2430.805412 2323.789492, 2436.226401 2301.828942" stroke="rgb(231,231,231)" fill="transparent" stroke-width="1.000000"/>
    <polygon points="2436.226401 2301.828942, 2430.805412 2301.828942, 2430.805412 2323.789492," fill="rgb(231,231,231)"/>
    <polyline points="2436.226401 2354.565926, 2436.226401 2332.605392, 2430.805412 2354.565926, 2436.226401 2354.565926" stroke="rgb(231,231,231)" fill="transparent" stroke-width="1.000000"/>
    <polygon points="2436.226401 2354.565926, 2436.226401 2332.605392, 2430.805412 2354.565926," fill="rgb(231,231,231)"/>
    <polyline points="2436.226401 2332.605392, 2430.805412 2332.605392, 2430.805412 2354.565926, 2436.226401 2332.605392" stroke="rgb(231,231,231)" fill="transparent" stroke-width="1.000000"/>
    <polygon points="2436.226401 2332.605392, 2430.805412 2332.605392, 2430.805412 2354.565926," fill="rgb(231,231,231)"/>
    <polyline points="2435.897247 2301.836613, 2435.897247 2354.549502" stroke-dasharray="1.500000,2.000000" stroke-opacity="0.2" stroke="black" fill="transparent" stroke-width="0.500000"/>
    <polyline points="2430.805412 2354.549501, 2435.897247 2354.549502" stroke-dasharray="1.500000,2.000000" stroke-opacity="0.2" stroke="black" fill="transparent" stroke-width="0.500000"/>
    <polyline points="2371.660028 2323.812488, 2374.686415 2323.812488" stroke="black" fill="transparent" stroke-width="0.500000"/>
    <polyline points="2375.121669 2301.836400, 2375.121669 2324.350155" stroke="black" fill="transparent" stroke-width="0.500000"/>
    <polyline points="2374.686415 2301.836400, 2375.121669 2301.836400" stroke="black" fill="transparent" stroke-width="0.500000"/>
    <polyline points="2436.226401 2301.828942, 2436.226401 2323.789492" stroke="black" fill="transparent" stroke-width="0.500000"/>
    <polyline points="2430.805412 2301.828942, 2436.226401 2301.828942" stroke="black" fill="transparent" stroke-width="0.500000"/>
    <polyline points="2430.805412 2301.828942, 2430.805412 2323.789492" stroke="black" fill="transparent" stroke-width="0.500000"/>
    <polyline points="2374.686415 2301.836400, 2374.686415 2323.812488" stroke="black" fill="transparent" stroke-width="0.500000"/>
    <polyline points="2430.805412 2323.789492, 2436.226401 2323.789492" stroke="black" fill="transparent" stroke-width="0.500000"/>
    <polyline points="2342.545497 2301.836613, 2435.897247 2301.836613" stroke="black" fill="transparent" stroke-width="0.500000"/>
    <polyline points="2342.545497 2301.836613, 2342.545497 2354.549485" stroke="black" fill="transparent" stroke-width="0.500000"/>
    <polyline points="2375.121669 2324.350155, 2371.664503 2324.354810" stroke="black" fill="transparent" stroke-width="0.500000"/>
    <polyline points="2374.687169 2354.424010, 2375.120080 2354.424010" stroke="black" fill="transparent" stroke-width="0.500000"/>
    <polyline points="2374.687169 2332.274854, 2374.687169 2354.424010" stroke="black" fill="transparent" stroke-width="0.500000"/>
    <polyline points="2375.115441 2331.689145, 2375.120080 2354.424010" stroke="black" fill="transparent" stroke-width="0.500000"/>
    <polyline points="2371.631278 2331.689136, 2375.115441 2331.689145" stroke="black" fill="transparent" stroke-width="0.500000"/>
    <polyline points="2343.121323 2325.100081, 2343.121323 2331.285993" stroke="black" fill="transparent" stroke-width="0.500000"/>
    <polyline points="2340.742490 2325.100081, 2343.121323 2325.100081" stroke="black" fill="transparent" stroke-width="0.500000"/>
    <polyline points="2340.742490 2325.100081, 2340.742490 2331.285993" stroke="black" fill="transparent" stroke-width="0.500000"/>
    <polyline points="2340.742490 2331.285993, 2343.121323 2331.285993" stroke="black" fill="transparent" stroke-width="0.500000"/>
    <polyline points="2371.631278 2331.689136, 2371.631278 2332.274838" stroke="black" fill="transparent" stroke-width="0.500000"/>
    <polyline points="2371.631278 2332.274838, 2374.687169 2332.274854" stroke="black" fill="transparent" stroke-width="0.500000"/>
    <polyline points="2436.226401 2332.605392, 2436.226401 2354.565926" stroke="black" fill="transparent" stroke-width="0.500000"/>
    <polyline points="2430.805412 2332.605392, 2436.226401 2332.605392" stroke="black" fill="transparent" stroke-width="0.500000"/>
    <polyline points="2430.805412 2332.605392, 2430.805412 2354.565926" stroke="black" fill="transparent" stroke-width="0.500000"/>
    <polyline points="2430.805412 2354.565926, 2436.226401 2354.565926" stroke="black" fill="transparent" stroke-width="0.500000"/>
    <polyline points="2342.545497 2354.549485, 2430.805412 2354.549501" stroke="black" fill="transparent" stroke-width="0.500000"/>
    <polyline points="2371.660028 2323.812488, 2371.664503 2324.354810" stroke="black" fill="transparent" stroke-width="0.500000"/>
  </g>
</svg>
