<svg version="1.1" baseProfile="full" width="4400" height="4400" xmlns="http://www.w3.org/2000/svg">
  <g stroke-linejoin="round" stroke-linecap="round">
    <polyline points="2426.765618 2342.123717, 2426.765618 2336.923707, 2413.605291 2342.123717, 2426.765618 2342.123717" stroke="rgb(231,231,231)" fill="transparent" stroke-width="1.000000"/>
    <polygon points="2426.765618 2342.123717, 2426.765618 2336.923707, 2413.605291 2342.123717," fill="rgb(231,231,231)"/>
    <polyline points="2426.765618 2336.923707, 2413.605291 2336.923707, 2413.605291 2342.123717, 2426.765618 2336.923707" stroke="rgb(231,231,231)" fill="transparent" stroke-width="1.000000"/>
    <polygon points="2426.765618 2336.923707, 2413.605291 2336.923707, 2413.605291 2342.123717," fill="rgb(231,231,231)"/>
    <polyline points="2430.174397 2310.472546, 2424.974395 2310.472546, 2430.174397 2342.126405, 2430.174397 2310.472546" stroke="rgb(231,231,231)" fill="transparent" stroke-width="1.000000"/>
    <polygon points="2430.174397 2310.472546, 2424.974395 2310.472546, 2430.174397 2342.126405," fill="rgb(231,231,231)"/>
    <polyline points="2424.974395 2310.472546, 2424.974395 2342.126405, 2430.174397 2342.126405, 2424.974395 2310.472546" stroke="rgb(231,231,231)" fill="transparent" stroke-width="1.000000"/>
    <polygon points="2424.974395 2310.472546, 2424.974395 2342.126405, 2430.174397 2342.126405," fill="rgb(231,231,231)"/>
    <polyline points="2445.925890 2295.244869, 2440.725888 2295.244869, 2445.925923 2327.109569, 2445.925890 2295.244869" stroke="rgb(231,231,231)" fill="transparent" stroke-width="1.000000"/>
    <polygon points="2445.925890 2295.244869, 2440.725888 2295.244869, 2445.925923 2327.109569," fill="rgb(231,231,231)"/>
    <polyline points="2440.725888 2295.244869, 2440.725905 2327.109569, 2445.925923 2327.109569, 2440.725888 2295.244869" stroke="rgb(231,231,231)" fill="transparent" stroke-width="1.000000"/>
    <polygon points="2440.725888 2295.244869, 2440.725905 2327.109569, 2445.925923 2327.109569," fill="rgb(231,231,231)"/>
    <polyline points="2481.612700 2331.798663, 2481.612700 2326.598653, 2425.027667 2331.798663, 2481.612700 2331.798663" stroke="rgb(231,231,231)" fill="transparent" stroke-width="1.000000"/>
    <polygon points="2481.612700 2331.798663, 2481.612700 2326.598653, 2425.027667 2331.798663," fill="rgb(231,231,231)"/>
    <polyline points="2481.612700 2326.598653, 2425.027667 2326.598645, 2425.027667 2331.798663, 2481.612700 2326.598653" stroke="rgb(231,231,231)" fill="transparent" stroke-width="1.000000"/>
    <polygon points="2481.612700 2326.598653, 2425.027667 2326.598645, 2425.027667 2331.798663," fill="rgb(231,231,231)"/>
    <polyline points="2485.273102 2326.603603, 2480.073100 2326.603603, 2485.273102 2356.310073, 2485.273102 2326.603603" stroke="rgb(231,231,231)" fill="transparent" stroke-width="1.000000"/>
    <polygon points="2485.273102 2326.603603, 2480.073100 2326.603603, 2485.273102 2356.310073," fill="rgb(231,231,231)"/>
    <polyline points="2480.073100 2326.603603, 2480.073100 2356.310073, 2485.273102 2356.310073, 2480.073100 2326.603603" stroke="rgb(231,231,231)" fill="transparent" stroke-width="1.000000"/>
    <polygon points="2480.073100 2326.603603, 2480.073100 2356.310073, 2485.273102 2356.310073," fill="rgb(231,231,231)"/>
    <polyline points="2480.438167 2356.304696, 2480.438167 2351.104711, 2470.780459 2356.304696, 2480.438167 2356.304696" stroke="rgb(231,231,231)" fill="transparent" stroke-width="1.000000"/>
    <polygon points="2480.438167 2356.304696, 2480.438167 2351.104711, 2470.780459 2356.304696," fill="rgb(231,231,231)"/>
    <polyline points="2480.438167 2351.104711, 2470.780459 2351.104711, 2470.780459 2356.304696, 2480.438167 2351.104711" stroke="rgb(231,231,231)" fill="transparent" stroke-width="1.000000"/>
    <polygon points="2480.438167 2351.104711, 2470.780459 2351.104711, 2470.780459 2356.304696," fill="rgb(231,231,231)"/>
    <polyline points="2424.974395 2336.923707, 2426.765618 2336.923707" stroke-dasharray="1.500000,2.000000" stroke-opacity="0.2" stroke="black" fill="transparent" stroke-width="0.500000"/>
    <polyline points="2425.027667 2326.598645, 2430.174397 2326.598646" stroke-dasharray="1.500000,2.000000" stroke-opacity="0.2" stroke="black" fill="transparent" stroke-width="0.500000"/>
    <polyline points="2440.725904 2326.598647, 2445.925922 2326.598648" stroke-dasharray="1.500000,2.000000" stroke-opacity="0.2" stroke="black" fill="transparent" stroke-width="0.500000"/>
    <polyline points="2425.027667 2326.598645, 2425.027667 2331.798663" stroke-dasharray="1.500000,2.000000" stroke-opacity="0.2" stroke="black" fill="transparent" stroke-width="0.500000"/>
    <polyline points="2480.438167 2351.104711, 2480.438167 2356.304696" stroke-dasharray="1.500000,2.000000" stroke-opacity="0.2" stroke="black" fill="transparent" stroke-width="0.500000"/>
    <polyline points="2426.765618 2336.923707, 2426.765618 2342.123717" stroke-dasharray="1.500000,2.000000" stroke-opacity="0.2" stroke="black" fill="transparent" stroke-width="0.500000"/>
    <polyline points="2413.605291 2336.923707, 2424.974395 2336.923707" stroke="black" fill="transparent" stroke-width="0.500000"/>
    <polyline points="2424.974395 2310.472546, 2430.174397 2310.472546" stroke="black" fill="transparent" stroke-width="0.500000"/>
    <polyline points="2440.725888 2295.244869, 2445.925890 2295.244869" stroke="black" fill="transparent" stroke-width="0.500000"/>
    <polyline points="2440.725888 2295.244869, 2440.725905 2327.109569" stroke="black" fill="transparent" stroke-width="0.500000"/>
    <polyline points="2445.925890 2295.244869, 2445.925923 2327.109569" stroke="black" fill="transparent" stroke-width="0.500000"/>
    <polyline points="2424.974395 2310.472546, 2424.974395 2342.126405" stroke="black" fill="transparent" stroke-width="0.500000"/>
    <polyline points="2430.174397 2310.472546, 2430.174397 2342.126405" stroke="black" fill="transparent" stroke-width="0.500000"/>
    <polyline points="2440.725905 2327.109569, 2445.925923 2327.109569" stroke="black" fill="transparent" stroke-width="0.500000"/>
    <polyline points="2481.612700 2326.598653, 2481.612700 2331.798663" stroke="black" fill="transparent" stroke-width="0.500000"/>
    <polyline points="2430.174397 2326.598646, 2440.725904 2326.598647" stroke="black" fill="transparent" stroke-width="0.500000"/>
    <polyline points="2445.925922 2326.598648, 2481.612700 2326.598653" stroke="black" fill="transparent" stroke-width="0.500000"/>
    <polyline points="2480.073100 2326.603603, 2485.273102 2326.603603" stroke="black" fill="transparent" stroke-width="0.500000"/>
    <polyline points="2480.073100 2326.603603, 2480.073100 2356.310073" stroke="black" fill="transparent" stroke-width="0.500000"/>
    <polyline points="2485.273102 2326.603603, 2485.273102 2356.310073" stroke="black" fill="transparent" stroke-width="0.500000"/>
    <polyline points="2425.027667 2331.798663, 2481.612700 2331.798663" stroke="black" fill="transparent" stroke-width="0.500000"/>
    <polyline points="2413.605291 2336.923707, 2413.605291 2342.123717" stroke="black" fill="transparent" stroke-width="0.500000"/>
    <polyline points="2413.605291 2342.123717, 2426.765618 2342.123717" stroke="black" fill="transparent" stroke-width="0.500000"/>
    <polyline points="2424.974395 2342.126405, 2430.174397 2342.126405" stroke="black" fill="transparent" stroke-width="0.500000"/>
    <polyline points="2480.073100 2356.310073, 2485.273102 2356.310073" stroke="black" fill="transparent" stroke-width="0.500000"/>
    <polyline points="2470.780459 2351.104711, 2480.438167 2351.104711" stroke="black" fill="transparent" stroke-width="0.500000"/>
    <polyline points="2470.780459 2351.104711, 2470.780459 2356.304696" stroke="black" fill="transparent" stroke-width="0.500000"/>
    <polyline points="2470.780459 2356.304696, 2480.438167 2356.304696" stroke="black" fill="transparent" stroke-width="0.500000"/>
  </g>
</svg>
