<svg version="1.1" baseProfile="full" width="4400" height="4400" xmlns="http://www.w3.org/2000/svg">
  <g stroke-linejoin="round" stroke-linecap="round">
    <polyline points="2499.865830 2094.463810, 2499.865830 2087.040381, 2473.597136 2094.463810, 2499.865830 2094.463810" stroke="rgb(231,231,231)" fill="transparent" stroke-width="1.000000"/>
    <polygon points="2499.865830 2094.463810, 2499.865830 2087.040381, 2473.597136 2094.463810," fill="rgb(231,231,231)"/>
    <polyline points="2473.597136 2094.463810, 2499.865830 2087.040381, 2456.147425 2087.040373, 2473.597136 2094.463810" stroke="rgb(231,231,231)" fill="transparent" stroke-width="1.000000"/>
    <polygon points="2473.597136 2094.463810, 2499.865830 2087.040381, 2456.147425 2087.040373," fill="rgb(231,231,231)"/>
    <polyline points="2456.147425 2087.040373, 2470.334223 2094.463810, 2473.597136 2094.463810, 2456.147425 2087.040373" stroke="rgb(231,231,231)" fill="transparent" stroke-width="1.000000"/>
    <polygon points="2456.147425 2087.040373, 2470.334223 2094.463810, 2473.597136 2094.463810," fill="rgb(231,231,231)"/>
    <polyline points="2456.147425 2094.463802, 2470.334223 2094.463810, 2456.147425 2087.040373, 2456.147425 2094.463802" stroke="rgb(231,231,231)" fill="transparent" stroke-width="1.000000"/>
    <polygon points="2456.147425 2094.463802, 2470.334223 2094.463810, 2456.147425 2087.040373," fill="rgb(231,231,231)"/>
    <polyline points="2473.597136 2094.463810, 2470.334223 2094.463810, 2473.597136 2094.716162, 2473.597136 2094.463810" stroke="rgb(231,231,231)" fill="transparent" stroke-width="1.000000"/>
    <polygon points="2473.597136 2094.463810, 2470.334223 2094.463810, 2473.597136 2094.716162," fill="rgb(231,231,231)"/>
    <polyline points="2470.334223 2094.463810, 2470.334223 2094.716162, 2473.597136 2094.716162, 2470.334223 2094.463810" stroke="rgb(231,231,231)" fill="transparent" stroke-width="1.000000"/>
    <polygon points="2470.334223 2094.463810, 2470.334223 2094.716162, 2473.597136 2094.716162," fill="rgb(231,231,231)"/>
    <polyline points="2473.597136 2094.716162, 2470.334223 2094.716162, 2465.521301 2102.431332, 2473.597136 2094.716162" stroke="rgb(231,231,231)" fill="transparent" stroke-width="1.000000"/>
    <polygon points="2473.597136 2094.716162, 2470.334223 2094.716162, 2465.521301 2102.431332," fill="rgb(231,231,231)"/>
    <polyline points="2470.334223 2094.716162, 2457.795191 2094.716154, 2465.521301 2102.431332, 2470.334223 2094.716162" stroke="rgb(231,231,231)" fill="transparent" stroke-width="1.000000"/>
    <polygon points="2470.334223 2094.716162, 2457.795191 2094.716154, 2465.521301 2102.431332," fill="rgb(231,231,231)"/>
    <polyline points="2481.470424 2102.431332, 2473.597136 2094.716162, 2465.521301 2102.431332, 2481.470424 2102.431332" stroke="rgb(231,231,231)" fill="transparent" stroke-width="1.000000"/>
    <polygon points="2481.470424 2102.431332, 2473.597136 2094.716162, 2465.521301 2102.431332," fill="rgb(231,231,231)"/>
    <polyline points="2481.470424 2094.716162, 2473.597136 2094.716162, 2481.470424 2102.431332, 2481.470424 2094.716162" stroke="rgb(231,231,231)" fill="transparent" stroke-width="1.000000"/>
    <polygon points="2481.470424 2094.716162, 2473.597136 2094.716162, 2481.470424 2102.431332," fill="rgb(231,231,231)"/>
    <polyline points="2457.795191 2158.471273, 2465.521301 2150.682052, 2457.795191 2129.808346, 2457.795191 2158.471273" stroke="rgb(231,231,231)" fill="transparent" stroke-width="1.000000"/>
    <polygon points="2457.795191 2158.471273, 2465.521301 2150.682052, 2457.795191 2129.808346," fill="rgb(231,231,231)"/>
    <polyline points="2465.521301 2150.682052, 2465.521301 2131.344336, 2457.795191 2129.808346, 2465.521301 2150.682052" stroke="rgb(231,231,231)" fill="transparent" stroke-width="1.000000"/>
    <polygon points="2465.521301 2150.682052, 2465.521301 2131.344336, 2457.795191 2129.808346," fill="rgb(231,231,231)"/>
    <polyline points="2465.521301 2121.348111, 2465.521301 2102.431332, 2457.795191 2126.508987, 2465.521301 2121.348111" stroke="rgb(231,231,231)" fill="transparent" stroke-width="1.000000"/>
    <polygon points="2465.521301 2121.348111, 2465.521301 2102.431332, 2457.795191 2126.508987," fill="rgb(231,231,231)"/>
    <polyline points="2465.521301 2102.431332, 2457.795191 2094.716154, 2457.795191 2126.508987, 2465.521301 2102.431332" stroke="rgb(231,231,231)" fill="transparent" stroke-width="1.000000"/>
    <polygon points="2465.521301 2102.431332, 2457.795191 2094.716154, 2457.795191 2126.508987," fill="rgb(231,231,231)"/>
    <polyline points="2457.795191 2129.808346, 2465.521301 2131.344336, 2457.795191 2126.508987, 2457.795191 2129.808346" stroke="rgb(231,231,231)" fill="transparent" stroke-width="1.000000"/>
    <polygon points="2457.795191 2129.808346, 2465.521301 2131.344336, 2457.795191 2126.508987," fill="rgb(231,231,231)"/>
    <polyline points="2465.521301 2131.344336, 2465.521301 2121.348111, 2457.795191 2126.508987, 2465.521301 2131.344336" stroke="rgb(231,231,231)" fill="transparent" stroke-width="1.000000"/>
    <polygon points="2465.521301 2131.344336, 2465.521301 2121.348111, 2457.795191 2126.508987," fill="rgb(231,231,231)"/>
    <polyline points="2481.624174 2150.682052, 2465.521301 2150.682052, 2473.800880 2158.471273, 2481.624174 2150.682052" stroke="rgb(231,231,231)" fill="transparent" stroke-width="1.000000"/>
    <polygon points="2481.624174 2150.682052, 2465.521301 2150.682052, 2473.800880 2158.471273," fill="rgb(231,231,231)"/>
    <polyline points="2465.521301 2150.682052, 2457.795191 2158.471273, 2473.800880 2158.471273, 2465.521301 2150.682052" stroke="rgb(231,231,231)" fill="transparent" stroke-width="1.000000"/>
    <polygon points="2465.521301 2150.682052, 2457.795191 2158.471273, 2473.800880 2158.471273," fill="rgb(231,231,231)"/>
    <polyline points="2457.422978 2130.886909, 2457.422978 2129.808346, 2455.075222 2130.886909, 2457.422978 2130.886909" stroke="rgb(231,231,231)" fill="transparent" stroke-width="1.000000"/>
    <polygon points="2457.422978 2130.886909, 2457.422978 2129.808346, 2455.075222 2130.886909," fill="rgb(231,231,231)"/>
    <polyline points="2457.422978 2126.146633, 2455.075222 2126.146633, 2457.422978 2126.508987, 2457.422978 2126.146633" stroke="rgb(231,231,231)" fill="transparent" stroke-width="1.000000"/>
    <polygon points="2457.422978 2126.146633, 2455.075222 2126.146633, 2457.422978 2126.508987," fill="rgb(231,231,231)"/>
    <polyline points="2455.075222 2121.526547, 2447.241290 2121.526547, 2455.075222 2126.146633, 2455.075222 2121.526547" stroke="rgb(231,231,231)" fill="transparent" stroke-width="1.000000"/>
    <polygon points="2455.075222 2121.526547, 2447.241290 2121.526547, 2455.075222 2126.146633," fill="rgb(231,231,231)"/>
    <polyline points="2447.241290 2121.526547, 2447.241290 2130.886909, 2455.075222 2126.146633, 2447.241290 2121.526547" stroke="rgb(231,231,231)" fill="transparent" stroke-width="1.000000"/>
    <polygon points="2447.241290 2121.526547, 2447.241290 2130.886909, 2455.075222 2126.146633," fill="rgb(231,231,231)"/>
    <polyline points="2447.241290 2130.886909, 2455.075222 2130.886909, 2455.075222 2126.146633, 2447.241290 2130.886909" stroke="rgb(231,231,231)" fill="transparent" stroke-width="1.000000"/>
    <polygon points="2447.241290 2130.886909, 2455.075222 2130.886909, 2455.075222 2126.146633," fill="rgb(231,231,231)"/>
    <polyline points="2455.075222 2130.886909, 2457.422978 2129.808346, 2455.075222 2126.146633, 2455.075222 2130.886909" stroke="rgb(231,231,231)" fill="transparent" stroke-width="1.000000"/>
    <polygon points="2455.075222 2130.886909, 2457.422978 2129.808346, 2455.075222 2126.146633," fill="rgb(231,231,231)"/>
    <polyline points="2457.422978 2129.808346, 2457.422978 2126.508987, 2455.075222 2126.146633, 2457.422978 2129.808346" stroke="rgb(231,231,231)" fill="transparent" stroke-width="1.000000"/>
    <polygon points="2457.422978 2129.808346, 2457.422978 2126.508987, 2455.075222 2126.146633," fill="rgb(231,231,231)"/>
    <polyline points="2457.422978 2129.808346, 2457.795191 2129.808346, 2457.422978 2126.508987, 2457.422978 2129.808346" stroke="rgb(231,231,231)" fill="transparent" stroke-width="1.000000"/>
    <polygon points="2457.422978 2129.808346, 2457.795191 2129.808346, 2457.422978 2126.508987," fill="rgb(231,231,231)"/>
    <polyline points="2457.795191 2129.808346, 2457.795191 2126.508987, 2457.422978 2126.508987, 2457.795191 2129.808346" stroke="rgb(231,231,231)" fill="transparent" stroke-width="1.000000"/>
    <polygon points="2457.795191 2129.808346, 2457.795191 2126.508987, 2457.422978 2126.508987," fill="rgb(231,231,231)"/>
    <polyline points="2465.041660 2131.339304, 2485.606435 2131.339316, 2465.041660 2121.350554, 2465.041660 2131.339304" stroke="rgb(231,231,231)" fill="transparent" stroke-width="1.000000"/>
    <polygon points="2465.041660 2131.339304, 2485.606435 2131.339316, 2465.041660 2121.350554," fill="rgb(231,231,231)"/>
    <polyline points="2485.606435 2131.339316, 2485.606435 2121.350554, 2465.041660 2121.350554, 2485.606435 2131.339316" stroke="rgb(231,231,231)" fill="transparent" stroke-width="1.000000"/>
    <polygon points="2485.606435 2131.339316, 2485.606435 2121.350554, 2465.041660 2121.350554," fill="rgb(231,231,231)"/>
    <polyline points="2474.732396 2096.746181, 2474.947269 2096.622115, 2473.586269 2094.761058, 2474.732396 2096.746181" stroke="rgb(103,103,103)" fill="transparent" stroke-width="1.000000"/>
    <polygon points="2474.732396 2096.746181, 2474.947269 2096.622115, 2473.586269 2094.761058," fill="rgb(103,103,103)"/>
    <polyline points="2474.947269 2096.622115, 2473.801109 2094.637001, 2473.586269 2094.761058, 2474.947269 2096.622115" stroke="rgb(103,103,103)" fill="transparent" stroke-width="1.000000"/>
    <polygon points="2474.947269 2096.622115, 2473.801109 2094.637001, 2473.586269 2094.761058," fill="rgb(103,103,103)"/>
    <polyline points="2469.752234 2095.558576, 2470.043458 2095.660628, 2470.079994 2094.623240, 2469.752234 2095.558576" stroke="rgb(103,103,103)" fill="transparent" stroke-width="1.000000"/>
    <polygon points="2469.752234 2095.558576, 2470.043458 2095.660628, 2470.079994 2094.623240," fill="rgb(103,103,103)"/>
    <polyline points="2470.043458 2095.660628, 2470.371218 2094.725300, 2470.079994 2094.623240, 2470.043458 2095.660628" stroke="rgb(103,103,103)" fill="transparent" stroke-width="1.000000"/>
    <polygon points="2470.043458 2095.660628, 2470.371218 2094.725300, 2470.079994 2094.623240," fill="rgb(103,103,103)"/>
    <polyline points="2465.519990 2148.626631, 2465.519990 2144.841549, 2464.516991 2148.626631, 2465.519990 2148.626631" stroke="rgb(103,103,103)" fill="transparent" stroke-width="1.000000"/>
    <polygon points="2465.519990 2148.626631, 2465.519990 2144.841549, 2464.516991 2148.626631," fill="rgb(103,103,103)"/>
    <polyline points="2465.519990 2144.841549, 2464.516991 2144.841549, 2464.516991 2148.626631, 2465.519990 2144.841549" stroke="rgb(103,103,103)" fill="transparent" stroke-width="1.000000"/>
    <polygon points="2465.519990 2144.841549, 2464.516991 2144.841549, 2464.516991 2148.626631," fill="rgb(103,103,103)"/>
    <polyline points="2458.736542 2147.121637, 2458.736542 2139.659533, 2457.806124 2147.121637, 2458.736542 2147.121637" stroke="rgb(103,103,103)" fill="transparent" stroke-width="1.000000"/>
    <polygon points="2458.736542 2147.121637, 2458.736542 2139.659533, 2457.806124 2147.121637," fill="rgb(103,103,103)"/>
    <polyline points="2458.736542 2139.659533, 2457.806124 2139.659533, 2457.806124 2147.121637, 2458.736542 2139.659533" stroke="rgb(103,103,103)" fill="transparent" stroke-width="1.000000"/>
    <polygon points="2458.736542 2139.659533, 2457.806124 2139.659533, 2457.806124 2147.121637," fill="rgb(103,103,103)"/>
    <polyline points="2458.736542 2117.606573, 2458.736542 2113.958350, 2457.806124 2117.606573, 2458.736542 2117.606573" stroke="rgb(103,103,103)" fill="transparent" stroke-width="1.000000"/>
    <polygon points="2458.736542 2117.606573, 2458.736542 2113.958350, 2457.806124 2117.606573," fill="rgb(103,103,103)"/>
    <polyline points="2458.736542 2113.958350, 2457.806124 2113.958350, 2457.806124 2117.606573, 2458.736542 2113.958350" stroke="rgb(103,103,103)" fill="transparent" stroke-width="1.000000"/>
    <polygon points="2458.736542 2113.958350, 2457.806124 2113.958350, 2457.806124 2117.606573," fill="rgb(103,103,103)"/>
    <polyline points="2449.729273 2124.888971, 2450.296952 2122.218406, 2448.205458 2124.565047, 2449.729273 2124.888971" stroke="rgb(103,103,103)" fill="transparent" stroke-width="1.000000"/>
    <polygon points="2449.729273 2124.888971, 2450.296952 2122.218406, 2448.205458 2124.565047," fill="rgb(103,103,103)"/>
    <polyline points="2450.296952 2122.218406, 2448.773170 2121.894490, 2448.205458 2124.565047, 2450.296952 2122.218406" stroke="rgb(103,103,103)" fill="transparent" stroke-width="1.000000"/>
    <polygon points="2450.296952 2122.218406, 2448.773170 2121.894490, 2448.205458 2124.565047," fill="rgb(103,103,103)"/>
    <polyline points="2460.047483 2158.470396, 2473.795536 2158.466929, 2465.748878 2155.247772, 2460.047483 2158.470396" stroke="rgb(103,103,103)" fill="transparent" stroke-width="1.000000"/>
    <polygon points="2460.047483 2158.470396, 2473.795536 2158.466929, 2465.748878 2155.247772," fill="rgb(103,103,103)"/>
    <polyline points="2459.969904 2157.148230, 2460.047483 2158.470396, 2463.286006 2154.956872, 2459.969904 2157.148230" stroke="rgb(103,103,103)" fill="transparent" stroke-width="1.000000"/>
    <polygon points="2459.969904 2157.148230, 2460.047483 2158.470396, 2463.286006 2154.956872," fill="rgb(103,103,103)"/>
    <polyline points="2460.047483 2158.470396, 2465.748878 2155.247772, 2463.286006 2154.956872, 2460.047483 2158.470396" stroke="rgb(103,103,103)" fill="transparent" stroke-width="1.000000"/>
    <polygon points="2460.047483 2158.470396, 2465.748878 2155.247772, 2463.286006 2154.956872," fill="rgb(103,103,103)"/>
    <polyline points="2465.748878 2155.247772, 2473.795536 2158.466929, 2467.649315 2154.064830, 2465.748878 2155.247772" stroke="rgb(103,103,103)" fill="transparent" stroke-width="1.000000"/>
    <polygon points="2465.748878 2155.247772, 2473.795536 2158.466929, 2467.649315 2154.064830," fill="rgb(103,103,103)"/>
    <polyline points="2467.649315 2154.064830, 2473.795536 2158.466929, 2469.220124 2150.682052, 2467.649315 2154.064830" stroke="rgb(103,103,103)" fill="transparent" stroke-width="1.000000"/>
    <polygon points="2467.649315 2154.064830, 2473.795536 2158.466929, 2469.220124 2150.682052," fill="rgb(103,103,103)"/>
    <polyline points="2473.795536 2158.466929, 2475.212431 2154.549631, 2469.220124 2150.682052, 2473.795536 2158.466929" stroke="rgb(103,103,103)" fill="transparent" stroke-width="1.000000"/>
    <polygon points="2473.795536 2158.466929, 2475.212431 2154.549631, 2469.220124 2150.682052," fill="rgb(103,103,103)"/>
    <polyline points="2475.212431 2154.549631, 2473.718268 2150.682052, 2469.220124 2150.682052, 2475.212431 2154.549631" stroke="rgb(103,103,103)" fill="transparent" stroke-width="1.000000"/>
    <polygon points="2475.212431 2154.549631, 2473.718268 2150.682052, 2469.220124 2150.682052," fill="rgb(103,103,103)"/>
    <polyline points="2465.327540 2121.347677, 2464.526334 2123.381023, 2467.813228 2121.348234, 2465.327540 2121.347677" stroke="rgb(103,103,103)" fill="transparent" stroke-width="1.000000"/>
    <polygon points="2465.327540 2121.347677, 2464.526334 2123.381023, 2467.813228 2121.348234," fill="rgb(103,103,103)"/>
    <polyline points="2465.580048 2125.860974, 2467.809474 2125.961879, 2464.526334 2123.381023, 2465.580048 2125.860974" stroke="rgb(103,103,103)" fill="transparent" stroke-width="1.000000"/>
    <polygon points="2465.580048 2125.860974, 2467.809474 2125.961879, 2464.526334 2123.381023," fill="rgb(103,103,103)"/>
    <polyline points="2467.809474 2125.961879, 2467.813228 2121.348234, 2464.526334 2123.381023, 2467.809474 2125.961879" stroke="rgb(103,103,103)" fill="transparent" stroke-width="1.000000"/>
    <polygon points="2467.809474 2125.961879, 2467.813228 2121.348234, 2464.526334 2123.381023," fill="rgb(103,103,103)"/>
    <polyline points="2485.604140 2126.117022, 2485.604140 2121.345620, 2467.650151 2126.117022, 2485.604140 2126.117022" stroke="rgb(103,103,103)" fill="transparent" stroke-width="1.000000"/>
    <polygon points="2485.604140 2126.117022, 2485.604140 2121.345620, 2467.650151 2126.117022," fill="rgb(103,103,103)"/>
    <polyline points="2485.604140 2121.345620, 2467.650151 2121.345620, 2467.650151 2126.117022, 2485.604140 2121.345620" stroke="rgb(103,103,103)" fill="transparent" stroke-width="1.000000"/>
    <polygon points="2485.604140 2121.345620, 2467.650151 2121.345620, 2467.650151 2126.117022," fill="rgb(103,103,103)"/>
    <polyline points="2505.510789 2162.618459, 2475.722855 2162.618455, 2505.510789 2170.534874, 2505.510789 2162.618459" stroke="rgb(103,103,103)" fill="transparent" stroke-width="1.000000"/>
    <polygon points="2505.510789 2162.618459, 2475.722855 2162.618455, 2505.510789 2170.534874," fill="rgb(103,103,103)"/>
    <polyline points="2475.722855 2162.618455, 2475.722855 2170.534872, 2505.510789 2170.534874, 2475.722855 2162.618455" stroke="rgb(103,103,103)" fill="transparent" stroke-width="1.000000"/>
    <polygon points="2475.722855 2162.618455, 2475.722855 2170.534872, 2505.510789 2170.534874," fill="rgb(103,103,103)"/>
    <polyline points="2473.704712 2150.682052, 2473.704712 2170.541113, 2481.621093 2150.682052, 2473.704712 2150.682052" stroke="rgb(103,103,103)" fill="transparent" stroke-width="1.000000"/>
    <polygon points="2473.704712 2150.682052, 2473.704712 2170.541113, 2481.621093 2150.682052," fill="rgb(103,103,103)"/>
    <polyline points="2473.704712 2170.541113, 2481.621093 2170.541113, 2481.621093 2150.682052, 2473.704712 2170.541113" stroke="rgb(103,103,103)" fill="transparent" stroke-width="1.000000"/>
    <polygon points="2473.704712 2170.541113, 2481.621093 2170.541113, 2481.621093 2150.682052," fill="rgb(103,103,103)"/>
    <polyline points="2501.771119 2167.700572, 2491.884065 2167.700572, 2501.771119 2190.508534, 2501.771119 2167.700572" stroke="rgb(103,103,103)" fill="transparent" stroke-width="1.000000"/>
    <polygon points="2501.771119 2167.700572, 2491.884065 2167.700572, 2501.771119 2190.508534," fill="rgb(103,103,103)"/>
    <polyline points="2491.884065 2167.700572, 2491.884065 2190.508533, 2501.771119 2190.508534, 2491.884065 2167.700572" stroke="rgb(103,103,103)" fill="transparent" stroke-width="1.000000"/>
    <polygon points="2491.884065 2167.700572, 2491.884065 2190.508533, 2501.771119 2190.508534," fill="rgb(103,103,103)"/>
    <polyline points="2480.707279 2126.714894, 2480.707279 2125.990457, 2467.650856 2126.714894, 2480.707279 2126.714894" stroke="rgb(103,103,103)" fill="transparent" stroke-width="1.000000"/>
    <polygon points="2480.707279 2126.714894, 2480.707279 2125.990457, 2467.650856 2126.714894," fill="rgb(103,103,103)"/>
    <polyline points="2480.707279 2125.990457, 2467.650856 2125.990457, 2467.650856 2126.714894, 2480.707279 2125.990457" stroke="rgb(103,103,103)" fill="transparent" stroke-width="1.000000"/>
    <polygon points="2480.707279 2125.990457, 2467.650856 2125.990457, 2467.650856 2126.714894," fill="rgb(103,103,103)"/>
    <polyline points="2470.334223 2094.712335, 2470.334223 2094.716162" stroke-dasharray="1.500000,2.000000" stroke-opacity="0.2" stroke="black" fill="transparent" stroke-width="0.500000"/>
    <polyline points="2470.047433 2094.716162, 2470.334223 2094.716162" stroke-dasharray="1.500000,2.000000" stroke-opacity="0.2" stroke="black" fill="transparent" stroke-width="0.500000"/>
    <polyline points="2465.521301 2121.347720, 2465.521301 2121.348111" stroke-dasharray="1.500000,2.000000" stroke-opacity="0.2" stroke="black" fill="transparent" stroke-width="0.500000"/>
    <polyline points="2465.521301 2121.348111, 2465.521301 2125.722713" stroke-dasharray="1.500000,2.000000" stroke-opacity="0.2" stroke="black" fill="transparent" stroke-width="0.500000"/>
    <polyline points="2465.041660 2121.350554, 2465.041660 2131.339304" stroke-dasharray="1.500000,2.000000" stroke-opacity="0.2" stroke="black" fill="transparent" stroke-width="0.500000"/>
    <polyline points="2465.041660 2121.350554, 2485.606435 2121.350554" stroke-dasharray="1.500000,2.000000" stroke-opacity="0.2" stroke="black" fill="transparent" stroke-width="0.500000"/>
    <polyline points="2467.650151 2126.117022, 2485.604140 2126.117022" stroke-dasharray="1.500000,2.000000" stroke-opacity="0.2" stroke="black" fill="transparent" stroke-width="0.500000"/>
    <polyline points="2465.041660 2131.339304, 2465.521301 2131.339304" stroke-dasharray="1.500000,2.000000" stroke-opacity="0.2" stroke="black" fill="transparent" stroke-width="0.500000"/>
    <polyline points="2473.718268 2150.682052, 2475.212431 2154.549631" stroke-dasharray="1.500000,2.000000" stroke-opacity="0.2" stroke="black" fill="transparent" stroke-width="0.500000"/>
    <polyline points="2481.621093 2162.618455, 2481.621093 2170.534872" stroke-dasharray="1.500000,2.000000" stroke-opacity="0.2" stroke="black" fill="transparent" stroke-width="0.500000"/>
    <polyline points="2473.795536 2158.466929, 2473.704712 2158.466952" stroke-dasharray="1.500000,2.000000" stroke-opacity="0.2" stroke="black" fill="transparent" stroke-width="0.500000"/>
    <polyline points="2481.621093 2150.685120, 2473.800880 2158.471273" stroke-dasharray="1.500000,2.000000" stroke-opacity="0.2" stroke="black" fill="transparent" stroke-width="0.500000"/>
    <polyline points="2475.212431 2154.549631, 2473.795536 2158.466929" stroke-dasharray="1.500000,2.000000" stroke-opacity="0.2" stroke="black" fill="transparent" stroke-width="0.500000"/>
    <polyline points="2475.722855 2162.618455, 2475.722855 2170.534872" stroke-dasharray="1.500000,2.000000" stroke-opacity="0.2" stroke="black" fill="transparent" stroke-width="0.500000"/>
    <polyline points="2475.722855 2170.534872, 2481.621093 2170.534872" stroke-dasharray="1.500000,2.000000" stroke-opacity="0.2" stroke="black" fill="transparent" stroke-width="0.500000"/>
    <polyline points="2491.884065 2167.700572, 2491.884065 2170.534873" stroke-dasharray="1.500000,2.000000" stroke-opacity="0.2" stroke="black" fill="transparent" stroke-width="0.500000"/>
    <polyline points="2475.722855 2162.618455, 2481.621093 2162.618455" stroke-dasharray="1.500000,2.000000" stroke-opacity="0.2" stroke="black" fill="transparent" stroke-width="0.500000"/>
    <polyline points="2473.704712 2150.682052, 2473.704712 2170.541113" stroke="black" fill="transparent" stroke-width="0.500000"/>
    <polyline points="2473.704712 2150.682052, 2481.621093 2150.682052" stroke="black" fill="transparent" stroke-width="0.500000"/>
    <polyline points="2480.707279 2125.990457, 2480.707279 2126.714894" stroke="black" fill="transparent" stroke-width="0.500000"/>
    <polyline points="2467.650856 2125.990457, 2480.707279 2125.990457" stroke="black" fill="transparent" stroke-width="0.500000"/>
    <polyline points="2465.327540 2121.347677, 2464.526334 2123.381023" stroke="black" fill="transparent" stroke-width="0.500000"/>
    <polyline points="2465.327540 2121.347677, 2467.813228 2121.348234" stroke="black" fill="transparent" stroke-width="0.500000"/>
    <polyline points="2485.604140 2121.345620, 2485.604140 2126.117022" stroke="black" fill="transparent" stroke-width="0.500000"/>
    <polyline points="2467.650151 2121.345620, 2485.604140 2121.345620" stroke="black" fill="transparent" stroke-width="0.500000"/>
    <polyline points="2474.947269 2096.622115, 2474.732396 2096.746181" stroke="black" fill="transparent" stroke-width="0.500000"/>
    <polyline points="2473.801109 2094.637001, 2474.947269 2096.622115" stroke="black" fill="transparent" stroke-width="0.500000"/>
    <polyline points="2473.801109 2094.637001, 2473.586269 2094.761058" stroke="black" fill="transparent" stroke-width="0.500000"/>
    <polyline points="2470.079994 2094.623240, 2469.752234 2095.558576" stroke="black" fill="transparent" stroke-width="0.500000"/>
    <polyline points="2470.079994 2094.623240, 2470.371218 2094.725300" stroke="black" fill="transparent" stroke-width="0.500000"/>
    <polyline points="2499.865830 2087.040381, 2499.865830 2094.463810" stroke="black" fill="transparent" stroke-width="0.500000"/>
    <polyline points="2456.147425 2087.040373, 2499.865830 2087.040381" stroke="black" fill="transparent" stroke-width="0.500000"/>
    <polyline points="2456.147425 2087.040373, 2456.147425 2094.463802" stroke="black" fill="transparent" stroke-width="0.500000"/>
    <polyline points="2473.597136 2094.463810, 2499.865830 2094.463810" stroke="black" fill="transparent" stroke-width="0.500000"/>
    <polyline points="2456.147425 2094.463802, 2470.334223 2094.463810" stroke="black" fill="transparent" stroke-width="0.500000"/>
    <polyline points="2470.334223 2094.463810, 2470.334223 2094.712335" stroke="black" fill="transparent" stroke-width="0.500000"/>
    <polyline points="2473.597136 2094.463810, 2473.597136 2094.716162" stroke="black" fill="transparent" stroke-width="0.500000"/>
    <polyline points="2470.371218 2094.725300, 2470.043458 2095.660628" stroke="black" fill="transparent" stroke-width="0.500000"/>
    <polyline points="2457.795191 2094.716154, 2470.047433 2094.716162" stroke="black" fill="transparent" stroke-width="0.500000"/>
    <polyline points="2457.795191 2094.716154, 2457.795191 2126.508987" stroke="black" fill="transparent" stroke-width="0.500000"/>
    <polyline points="2473.597136 2094.716162, 2481.470424 2094.716162" stroke="black" fill="transparent" stroke-width="0.500000"/>
    <polyline points="2481.470424 2094.716162, 2481.470424 2102.431332" stroke="black" fill="transparent" stroke-width="0.500000"/>
    <polyline points="2473.586269 2094.761058, 2474.732396 2096.746181" stroke="black" fill="transparent" stroke-width="0.500000"/>
    <polyline points="2469.752234 2095.558576, 2470.043458 2095.660628" stroke="black" fill="transparent" stroke-width="0.500000"/>
    <polyline points="2458.736542 2113.958350, 2458.736542 2117.606573" stroke="black" fill="transparent" stroke-width="0.500000"/>
    <polyline points="2457.806124 2113.958350, 2458.736542 2113.958350" stroke="black" fill="transparent" stroke-width="0.500000"/>
    <polyline points="2465.521301 2102.431332, 2481.470424 2102.431332" stroke="black" fill="transparent" stroke-width="0.500000"/>
    <polyline points="2465.521301 2102.431332, 2465.521301 2121.347720" stroke="black" fill="transparent" stroke-width="0.500000"/>
    <polyline points="2457.806124 2113.958350, 2457.806124 2117.606573" stroke="black" fill="transparent" stroke-width="0.500000"/>
    <polyline points="2457.806124 2117.606573, 2458.736542 2117.606573" stroke="black" fill="transparent" stroke-width="0.500000"/>
    <polyline points="2467.650151 2121.345620, 2467.650151 2126.117022" stroke="black" fill="transparent" stroke-width="0.500000"/>
    <polyline points="2465.521301 2125.722713, 2465.521301 2131.344336" stroke="black" fill="transparent" stroke-width="0.500000"/>
    <polyline points="2465.580048 2125.860974, 2467.809474 2125.961879" stroke="black" fill="transparent" stroke-width="0.500000"/>
    <polyline points="2464.526334 2123.381023, 2465.580048 2125.860974" stroke="black" fill="transparent" stroke-width="0.500000"/>
    <polyline points="2467.813228 2121.348234, 2467.809474 2125.961879" stroke="black" fill="transparent" stroke-width="0.500000"/>
    <polyline points="2450.296952 2122.218406, 2449.729273 2124.888971" stroke="black" fill="transparent" stroke-width="0.500000"/>
    <polyline points="2448.773170 2121.894490, 2450.296952 2122.218406" stroke="black" fill="transparent" stroke-width="0.500000"/>
    <polyline points="2447.241290 2121.526547, 2455.075222 2121.526547" stroke="black" fill="transparent" stroke-width="0.500000"/>
    <polyline points="2485.606435 2121.350554, 2485.606435 2131.339316" stroke="black" fill="transparent" stroke-width="0.500000"/>
    <polyline points="2455.075222 2121.526547, 2455.075222 2126.146633" stroke="black" fill="transparent" stroke-width="0.500000"/>
    <polyline points="2447.241290 2121.526547, 2447.241290 2130.886909" stroke="black" fill="transparent" stroke-width="0.500000"/>
    <polyline points="2448.773170 2121.894490, 2448.205458 2124.565047" stroke="black" fill="transparent" stroke-width="0.500000"/>
    <polyline points="2448.205458 2124.565047, 2449.729273 2124.888971" stroke="black" fill="transparent" stroke-width="0.500000"/>
    <polyline points="2467.650856 2125.990457, 2467.650856 2126.714894" stroke="black" fill="transparent" stroke-width="0.500000"/>
    <polyline points="2467.650856 2126.714894, 2480.707279 2126.714894" stroke="black" fill="transparent" stroke-width="0.500000"/>
    <polyline points="2455.075222 2126.146633, 2457.422978 2126.146633" stroke="black" fill="transparent" stroke-width="0.500000"/>
    <polyline points="2457.422978 2126.146633, 2457.422978 2126.508987" stroke="black" fill="transparent" stroke-width="0.500000"/>
    <polyline points="2457.422978 2126.508987, 2457.795191 2126.508987" stroke="black" fill="transparent" stroke-width="0.500000"/>
    <polyline points="2469.220124 2150.682052, 2467.649315 2154.064830" stroke="black" fill="transparent" stroke-width="0.500000"/>
    <polyline points="2469.220124 2150.682052, 2473.718268 2150.682052" stroke="black" fill="transparent" stroke-width="0.500000"/>
    <polyline points="2465.519990 2144.841549, 2465.519990 2148.626631" stroke="black" fill="transparent" stroke-width="0.500000"/>
    <polyline points="2464.516991 2144.841549, 2465.519990 2144.841549" stroke="black" fill="transparent" stroke-width="0.500000"/>
    <polyline points="2458.736542 2139.659533, 2458.736542 2147.121637" stroke="black" fill="transparent" stroke-width="0.500000"/>
    <polyline points="2457.806124 2139.659533, 2458.736542 2139.659533" stroke="black" fill="transparent" stroke-width="0.500000"/>
    <polyline points="2457.422978 2129.808346, 2457.422978 2130.886909" stroke="black" fill="transparent" stroke-width="0.500000"/>
    <polyline points="2457.422978 2129.808346, 2457.795191 2129.808346" stroke="black" fill="transparent" stroke-width="0.500000"/>
    <polyline points="2457.795191 2129.808346, 2457.795191 2158.471273" stroke="black" fill="transparent" stroke-width="0.500000"/>
    <polyline points="2465.521301 2131.344336, 2465.521301 2150.682052" stroke="black" fill="transparent" stroke-width="0.500000"/>
    <polyline points="2455.075222 2130.886909, 2457.422978 2130.886909" stroke="black" fill="transparent" stroke-width="0.500000"/>
    <polyline points="2447.241290 2130.886909, 2455.075222 2130.886909" stroke="black" fill="transparent" stroke-width="0.500000"/>
    <polyline points="2465.521301 2131.339304, 2485.606435 2131.339316" stroke="black" fill="transparent" stroke-width="0.500000"/>
    <polyline points="2457.806124 2139.659533, 2457.806124 2147.121637" stroke="black" fill="transparent" stroke-width="0.500000"/>
    <polyline points="2464.516991 2144.841549, 2464.516991 2148.626631" stroke="black" fill="transparent" stroke-width="0.500000"/>
    <polyline points="2464.516991 2148.626631, 2465.519990 2148.626631" stroke="black" fill="transparent" stroke-width="0.500000"/>
    <polyline points="2457.806124 2147.121637, 2458.736542 2147.121637" stroke="black" fill="transparent" stroke-width="0.500000"/>
    <polyline points="2465.521301 2150.682052, 2481.624174 2150.682052" stroke="black" fill="transparent" stroke-width="0.500000"/>
    <polyline points="2481.621093 2150.682052, 2481.621093 2162.618455" stroke="black" fill="transparent" stroke-width="0.500000"/>
    <polyline points="2481.621093 2170.534872, 2481.621093 2170.541113" stroke="black" fill="transparent" stroke-width="0.500000"/>
    <polyline points="2473.704712 2158.466952, 2460.047483 2158.470396" stroke="black" fill="transparent" stroke-width="0.500000"/>
    <polyline points="2463.286006 2154.956872, 2459.969904 2157.148230" stroke="black" fill="transparent" stroke-width="0.500000"/>
    <polyline points="2463.286006 2154.956872, 2465.748878 2155.247772" stroke="black" fill="transparent" stroke-width="0.500000"/>
    <polyline points="2467.649315 2154.064830, 2465.748878 2155.247772" stroke="black" fill="transparent" stroke-width="0.500000"/>
    <polyline points="2481.624174 2150.682052, 2481.621093 2150.685120" stroke="black" fill="transparent" stroke-width="0.500000"/>
    <polyline points="2459.969904 2157.148230, 2460.047483 2158.470396" stroke="black" fill="transparent" stroke-width="0.500000"/>
    <polyline points="2457.795191 2158.471273, 2473.800880 2158.471273" stroke="black" fill="transparent" stroke-width="0.500000"/>
    <polyline points="2505.510789 2162.618459, 2505.510789 2170.534874" stroke="black" fill="transparent" stroke-width="0.500000"/>
    <polyline points="2481.621093 2170.534872, 2505.510789 2170.534874" stroke="black" fill="transparent" stroke-width="0.500000"/>
    <polyline points="2491.884065 2167.700572, 2501.771119 2167.700572" stroke="black" fill="transparent" stroke-width="0.500000"/>
    <polyline points="2491.884065 2170.534873, 2491.884065 2190.508533" stroke="black" fill="transparent" stroke-width="0.500000"/>
    <polyline points="2501.771119 2167.700572, 2501.771119 2190.508535" stroke="black" fill="transparent" stroke-width="0.500000"/>
    <polyline points="2473.704712 2170.541113, 2481.621093 2170.541113" stroke="black" fill="transparent" stroke-width="0.500000"/>
    <polyline points="2491.884065 2190.508533, 2501.771119 2190.508534" stroke="black" fill="transparent" stroke-width="0.500000"/>
    <polyline points="2481.621093 2162.618455, 2505.510789 2162.618459" stroke="black" fill="transparent" stroke-width="0.500000"/>
  </g>
</svg>
